<?xml version="1.0" encoding="utf-8"?>
<!-- Generator: Adobe Illustrator 15.0.0, SVG Export Plug-In . SVG Version: 6.00 Build 0)  -->
<!DOCTYPE svg PUBLIC "-//W3C//DTD SVG 1.1//EN" "http://www.w3.org/Graphics/SVG/1.1/DTD/svg11.dtd">
<svg version="1.1" id="Layer_1" xmlns="http://www.w3.org/2000/svg" xmlns:xlink="http://www.w3.org/1999/xlink" x="0px" y="0px"
	 width="916px" height="309px" viewBox="0 0 916 309" enable-background="new 0 0 916 309" xml:space="preserve">
<g id="Layer_1_1_">
	<path fill="#CCCCCC" d="M24.5,12.9h869c5.5,0,10,4.5,10,10v272c0,5.5-4.5,10-10,10h-869c-5.5,0-10-4.5-10-10v-272
		C14.5,17.4,19,12.9,24.5,12.9z"/>
	<path fill="#0E221C" d="M0,238.1h916l-14,10H14L0,238.1z"/>
	<path fill="#322D36" d="M24.5,7.9h869c5.5,0,10,4.5,10,10v272c0,5.5-4.5,10-10,10h-869c-5.5,0-10-4.5-10-10v-272
		C14.5,12.4,19,7.9,24.5,7.9z"/>
	<path fill="#FFA471" d="M384.7,30.3c-7.2,0-14,1.3-20.3,3.9c-6.3,2.6-11.8,6.1-16.4,10.6c-4.7,4.5-8.3,9.7-11,15.8
		c-2.7,6-4,12.5-4,19.5v142.5c0,6.9,1.3,13.4,4,19.5c2.7,6,6.4,11.3,11,15.8c4.7,4.5,10.1,8,16.4,10.6c6.3,2.6,13.1,3.9,20.3,3.9
		H533c7,0,13.6-1.3,19.9-3.9c6.3-2.6,11.8-6.1,16.6-10.6s8.5-9.7,11.2-15.8c2.7-6,4-12.5,4-19.5V80c0-6.9-1.3-13.4-4-19.5
		c-2.7-6-6.4-11.3-11.2-15.8s-10.3-8-16.6-10.6c-6.3-2.6-12.9-3.9-19.9-3.9L384.7,30.3L384.7,30.3z M387.1,82.7h142.7v137.1H387.1
		V82.7z"/>
	<path fill="#E9541D" d="M384.7,31.2c-7.2,0-14,1.3-20.3,3.9c-6.3,2.6-11.8,6.1-16.4,10.6c-4.7,4.5-8.3,9.7-11,15.8
		c-2.7,6-4,12.5-4,19.5v142.5c0,6.9,1.3,13.4,4,19.5c2.7,6,6.4,11.3,11,15.8c4.7,4.5,10.1,8,16.4,10.6c6.3,2.6,13.1,3.9,20.3,3.9
		H533c7,0,13.6-1.3,19.9-3.9c6.3-2.6,11.8-6.1,16.6-10.6s8.5-9.7,11.2-15.8c2.7-6,4-12.5,4-19.5V80.9c0-6.9-1.3-13.4-4-19.5
		c-2.7-6-6.4-11.3-11.2-15.8s-10.3-8-16.6-10.6c-6.3-2.6-12.9-3.9-19.9-3.9H384.7V31.2z M387.1,83.6h142.7v137.1H387.1V83.6z"/>
	<path opacity="0.5" fill="#322D36" enable-background="new    " d="M14.5,193.1h889v49.6h-889V193.1z"/>
	<path fill="#76E5FF" d="M0,186.6h916v51H0V186.6z"/>
	<g>
		<path fill="#FFFFFF" d="M311.4,66.7c1.1,0,2.2,0.2,3.2,0.6c1,0.4,1.9,1,2.7,1.8c0.8,0.7,1.4,1.6,1.8,2.6c0.4,1,0.6,2.1,0.6,3.3
			v23.8c0,1.2-0.2,2.2-0.6,3.3c-0.4,1-1,1.9-1.8,2.6c-0.8,0.7-1.7,1.3-2.7,1.8c-1,0.4-2.1,0.6-3.2,0.6h-23.8c-1.2,0-2.2-0.2-3.3-0.6
			c-1-0.4-1.9-1-2.6-1.8c-0.7-0.7-1.3-1.6-1.8-2.6c-0.4-1-0.6-2.1-0.6-3.3V75c0-1.2,0.2-2.2,0.6-3.3c0.4-1,1-1.9,1.8-2.6
			c0.7-0.7,1.6-1.3,2.6-1.8c1-0.4,2.1-0.6,3.3-0.6H311.4z M288,98.3h22.9V75.4H288V98.3z"/>
		<path fill="#FFFFFF" d="M364.9,74.5c1.1,0,2.2,0.2,3.2,0.6s1.9,1,2.6,1.8c0.7,0.7,1.3,1.6,1.7,2.6c0.4,1,0.6,2,0.6,3.1V107h-8.5
			V83.1h-10.8V107h-8.6V83.1h-10.8V107h-8.6V74.5H364.9z"/>
		<path fill="#FFFFFF" d="M403.6,74.5c1.1,0,2.2,0.2,3.2,0.6s1.9,1,2.6,1.8c0.7,0.7,1.3,1.6,1.7,2.6c0.4,1,0.6,2,0.6,3.1V107h-24.8
			c-1.1,0-2.2-0.2-3.2-0.6s-1.9-1-2.6-1.8c-0.7-0.7-1.3-1.6-1.7-2.6c-0.4-1-0.6-2-0.6-3.1V86.5h24.4v-3.4h-24.4v-8.6H403.6z
			 M403.1,94h-15.8v4.5h15.8V94z"/>
		<path fill="#FFFFFF" d="M442.3,74.5v8.6h-17.5V107h-8.6V82.7c0-1.1,0.2-2.2,0.6-3.1c0.4-1,1-1.8,1.8-2.6c0.7-0.7,1.6-1.3,2.6-1.8
			c1-0.4,2-0.6,3.2-0.6h17.9V74.5z"/>
		<path fill="#FFFFFF" d="M496.1,66.7c1.2,0,2.2,0.2,3.3,0.6c1,0.4,1.9,1,2.6,1.8c0.7,0.7,1.3,1.6,1.8,2.6c0.4,1,0.7,2.1,0.7,3.3
			v32.1h-8.8v-13h-22.9v13H464V75c0-1.2,0.2-2.2,0.6-3.3c0.4-1.1,1-1.9,1.8-2.6c0.7-0.7,1.6-1.3,2.6-1.8c1-0.4,2.1-0.6,3.3-0.6
			H496.1z M495.6,85.3v-9.9h-22.9v9.9H495.6z"/>
		<path fill="#FFFFFF" d="M519.2,63.8v34.7h6.6v8.6h-7.1c-1.1,0-2.2-0.2-3.1-0.6c-1-0.4-1.8-1-2.6-1.8c-0.7-0.7-1.3-1.6-1.8-2.6
			c-0.4-1-0.6-2-0.6-3.1V63.8H519.2z"/>
		<path fill="#FFFFFF" d="M554.6,74.5c1.1,0,2.2,0.2,3.2,0.6s1.9,1,2.6,1.8c0.7,0.7,1.3,1.6,1.7,2.6c0.4,1,0.6,2,0.6,3.1v16.3
			c0,1.1-0.2,2.2-0.6,3.1c-0.4,1-1,1.8-1.7,2.6c-0.7,0.7-1.6,1.3-2.6,1.8c-1,0.4-2,0.6-3.2,0.6h-24.8V63.9h8.6v10.7h16.2V74.5z
			 M538.3,98.5h15.8V83.1h-15.8V98.5z"/>
		<path fill="#FFFFFF" d="M591.8,74.5c1.1,0,2.2,0.2,3.2,0.6s1.8,1,2.6,1.8c0.7,0.7,1.3,1.6,1.7,2.6c0.4,1,0.6,2,0.6,3.1V95h-24.4
			v3.4h24.4v8.6h-24.8c-1.1,0-2.2-0.2-3.1-0.6c-1-0.4-1.8-1-2.6-1.8c-0.7-0.7-1.3-1.6-1.8-2.6c-0.4-1-0.6-2-0.6-3.1V82.7
			c0-1.1,0.2-2.2,0.6-3.1c0.4-1,1-1.8,1.8-2.6c0.7-0.7,1.6-1.3,2.6-1.8c1-0.4,2-0.6,3.1-0.6h16.7V74.5z M591.4,87.6v-4.5h-15.8v4.5
			H591.4z"/>
		<path fill="#FFFFFF" d="M614.4,63.9v8.6h-8.6v-8.6H614.4z M605.8,74.5h8.6V107h-8.6V74.5z"/>
		<path fill="#FFFFFF" d="M652,74.5v2.9l-12.1,13.3L652,104v2.9h-8.6l-11-11.9H628v11.9h-8.6v-43h8.6v22.6h4.4l11-11.9h8.6V74.5z"/>
	</g>
	<g opacity="0.35">
		<path fill="#222222" d="M311.4,69.5c1.1,0,2.2,0.2,3.2,0.6s1.9,1,2.7,1.8c0.8,0.7,1.4,1.6,1.8,2.6c0.4,1,0.6,2.1,0.6,3.3v23.8
			c0,1.2-0.2,2.2-0.6,3.3c-0.4,1-1,1.9-1.8,2.6s-1.7,1.3-2.7,1.8c-1,0.4-2.1,0.6-3.2,0.6h-23.8c-1.2,0-2.2-0.2-3.3-0.6
			c-1-0.4-1.9-1-2.6-1.8c-0.7-0.7-1.3-1.6-1.8-2.6c-0.4-1-0.6-2.1-0.6-3.3V77.8c0-1.2,0.2-2.2,0.6-3.3c0.4-1,1-1.9,1.8-2.6
			c0.7-0.7,1.6-1.3,2.6-1.8c1-0.4,2.1-0.6,3.3-0.6H311.4z M288,101.1h22.9V78.3H288V101.1z"/>
		<path fill="#222222" d="M364.9,77.4c1.1,0,2.2,0.2,3.2,0.6s1.9,1,2.6,1.8c0.7,0.7,1.3,1.6,1.7,2.6c0.4,1,0.6,2,0.6,3.1v24.4h-8.5
			V86h-10.8v23.9h-8.6V86h-10.8v23.9h-8.6V77.4H364.9z"/>
		<path fill="#222222" d="M403.6,77.4c1.1,0,2.2,0.2,3.2,0.6s1.9,1,2.6,1.8c0.7,0.7,1.3,1.6,1.7,2.6c0.4,1,0.6,2,0.6,3.1v24.4h-24.8
			c-1.1,0-2.2-0.2-3.2-0.6c-1-0.4-1.9-1-2.6-1.8c-0.7-0.7-1.3-1.6-1.7-2.6c-0.4-1-0.6-2-0.6-3.1V89.3h24.4V86h-24.4v-8.6H403.6z
			 M403.1,96.8h-15.8v4.5h15.8V96.8z"/>
		<path fill="#222222" d="M442.3,77.4V86h-17.5v23.9h-8.6V85.5c0-1.1,0.2-2.2,0.6-3.1c0.4-1,1-1.8,1.8-2.6c0.7-0.7,1.6-1.3,2.6-1.8
			c1-0.4,2-0.6,3.2-0.6H442.3z"/>
		<path fill="#222222" d="M496.1,69.5c1.2,0,2.2,0.2,3.3,0.6c1,0.4,1.9,1,2.6,1.8c0.7,0.7,1.3,1.6,1.8,2.6c0.4,1,0.7,2.1,0.7,3.3
			v32.1h-8.8v-13h-22.9v13H464V77.8c0-1.2,0.2-2.2,0.6-3.3c0.4-1.1,1-1.9,1.8-2.6c0.7-0.7,1.6-1.3,2.6-1.8c1-0.4,2.1-0.6,3.3-0.6
			H496.1z M495.6,88.1v-9.9h-22.9v9.9H495.6z"/>
		<path fill="#222222" d="M519.2,66.7v34.7h6.6v8.6h-7.1c-1.1,0-2.2-0.2-3.1-0.6c-1-0.4-1.8-1-2.6-1.8c-0.7-0.7-1.3-1.6-1.8-2.6
			c-0.4-1-0.6-2-0.6-3.1V66.7H519.2z"/>
		<path fill="#222222" d="M554.6,77.4c1.1,0,2.2,0.2,3.2,0.6s1.9,1,2.6,1.8c0.7,0.7,1.3,1.6,1.7,2.6c0.4,1,0.6,2,0.6,3.1v16.3
			c0,1.1-0.2,2.2-0.6,3.1c-0.4,1-1,1.8-1.7,2.6c-0.7,0.7-1.6,1.3-2.6,1.8c-1,0.4-2,0.6-3.2,0.6h-24.8V66.7h8.6v10.7H554.6z
			 M538.3,101.3h15.8V86h-15.8V101.3z"/>
		<path fill="#222222" d="M591.8,77.4c1.1,0,2.2,0.2,3.2,0.6s1.8,1,2.6,1.8c0.7,0.7,1.3,1.6,1.7,2.6c0.4,1,0.6,2,0.6,3.1v12.4h-24.4
			v3.4h24.4v8.6h-24.8c-1.1,0-2.2-0.2-3.1-0.6c-1-0.4-1.8-1-2.6-1.8c-0.7-0.7-1.3-1.6-1.8-2.6c-0.4-1-0.6-2-0.6-3.1V85.5
			c0-1.1,0.2-2.2,0.6-3.1c0.4-1,1-1.8,1.8-2.6c0.7-0.7,1.6-1.3,2.6-1.8c1-0.4,2-0.6,3.1-0.6H591.8z M591.4,90.4V86h-15.8v4.5h15.8
			V90.4z"/>
		<path fill="#222222" d="M614.4,66.7v8.6h-8.6v-8.6H614.4z M605.8,77.4h8.6v32.5h-8.6V77.4z"/>
		<path fill="#222222" d="M652,77.4v2.9l-12.1,13.3L652,107v2.9h-8.6l-11-11.9H628v11.9h-8.6V66.7h8.6v22.6h4.4l11-11.9H652z"/>
	</g>
	<g>
		<path fill="#DDDDDD" d="M311.4,67.5c1.1,0,2.2,0.2,3.2,0.6s1.9,1,2.7,1.8c0.8,0.7,1.4,1.6,1.8,2.6c0.4,1,0.6,2.1,0.6,3.3v23.8
			c0,1.2-0.2,2.2-0.6,3.3c-0.4,1-1,1.9-1.8,2.6s-1.7,1.3-2.7,1.8c-1,0.4-2.1,0.6-3.2,0.6h-23.8c-1.2,0-2.2-0.2-3.3-0.6
			c-1-0.4-1.9-1-2.6-1.8c-0.7-0.7-1.3-1.6-1.8-2.6c-0.4-1-0.6-2.1-0.6-3.3V75.8c0-1.2,0.2-2.2,0.6-3.3c0.4-1,1-1.9,1.8-2.6
			c0.7-0.7,1.6-1.3,2.6-1.8c1-0.4,2.1-0.6,3.3-0.6H311.4z M288,99.1h22.9V76.2H288V99.1z"/>
		<path fill="#DDDDDD" d="M364.9,75.3c1.1,0,2.2,0.2,3.2,0.6s1.9,1,2.6,1.8c0.7,0.7,1.3,1.6,1.7,2.6c0.4,1,0.6,2,0.6,3.1v24.4h-8.5
			V83.9h-10.8v23.9h-8.6V83.9h-10.8v23.9h-8.6V75.3H364.9z"/>
		<path fill="#DDDDDD" d="M403.6,75.3c1.1,0,2.2,0.2,3.2,0.6s1.9,1,2.6,1.8c0.7,0.7,1.3,1.6,1.7,2.6c0.4,1,0.6,2,0.6,3.1v24.4h-24.8
			c-1.1,0-2.2-0.2-3.2-0.6c-1-0.4-1.9-1-2.6-1.8c-0.7-0.7-1.3-1.6-1.7-2.6c-0.4-1-0.6-2-0.6-3.1V87.3h24.4v-3.4h-24.4v-8.6H403.6z
			 M403.1,94.8h-15.8v4.5h15.8V94.8z"/>
		<path fill="#DDDDDD" d="M442.3,75.3v8.6h-17.5v23.9h-8.6V83.5c0-1.1,0.2-2.2,0.6-3.1c0.4-1,1-1.8,1.8-2.6c0.7-0.7,1.6-1.3,2.6-1.8
			c1-0.4,2-0.6,3.2-0.6h17.9V75.3z"/>
		<path fill="#DDDDDD" d="M496.1,67.5c1.2,0,2.2,0.2,3.3,0.6c1,0.4,1.9,1,2.6,1.8c0.7,0.7,1.3,1.6,1.8,2.6c0.4,1,0.7,2.1,0.7,3.3
			v32.1h-8.8v-13h-22.9v13H464V75.8c0-1.2,0.2-2.2,0.6-3.3c0.4-1.1,1-1.9,1.8-2.6c0.7-0.7,1.6-1.3,2.6-1.8c1-0.4,2.1-0.6,3.3-0.6
			H496.1z M495.6,86.1v-9.9h-22.9v9.9H495.6z"/>
		<path fill="#DDDDDD" d="M519.2,64.6v34.7h6.6v8.6h-7.1c-1.1,0-2.2-0.2-3.1-0.6c-1-0.4-1.8-1-2.6-1.8c-0.7-0.7-1.3-1.6-1.8-2.6
			c-0.4-1-0.6-2-0.6-3.1V64.6H519.2z"/>
		<path fill="#DDDDDD" d="M554.6,75.3c1.1,0,2.2,0.2,3.2,0.6s1.9,1,2.6,1.8c0.7,0.7,1.3,1.6,1.7,2.6c0.4,1,0.6,2,0.6,3.1v16.3
			c0,1.1-0.2,2.2-0.6,3.1c-0.4,1-1,1.8-1.7,2.6c-0.7,0.7-1.6,1.3-2.6,1.8c-1,0.4-2,0.6-3.2,0.6h-24.8V64.7h8.6v10.7h16.2V75.3z
			 M538.3,99.3h15.8V83.9h-15.8V99.3z"/>
		<path fill="#DDDDDD" d="M591.8,75.3c1.1,0,2.2,0.2,3.2,0.6s1.8,1,2.6,1.8c0.7,0.7,1.3,1.6,1.7,2.6c0.4,1,0.6,2,0.6,3.1v12.4h-24.4
			v3.4h24.4v8.6h-24.8c-1.1,0-2.2-0.2-3.1-0.6c-1-0.4-1.8-1-2.6-1.8c-0.7-0.7-1.3-1.6-1.8-2.6c-0.4-1-0.6-2-0.6-3.1V83.5
			c0-1.1,0.2-2.2,0.6-3.1c0.4-1,1-1.8,1.8-2.6c0.7-0.7,1.6-1.3,2.6-1.8c1-0.4,2-0.6,3.1-0.6h16.7V75.3z M591.4,88.4v-4.5h-15.8v4.5
			H591.4z"/>
		<path fill="#DDDDDD" d="M614.4,64.7v8.6h-8.6v-8.6H614.4z M605.8,75.3h8.6v32.5h-8.6V75.3z"/>
		<path fill="#DDDDDD" d="M652,75.3v2.9l-12.1,13.3l12.1,13.3v2.9h-8.6l-11-11.9H628v11.9h-8.6v-43h8.6v22.6h4.4l11-11.9h8.6V75.3z"
			/>
	</g>
	<g>
		<polygon fill="none" points="374.5,255.9 377.2,255.9 377.2,255.9 		"/>
	</g>
	<path fill="#40BBE1" d="M0,187.5h916v51H0V187.5z"/>
</g>
<g id="Text">
	<g opacity="0.3">
		<path fill="#222222" d="M393.4,205.9l-4.2,11.5H388l-3.6-9.8l-3.6,9.8h-1.1l-4.2-11.5h1.4l3.4,9.3c1-2.8,2.3-6.4,3.4-9.3h1.6
			l3.4,9.3c1-2.8,2.3-6.4,3.3-9.3H393.4z"/>
		<path fill="#222222" d="M405.3,210.1v3.4h-8.1v2c0,0.3,0.3,0.6,0.6,0.6h7.5v1.3h-7.5c-1.1,0-1.9-0.9-1.9-1.9v-5.4
			c0-1.1,0.9-1.9,1.9-1.9h5.6C404.4,208.2,405.3,209,405.3,210.1z M404,212.1v-2c0-0.3-0.3-0.6-0.6-0.6h-5.6c-0.3,0-0.6,0.3-0.6,0.6
			v2H404z"/>
		<path fill="#222222" d="M418.1,210.1v5.4c0,1.1-0.9,1.9-1.9,1.9h-7.5v-12.3h1.3v3h6.2C417.3,208.2,418.1,209,418.1,210.1z
			 M416.8,210.1c0-0.3-0.3-0.6-0.6-0.6h-5.6c-0.4,0-0.6,0.3-0.6,0.6v5.4c0,0.3,0.3,0.6,0.6,0.6h5.6c0.3,0,0.6-0.3,0.6-0.6V210.1z"/>
		<path fill="#222222" d="M436.8,205.9c1.1,0,1.9,0.8,1.9,1.9v9.6h-1.3v-4.2h-8.9v4.2h-1.3v-9.6c0-1.1,0.8-1.9,1.9-1.9H436.8z
			 M437.5,211.9v-4.1c0-0.3-0.3-0.6-0.6-0.6h-7.7c-0.3,0-0.6,0.3-0.6,0.6v4.1H437.5z"/>
		<path fill="#222222" d="M451.7,210.1v5.4c0,1.1-0.9,1.9-1.9,1.9h-6.2v3.7h-1.3v-13h7.5C450.9,208.2,451.7,209,451.7,210.1z
			 M450.4,210.1c0-0.3-0.3-0.6-0.6-0.6h-5.6c-0.4,0-0.6,0.3-0.6,0.6v5.4c0,0.3,0.3,0.6,0.6,0.6h5.6c0.3,0,0.6-0.3,0.6-0.6V210.1z"/>
		<path fill="#222222" d="M464.1,210.1v5.4c0,1.1-0.9,1.9-1.9,1.9H456v3.7h-1.3v-13h7.5C463.2,208.2,464.1,209,464.1,210.1z
			 M462.8,210.1c0-0.3-0.3-0.6-0.6-0.6h-5.6c-0.4,0-0.6,0.3-0.6,0.6v5.4c0,0.3,0.3,0.6,0.6,0.6h5.6c0.3,0,0.6-0.3,0.6-0.6V210.1z"/>
		<path fill="#222222" d="M468.3,205.1v10.4c0,0.3,0.3,0.6,0.6,0.6h1.6v1.3h-1.6c-1.1,0-1.9-0.9-1.9-1.9v-10.4H468.3L468.3,205.1z"
			/>
		<path fill="#222222" d="M474.8,205.1v1.3h-1.3v-1.3H474.8z M473.5,208.2h1.3v9.3h-1.3V208.2z"/>
		<path fill="#222222" d="M487.8,216.1v1.3h-7.5c-1.1,0-1.9-0.9-1.9-1.9v-5.4c0-1.1,0.9-1.9,1.9-1.9h7.5v1.3h-7.5
			c-0.3,0-0.6,0.3-0.6,0.6v5.4c0,0.3,0.3,0.6,0.6,0.6H487.8L487.8,216.1z"/>
		<path fill="#222222" d="M500.6,210.1v7.3h-7.5c-1.1,0-1.9-0.9-1.9-1.9v-3.4h8.1v-2c0-0.3-0.3-0.6-0.6-0.6h-7.5v-1.3h7.5
			C499.8,208.2,500.6,209,500.6,210.1z M499.3,213.5h-6.8v2c0,0.3,0.3,0.6,0.6,0.6h6.2V213.5L499.3,213.5z"/>
		<path fill="#222222" d="M505.3,209.5v6c0,0.3,0.3,0.6,0.6,0.6h3.4v1.3h-3.4c-1.1,0-1.9-0.9-1.9-1.9v-10.4h1.3v3h4v1.3L505.3,209.5
			L505.3,209.5z"/>
		<path fill="#222222" d="M513.7,205.1v1.3h-1.3v-1.3H513.7z M512.4,208.2h1.3v9.3h-1.3V208.2z"/>
		<path fill="#222222" d="M524.9,208.2c1.1,0,2,0.9,2,1.9v5.4c0,1.1-0.9,1.9-2,1.9h-5.6c-1.1,0-1.9-0.9-1.9-1.9v-5.4
			c0-1.1,0.9-1.9,1.9-1.9H524.9z M519.3,209.5c-0.3,0-0.6,0.3-0.6,0.6v5.4c0,0.3,0.3,0.6,0.6,0.6h5.6c0.4,0,0.6-0.3,0.6-0.6v-5.4
			c0-0.3-0.3-0.6-0.6-0.6H519.3z"/>
		<path fill="#222222" d="M539.5,210.1v7.3h-1.3v-7.3c0-0.3-0.3-0.6-0.6-0.6H532c-0.4,0-0.6,0.3-0.6,0.6v7.3H530v-9.3h7.5
			C538.6,208.2,539.5,209,539.5,210.1z"/>
	</g>
	<g>
		<path fill="#FFFFFF" d="M266.1,258.2v-9h3.9c0.4,0,0.8,0.1,1.1,0.2c0.3,0.2,0.6,0.4,0.9,0.7c0.2,0.3,0.4,0.6,0.6,0.9
			c0.2,0.3,0.2,0.7,0.2,1.1c0,0.3,0,0.6-0.1,0.9c-0.1,0.3-0.2,0.6-0.4,0.8c-0.2,0.2-0.4,0.4-0.6,0.6c-0.2,0.2-0.5,0.3-0.8,0.4
			l2.2,3.5h-1.3l-2.1-3.2h-2.4v3.2L266.1,258.2L266.1,258.2z M267.2,253.9h2.7c0.2,0,0.5-0.1,0.6-0.2c0.2-0.1,0.4-0.2,0.5-0.4
			s0.2-0.4,0.3-0.6c0.1-0.2,0.1-0.5,0.1-0.7c0-0.3,0-0.5-0.1-0.7c-0.1-0.2-0.2-0.4-0.4-0.6c-0.1-0.2-0.3-0.3-0.5-0.4
			c-0.2-0.1-0.4-0.1-0.6-0.1h-2.7v3.7H267.2z"/>
		<path fill="#FFFFFF" d="M278.1,258.3c-0.5,0-1-0.1-1.4-0.3c-0.4-0.2-0.8-0.4-1.1-0.7c-0.3-0.3-0.5-0.7-0.7-1.1
			c-0.2-0.4-0.2-0.9-0.2-1.3c0-0.5,0.1-0.9,0.2-1.3c0.1-0.4,0.4-0.8,0.7-1.1c0.3-0.3,0.7-0.6,1.1-0.7c0.4-0.1,0.9-0.3,1.4-0.3
			s1,0.1,1.4,0.3s0.8,0.4,1.1,0.7c0.3,0.3,0.5,0.7,0.7,1.1c0.2,0.4,0.2,0.8,0.2,1.3c0,0.1,0,0.2,0,0.3c0,0.1,0,0.1,0,0.2H276
			c0,0.3,0.1,0.6,0.2,0.9c0.1,0.3,0.3,0.5,0.5,0.7c0.2,0.2,0.4,0.3,0.7,0.5c0.3,0.1,0.5,0.2,0.8,0.2c0.2,0,0.4,0,0.6-0.1
			c0.2-0.1,0.4-0.1,0.5-0.2c0.2-0.1,0.3-0.2,0.5-0.3c0.1-0.1,0.2-0.3,0.3-0.5l1,0.3c-0.1,0.2-0.3,0.5-0.5,0.7
			c-0.2,0.2-0.4,0.4-0.7,0.5c-0.3,0.1-0.5,0.3-0.8,0.4C278.8,258.6,278.4,258.3,278.1,258.3z M280.3,254.4c0-0.3-0.1-0.6-0.2-0.9
			s-0.3-0.5-0.5-0.7c-0.2-0.2-0.4-0.3-0.7-0.4c-0.3-0.1-0.5-0.2-0.8-0.2c-0.3,0-0.6,0.1-0.8,0.2c-0.3,0.1-0.5,0.3-0.7,0.4
			c-0.2,0.2-0.4,0.4-0.5,0.7s-0.2,0.6-0.2,0.9H280.3z"/>
		<path fill="#FFFFFF" d="M285.2,258.3c-0.3,0-0.6-0.1-0.9-0.2c-0.3-0.1-0.5-0.3-0.7-0.4c-0.2-0.1-0.4-0.4-0.5-0.6
			c-0.1-0.3-0.2-0.5-0.2-0.8s0.1-0.6,0.2-0.9c0.1-0.3,0.3-0.5,0.6-0.7c0.3-0.2,0.5-0.3,0.9-0.4c0.4-0.1,0.7-0.1,1.1-0.1
			c0.3,0,0.6,0,1,0.1c0.3,0.1,0.6,0.1,0.9,0.2V254c0-0.5-0.2-1-0.5-1.3c-0.3-0.3-0.7-0.5-1.3-0.5c-0.7,0-1.4,0.3-2.1,0.8l-0.4-0.7
			c0.4-0.3,0.9-0.5,1.3-0.6c0.4-0.1,0.9-0.2,1.3-0.2c0.8,0,1.5,0.2,2,0.7s0.7,1.1,0.7,2v2.7c0,0.3,0.1,0.4,0.4,0.4v1
			c-0.1,0-0.2,0-0.2,0c-0.1,0-0.1,0-0.2,0c-0.2,0-0.4-0.1-0.5-0.2c-0.2-0.1-0.3-0.3-0.3-0.5v-0.5c-0.2,0.2-0.3,0.4-0.5,0.5
			c-0.2,0.2-0.4,0.3-0.6,0.4c-0.2,0.1-0.4,0.2-0.7,0.2S285.4,258.3,285.2,258.3z M285.5,257.4c0.4,0,0.7-0.1,1-0.2
			c0.3-0.2,0.6-0.3,0.8-0.6c0.2-0.2,0.2-0.4,0.2-0.5v-1c-0.3-0.1-0.5-0.2-0.8-0.2c-0.3-0.1-0.6-0.1-0.8-0.1c-0.6,0-1,0.1-1.4,0.3
			c-0.3,0.2-0.5,0.6-0.5,1c0,0.2,0,0.3,0.1,0.5c0.1,0.2,0.2,0.3,0.3,0.4s0.3,0.2,0.5,0.3C285,257.4,285.2,257.4,285.5,257.4z"/>
		<path fill="#FFFFFF" d="M290.8,254.8c0-0.5,0.1-0.9,0.2-1.3c0.2-0.4,0.4-0.8,0.7-1.1c0.3-0.3,0.7-0.6,1.1-0.7
			c0.4-0.2,0.9-0.3,1.4-0.3c0.7,0,1.2,0.1,1.7,0.4s0.8,0.7,1.1,1.2l-1.1,0.3c-0.2-0.3-0.4-0.6-0.7-0.7c-0.3-0.2-0.6-0.3-1-0.3
			c-0.3,0-0.6,0.1-0.9,0.2c-0.3,0.1-0.5,0.3-0.7,0.5c-0.2,0.2-0.4,0.5-0.5,0.8s-0.2,0.6-0.2,1c0,0.3,0.1,0.7,0.2,1s0.3,0.6,0.5,0.8
			c0.2,0.2,0.4,0.4,0.7,0.5c0.3,0.1,0.6,0.2,0.9,0.2c0.2,0,0.4,0,0.6-0.1c0.2-0.1,0.4-0.1,0.5-0.2c0.2-0.1,0.3-0.2,0.4-0.3
			c0.1-0.1,0.2-0.3,0.3-0.4l1.1,0.3c-0.1,0.2-0.2,0.5-0.4,0.7c-0.2,0.2-0.4,0.4-0.6,0.5c-0.2,0.1-0.5,0.3-0.8,0.3
			c-0.3,0.1-0.6,0.1-0.9,0.1c-0.5,0-1-0.1-1.4-0.3c-0.4-0.2-0.8-0.4-1.1-0.8c-0.3-0.3-0.5-0.7-0.7-1.1
			C290.9,255.7,290.8,255.3,290.8,254.8z"/>
		<path fill="#FFFFFF" d="M302.5,257.8c-0.1,0-0.2,0.1-0.3,0.1c-0.1,0-0.2,0.1-0.4,0.1c-0.1,0-0.3,0.1-0.5,0.1s-0.3,0-0.5,0
			c-0.4,0-0.8-0.1-1.1-0.3s-0.4-0.6-0.4-1.1v-4.5h-0.9v-0.9h0.9v-2.2h1.1v2.2h1.5v0.9h-1.5v4.1c0,0.2,0.1,0.4,0.2,0.5
			c0.1,0.1,0.3,0.2,0.5,0.2c0.2,0,0.4,0,0.6-0.1c0.2-0.1,0.3-0.1,0.4-0.2L302.5,257.8z"/>
		<path fill="#FFFFFF" d="M307.5,256.8c0.2,0.1,0.4,0.2,0.7,0.3c0.3,0.1,0.6,0.1,1,0.1c0.4,0,0.8-0.1,1-0.2c0.3-0.2,0.4-0.4,0.6-0.7
			c0.1-0.3,0.2-0.7,0.3-1.1c0-0.4,0.1-1,0.1-1.5v-4.6h1.1v4.6c0,0.7,0,1.3-0.1,1.9c-0.1,0.6-0.2,1-0.4,1.4s-0.5,0.7-0.9,0.9
			c-0.4,0.2-0.9,0.3-1.6,0.3c-0.8,0-1.4-0.2-2-0.6L307.5,256.8z"/>
		<path fill="#FFFFFF" d="M320.4,251c-0.1-0.1-0.2-0.2-0.4-0.3c-0.2-0.1-0.4-0.2-0.6-0.3c-0.2-0.1-0.4-0.2-0.7-0.2
			c-0.3-0.1-0.5-0.1-0.8-0.1c-0.7,0-1.2,0.1-1.5,0.4c-0.3,0.3-0.5,0.6-0.5,1.1c0,0.2,0,0.5,0.1,0.6c0.1,0.2,0.2,0.3,0.4,0.4
			c0.2,0.1,0.4,0.2,0.7,0.3c0.3,0.1,0.6,0.2,1.1,0.3c0.5,0.1,0.9,0.2,1.3,0.3s0.7,0.3,1,0.5s0.5,0.4,0.6,0.7c0.1,0.3,0.2,0.6,0.2,1
			c0,0.4-0.1,0.8-0.3,1.1s-0.4,0.6-0.7,0.8c-0.3,0.2-0.6,0.4-1,0.5c-0.4,0.1-0.8,0.1-1.3,0.1c-0.7,0-1.4-0.1-2-0.3
			c-0.6-0.2-1.2-0.5-1.7-0.9l0.5-1c0.1,0.1,0.3,0.3,0.5,0.4c0.2,0.1,0.5,0.3,0.7,0.4c0.2,0.1,0.6,0.2,0.9,0.3c0.3,0.1,0.7,0.1,1,0.1
			c0.6,0,1.1-0.1,1.5-0.3c0.4-0.2,0.5-0.6,0.5-1c0-0.3-0.1-0.5-0.2-0.6c-0.1-0.2-0.3-0.3-0.5-0.5c-0.2-0.1-0.5-0.2-0.8-0.3
			c-0.3-0.1-0.7-0.2-1.1-0.3c-0.5-0.1-0.9-0.2-1.2-0.4c-0.3-0.1-0.6-0.3-0.9-0.5c-0.2-0.2-0.4-0.4-0.5-0.6c-0.1-0.3-0.2-0.6-0.2-0.9
			c0-0.4,0.1-0.8,0.2-1.1c0.2-0.3,0.4-0.6,0.7-0.8c0.3-0.2,0.6-0.4,1-0.5c0.4-0.1,0.8-0.2,1.3-0.2c0.6,0,1.2,0.1,1.7,0.3
			s0.9,0.4,1.3,0.8L320.4,251z"/>
		<path fill="#FFFFFF" d="M334,258.2V252h4.1v6.2H334z"/>
		<path fill="#FFFFFF" d="M349.9,258.2v-9h3.9c0.4,0,0.8,0.1,1.1,0.2c0.3,0.2,0.6,0.4,0.9,0.7c0.2,0.3,0.4,0.6,0.6,0.9
			c0.2,0.3,0.2,0.7,0.2,1.1c0,0.3,0,0.6-0.1,0.9s-0.2,0.6-0.4,0.8c-0.2,0.2-0.4,0.4-0.6,0.6c-0.2,0.2-0.5,0.3-0.8,0.4l2.2,3.5h-1.3
			l-2.1-3.2h-2.4v3.2L349.9,258.2L349.9,258.2z M351.1,253.9h2.7c0.2,0,0.5-0.1,0.6-0.2c0.2-0.1,0.4-0.2,0.5-0.4
			c0.1-0.2,0.2-0.4,0.3-0.6c0.1-0.2,0.1-0.5,0.1-0.7c0-0.3,0-0.5-0.1-0.7c-0.1-0.2-0.2-0.4-0.4-0.6c-0.1-0.2-0.3-0.3-0.5-0.4
			c-0.2-0.1-0.4-0.1-0.6-0.1H351L351.1,253.9L351.1,253.9z"/>
		<path fill="#FFFFFF" d="M361.9,258.3c-0.5,0-1-0.1-1.4-0.3s-0.8-0.4-1.1-0.7c-0.3-0.3-0.5-0.7-0.7-1.1c-0.2-0.4-0.2-0.9-0.2-1.3
			c0-0.5,0.1-0.9,0.2-1.3c0.1-0.4,0.4-0.8,0.7-1.1c0.3-0.3,0.7-0.6,1.1-0.7c0.4-0.1,0.9-0.3,1.4-0.3s1,0.1,1.4,0.3
			c0.4,0.2,0.8,0.4,1.1,0.7c0.3,0.3,0.5,0.7,0.7,1.1c0.2,0.4,0.2,0.8,0.2,1.3c0,0.1,0,0.2,0,0.3c0,0.1,0,0.1,0,0.2h-5.5
			c0,0.3,0.1,0.6,0.2,0.9s0.3,0.5,0.5,0.7s0.4,0.3,0.7,0.5c0.3,0.1,0.5,0.2,0.8,0.2c0.2,0,0.4,0,0.6-0.1c0.2-0.1,0.4-0.1,0.5-0.2
			c0.2-0.1,0.3-0.2,0.5-0.3c0.1-0.1,0.2-0.3,0.3-0.5l1,0.3c-0.1,0.2-0.3,0.5-0.5,0.7c-0.2,0.2-0.4,0.4-0.7,0.5
			c-0.3,0.1-0.5,0.3-0.8,0.4C362.6,258.6,362.2,258.3,361.9,258.3z M364.2,254.4c0-0.3-0.1-0.6-0.2-0.9s-0.3-0.5-0.5-0.7
			s-0.4-0.3-0.7-0.4c-0.3-0.1-0.5-0.2-0.8-0.2s-0.6,0.1-0.8,0.2c-0.3,0.1-0.5,0.3-0.7,0.4c-0.2,0.2-0.4,0.4-0.5,0.7
			s-0.2,0.6-0.2,0.9H364.2z"/>
		<path fill="#FFFFFF" d="M370,258.3c-0.5,0-0.9-0.1-1.3-0.3c-0.4-0.2-0.7-0.4-1-0.8c-0.3-0.4-0.5-0.7-0.7-1.1
			c-0.2-0.4-0.2-0.9-0.2-1.3c0-0.5,0.1-0.9,0.2-1.3s0.4-0.8,0.6-1.1c0.3-0.3,0.6-0.6,1-0.7c0.4-0.2,0.8-0.3,1.2-0.3
			c0.5,0,1,0.1,1.4,0.4c0.4,0.3,0.8,0.6,1,1v-4h1.1v7.9c0,0.3,0.1,0.4,0.4,0.4v1c-0.1,0-0.2,0-0.2,0s-0.1,0-0.2,0
			c-0.3,0-0.5-0.1-0.6-0.2c-0.1-0.1-0.2-0.3-0.2-0.5v-0.6c-0.3,0.4-0.6,0.8-1.1,1S370.5,258.3,370,258.3z M370.2,257.3
			c0.2,0,0.4,0,0.6-0.1c0.2-0.1,0.4-0.2,0.6-0.3c0.2-0.1,0.4-0.3,0.5-0.5c0.1-0.2,0.2-0.4,0.3-0.6v-1.9c-0.1-0.2-0.2-0.4-0.3-0.6
			c-0.1-0.2-0.3-0.4-0.5-0.5c-0.2-0.1-0.4-0.3-0.6-0.3c-0.2-0.1-0.4-0.1-0.6-0.1c-0.3,0-0.6,0.1-0.9,0.2c-0.3,0.1-0.5,0.3-0.7,0.6
			c-0.2,0.2-0.3,0.5-0.4,0.8c-0.1,0.3-0.2,0.6-0.2,0.9c0,0.3,0.1,0.6,0.2,0.9c0.1,0.3,0.3,0.6,0.5,0.8c0.2,0.2,0.4,0.4,0.7,0.5
			C369.6,257.3,369.9,257.3,370.2,257.3z"/>
		<path fill="#FFFFFF" d="M378.1,258.3c-0.7,0-1.2-0.2-1.6-0.7s-0.5-1.2-0.5-2.1v-4h1.1v3.8c0,1.4,0.5,2,1.4,2
			c0.5,0,0.9-0.1,1.3-0.4c0.4-0.3,0.7-0.7,0.9-1.2v-4.2h1.1v5.3c0,0.3,0.1,0.4,0.4,0.4v1c-0.1,0-0.2,0-0.2,0s-0.1,0-0.2,0
			c-0.3,0-0.5-0.1-0.6-0.2c-0.1-0.1-0.2-0.3-0.2-0.5v-0.8c-0.3,0.5-0.7,0.9-1.2,1.2C379.2,258.1,378.7,258.3,378.1,258.3z"/>
		<path fill="#FFFFFF" d="M384.9,251.5l1.8,2.4l0.1,0.2l0.1-0.2l1.8-2.4h1.2l-2.5,3.3l2.5,3.3h-1.2l-1.8-2.4l-0.1-0.2l-0.1,0.2
			l-1.8,2.4h-1.2l2.5-3.3l-2.5-3.3H384.9z"/>
		<path fill="#FFFFFF" d="M402.3,258.2V252h4.1v6.2H402.3z"/>
		<path fill="#FFFFFF" d="M418.2,258.2v-9h3.9c0.4,0,0.8,0.1,1.1,0.2c0.3,0.2,0.6,0.4,0.9,0.7c0.2,0.3,0.4,0.6,0.6,0.9
			s0.2,0.7,0.2,1.1c0,0.3,0,0.6-0.1,0.9c-0.1,0.3-0.2,0.6-0.4,0.8c-0.2,0.2-0.4,0.4-0.6,0.6c-0.2,0.2-0.5,0.3-0.8,0.4l2.2,3.5h-1.3
			l-2.1-3.2h-2.4v3.2L418.2,258.2L418.2,258.2z M419.4,253.9h2.7c0.2,0,0.5-0.1,0.6-0.2c0.2-0.1,0.4-0.2,0.5-0.4
			c0.1-0.2,0.2-0.4,0.3-0.6s0.1-0.5,0.1-0.7c0-0.3,0-0.5-0.1-0.7s-0.2-0.4-0.4-0.6c-0.1-0.2-0.3-0.3-0.5-0.4
			c-0.2-0.1-0.4-0.1-0.6-0.1h-2.7v3.7H419.4z"/>
		<path fill="#FFFFFF" d="M430.2,258.3c-0.5,0-1-0.1-1.4-0.3c-0.4-0.2-0.8-0.4-1.1-0.7s-0.5-0.7-0.7-1.1c-0.2-0.4-0.2-0.9-0.2-1.3
			c0-0.5,0.1-0.9,0.2-1.3c0.1-0.4,0.4-0.8,0.7-1.1s0.7-0.6,1.1-0.7c0.4-0.1,0.9-0.3,1.4-0.3s1,0.1,1.4,0.3c0.4,0.2,0.8,0.4,1.1,0.7
			s0.5,0.7,0.7,1.1c0.2,0.4,0.2,0.8,0.2,1.3c0,0.1,0,0.2,0,0.3c0,0.1,0,0.1,0,0.2H428c0,0.3,0.1,0.6,0.2,0.9
			c0.1,0.3,0.3,0.5,0.5,0.7s0.4,0.3,0.7,0.5c0.3,0.1,0.5,0.2,0.8,0.2c0.2,0,0.4,0,0.6-0.1c0.2-0.1,0.4-0.1,0.5-0.2
			c0.2-0.1,0.3-0.2,0.5-0.3c0.1-0.1,0.2-0.3,0.3-0.5l1,0.3c-0.1,0.2-0.3,0.5-0.5,0.7c-0.2,0.2-0.4,0.4-0.7,0.5
			c-0.3,0.1-0.5,0.3-0.8,0.4C430.8,258.6,430.5,258.3,430.2,258.3z M432.5,254.4c0-0.3-0.1-0.6-0.2-0.9c-0.1-0.3-0.3-0.5-0.5-0.7
			s-0.4-0.3-0.7-0.4c-0.3-0.1-0.5-0.2-0.8-0.2s-0.6,0.1-0.8,0.2c-0.3,0.1-0.5,0.3-0.7,0.4c-0.2,0.2-0.4,0.4-0.5,0.7
			c-0.1,0.3-0.2,0.6-0.2,0.9H432.5z"/>
		<path fill="#FFFFFF" d="M437.3,258.3c-0.3,0-0.6-0.1-0.9-0.2c-0.3-0.1-0.5-0.3-0.7-0.4c-0.2-0.1-0.4-0.4-0.5-0.6
			c-0.1-0.3-0.2-0.5-0.2-0.8s0.1-0.6,0.2-0.9c0.1-0.3,0.3-0.5,0.6-0.7s0.5-0.3,0.9-0.4c0.4-0.1,0.7-0.1,1.1-0.1c0.3,0,0.6,0,1,0.1
			c0.3,0.1,0.6,0.1,0.9,0.2V254c0-0.5-0.2-1-0.5-1.3s-0.7-0.5-1.3-0.5c-0.7,0-1.4,0.3-2.1,0.8l-0.4-0.7c0.4-0.3,0.9-0.5,1.3-0.6
			c0.4-0.1,0.9-0.2,1.3-0.2c0.8,0,1.5,0.2,2,0.7s0.7,1.1,0.7,2v2.7c0,0.3,0.1,0.4,0.4,0.4v1c-0.1,0-0.2,0-0.2,0c-0.1,0-0.1,0-0.2,0
			c-0.2,0-0.4-0.1-0.5-0.2c-0.2-0.1-0.3-0.3-0.3-0.5v-0.5c-0.2,0.2-0.3,0.4-0.5,0.5c-0.2,0.2-0.4,0.3-0.6,0.4s-0.4,0.2-0.7,0.2
			C437.8,258.2,437.6,258.3,437.3,258.3z M437.6,257.4c0.4,0,0.7-0.1,1-0.2c0.3-0.2,0.6-0.3,0.8-0.6c0.2-0.2,0.2-0.4,0.2-0.5v-1
			c-0.3-0.1-0.5-0.2-0.8-0.2c-0.3-0.1-0.6-0.1-0.8-0.1c-0.6,0-1,0.1-1.4,0.3c-0.3,0.2-0.5,0.6-0.5,1c0,0.2,0,0.3,0.1,0.5
			c0.1,0.2,0.2,0.3,0.3,0.4s0.3,0.2,0.5,0.3C437.2,257.4,437.4,257.4,437.6,257.4z"/>
		<path fill="#FFFFFF" d="M443,254.8c0-0.5,0.1-0.9,0.2-1.3c0.2-0.4,0.4-0.8,0.7-1.1c0.3-0.3,0.7-0.6,1.1-0.7
			c0.4-0.2,0.9-0.3,1.4-0.3c0.7,0,1.2,0.1,1.7,0.4s0.8,0.7,1.1,1.2l-1.1,0.3c-0.2-0.3-0.4-0.6-0.7-0.7c-0.3-0.2-0.6-0.3-1-0.3
			c-0.3,0-0.6,0.1-0.9,0.2s-0.5,0.3-0.7,0.5s-0.4,0.5-0.5,0.8c-0.1,0.3-0.2,0.6-0.2,1c0,0.3,0.1,0.7,0.2,1c0.1,0.3,0.3,0.6,0.5,0.8
			c0.2,0.2,0.4,0.4,0.7,0.5c0.3,0.1,0.6,0.2,0.9,0.2c0.2,0,0.4,0,0.6-0.1c0.2-0.1,0.4-0.1,0.5-0.2c0.2-0.1,0.3-0.2,0.4-0.3
			c0.1-0.1,0.2-0.3,0.3-0.4l1.1,0.3c-0.1,0.2-0.2,0.5-0.4,0.7c-0.2,0.2-0.4,0.4-0.6,0.5c-0.2,0.1-0.5,0.3-0.8,0.3
			c-0.3,0.1-0.6,0.1-0.9,0.1c-0.5,0-1-0.1-1.4-0.3c-0.4-0.2-0.8-0.4-1.1-0.8c-0.3-0.3-0.5-0.7-0.7-1.1
			C443.1,255.7,443,255.3,443,254.8z"/>
		<path fill="#FFFFFF" d="M454.7,257.8c-0.1,0-0.2,0.1-0.3,0.1c-0.1,0-0.2,0.1-0.4,0.1c-0.1,0-0.3,0.1-0.5,0.1s-0.3,0-0.5,0
			c-0.4,0-0.8-0.1-1.1-0.3c-0.3-0.2-0.4-0.6-0.4-1.1v-4.5h-0.9v-0.9h0.9v-2.2h1.1v2.2h1.5v0.9h-1.5v4.1c0,0.2,0.1,0.4,0.2,0.5
			c0.1,0.1,0.3,0.2,0.5,0.2s0.4,0,0.6-0.1c0.2-0.1,0.3-0.1,0.4-0.2L454.7,257.8z"/>
		<path fill="#FFFFFF" d="M460.6,258.2v-9h3.9c0.4,0,0.8,0.1,1.1,0.2c0.3,0.2,0.6,0.4,0.9,0.7c0.2,0.3,0.4,0.6,0.6,0.9
			c0.1,0.3,0.2,0.7,0.2,1.1c0,0.3,0,0.6-0.1,0.9c-0.1,0.3-0.2,0.6-0.4,0.8s-0.4,0.4-0.6,0.6c-0.2,0.2-0.5,0.3-0.8,0.4l2.2,3.5h-1.3
			l-2.1-3.2h-2.4v3.2L460.6,258.2L460.6,258.2z M461.7,253.9h2.7c0.2,0,0.5-0.1,0.6-0.2c0.2-0.1,0.4-0.2,0.5-0.4s0.2-0.4,0.3-0.6
			c0.1-0.2,0.1-0.5,0.1-0.7c0-0.3,0-0.5-0.1-0.7c-0.1-0.2-0.2-0.4-0.4-0.6c-0.2-0.2-0.3-0.3-0.5-0.4c-0.2-0.1-0.4-0.1-0.6-0.1h-2.7
			v3.7H461.7z"/>
		<path fill="#FFFFFF" d="M472.2,258.3c-0.5,0-1-0.1-1.4-0.3c-0.4-0.2-0.8-0.4-1.1-0.8c-0.3-0.4-0.5-0.7-0.7-1.1
			c-0.2-0.4-0.2-0.9-0.2-1.3c0-0.5,0.1-0.9,0.2-1.3c0.2-0.4,0.4-0.8,0.7-1.1c0.3-0.3,0.6-0.6,1.1-0.8c0.5-0.2,0.9-0.3,1.4-0.3
			s0.9,0.1,1.4,0.3c0.5,0.2,0.8,0.4,1.1,0.8c0.3,0.3,0.5,0.7,0.7,1.1c0.2,0.4,0.2,0.9,0.2,1.3c0,0.5-0.1,0.9-0.2,1.3
			c-0.2,0.4-0.4,0.8-0.7,1.1s-0.7,0.6-1.1,0.8C473.2,258.2,472.7,258.3,472.2,258.3z M470,254.9c0,0.3,0.1,0.7,0.2,1
			c0.1,0.3,0.3,0.6,0.5,0.8s0.4,0.4,0.7,0.5c0.3,0.1,0.6,0.2,0.9,0.2s0.6-0.1,0.9-0.2c0.3-0.1,0.5-0.3,0.7-0.5
			c0.2-0.2,0.4-0.5,0.5-0.8c0.1-0.3,0.2-0.6,0.2-1c0-0.3-0.1-0.7-0.2-1c-0.1-0.3-0.3-0.6-0.5-0.8c-0.2-0.2-0.4-0.4-0.7-0.5
			c-0.3-0.1-0.6-0.2-0.9-0.2s-0.6,0.1-0.9,0.2c-0.3,0.1-0.5,0.3-0.7,0.5c-0.2,0.2-0.4,0.5-0.5,0.8C470.1,254.2,470,254.5,470,254.9z
			"/>
		<path fill="#FFFFFF" d="M479.7,258.3c-0.7,0-1.2-0.2-1.6-0.7c-0.4-0.5-0.5-1.2-0.5-2.1v-4h1.1v3.8c0,1.4,0.5,2,1.4,2
			c0.5,0,0.9-0.1,1.3-0.4c0.4-0.3,0.7-0.7,0.9-1.2v-4.2h1.1v5.3c0,0.3,0.1,0.4,0.4,0.4v1c-0.1,0-0.2,0-0.2,0c-0.1,0-0.1,0-0.2,0
			c-0.3,0-0.5-0.1-0.6-0.2c-0.1-0.1-0.2-0.3-0.2-0.5v-0.8c-0.3,0.5-0.7,0.9-1.2,1.2C480.8,258.1,480.3,258.3,479.7,258.3z"/>
		<path fill="#FFFFFF" d="M489.6,257.8c-0.1,0-0.2,0.1-0.3,0.1c-0.1,0-0.2,0.1-0.4,0.1c-0.1,0-0.3,0.1-0.5,0.1c-0.2,0-0.3,0-0.5,0
			c-0.4,0-0.8-0.1-1.1-0.3s-0.4-0.6-0.4-1.1v-4.5h-0.9v-0.9h0.9v-2.2h1.1v2.2h1.5v0.9h-1.5v4.1c0,0.2,0.1,0.4,0.2,0.5
			c0.1,0.1,0.3,0.2,0.5,0.2s0.4,0,0.6-0.1c0.2-0.1,0.3-0.1,0.4-0.2L489.6,257.8z"/>
		<path fill="#FFFFFF" d="M494.3,258.3c-0.5,0-1-0.1-1.4-0.3c-0.4-0.2-0.8-0.4-1.1-0.7s-0.5-0.7-0.7-1.1c-0.2-0.4-0.2-0.9-0.2-1.3
			c0-0.5,0.1-0.9,0.2-1.3c0.2-0.4,0.4-0.8,0.7-1.1s0.7-0.6,1.1-0.7c0.4-0.2,0.9-0.3,1.4-0.3s1,0.1,1.4,0.3c0.4,0.2,0.8,0.4,1.1,0.7
			s0.5,0.7,0.7,1.1c0.2,0.4,0.2,0.8,0.2,1.3c0,0.1,0,0.2,0,0.3c0,0.1,0,0.1,0,0.2h-5.5c0,0.3,0.1,0.6,0.2,0.9
			c0.1,0.3,0.3,0.5,0.5,0.7c0.2,0.2,0.4,0.3,0.7,0.5c0.3,0.2,0.5,0.2,0.8,0.2c0.2,0,0.4,0,0.6-0.1c0.2-0.1,0.4-0.1,0.5-0.2
			c0.2-0.1,0.3-0.2,0.5-0.3c0.1-0.1,0.2-0.3,0.3-0.5l1,0.3c-0.1,0.2-0.3,0.5-0.5,0.7c-0.2,0.2-0.4,0.4-0.7,0.5
			c-0.3,0.1-0.5,0.3-0.8,0.4C494.9,258.2,494.6,258.3,494.3,258.3z M496.5,254.4c0-0.3-0.1-0.6-0.2-0.9c-0.1-0.3-0.3-0.5-0.5-0.7
			s-0.4-0.3-0.7-0.4c-0.3-0.1-0.5-0.2-0.8-0.2s-0.6,0.1-0.8,0.2c-0.3,0.1-0.5,0.3-0.7,0.4c-0.2,0.2-0.4,0.4-0.5,0.7
			c-0.1,0.3-0.2,0.6-0.2,0.9H496.5z"/>
		<path fill="#FFFFFF" d="M503.1,252.5c-0.6,0-1.1,0.2-1.5,0.4c-0.4,0.2-0.7,0.6-0.9,1.1v4.1h-1.1v-6.6h1v1.5
			c0.2-0.5,0.5-0.8,0.9-1.1c0.4-0.3,0.8-0.5,1.2-0.5c0.1,0,0.2,0,0.2,0c0.1,0,0.1,0,0.2,0V252.5L503.1,252.5z"/>
		<path fill="#FFFFFF" d="M515.2,258.2V252h4.1v6.2H515.2z"/>
		<path fill="#FFFFFF" d="M537.3,257.1v1h-6.1v-9h6v1h-4.9v2.9h4.2v1h-4.2v3.1H537.3z"/>
		<path fill="#FFFFFF" d="M544.9,251c-0.1-0.1-0.2-0.2-0.4-0.3c-0.2-0.1-0.4-0.2-0.6-0.3c-0.2-0.1-0.4-0.2-0.7-0.2
			c-0.3-0.1-0.5-0.1-0.8-0.1c-0.7,0-1.2,0.1-1.5,0.4c-0.3,0.3-0.5,0.6-0.5,1.1c0,0.2,0,0.5,0.1,0.6c0.1,0.2,0.2,0.3,0.4,0.4
			c0.2,0.1,0.4,0.2,0.7,0.3c0.3,0.1,0.6,0.2,1.1,0.3c0.5,0.1,0.9,0.2,1.3,0.3s0.7,0.3,1,0.5s0.5,0.4,0.6,0.7c0.1,0.3,0.2,0.6,0.2,1
			c0,0.4-0.1,0.8-0.3,1.1s-0.4,0.6-0.7,0.8c-0.3,0.2-0.6,0.4-1,0.5c-0.4,0.1-0.8,0.1-1.3,0.1c-0.7,0-1.4-0.1-2-0.3
			c-0.6-0.2-1.2-0.5-1.7-0.9l0.5-1c0.1,0.1,0.3,0.3,0.5,0.4c0.2,0.1,0.5,0.3,0.7,0.4c0.2,0.1,0.6,0.2,0.9,0.3c0.3,0.1,0.7,0.1,1,0.1
			c0.6,0,1.1-0.1,1.5-0.3c0.4-0.2,0.5-0.6,0.5-1c0-0.3-0.1-0.5-0.2-0.6c-0.1-0.2-0.3-0.3-0.5-0.5c-0.2-0.1-0.5-0.2-0.8-0.3
			c-0.3-0.1-0.7-0.2-1.1-0.3c-0.5-0.1-0.9-0.2-1.2-0.4c-0.3-0.1-0.6-0.3-0.9-0.5c-0.2-0.2-0.4-0.4-0.5-0.6c-0.1-0.2-0.2-0.6-0.2-0.9
			c0-0.4,0.1-0.8,0.2-1.1c0.1-0.3,0.4-0.6,0.7-0.8c0.3-0.2,0.6-0.4,1-0.5c0.4-0.1,0.8-0.2,1.3-0.2c0.6,0,1.2,0.1,1.7,0.3
			s0.9,0.4,1.3,0.8L544.9,251z"/>
		<path fill="#FFFFFF" d="M554.2,255.2c0,0.4-0.1,0.8-0.2,1.2c-0.2,0.4-0.4,0.7-0.7,1c-0.3,0.3-0.6,0.5-1,0.7
			c-0.4,0.2-0.8,0.2-1.3,0.2s-0.9-0.1-1.3-0.3c-0.4-0.2-0.7-0.4-1-0.8c-0.3-0.3-0.5-0.7-0.7-1.2s-0.2-1-0.2-1.6
			c0-0.9,0.1-1.7,0.2-2.3c0.2-0.7,0.4-1.2,0.7-1.7c0.3-0.4,0.7-0.8,1.1-1c0.4-0.2,0.9-0.3,1.4-0.3c0.6,0,1.1,0.1,1.6,0.4
			s0.9,0.7,1.1,1.2l-0.7,0.7c-0.2-0.4-0.5-0.7-0.8-0.9c-0.3-0.2-0.8-0.4-1.2-0.4c-0.3,0-0.7,0.1-0.9,0.2c-0.3,0.2-0.5,0.4-0.7,0.7
			c-0.2,0.3-0.4,0.7-0.5,1.1c-0.1,0.4-0.2,0.9-0.2,1.5c0.2-0.4,0.5-0.8,0.9-1.1c0.4-0.3,0.9-0.4,1.4-0.4c0.4,0,0.8,0.1,1.2,0.2
			c0.4,0.1,0.7,0.4,1,0.6c0.3,0.3,0.5,0.6,0.7,1C554.2,254.3,554.2,254.7,554.2,255.2z M551,257.3c0.3,0,0.6-0.1,0.8-0.2
			c0.3-0.1,0.5-0.3,0.7-0.5c0.2-0.2,0.3-0.4,0.5-0.7c0.1-0.3,0.2-0.5,0.2-0.8c0-0.3-0.1-0.6-0.2-0.8c-0.1-0.3-0.3-0.5-0.5-0.7
			c-0.2-0.2-0.4-0.3-0.7-0.5c-0.3-0.1-0.5-0.2-0.8-0.2s-0.6,0.1-0.8,0.2c-0.3,0.1-0.5,0.3-0.7,0.5c-0.2,0.2-0.3,0.4-0.5,0.7
			c-0.1,0.3-0.2,0.5-0.2,0.8c0,0.3,0.1,0.6,0.2,0.8c0.1,0.3,0.3,0.5,0.5,0.7c0.2,0.2,0.4,0.4,0.7,0.5
			C550.5,257.2,550.7,257.3,551,257.3z"/>
		<path fill="#FFFFFF" d="M567,258.2V252h4.1v6.2H567z"/>
		<path fill="#FFFFFF" d="M589.9,255.8c0,0.3-0.1,0.7-0.2,1c-0.1,0.3-0.3,0.5-0.6,0.7c-0.3,0.2-0.5,0.4-0.8,0.5s-0.7,0.2-1,0.2H583
			v-9h4.5c0.3,0,0.6,0.1,0.9,0.2c0.3,0.1,0.5,0.3,0.6,0.5c0.2,0.2,0.3,0.5,0.4,0.7c0.1,0.3,0.1,0.6,0.1,0.8c0,0.5-0.1,0.9-0.3,1.2
			c-0.2,0.4-0.5,0.7-1,0.9c0.5,0.2,0.9,0.4,1.2,0.8C589.7,254.8,589.9,255.3,589.9,255.8z M584.1,250.1v3h2.9c0.2,0,0.4,0,0.6-0.1
			c0.2-0.1,0.3-0.2,0.4-0.3c0.1-0.1,0.2-0.3,0.3-0.5c0.1-0.2,0.1-0.4,0.1-0.6c0-0.2,0-0.4-0.1-0.6c-0.1-0.2-0.2-0.3-0.3-0.5
			c-0.1-0.1-0.3-0.2-0.4-0.3c-0.2-0.1-0.3-0.1-0.5-0.1H584.1z M588.7,255.6c0-0.2,0-0.4-0.1-0.6c-0.1-0.2-0.2-0.4-0.3-0.5
			c-0.1-0.1-0.3-0.3-0.4-0.3c-0.2-0.1-0.4-0.1-0.6-0.1h-3.2v3.1h3.1c0.2,0,0.4,0,0.6-0.1c0.2-0.1,0.3-0.2,0.5-0.3
			c0.1-0.1,0.2-0.3,0.3-0.5C588.7,256,588.7,255.8,588.7,255.6z"/>
		<path fill="#FFFFFF" d="M595,258.3c-0.5,0-1-0.1-1.4-0.3c-0.4-0.2-0.8-0.4-1.1-0.8c-0.3-0.4-0.5-0.7-0.7-1.1
			c-0.2-0.4-0.2-0.9-0.2-1.3c0-0.5,0.1-0.9,0.2-1.3c0.2-0.4,0.4-0.8,0.7-1.1c0.3-0.3,0.6-0.6,1.1-0.8c0.5-0.2,0.9-0.3,1.4-0.3
			s0.9,0.1,1.4,0.3c0.5,0.2,0.8,0.4,1.1,0.8c0.3,0.3,0.5,0.7,0.7,1.1s0.2,0.9,0.2,1.3c0,0.5-0.1,0.9-0.2,1.3
			c-0.2,0.4-0.4,0.8-0.7,1.1s-0.7,0.6-1.1,0.8C595.9,258.2,595.5,258.3,595,258.3z M592.8,254.9c0,0.3,0.1,0.7,0.2,1
			c0.1,0.3,0.3,0.6,0.5,0.8s0.4,0.4,0.7,0.5c0.3,0.1,0.6,0.2,0.9,0.2c0.3,0,0.6-0.1,0.9-0.2c0.3-0.1,0.5-0.3,0.7-0.5
			s0.4-0.5,0.5-0.8c0.1-0.3,0.2-0.6,0.2-1c0-0.3-0.1-0.7-0.2-1c-0.1-0.3-0.3-0.6-0.5-0.8c-0.2-0.2-0.4-0.4-0.7-0.5
			c-0.3-0.1-0.6-0.2-0.9-0.2c-0.3,0-0.6,0.1-0.9,0.2c-0.3,0.1-0.5,0.3-0.7,0.5c-0.2,0.2-0.4,0.5-0.5,0.8
			C592.8,254.2,592.8,254.5,592.8,254.9z"/>
		<path fill="#FFFFFF" d="M603.3,258.3c-0.5,0-1-0.1-1.4-0.3c-0.4-0.2-0.8-0.4-1.1-0.8c-0.3-0.4-0.5-0.7-0.7-1.1
			c-0.2-0.4-0.2-0.9-0.2-1.3c0-0.5,0.1-0.9,0.2-1.3c0.2-0.4,0.4-0.8,0.7-1.1c0.3-0.3,0.6-0.6,1.1-0.8c0.5-0.2,0.9-0.3,1.4-0.3
			s0.9,0.1,1.4,0.3c0.5,0.2,0.8,0.4,1.1,0.8c0.3,0.3,0.5,0.7,0.7,1.1s0.2,0.9,0.2,1.3c0,0.5-0.1,0.9-0.2,1.3
			c-0.2,0.4-0.4,0.8-0.7,1.1s-0.7,0.6-1.1,0.8C604.3,258.2,603.8,258.3,603.3,258.3z M601.1,254.9c0,0.3,0.1,0.7,0.2,1
			c0.1,0.3,0.3,0.6,0.5,0.8s0.4,0.4,0.7,0.5c0.3,0.1,0.6,0.2,0.9,0.2c0.3,0,0.6-0.1,0.9-0.2c0.3-0.1,0.5-0.3,0.7-0.5
			s0.4-0.5,0.5-0.8c0.1-0.3,0.2-0.6,0.2-1c0-0.3-0.1-0.7-0.2-1c-0.1-0.3-0.3-0.6-0.5-0.8c-0.2-0.2-0.4-0.4-0.7-0.5
			c-0.3-0.1-0.6-0.2-0.9-0.2c-0.3,0-0.6,0.1-0.9,0.2c-0.3,0.1-0.5,0.3-0.7,0.5c-0.2,0.2-0.4,0.5-0.5,0.8
			C601.2,254.2,601.1,254.5,601.1,254.9z"/>
		<path fill="#FFFFFF" d="M612.1,257.8c-0.1,0-0.2,0.1-0.3,0.1c-0.1,0-0.2,0.1-0.4,0.1c-0.1,0-0.3,0.1-0.5,0.1c-0.2,0-0.3,0-0.5,0
			c-0.4,0-0.8-0.1-1.1-0.3s-0.4-0.6-0.4-1.1v-4.5H608v-0.9h0.9v-2.2h1.1v2.2h1.5v0.9H610v4.1c0,0.2,0.1,0.4,0.2,0.5
			c0.1,0.1,0.3,0.2,0.5,0.2s0.4,0,0.6-0.1c0.2-0.1,0.3-0.1,0.4-0.2L612.1,257.8z"/>
		<path fill="#FFFFFF" d="M616.2,258.3c-0.5,0-1.1-0.1-1.6-0.2c-0.5-0.2-1-0.4-1.3-0.7l0.5-0.8c0.4,0.3,0.8,0.5,1.2,0.7
			c0.4,0.1,0.8,0.2,1.2,0.2c0.5,0,0.9-0.1,1.2-0.3c0.3-0.2,0.4-0.5,0.4-0.8c0-0.2,0-0.3-0.1-0.4s-0.2-0.2-0.3-0.3
			c-0.2-0.1-0.3-0.2-0.6-0.2c-0.2-0.1-0.5-0.1-0.8-0.2c-0.4-0.1-0.7-0.2-1-0.3s-0.5-0.2-0.7-0.3c-0.2-0.1-0.3-0.3-0.4-0.5
			c-0.1-0.2-0.1-0.4-0.1-0.7s0.1-0.6,0.2-0.9c0.1-0.3,0.3-0.5,0.5-0.6s0.5-0.3,0.8-0.4c0.3-0.1,0.6-0.1,1-0.1c0.5,0,1,0.1,1.4,0.2
			c0.4,0.2,0.8,0.4,1.1,0.6l-0.5,0.7c-0.3-0.2-0.6-0.4-0.9-0.6c-0.3-0.1-0.7-0.2-1.1-0.2c-0.4,0-0.8,0.1-1,0.3
			c-0.3,0.2-0.4,0.5-0.4,0.8c0,0.2,0,0.3,0.1,0.4c0.1,0.1,0.1,0.2,0.3,0.3c0.1,0.1,0.3,0.1,0.5,0.2c0.2,0.1,0.4,0.1,0.7,0.2
			c0.4,0.1,0.8,0.2,1.2,0.3c0.3,0.1,0.6,0.2,0.8,0.4c0.2,0.1,0.4,0.3,0.5,0.5c0.1,0.2,0.2,0.4,0.2,0.7c0,0.6-0.2,1.1-0.7,1.5
			C618,258.2,617,258.3,616.2,258.3z"/>
		<path fill="#FFFFFF" d="M624.3,257.8c-0.1,0-0.2,0.1-0.3,0.1s-0.2,0.1-0.4,0.1c-0.1,0-0.3,0.1-0.5,0.1c-0.2,0-0.3,0-0.5,0
			c-0.4,0-0.8-0.1-1.1-0.3s-0.4-0.6-0.4-1.1v-4.5h-0.9v-0.9h0.9v-2.2h1.1v2.2h1.5v0.9h-1.5v4.1c0,0.2,0.1,0.4,0.2,0.5
			c0.1,0.1,0.3,0.2,0.5,0.2c0.2,0,0.4,0,0.6-0.1c0.2-0.1,0.3-0.1,0.4-0.2L624.3,257.8z"/>
		<path fill="#FFFFFF" d="M629.6,252.5c-0.6,0-1.1,0.2-1.5,0.4c-0.4,0.2-0.7,0.6-0.9,1.1v4.1h-1.1v-6.6h1v1.5
			c0.2-0.5,0.5-0.8,0.9-1.1c0.4-0.3,0.8-0.5,1.2-0.5c0.1,0,0.2,0,0.2,0c0.1,0,0.1,0,0.2,0V252.5L629.6,252.5z"/>
		<path fill="#FFFFFF" d="M633.1,258.3c-0.3,0-0.6-0.1-0.9-0.2c-0.3-0.1-0.5-0.3-0.7-0.4c-0.2-0.2-0.4-0.4-0.5-0.6
			c-0.1-0.3-0.2-0.5-0.2-0.8s0.1-0.6,0.2-0.9c0.1-0.3,0.3-0.5,0.6-0.7c0.3-0.2,0.5-0.3,0.9-0.4c0.3-0.1,0.7-0.1,1.1-0.1
			c0.3,0,0.6,0,1,0.1c0.4,0.1,0.6,0.1,0.9,0.2V254c0-0.5-0.2-1-0.5-1.3s-0.7-0.5-1.3-0.5c-0.7,0-1.4,0.3-2.1,0.8l-0.4-0.7
			c0.4-0.3,0.9-0.5,1.3-0.6c0.4-0.1,0.9-0.2,1.3-0.2c0.8,0,1.5,0.2,2,0.7s0.7,1.1,0.7,2v2.7c0,0.3,0.1,0.4,0.4,0.4v1
			c-0.1,0-0.2,0-0.2,0c-0.1,0-0.1,0-0.2,0c-0.2,0-0.4-0.1-0.5-0.2c-0.2-0.1-0.3-0.3-0.3-0.5v-0.5c-0.2,0.2-0.3,0.4-0.5,0.5
			c-0.2,0.2-0.4,0.3-0.6,0.4c-0.2,0.1-0.4,0.2-0.7,0.2C633.6,258.2,633.4,258.3,633.1,258.3z M633.4,257.4c0.4,0,0.7-0.1,1-0.2
			c0.3-0.2,0.6-0.3,0.8-0.6c0.2-0.2,0.2-0.4,0.2-0.5v-1c-0.3-0.1-0.5-0.2-0.8-0.2c-0.3-0.1-0.6-0.1-0.8-0.1c-0.6,0-1,0.1-1.4,0.3
			c-0.3,0.2-0.5,0.6-0.5,1c0,0.2,0,0.3,0.1,0.5c0.1,0.2,0.2,0.3,0.3,0.4c0.1,0.1,0.3,0.2,0.5,0.3C633,257.4,633.2,257.4,633.4,257.4
			z"/>
		<path fill="#FFFFFF" d="M642.8,258.3c-0.6,0-1-0.1-1.5-0.4c-0.4-0.3-0.8-0.6-1-1v4h-1.1v-9.4h1v1.2c0.3-0.4,0.6-0.7,1-1
			c0.4-0.3,0.9-0.4,1.4-0.4s0.9,0.1,1.3,0.3c0.4,0.2,0.7,0.4,1,0.8c0.3,0.4,0.5,0.7,0.7,1.1c0.2,0.4,0.2,0.8,0.2,1.3
			s-0.1,0.9-0.2,1.3c-0.1,0.4-0.3,0.8-0.6,1.1s-0.6,0.6-0.9,0.7C643.8,258,643.2,258.3,642.8,258.3z M642.4,257.3
			c0.3,0,0.6-0.1,0.9-0.2c0.3-0.1,0.5-0.3,0.7-0.6s0.3-0.5,0.4-0.8c0.1-0.3,0.2-0.6,0.2-0.9s-0.1-0.6-0.2-0.9
			c-0.1-0.3-0.3-0.6-0.5-0.8c-0.2-0.2-0.4-0.4-0.7-0.5c-0.3-0.1-0.6-0.2-0.9-0.2c-0.2,0-0.4,0-0.6,0.1s-0.4,0.2-0.6,0.3
			c-0.2,0.1-0.4,0.3-0.5,0.5c-0.1,0.2-0.2,0.4-0.3,0.6v1.9c0.1,0.2,0.2,0.4,0.4,0.6c0.1,0.2,0.3,0.4,0.5,0.5
			c0.2,0.1,0.4,0.3,0.6,0.3C642,257.3,642.2,257.3,642.4,257.3z"/>
	</g>
	<g>
		<path fill="#76E5FF" d="M393.4,203.7l-4.2,11.5H388l-3.6-9.8l-3.6,9.8h-1.1l-4.2-11.5h1.4l3.4,9.3c1-2.8,2.3-6.4,3.4-9.3h1.6
			l3.4,9.3c1-2.8,2.3-6.4,3.3-9.3H393.4z"/>
		<path fill="#76E5FF" d="M405.3,207.9v3.4h-8.1v2c0,0.3,0.3,0.6,0.6,0.6h7.5v1.3h-7.5c-1.1,0-1.9-0.9-1.9-1.9v-5.4
			c0-1.1,0.9-1.9,1.9-1.9h5.6C404.4,206,405.3,206.8,405.3,207.9z M404,209.9v-2c0-0.3-0.3-0.6-0.6-0.6h-5.6c-0.3,0-0.6,0.3-0.6,0.6
			v2H404z"/>
		<path fill="#76E5FF" d="M418.1,207.9v5.4c0,1.1-0.9,1.9-1.9,1.9h-7.5v-12.3h1.3v3h6.2C417.3,206,418.1,206.8,418.1,207.9z
			 M416.8,207.9c0-0.3-0.3-0.6-0.6-0.6h-5.6c-0.4,0-0.6,0.3-0.6,0.6v5.4c0,0.3,0.3,0.6,0.6,0.6h5.6c0.3,0,0.6-0.3,0.6-0.6V207.9z"/>
		<path fill="#76E5FF" d="M436.8,203.7c1.1,0,1.9,0.8,1.9,1.9v9.6h-1.3V211h-8.9v4.2h-1.3v-9.6c0-1.1,0.8-1.9,1.9-1.9H436.8z
			 M437.5,209.7v-4.1c0-0.3-0.3-0.6-0.6-0.6h-7.7c-0.3,0-0.6,0.3-0.6,0.6v4.1H437.5z"/>
		<path fill="#76E5FF" d="M451.7,207.9v5.4c0,1.1-0.9,1.9-1.9,1.9h-6.2v3.7h-1.3v-13h7.5C450.9,206,451.7,206.8,451.7,207.9z
			 M450.4,207.9c0-0.3-0.3-0.6-0.6-0.6h-5.6c-0.4,0-0.6,0.3-0.6,0.6v5.4c0,0.3,0.3,0.6,0.6,0.6h5.6c0.3,0,0.6-0.3,0.6-0.6V207.9z"/>
		<path fill="#76E5FF" d="M464.1,207.9v5.4c0,1.1-0.9,1.9-1.9,1.9H456v3.7h-1.3v-13h7.5C463.2,206,464.1,206.8,464.1,207.9z
			 M462.8,207.9c0-0.3-0.3-0.6-0.6-0.6h-5.6c-0.4,0-0.6,0.3-0.6,0.6v5.4c0,0.3,0.3,0.6,0.6,0.6h5.6c0.3,0,0.6-0.3,0.6-0.6V207.9z"/>
		<path fill="#76E5FF" d="M468.3,202.9v10.4c0,0.3,0.3,0.6,0.6,0.6h1.6v1.3h-1.6c-1.1,0-1.9-0.9-1.9-1.9v-10.4H468.3z"/>
		<path fill="#76E5FF" d="M474.8,202.9v1.3h-1.3v-1.3H474.8z M473.5,206h1.3v9.3h-1.3V206z"/>
		<path fill="#76E5FF" d="M487.8,213.9v1.3h-7.5c-1.1,0-1.9-0.9-1.9-1.9v-5.4c0-1.1,0.9-1.9,1.9-1.9h7.5v1.3h-7.5
			c-0.3,0-0.6,0.3-0.6,0.6v5.4c0,0.3,0.3,0.6,0.6,0.6H487.8z"/>
		<path fill="#76E5FF" d="M500.6,207.9v7.3h-7.5c-1.1,0-1.9-0.9-1.9-1.9v-3.4h8.1v-2c0-0.3-0.3-0.6-0.6-0.6h-7.5V206h7.5
			C499.8,206,500.6,206.8,500.6,207.9z M499.3,211.3h-6.8v2c0,0.3,0.3,0.6,0.6,0.6h6.2V211.3L499.3,211.3z"/>
		<path fill="#76E5FF" d="M505.3,207.3v6c0,0.3,0.3,0.6,0.6,0.6h3.4v1.3h-3.4c-1.1,0-1.9-0.9-1.9-1.9v-10.4h1.3v3h4v1.3L505.3,207.3
			L505.3,207.3z"/>
		<path fill="#76E5FF" d="M513.7,202.9v1.3h-1.3v-1.3H513.7z M512.4,206h1.3v9.3h-1.3V206z"/>
		<path fill="#76E5FF" d="M524.9,206c1.1,0,2,0.9,2,1.9v5.4c0,1.1-0.9,1.9-2,1.9h-5.6c-1.1,0-1.9-0.9-1.9-1.9v-5.4
			c0-1.1,0.9-1.9,1.9-1.9H524.9z M519.3,207.3c-0.3,0-0.6,0.3-0.6,0.6v5.4c0,0.3,0.3,0.6,0.6,0.6h5.6c0.4,0,0.6-0.3,0.6-0.6v-5.4
			c0-0.3-0.3-0.6-0.6-0.6H519.3z"/>
		<path fill="#76E5FF" d="M539.5,207.9v7.3h-1.3v-7.3c0-0.3-0.3-0.6-0.6-0.6H532c-0.4,0-0.6,0.3-0.6,0.6v7.3H530V206h7.5
			C538.6,206,539.5,206.8,539.5,207.9z"/>
	</g>
	<g>
		<path fill="#243846" d="M393.4,204.9l-4.2,11.5H388l-3.6-9.8l-3.6,9.8h-1.1l-4.2-11.5h1.4l3.4,9.3c1-2.8,2.3-6.4,3.4-9.3h1.6
			l3.4,9.3c1-2.8,2.3-6.4,3.3-9.3H393.4z"/>
		<path fill="#243846" d="M405.3,209.1v3.4h-8.1v2c0,0.3,0.3,0.6,0.6,0.6h7.5v1.3h-7.5c-1.1,0-1.9-0.9-1.9-1.9v-5.4
			c0-1.1,0.9-1.9,1.9-1.9h5.6C404.4,207.2,405.3,208,405.3,209.1z M404,211.1v-2c0-0.3-0.3-0.6-0.6-0.6h-5.6c-0.3,0-0.6,0.3-0.6,0.6
			v2H404z"/>
		<path fill="#243846" d="M418.1,209.1v5.4c0,1.1-0.9,1.9-1.9,1.9h-7.5v-12.3h1.3v3h6.2C417.3,207.2,418.1,208,418.1,209.1z
			 M416.8,209.1c0-0.3-0.3-0.6-0.6-0.6h-5.6c-0.4,0-0.6,0.3-0.6,0.6v5.4c0,0.3,0.3,0.6,0.6,0.6h5.6c0.3,0,0.6-0.3,0.6-0.6V209.1z"/>
		<path fill="#243846" d="M436.8,204.9c1.1,0,1.9,0.8,1.9,1.9v9.6h-1.3v-4.2h-8.9v4.2h-1.3v-9.6c0-1.1,0.8-1.9,1.9-1.9H436.8z
			 M437.5,210.9v-4.1c0-0.3-0.3-0.6-0.6-0.6h-7.7c-0.3,0-0.6,0.3-0.6,0.6v4.1H437.5z"/>
		<path fill="#243846" d="M451.7,209.1v5.4c0,1.1-0.9,1.9-1.9,1.9h-6.2v3.7h-1.3v-13h7.5C450.9,207.2,451.7,208,451.7,209.1z
			 M450.4,209.1c0-0.3-0.3-0.6-0.6-0.6h-5.6c-0.4,0-0.6,0.3-0.6,0.6v5.4c0,0.3,0.3,0.6,0.6,0.6h5.6c0.3,0,0.6-0.3,0.6-0.6V209.1z"/>
		<path fill="#243846" d="M464.1,209.1v5.4c0,1.1-0.9,1.9-1.9,1.9H456v3.7h-1.3v-13h7.5C463.2,207.2,464.1,208,464.1,209.1z
			 M462.8,209.1c0-0.3-0.3-0.6-0.6-0.6h-5.6c-0.4,0-0.6,0.3-0.6,0.6v5.4c0,0.3,0.3,0.6,0.6,0.6h5.6c0.3,0,0.6-0.3,0.6-0.6V209.1z"/>
		<path fill="#243846" d="M468.3,204.1v10.4c0,0.3,0.3,0.6,0.6,0.6h1.6v1.3h-1.6c-1.1,0-1.9-0.9-1.9-1.9v-10.4H468.3L468.3,204.1z"
			/>
		<path fill="#243846" d="M474.8,204.1v1.3h-1.3v-1.3H474.8z M473.5,207.2h1.3v9.3h-1.3V207.2z"/>
		<path fill="#243846" d="M487.8,215.1v1.3h-7.5c-1.1,0-1.9-0.9-1.9-1.9v-5.4c0-1.1,0.9-1.9,1.9-1.9h7.5v1.3h-7.5
			c-0.3,0-0.6,0.3-0.6,0.6v5.4c0,0.3,0.3,0.6,0.6,0.6H487.8L487.8,215.1z"/>
		<path fill="#243846" d="M500.6,209.1v7.3h-7.5c-1.1,0-1.9-0.9-1.9-1.9v-3.4h8.1v-2c0-0.3-0.3-0.6-0.6-0.6h-7.5v-1.3h7.5
			C499.8,207.2,500.6,208,500.6,209.1z M499.3,212.5h-6.8v2c0,0.3,0.3,0.6,0.6,0.6h6.2V212.5L499.3,212.5z"/>
		<path fill="#243846" d="M505.3,208.5v6c0,0.3,0.3,0.6,0.6,0.6h3.4v1.3h-3.4c-1.1,0-1.9-0.9-1.9-1.9v-10.4h1.3v3h4v1.3L505.3,208.5
			L505.3,208.5z"/>
		<path fill="#243846" d="M513.7,204.1v1.3h-1.3v-1.3H513.7z M512.4,207.2h1.3v9.3h-1.3V207.2z"/>
		<path fill="#243846" d="M524.9,207.2c1.1,0,2,0.9,2,1.9v5.4c0,1.1-0.9,1.9-2,1.9h-5.6c-1.1,0-1.9-0.9-1.9-1.9v-5.4
			c0-1.1,0.9-1.9,1.9-1.9H524.9z M519.3,208.5c-0.3,0-0.6,0.3-0.6,0.6v5.4c0,0.3,0.3,0.6,0.6,0.6h5.6c0.4,0,0.6-0.3,0.6-0.6v-5.4
			c0-0.3-0.3-0.6-0.6-0.6H519.3z"/>
		<path fill="#243846" d="M539.5,209.1v7.3h-1.3v-7.3c0-0.3-0.3-0.6-0.6-0.6H532c-0.4,0-0.6,0.3-0.6,0.6v7.3H530v-9.3h7.5
			C538.6,207.2,539.5,208,539.5,209.1z"/>
	</g>
</g>
</svg>
