<?xml version="1.0" encoding="UTF-8"?>
<svg width="468px" height="666px" viewBox="0 0 468 666" version="1.1" xmlns="http://www.w3.org/2000/svg" xmlns:xlink="http://www.w3.org/1999/xlink" style="background: #DEDDDB;">
    <!-- Generator: Sketch 46.2 (44496) - http://www.bohemiancoding.com/sketch -->
    <title>book-placeholder</title>
    <desc>Created with Sketch.</desc>
    <defs>
        <polygon id="path-1" points="0.0411219512 0.27342722 0.0411219512 280.317669 280.724483 280.317669 280.724483 0.27342722 0.0411219512 0.27342722"></polygon>
    </defs>
    <g id="Page-1" stroke="none" stroke-width="1" fill="none" fill-rule="evenodd">
        <g id="book-placeholder">
            <g id="002-open-book" transform="translate(94.000000, 173.000000)">
                <path d="M159.493748,131.543363 C160.297364,133.100925 161.896606,134 163.553107,134 C164.242871,134 164.95261,133.842464 165.610416,133.510254 C165.878732,133.376448 192.632413,119.92064 205.826492,115.795704 C208.218697,115.044278 209.545628,112.515794 208.785955,110.146823 C208.031608,107.780489 205.496257,106.462196 203.082081,107.209009 C189.181592,111.560691 162.611671,124.926196 161.48581,125.492402 C159.249401,126.617564 158.357235,129.326655 159.493748,131.543363 Z" id="Fill-1" fill="#9A9A9A"></path>
                <g id="Group-5">
                    <mask id="mask-2" fill="white">
                        <use xlink:href="#path-1"></use>
                    </mask>
                    <g id="Clip-3"></g>
                    <path d="M163.762002,79.6200852 C164.472041,79.6200852 165.202641,79.4566813 165.879783,79.1120973 C166.155985,78.9705718 193.696041,65.0162895 207.277937,60.7356545 C209.740456,59.9582895 211.10639,57.3328881 210.324388,54.8784112 C209.547868,52.4239343 206.937995,51.0565377 204.452859,51.8311679 C190.14379,56.344944 162.792895,70.2082944 161.633941,70.7955912 C159.331798,71.9626642 158.413407,74.7726642 159.583327,77.0719416 C160.410563,78.6875207 162.056812,79.6200852 163.762002,79.6200852 Z" id="Fill-2" fill="#9A9A9A" mask="url(#mask-2)"></path>
                    <path d="M276.046861,70.2855523 C273.458234,70.2855523 271.367183,72.3769854 271.367183,74.9538443 L271.367183,256.97826 C271.367183,264.699265 265.070727,270.980401 257.33089,270.980401 L145.04329,270.980401 L145.04329,260.241552 C151.864737,257.862282 169.633532,252.312703 187.150112,252.312703 C227.908134,252.312703 255.582522,261.315642 255.858039,261.408625 C257.266466,261.876275 258.83801,261.641083 260.069612,260.765265 C261.290249,259.886713 262.010568,258.476243 262.010568,256.97826 L262.010568,51.617854 C262.010568,49.4279684 260.489741,47.5313893 258.345232,47.0616886 C258.345232,47.0616886 254.677839,46.2439854 248.407427,45.096056 C245.877741,44.6284063 243.430985,46.308253 242.962195,48.8399878 C242.493405,51.3771922 244.175293,53.8104745 246.715944,54.2774404 C249.1065,54.715691 251.109139,55.1026642 252.653954,55.4103285 L252.653954,250.777117 C242.049288,248.00472 218.5056,242.97817 187.150112,242.97817 C166.76322,242.97817 146.740256,249.655168 140.545234,251.919577 C135.03832,249.492448 118.391468,242.97817 98.2533634,242.97817 C66.0254049,242.97817 39.4805,248.279567 28.0732707,250.971971 L28.0732707,55.2284647 C37.4168634,52.936708 65.010378,46.949562 98.2533634,46.949562 C115.312805,46.949562 129.943995,52.2454891 135.683934,54.6411679 L135.683934,238.309878 C135.683934,239.989725 136.591359,241.544455 138.055985,242.372414 C139.519927,243.202423 141.327237,243.178494 142.772673,242.310881 C143.23598,242.03535 189.592071,214.412572 230.73801,200.733136 C232.649495,200.095246 233.937298,198.316263 233.937298,196.305506 L233.937298,4.94177129 C233.937298,3.4116545 233.184766,1.97999027 231.921637,1.10690754 C230.666046,0.233141119 229.056807,0.0328175182 227.611371,0.57020438 C190.178059,14.5750803 152.298573,38.0901995 151.918195,38.3226569 C149.728451,39.6900535 149.06159,42.5718418 150.432322,44.7562579 C151.797571,46.9413577 154.683646,47.6059124 156.878873,46.2385158 C157.224298,46.0197324 190.178059,25.5675815 224.580683,11.7678151 L224.580683,192.961538 C192.641263,204.034032 159.296844,222.109647 145.040549,230.204635 L145.040549,51.617854 C145.040549,49.8470754 144.039229,48.2335474 142.454663,47.4404574 C141.648673,47.042545 122.474193,37.6150292 98.2533634,37.6150292 C55.9779415,37.6150292 23.4737805,46.7382993 22.1085317,47.1307421 C20.1004098,47.6995791 18.7166561,49.5346253 18.7166561,51.617854 L18.7166561,256.980995 C18.7166561,258.441375 19.4068195,259.822445 20.5719415,260.703732 C21.3964366,261.325898 22.3895317,261.646552 23.3935927,261.646552 C23.8246878,261.646552 24.2557829,261.587754 24.6759122,261.464689 C25.0000902,261.376491 57.3541561,252.312703 98.2533634,252.312703 C115.358039,252.312703 129.976207,257.624355 135.683934,260.009095 L135.683934,270.983136 L23.3935927,270.983136 C15.6564976,270.983136 9.35661463,264.699265 9.35661463,256.980995 L9.35661463,74.9538443 C9.35661463,72.3769854 7.26350732,70.2855523 4.67967805,70.2855523 C2.09653415,70.2855523 0,72.3769854 0,74.9538443 L0,256.980995 C0,269.848197 10.494322,280.317669 23.3963341,280.317669 L257.33089,280.317669 C270.229476,280.317669 280.724483,269.848197 280.724483,256.980995 L280.724483,74.9538443 C280.724483,72.3769854 278.633432,70.2855523 276.046861,70.2855523 Z" id="Fill-4" fill="#9A9A9A" mask="url(#mask-2)"></path>
                </g>
                <path d="M159.493748,104.543473 C160.297364,106.098329 161.896606,107 163.553107,107 C164.242871,107 164.95261,106.842471 165.610416,106.508299 C165.878732,106.373839 192.632413,92.9186384 205.826492,88.7945475 C208.218697,88.0424957 209.545628,85.5141254 208.785955,83.1478978 C208.031608,80.7790336 205.496257,79.4608009 203.082081,80.2102162 C189.181592,84.5617023 162.611671,97.923968 161.48581,98.4901489 C159.249401,99.6152605 158.357235,102.324229 159.493748,104.543473 Z" id="Fill-6" fill="#9A9A9A"></path>
                <path d="M159.493748,158.543363 C160.297364,160.100925 161.896606,161 163.553107,161 C164.242871,161 164.95261,160.842464 165.610416,160.510254 C165.878732,160.373811 192.632413,146.92064 205.826492,142.793068 C208.218697,142.041641 209.545628,139.513157 208.785955,137.146823 C208.031608,134.780489 205.496257,133.462196 203.082081,134.209009 C189.181592,138.560691 162.611671,151.923559 161.48581,152.492402 C159.249401,153.614928 158.357235,156.326655 159.493748,158.543363 Z" id="Fill-7" fill="#9A9A9A"></path>
                <path d="M113.445618,86.7700877 C85.0418967,79.5151794 52.7666555,88.7587689 51.4110172,89.1541577 C48.9584708,89.8708458 47.4997448,92.6128931 48.1580244,95.2896535 C48.7105211,97.5270115 50.5687966,99 52.5982114,99 C52.9930444,99 53.3932677,98.9427823 53.7928171,98.828347 C54.100733,98.7337177 85.1759782,89.8363685 111.348152,96.5213008 C113.809457,97.1462939 116.296366,95.4781785 116.877836,92.7852797 C117.457283,90.0945816 115.919725,87.4009493 113.445618,86.7700877 Z" id="Fill-8" fill="#9A9A9A"></path>
                <path d="M113.445618,115.769588 C85.0418967,108.515576 52.7666555,117.758827 51.4110172,118.154327 C48.9584708,118.871217 47.4997448,121.614034 48.1580244,124.288611 C48.7105211,126.529533 50.5687966,128 52.5982114,128 C52.9930444,128 53.3932677,127.945701 53.7928171,127.831234 C54.100733,127.736578 85.1759782,118.833795 111.348152,125.520605 C113.809457,126.148708 116.296366,124.480124 116.877836,121.786469 C117.457283,119.095015 115.919725,116.400626 113.445618,115.769588 Z" id="Fill-9" fill="#9A9A9A"></path>
                <path d="M159.493748,188.543452 C160.297364,190.098321 161.896606,191 163.553107,191 C164.242871,191 164.95261,190.84247 165.610416,190.507636 C165.878732,190.373834 192.632413,176.918518 205.826492,172.793732 C208.218697,172.042333 209.545628,169.513941 208.785955,167.147693 C208.031608,164.781445 205.496257,163.460565 203.082081,164.209987 C189.181592,168.56151 162.611671,181.92389 161.48581,182.490076 C159.249401,183.615197 158.357235,186.324189 159.493748,188.543452 Z" id="Fill-10" fill="#9A9A9A"></path>
                <path d="M113.445618,143.767732 C85.0418967,136.520773 52.7666555,145.749975 51.4110172,146.151118 C48.9584708,146.8676 47.4997448,149.611793 48.1580244,152.284852 C48.7105211,154.521568 50.5687966,156 52.5982114,156 C52.9930444,156 53.3932677,155.939865 53.7928171,155.825463 C54.100733,155.727927 85.1759782,146.833132 111.348152,153.516146 C113.809457,154.143893 116.296366,152.473323 116.877836,149.781197 C117.457283,147.094205 115.919725,144.401346 113.445618,143.767732 Z" id="Fill-11" fill="#9A9A9A"></path>
                <path d="M113.445618,199.770588 C85.0418967,192.514783 52.7666555,201.75871 51.4110172,202.153988 C48.9584708,202.870475 47.4997448,205.611753 48.1580244,208.284828 C48.7105211,210.524492 50.5687966,212 52.5982114,212 C52.9930444,212 53.3932677,211.939865 53.7928171,211.825462 C54.100733,211.730859 85.1759782,202.833074 111.348152,209.51613 C113.809457,210.138014 116.296366,208.476234 116.877836,205.783358 C117.457283,203.093415 115.919725,200.401272 113.445618,199.770588 Z" id="Fill-12" fill="#9A9A9A"></path>
                <path d="M113.445618,170.769815 C85.0418967,163.518225 52.7666555,172.751721 51.4110172,173.152795 C48.9584708,173.869155 47.4997448,176.612881 48.1580244,179.285485 C48.7105211,181.521819 50.5687966,183 52.5982114,183 C52.9930444,183 53.3932677,182.939876 53.7928171,182.82256 C54.100733,182.727974 85.1759782,173.834694 111.348152,180.516569 C113.809457,181.141276 116.296366,179.473923 116.877836,176.782256 C117.457283,174.094988 115.919725,171.400388 113.445618,170.769815 Z" id="Fill-13" fill="#9A9A9A"></path>
            </g>
        </g>
    </g>
</svg>