<?xml version="1.0" encoding="UTF-8"?>
<svg width="290px" height="315px" viewBox="0 0 290 315" version="1.1" xmlns="http://www.w3.org/2000/svg" xmlns:xlink="http://www.w3.org/1999/xlink" style="background: #DEDDDB;">
    <!-- Generator: Sketch 46.2 (44496) - http://www.bohemiancoding.com/sketch -->
    <title>course-placeholder</title>
    <desc>Created with Sketch.</desc>
    <defs>
        <polygon id="path-1" points="0.0196097561 0.130388781 0.0196097561 133.674618 133.868615 133.674618 133.868615 0.130388781 0.0196097561 0.130388781"></polygon>
    </defs>
    <g id="Page-1" stroke="none" stroke-width="1" fill="none" fill-rule="evenodd">
        <g id="course-placeholder">
            <g id="002-open-book" transform="translate(78.000000, 80.000000)">
                <path d="M76.2369992,62.8171746 C76.6227348,63.5671119 77.390371,64 78.1854912,64 C78.5165782,64 78.8572527,63.9241494 79.1729998,63.7641966 C79.3017914,63.6997712 92.143558,57.2210491 98.4767161,55.2349688 C99.6249745,54.8731709 100.261902,53.6557525 99.8972584,52.5151369 C99.5351719,51.3757908 98.3182034,50.7410575 97.1593987,51.1006339 C90.4871641,53.1958883 77.7336021,59.6311312 77.1931888,59.9037491 C76.1197126,60.4454939 75.6914726,61.7498707 76.2369992,62.8171746 Z" id="Fill-1" fill="#9A9A9A"></path>
                <g id="Group-5">
                    <mask id="mask-2" fill="white">
                        <use xlink:href="#path-1"></use>
                    </mask>
                    <g id="Clip-3"></g>
                    <path d="M78.0929122,37.9682968 C78.4315073,37.9682968 78.7799073,37.8903747 79.1028146,37.7260535 C79.2345268,37.6585645 92.3675073,31.0042092 98.8442829,28.96291 C100.01858,28.5922092 100.669951,27.3402384 100.297039,26.1697762 C99.9267415,24.9993139 98.6821756,24.3472457 97.4970927,24.7166423 C90.6735512,26.8691192 77.6307756,33.4801119 77.0781073,33.7601752 C75.9802878,34.3167153 75.5423366,35.6567153 76.1002341,36.7531679 C76.4947171,37.5235864 77.279761,37.9682968 78.0929122,37.9682968 Z" id="Fill-2" fill="#9A9A9A" mask="url(#mask-2)"></path>
                    <path d="M131.638005,33.5169538 C130.403571,33.5169538 129.406415,34.514292 129.406415,35.7431144 L129.406415,122.544793 C129.406415,126.226696 126.403834,129.221971 122.712951,129.221971 L69.1665512,129.221971 L69.1665512,124.100954 C72.4194829,122.966355 80.8928585,120.319937 89.245961,120.319937 C108.682171,120.319937 121.87921,124.613153 122.010595,124.657494 C122.682229,124.880501 123.431649,124.768345 124.018961,124.350696 C124.601044,123.931742 124.944541,123.259134 124.944541,122.544793 L124.944541,24.6149197 C124.944541,23.5706326 124.219307,22.6662141 123.196659,22.4422287 C123.196659,22.4422287 121.447795,22.052292 118.457634,21.5048808 C117.251307,21.2818735 116.084527,22.0829392 115.860976,23.2902433 C115.637424,24.5001557 116.439463,25.6605109 117.65102,25.8831922 C118.791,26.09218 119.745995,26.2767153 120.482668,26.4234307 L120.482668,119.587664 C115.425639,118.265596 104.1984,115.868594 89.245961,115.868594 C79.5240976,115.868594 69.9757805,119.052642 67.0215707,120.132467 C64.3954976,118.975046 56.4571415,115.868594 46.8539171,115.868594 C31.4854244,115.868594 18.827,118.396662 13.3872537,119.680584 L13.3872537,26.3367056 C17.8429171,25.2438394 31.0013902,22.3887591 46.8539171,22.3887591 C54.9890244,22.3887591 61.9661756,24.914219 64.7033707,26.0566423 L64.7033707,113.642433 C64.7033707,114.443499 65.1360927,115.1849 65.8345268,115.579727 C66.5326341,115.975533 67.3944829,115.964122 68.0837659,115.550384 C68.3047024,115.418993 90.4104537,102.246564 110.031649,95.7232749 C110.943176,95.4190852 111.557288,94.5707445 111.557288,93.6118783 L111.557288,2.35657421 C111.557288,1.62690998 111.198429,0.944194647 110.596083,0.527849148 C109.997332,0.111177616 109.229937,0.015649635 108.540654,0.271912409 C90.6898927,6.95039416 72.6263659,18.1640097 72.4449756,18.2748613 C71.4007561,18.9269294 71.0827512,20.301163 71.7364098,21.3428418 C72.3874537,22.3848467 73.7637317,22.7017518 74.8105659,22.0496837 C74.9752878,21.9453528 90.6898927,12.1923698 107.095415,5.6116983 L107.095415,92.0172457 C91.8645171,97.2973674 75.9636195,105.917056 69.1652439,109.777299 L69.1652439,24.6149197 C69.1652439,23.7704915 68.6877463,23.0010511 67.9321171,22.6228516 C67.5477659,22.4330998 58.4040634,17.9374161 46.8539171,17.9374161 C26.6941073,17.9374161 11.1939024,22.2880146 10.5428585,22.4751582 C9.58524878,22.7464185 8.92538049,23.6214939 8.92538049,24.6149197 L8.92538049,122.546097 C8.92538049,123.242506 9.25449756,123.901095 9.81010732,124.321353 C10.2032829,124.618044 10.6768585,124.770954 11.1556634,124.770954 C11.361239,124.770954 11.5668146,124.742915 11.767161,124.684229 C11.9217512,124.64217 27.3503805,120.319937 46.8539171,120.319937 C55.0105951,120.319937 61.9815366,122.852895 64.7033707,123.990102 L64.7033707,129.223275 L11.1556634,129.223275 C7.4660878,129.223275 4.46187317,126.226696 4.46187317,122.546097 L4.46187317,35.7431144 C4.46187317,34.514292 3.46373659,33.5169538 2.23159024,33.5169538 C0.999770732,33.5169538 0,34.514292 0,35.7431144 L0,122.546097 C0,128.682058 5.00440976,133.674618 11.1569707,133.674618 L122.712951,133.674618 C128.863878,133.674618 133.868615,128.682058 133.868615,122.546097 L133.868615,35.7431144 C133.868615,34.514292 132.871459,33.5169538 131.638005,33.5169538 Z" id="Fill-4" fill="#9A9A9A" mask="url(#mask-2)"></path>
                </g>
                <path d="M76.2369992,49.8172279 C76.6227348,50.565862 77.390371,51 78.1854912,51 C78.5165782,51 78.8572527,50.9241528 79.1729998,50.7632552 C79.3017914,50.6985153 92.143558,44.2200852 98.4767161,42.2344117 C99.6249745,41.8723128 100.261902,40.6549493 99.8972584,39.5156545 C99.5351719,38.3750903 98.3182034,37.7403856 97.1593987,38.1012152 C90.4871641,40.1963752 77.7336021,46.6300586 77.1931888,46.9026643 C76.1197126,47.4443847 75.6914726,48.7487027 76.2369992,49.8172279 Z" id="Fill-6" fill="#9A9A9A"></path>
                <path d="M76.2369992,75.8171746 C76.6227348,76.5671119 77.390371,77 78.1854912,77 C78.5165782,77 78.8572527,76.9241494 79.1729998,76.7641966 C79.3017914,76.6985017 92.143558,70.2210491 98.4767161,68.2336993 C99.6249745,67.8719014 100.261902,66.6544831 99.8972584,65.5151369 C99.5351719,64.3757908 98.3182034,63.7410575 97.1593987,64.1006339 C90.4871641,66.1958883 77.7336021,72.6298617 77.1931888,72.9037491 C76.1197126,73.4442244 75.6914726,74.7498707 76.2369992,75.8171746 Z" id="Fill-7" fill="#9A9A9A"></path>
                <path d="M54.3000783,41.2927076 C40.7156897,37.9070837 25.2797048,42.2207588 24.6313561,42.4052736 C23.4583991,42.7397281 22.7607475,44.0193501 23.0755769,45.268505 C23.3398144,46.3126054 24.2285549,47 25.1991446,47 C25.3879778,47 25.5793889,46.9732984 25.7704778,46.9198952 C25.9177419,46.8757349 40.7798157,42.7236386 53.2969423,45.8432737 C54.4740884,46.1349371 55.6634796,45.3564833 55.9415735,44.0997972 C56.2187007,42.8441381 55.4833469,41.5871097 54.3000783,41.2927076 Z" id="Fill-8" fill="#9A9A9A"></path>
                <path d="M54.3000783,55.2924742 C40.7156897,51.907269 25.2797048,56.2207861 24.6313561,56.4053527 C23.4583991,56.7399011 22.7607475,58.0198826 23.0755769,59.2680186 C23.3398144,60.313782 24.2285549,61 25.1991446,61 C25.3879778,61 25.5793889,60.9746606 25.7704778,60.9212424 C25.9177419,60.8770697 40.7798157,56.7224375 53.2969423,59.8429488 C54.4740884,60.1360639 55.6634796,59.3573913 55.9415735,58.1003523 C56.2187007,56.8443405 55.4833469,55.586959 54.3000783,55.2924742 Z" id="Fill-9" fill="#9A9A9A"></path>
                <path d="M76.2369992,89.8172178 C76.6227348,90.5658583 77.390371,91 78.1854912,91 C78.5165782,91 78.8572527,90.9241521 79.1729998,90.7629358 C79.3017914,90.6985127 92.143558,84.2200271 98.4767161,82.2340193 C99.6249745,81.8722346 100.261902,80.6548607 99.8972584,79.5155561 C99.5351719,78.3762515 98.3182034,77.740272 97.1593987,78.1011047 C90.4871641,80.1962826 77.7336021,86.6300212 77.1931888,86.9026292 C76.1197126,87.4443542 75.6914726,88.7486834 76.2369992,89.8172178 Z" id="Fill-10" fill="#9A9A9A"></path>
                <path d="M54.3000783,68.2916082 C40.7156897,64.9096941 25.2797048,69.2166552 24.6313561,69.4038548 C23.4583991,69.7382133 22.7607475,71.0188369 23.0755769,72.2662642 C23.3398144,73.3100649 24.2285549,74 25.1991446,74 C25.3879778,74 25.5793889,73.9719372 25.7704778,73.9185493 C25.9177419,73.8730328 40.7798157,69.7221285 53.2969423,72.8408679 C54.4740884,73.1338166 55.6634796,72.3542173 55.9415735,71.097892 C56.2187007,69.8439623 55.4833469,68.5872947 54.3000783,68.2916082 Z" id="Fill-11" fill="#9A9A9A"></path>
                <path d="M54.3000783,95.2929409 C40.7156897,91.9068985 25.2797048,96.2207316 24.6313561,96.4051946 C23.4583991,96.7395551 22.7607475,98.0188179 23.0755769,99.2662532 C23.3398144,100.311429 24.2285549,101 25.1991446,101 C25.3879778,101 25.5793889,100.971937 25.7704778,100.918549 C25.9177419,100.874401 40.7798157,96.7221013 53.2969423,99.8408606 C54.4740884,100.131073 55.6634796,99.3555757 55.9415735,98.0989002 C56.2187007,96.8435936 55.4833469,95.5872603 54.3000783,95.2929409 Z" id="Fill-12" fill="#9A9A9A"></path>
                <path d="M54.3000783,81.2925805 C40.7156897,77.908505 25.2797048,82.2174699 24.6313561,82.4046377 C23.4583991,82.7389391 22.7607475,84.0193446 23.0755769,85.2665595 C23.3398144,86.3101824 24.2285549,87 25.1991446,87 C25.3879778,87 25.5793889,86.9719419 25.7704778,86.9171945 C25.9177419,86.8730544 40.7798157,82.7228571 53.2969423,85.8410654 C54.4740884,86.1325954 55.6634796,85.3544976 55.9415735,84.0983862 C56.2187007,82.8443279 55.4833469,81.5868479 54.3000783,81.2925805 Z" id="Fill-13" fill="#9A9A9A"></path>
            </g>
        </g>
    </g>
</svg>