<?xml version="1.0" encoding="UTF-8"?>
<svg width="586px" height="324px" viewBox="0 0 586 324" version="1.1" xmlns="http://www.w3.org/2000/svg" xmlns:xlink="http://www.w3.org/1999/xlink" style="background: #DEDDDB;">
    <!-- Generator: Sketch 46.2 (44496) - http://www.bohemiancoding.com/sketch -->
    <title>project-placeholder</title>
    <desc>Created with Sketch.</desc>
    <defs></defs>
    <g id="Page-1" stroke="none" stroke-width="1" fill="none" fill-rule="evenodd">
        <g id="project-placeholder" fill="#9A9A9A">
            <g id="001-binary-code" transform="translate(196.000000, 102.000000)">
                <path d="M56.9671244,0.00187165061 C55.9994991,0.0294655178 55.0782896,0.420456585 54.3938949,1.09627248 L43.011629,12.3372657 C41.5130651,13.782436 41.4855946,16.1555086 42.9491099,17.6352882 C44.4140462,19.1155354 46.8158218,19.1426616 48.3162802,17.6974913 C48.3366463,17.6755097 48.3570124,17.6553989 48.379273,17.6338851 L53.2837072,12.7923306 L53.2837072,44.958829 L45.6947406,44.958829 C43.5984561,44.929832 41.8758653,46.5849964 41.8465003,48.6531333 C41.8166616,50.7231411 43.4909422,52.4236716 45.5872267,52.4531362 C45.6222752,52.455007 45.6573238,52.455007 45.692846,52.4531362 L56.4546572,52.4531362 C56.8619786,52.5186132 57.2745099,52.5186132 57.6813577,52.4531362 L64.6654994,52.4531362 C66.7598894,52.4821332 68.4843746,50.8288396 68.5137397,48.7588319 C68.5435783,46.6906949 66.8674033,44.9882936 64.7730133,44.958829 C64.7379647,44.958829 64.700548,44.958829 64.6654994,44.958829 L60.8712529,44.958829 L60.8712529,3.74528373 C60.8712529,1.675276 59.1709228,-0.00140219804 57.0746383,8.79950523e-07 C57.0395897,8.79950523e-07 57.0026466,8.79950523e-07 56.9671244,0.00187165061 Z M98.8132442,0.00187165061 C97.845619,0.0294655178 96.926304,0.420456585 96.2414356,1.09627248 L84.8577489,12.3372657 C83.3463969,13.7698083 83.2961922,16.1410101 84.7488141,17.6338851 C86.2009624,19.1281631 88.6022643,19.1754001 90.1140899,17.7433252 C90.151033,17.7068451 90.1879761,17.6722359 90.2230247,17.6338851 L95.129827,12.7904599 L95.129827,44.958829 L87.5403868,44.958829 C85.4441023,44.929832 83.7219852,46.5849964 83.6921465,48.6531333 C83.6627815,50.7231411 85.337062,52.4236716 87.4333465,52.4531362 C87.4683951,52.455007 87.5034437,52.455007 87.5403868,52.4531362 L98.3026715,52.4531362 C98.7095193,52.5186132 99.1239452,52.5186132 99.5326875,52.4531362 L106.511619,52.4531362 C108.606009,52.4821332 110.330021,50.8288396 110.35986,48.7588319 C110.389225,46.6906949 108.714944,44.9882936 106.61866,44.958829 C106.583611,44.958829 106.548562,44.958829 106.511619,44.958829 L102.716899,44.958829 L102.716899,3.74528373 C102.716899,1.675276 101.016569,-0.00140219804 98.9202845,8.79950523e-07 C98.8852359,8.79950523e-07 98.8482928,8.79950523e-07 98.8132442,0.00187165061 Z M13.3340001,0.0275947471 C6.04294651,0.0275947471 0.053900581,5.93969771 0.053900581,13.1412294 L0.053900581,39.3684986 C0.053900581,46.5686271 6.04294651,52.4821332 13.3340001,52.4821332 C20.6274219,52.4821332 26.6140997,46.5686271 26.6140997,39.3684986 L26.6140997,13.1412294 C26.6140997,5.93969771 20.6274219,0.0275947471 13.3340001,0.0275947471 Z M138.871886,0.0275947471 C131.580359,0.0275947471 125.591787,5.93969771 125.591787,13.1412294 L125.591787,39.3684986 C125.591787,46.5686271 131.580359,52.4821332 138.871886,52.4821332 C146.164834,52.4821332 152.151986,46.5686271 152.151986,39.3684986 L152.151986,13.1412294 C152.151986,5.93969771 146.163413,0.0275947471 138.871886,0.0275947471 Z M180.719427,0.0275947471 C173.426479,0.0275947471 167.439327,5.93969771 167.439327,13.1412294 L167.439327,39.3684986 C167.439327,46.5686271 173.426479,52.4821332 180.719427,52.4821332 C188.010954,52.4821332 194,46.5686271 194,39.3684986 L194,13.1412294 C194,5.93969771 188.010954,0.0275947471 180.719427,0.0275947471 Z M13.3340001,7.52003122 C16.5532603,7.52003122 19.025133,9.96232232 19.025133,13.1412294 L19.025133,39.3684986 C19.025133,42.5455348 16.5532603,44.9882936 13.3340001,44.9882936 C10.1166344,44.9882936 7.64334083,42.5455348 7.64334083,39.3684986 L7.64334083,13.1412294 C7.64334083,9.96232232 10.1166344,7.52003122 13.3340001,7.52003122 Z M138.871886,7.52003122 C142.091146,7.52003122 144.564914,9.96232232 144.564914,13.1412294 L144.564914,39.3684986 C144.564914,42.5455348 142.091146,44.9882936 138.871886,44.9882936 C135.65452,44.9882936 133.180753,42.5455348 133.180753,39.3684986 L133.180753,13.1412294 C133.180753,9.96232232 135.652626,7.52003122 138.871886,7.52003122 Z M180.719427,7.52003122 C183.936793,7.52003122 186.41056,9.96232232 186.41056,13.1412294 L186.41056,39.3684986 C186.41056,42.5455348 183.936793,44.9882936 180.719427,44.9882936 C177.50064,44.9882936 175.026873,42.5455348 175.026873,39.3684986 L175.026873,13.1412294 C175.026873,9.96232232 177.50064,7.52003122 180.719427,7.52003122 Z M15.1214781,67.4960031 C14.1538529,67.525 13.2340643,67.9159911 12.5496696,68.5922747 L1.16598281,79.8313971 C-0.316004114,81.2966782 -0.312215077,83.6697508 1.16977185,85.1312904 C2.65175878,86.5928299 5.05116619,86.5928299 6.53315311,85.1312904 L11.4375873,80.2878651 L11.4375873,112.456702 L3.8486207,112.456702 C1.75423074,112.427237 0.0297454728,114.080531 0.000380439424,116.150539 C-0.028984594,118.218676 1.64529594,119.921545 3.74110679,119.950542 C3.77662901,119.950542 3.8116776,119.950542 3.8486207,119.950542 L14.6109054,119.950542 C15.0177532,120.016486 15.4321791,120.016486 15.8409214,119.950542 L22.8198532,119.950542 C24.9142431,119.980006 26.6382548,118.324842 26.6680934,116.256705 C26.6974585,114.188568 25.0231779,112.485699 22.9268935,112.456702 C22.8918449,112.456702 22.8567963,112.456702 22.8198532,112.456702 L19.025133,112.456702 L19.025133,71.2412859 C19.025133,69.173149 17.3266974,67.4960031 15.2304129,67.4960031 C15.1934698,67.4960031 15.1565267,67.4960031 15.1214781,67.4960031 Z M98.8132442,67.4960031 C97.845619,67.525 96.926304,67.9159911 96.2414356,68.5922747 L84.8577489,79.8313971 C83.3591849,81.2784382 83.3298199,83.64964 84.7947562,85.1312904 C86.2582715,86.6110699 88.6595735,86.6386638 90.160032,85.1934935 C90.180398,85.1733827 90.2026586,85.1532719 90.2230247,85.1312904 L95.129827,80.2864621 L95.129827,112.456702 L87.5403868,112.456702 C85.4441023,112.427237 83.7219852,114.080531 83.6921465,116.150539 C83.6627815,118.218676 85.337062,119.921545 87.4333465,119.950542 C87.4683951,119.950542 87.5034437,119.950542 87.5403868,119.950542 L98.3026715,119.950542 C98.7095193,120.016486 99.1239452,120.016486 99.5326875,119.950542 L106.511619,119.950542 C108.606009,119.980006 110.330021,118.324842 110.35986,116.256705 C110.389225,114.188568 108.714944,112.485699 106.61866,112.456702 C106.583611,112.456702 106.548562,112.456702 106.511619,112.456702 L102.716899,112.456702 L102.716899,71.2412859 C102.716899,69.173149 101.018464,67.4960031 98.922179,67.4960031 C98.8852359,67.4960031 98.8482928,67.4960031 98.8132442,67.4960031 Z M140.65747,67.4960031 C139.691739,67.525 138.770056,67.9159911 138.085661,68.5922747 L126.703869,79.8313971 C125.20341,81.2784382 125.175466,83.64964 126.638982,85.1312904 C128.104391,86.6110699 130.505693,86.6386638 132.006152,85.1934935 C132.026518,85.1733827 132.048778,85.1532719 132.069145,85.1312904 L136.975473,80.2864621 L136.975473,112.456702 L129.386507,112.456702 C127.290222,112.427237 125.567631,114.080531 125.538266,116.150539 C125.508428,118.218676 127.182708,119.921545 129.278993,119.950542 C129.314041,119.950542 129.349564,119.950542 129.384612,119.950542 L140.146423,119.950542 C140.555639,120.016486 140.970065,120.016486 141.376913,119.950542 L148.357265,119.950542 C150.451655,119.980006 152.176141,118.324842 152.205506,116.256705 C152.235344,114.188568 150.559169,112.485699 148.464779,112.456702 C148.429731,112.456702 148.392788,112.456702 148.357265,112.456702 L144.563019,112.456702 L144.563019,71.2412859 C144.563019,69.173149 142.864583,67.4960031 140.768299,67.4960031 C140.73325,67.4960031 140.696307,67.4960031 140.65747,67.4960031 Z M55.18012,67.5217262 C47.8885927,67.5217262 41.9000204,73.4352322 41.9000204,80.6353608 L41.9000204,106.86263 C41.9000204,114.062291 47.8885927,119.976265 55.18012,119.976265 C62.4730681,119.976265 68.4602195,114.062291 68.4602195,106.86263 L68.4602195,80.6353608 C68.4602195,73.4352322 62.4711736,67.5217262 55.18012,67.5217262 Z M180.719427,67.5217262 C173.426479,67.5217262 167.439327,73.4352322 167.439327,80.6353608 L167.439327,106.86263 C167.439327,114.062291 173.426479,119.976265 180.719427,119.976265 C188.010954,119.976265 194,114.062291 194,106.86263 L194,80.6353608 C194,73.4352322 188.010954,67.5217262 180.719427,67.5217262 Z M55.18012,75.0155657 C58.3993802,75.0155657 60.8726738,77.4564537 60.8726738,80.6353608 L60.8726738,106.86263 C60.8726738,110.041537 58.3993802,112.481957 55.18012,112.481957 C51.9627543,112.481957 49.4889871,110.041537 49.4889871,106.86263 L49.4889871,80.6353608 C49.4889871,77.4564537 51.9608598,75.0155657 55.18012,75.0155657 Z M180.719427,75.0155657 C183.936793,75.0155657 186.41056,77.4564537 186.41056,80.6353608 L186.41056,106.86263 C186.41056,110.041537 183.936793,112.481957 180.719427,112.481957 C177.50064,112.481957 175.026873,110.041537 175.026873,106.86263 L175.026873,80.6353608 C175.026873,77.4564537 177.50064,75.0155657 180.719427,75.0155657 Z" id="Fill-1"></path>
            </g>
        </g>
    </g>
</svg>