<?xml version="1.0" encoding="utf-8"?>
<!-- Generator: Adobe Illustrator 15.0.0, SVG Export Plug-In . SVG Version: 6.00 Build 0)  -->
<!DOCTYPE svg PUBLIC "-//W3C//DTD SVG 1.1//EN" "https://www.w3.org/Graphics/SVG/1.1/DTD/svg11.dtd">
<svg version="1.1" id="Layer_1" xmlns="https://www.w3.org/2000/svg" xmlns:xlink="https://www.w3.org/1999/xlink" x="0px" y="0px"
	 width="254px" height="36px" viewBox="0 0 254 36" enable-background="new 0 0 254 36" xml:space="preserve">
<g>
	<g>
		<path fill="#373737" d="M28.4,5.2c-0.6-0.6-1.2-1-1.9-1.4c-0.7-0.3-1.5-0.5-2.3-0.5H7.1c-0.8,0-1.6,0.2-2.3,0.5
			C4,4.2,3.4,4.7,2.9,5.2c-0.5,0.6-1,1.3-1.3,2C1.3,8.1,1.1,8.9,1.1,9.8v18.4c0,0.9,0.2,1.7,0.5,2.5c0.3,0.8,0.7,1.5,1.3,2
			c0.5,0.6,1.2,1,1.9,1.4c0.7,0.3,1.5,0.5,2.3,0.5h17.1c0.8,0,1.6-0.2,2.3-0.5c0.7-0.3,1.4-0.8,1.9-1.4c0.6-0.6,1-1.3,1.3-2
			c0.3-0.8,0.5-1.6,0.5-2.5V9.8c0-0.9-0.2-1.7-0.5-2.5C29.4,6.5,29,5.8,28.4,5.2z M23.9,27.8H7.4V10.1h16.5V27.8z M65.3,11.3
			c-0.5-0.6-1.1-1-1.9-1.4c-0.7-0.3-1.5-0.5-2.3-0.5H32.9v25.1h6.2V16.1h7.8v18.5h6.2V16.1h7.8v18.5H67V15.7c0-0.9-0.2-1.7-0.5-2.4
			C66.2,12.6,65.8,11.9,65.3,11.3z M91.5,11.3c-0.5-0.6-1.1-1-1.9-1.4c-0.7-0.3-1.5-0.5-2.3-0.5H69.5v6.6H87v2.6H69.5v9.6
			c0,0.9,0.2,1.7,0.5,2.4c0.3,0.8,0.7,1.4,1.3,2c0.5,0.6,1.1,1,1.9,1.4c0.7,0.3,1.5,0.5,2.3,0.5h17.9V15.7c0-0.9-0.2-1.7-0.5-2.4
			C92.4,12.6,92,11.9,91.5,11.3z M87,27.9H75.6v-3.5H87V27.9z M99.1,9.9c-0.7,0.3-1.3,0.8-1.9,1.4c-0.5,0.6-1,1.2-1.3,2
			c-0.3,0.8-0.5,1.6-0.5,2.4v18.8h6.2V16.1h12.6V9.4h-12.9C100.6,9.4,99.8,9.6,99.1,9.9z M153.3,5.2c-0.5-0.6-1.2-1-1.9-1.4
			c-0.7-0.3-1.5-0.5-2.3-0.5H132c-0.8,0-1.6,0.2-2.3,0.5c-0.7,0.3-1.4,0.8-1.9,1.4c-0.5,0.6-1,1.3-1.3,2c-0.3,0.8-0.5,1.6-0.5,2.5
			v24.8h6.3v-10h16.5v10h6.3V9.8c0-0.9-0.2-1.7-0.5-2.5C154.3,6.5,153.8,5.8,153.3,5.2z M148.7,17.8h-16.5v-7.6h16.5V17.8z
			 M164.1,1.2h-6.2v27.1c0,0.9,0.2,1.7,0.5,2.4c0.3,0.8,0.7,1.4,1.3,2c0.5,0.6,1.2,1,1.9,1.4c0.7,0.3,1.5,0.5,2.3,0.5h5.1v-6.6h-4.7
			V1.2z M192.1,11.3c-0.5-0.6-1.1-1-1.9-1.4c-0.7-0.3-1.5-0.5-2.3-0.5h-11.7V1.2h-6.2v33.4H188c0.8,0,1.6-0.2,2.3-0.5
			c0.7-0.3,1.3-0.8,1.9-1.4c0.5-0.6,0.9-1.2,1.3-2c0.3-0.8,0.5-1.6,0.5-2.4V15.7c0-0.9-0.2-1.7-0.5-2.4
			C193.1,12.6,192.6,11.9,192.1,11.3z M187.7,27.9h-11.4V16.1h11.4V27.9z M217.3,11.3c-0.5-0.6-1.1-1-1.9-1.4
			c-0.7-0.3-1.5-0.5-2.3-0.5h-12c-0.8,0-1.6,0.2-2.3,0.5c-0.7,0.3-1.3,0.8-1.9,1.4c-0.5,0.6-1,1.2-1.3,2c-0.3,0.8-0.5,1.6-0.5,2.4
			v12.6c0,0.9,0.2,1.7,0.5,2.4c0.3,0.8,0.7,1.4,1.3,2c0.5,0.6,1.2,1,1.9,1.4c0.7,0.3,1.5,0.5,2.3,0.5H219v-6.6h-17.6v-2.6H219v-9.6
			c0-0.9-0.2-1.7-0.5-2.4C218.2,12.6,217.8,11.9,217.3,11.3z M212.8,19.5h-11.4v-3.5h11.4V19.5z M220.9,34.6h6.2V9.4h-6.2V34.6z
			 M220.9,7.9h6.2V1.2h-6.2V7.9z M252.5,9.4h-6.2l-8,9.2h-3.1V1.2h-6.2v33.4h6.2v-9.2h3.1l8,9.2h6.2v-2.3L243.8,22l8.7-10.3V9.4z"/>
	</g>
</g>
</svg>
