<?xml version="1.0" encoding="UTF-8"?>
<svg width="308px" height="100px" viewBox="0 0 308 100" version="1.1" xmlns="http://www.w3.org/2000/svg" xmlns:xlink="http://www.w3.org/1999/xlink">
    <!-- Generator: Sketch 46.2 (44496) - http://www.bohemiancoding.com/sketch -->
    <title>connect-ascii</title>
    <desc>Created with Sketch.</desc>
    <defs></defs>
    <g id="Page-1" stroke="none" stroke-width="1" fill="none" fill-rule="evenodd">
        <g id="connect-ascii" fill="#BBBBBB">
            <path d="M23,20 L14,20 L14,19 L23,19 L23,20 Z M31,20 L22,20 L22,19 L31,19 L31,20 Z M38,20 L29,20 L29,19 L38,19 L38,20 Z M61,20 L52,20 L52,19 L61,19 L61,20 Z M69,20 L60,20 L60,19 L69,19 L69,20 Z M100,20 L91,20 L91,19 L100,19 L100,20 Z M108,20 L99,20 L99,19 L108,19 L108,20 Z M123,20 L114,20 L114,19 L123,19 L123,20 Z M146,20 L137,20 L137,19 L146,19 L146,20 Z M154,20 L145,20 L145,19 L154,19 L154,20 Z M170,20 L161,20 L161,19 L170,19 L170,20 Z M193,20 L184,20 L184,19 L193,19 L193,20 Z M201,20 L192,20 L192,19 L201,19 L201,20 Z M208,20 L199,20 L199,19 L208,19 L208,20 Z M216,20 L207,20 L207,19 L216,19 L216,20 Z M239,20 L230,20 L230,19 L239,19 L239,20 Z M247,20 L238,20 L238,19 L247,19 L247,20 Z M255,20 L246,20 L246,19 L255,19 L255,20 Z M278,20 L269,20 L269,19 L278,19 L278,20 Z M286,20 L277,20 L277,19 L286,19 L286,20 Z M293,20 L284,20 L284,19 L293,19 L293,20 Z M301,20 L292,20 L292,19 L301,19 L301,20 Z M15,22 L8.52727273,36 L7,36 L13.4727273,22 L15,22 Z M31,37 L22,37 L22,36 L31,36 L31,37 Z M38,37 L29,37 L29,36 L38,36 L38,37 Z M44,27.0265957 L44,31.9734043 C44,33.207453 43.8033353,34.207443 43.41,34.9734043 C43.0166647,35.7393655 42.4666702,36.4148907 41.76,37 L40,37 C40.9200046,36.1063785 41.5333318,35.3484074 41.84,34.7260638 C42.1466682,34.1037203 42.3,33.1968145 42.3,32.0053191 L42.3,26.9946809 C42.3,25.8031855 42.1466682,24.8962797 41.84,24.2739362 C41.5333318,23.6515926 40.9200046,22.8936215 40,22 L41.76,22 C42.4666702,22.5851093 43.0166647,23.2606345 43.41,24.0265957 C43.8033353,24.792557 44,25.792547 44,27.0265957 Z M53,22 L46.5272727,36 L45,36 L51.4727273,22 L53,22 Z M74.4727273,36 L68,22 L69.5272727,22 L76,36 L74.4727273,36 Z M86,27.0265957 C86,25.792547 86.1966647,24.792557 86.59,24.0265957 C86.9833353,23.2606345 87.5333298,22.5851093 88.24,22 L90,22 C89.0799954,22.8936215 88.4666682,23.6515926 88.16,24.2739362 C87.8533318,24.8962797 87.7,25.8031855 87.7,26.9946809 L87.7,32.0053191 C87.7,33.1968145 87.8533318,34.1037203 88.16,34.7260638 C88.4666682,35.3484074 89.0799954,36.1063785 90,37 L88.24,37 C87.5333298,36.4148907 86.9833353,35.7393655 86.59,34.9734043 C86.1966647,34.207443 86,33.207453 86,31.9734043 L86,27.0265957 Z M109,27.0265957 C109,25.792547 109.196665,24.792557 109.59,24.0265957 C109.983335,23.2606345 110.53333,22.5851093 111.24,22 L113,22 C112.079995,22.8936215 111.466668,23.6515926 111.16,24.2739362 C110.853332,24.8962797 110.7,25.8031855 110.7,26.9946809 L110.7,32.0053191 C110.7,33.1968145 110.853332,34.1037203 111.16,34.7260638 C111.466668,35.3484074 112.079995,36.1063785 113,37 L111.24,37 C110.53333,36.4148907 109.983335,35.7393655 109.59,34.9734043 C109.196665,34.207443 109,33.207453 109,31.9734043 L109,27.0265957 Z M129.472727,36 L123,22 L124.527273,22 L131,36 L129.472727,36 Z M132,27.0265957 C132,25.792547 132.196665,24.792557 132.59,24.0265957 C132.983335,23.2606345 133.53333,22.5851093 134.24,22 L136,22 C135.079995,22.8936215 134.466668,23.6515926 134.16,24.2739362 C133.853332,24.8962797 133.7,25.8031855 133.7,26.9946809 L133.7,32.0053191 C133.7,33.1968145 133.853332,34.1037203 134.16,34.7260638 C134.466668,35.3484074 135.079995,36.1063785 136,37 L134.24,37 C133.53333,36.4148907 132.983335,35.7393655 132.59,34.9734043 C132.196665,34.207443 132,33.207453 132,31.9734043 L132,27.0265957 Z M156,27.0265957 C156,25.792547 156.196665,24.792557 156.59,24.0265957 C156.983335,23.2606345 157.53333,22.5851093 158.24,22 L160,22 C159.079995,22.8936215 158.466668,23.6515926 158.16,24.2739362 C157.853332,24.8962797 157.7,25.8031855 157.7,26.9946809 L157.7,32.0053191 C157.7,33.1968145 157.853332,34.1037203 158.16,34.7260638 C158.466668,35.3484074 159.079995,36.1063785 160,37 L158.24,37 C157.53333,36.4148907 156.983335,35.7393655 156.59,34.9734043 C156.196665,34.207443 156,33.207453 156,31.9734043 L156,27.0265957 Z M175.472727,36 L169,22 L170.527273,22 L177,36 L175.472727,36 Z M179,27.0265957 C179,25.792547 179.196665,24.792557 179.59,24.0265957 C179.983335,23.2606345 180.53333,22.5851093 181.24,22 L183,22 C182.079995,22.8936215 181.466668,23.6515926 181.16,24.2739362 C180.853332,24.8962797 180.7,25.8031855 180.7,26.9946809 L180.7,32.0053191 C180.7,33.1968145 180.853332,34.1037203 181.16,34.7260638 C181.466668,35.3484074 182.079995,36.1063785 183,37 L181.24,37 C180.53333,36.4148907 179.983335,35.7393655 179.59,34.9734043 C179.196665,34.207443 179,33.207453 179,31.9734043 L179,27.0265957 Z M208,37 L199,37 L199,36 L208,36 L208,37 Z M216,37 L207,37 L207,36 L216,36 L216,37 Z M221,27.0265957 L221,31.9734043 C221,33.207453 220.803335,34.207443 220.41,34.9734043 C220.016665,35.7393655 219.46667,36.4148907 218.76,37 L217,37 C217.920005,36.1063785 218.533332,35.3484074 218.84,34.7260638 C219.146668,34.1037203 219.3,33.1968145 219.3,32.0053191 L219.3,26.9946809 C219.3,25.8031855 219.146668,24.8962797 218.84,24.2739362 C218.533332,23.6515926 217.920005,22.8936215 217,22 L218.76,22 C219.46667,22.5851093 220.016665,23.2606345 220.41,24.0265957 C220.803335,24.792557 221,25.792547 221,27.0265957 Z M231,22 L224.527273,36 L223,36 L229.472727,22 L231,22 Z M247,37 L238,37 L238,36 L247,36 L247,37 Z M255,37 L246,37 L246,36 L255,36 L255,37 Z M260,27.0265957 L260,31.9734043 C260,33.207453 259.803335,34.207443 259.41,34.9734043 C259.016665,35.7393655 258.46667,36.4148907 257.76,37 L256,37 C256.920005,36.1063785 257.533332,35.3484074 257.84,34.7260638 C258.146668,34.1037203 258.3,33.1968145 258.3,32.0053191 L258.3,26.9946809 C258.3,25.8031855 258.146668,24.8962797 257.84,24.2739362 C257.533332,23.6515926 256.920005,22.8936215 256,22 L257.76,22 C258.46667,22.5851093 259.016665,23.2606345 259.41,24.0265957 C259.803335,24.792557 260,25.792547 260,27.0265957 Z M264,27.0265957 C264,25.792547 264.196665,24.792557 264.59,24.0265957 C264.983335,23.2606345 265.53333,22.5851093 266.24,22 L268,22 C267.079995,22.8936215 266.466668,23.6515926 266.16,24.2739362 C265.853332,24.8962797 265.7,25.8031855 265.7,26.9946809 L265.7,32.0053191 C265.7,33.1968145 265.853332,34.1037203 266.16,34.7260638 C266.466668,35.3484074 267.079995,36.1063785 268,37 L266.24,37 C265.53333,36.4148907 264.983335,35.7393655 264.59,34.9734043 C264.196665,34.207443 264,33.207453 264,31.9734043 L264,27.0265957 Z M278,37 L269,37 L269,36 L278,36 L278,37 Z M301,37 L292,37 L292,36 L301,36 L301,37 Z M306,27.0265957 L306,31.9734043 C306,33.207453 305.803335,34.207443 305.41,34.9734043 C305.016665,35.7393655 304.46667,36.4148907 303.76,37 L302,37 C302.920005,36.1063785 303.533332,35.3484074 303.84,34.7260638 C304.146668,34.1037203 304.3,33.1968145 304.3,32.0053191 L304.3,26.9946809 C304.3,25.8031855 304.146668,24.8962797 303.84,24.2739362 C303.533332,23.6515926 302.920005,22.8936215 302,22 L303.76,22 C304.46667,22.5851093 305.016665,23.2606345 305.41,24.0265957 C305.803335,24.792557 306,25.792547 306,27.0265957 Z M1,44.0265957 C1,42.792547 1.1966647,41.792557 1.59,41.0265957 C1.9833353,40.2606345 2.5333298,39.5851093 3.24,39 L5,39 C4.0799954,39.8936215 3.4666682,40.6515926 3.16,41.2739362 C2.8533318,41.8962797 2.7,42.8031855 2.7,43.9946809 L2.7,49.0053191 C2.7,50.1968145 2.8533318,51.1037203 3.16,51.7260638 C3.4666682,52.3484074 4.0799954,53.1063785 5,54 L3.24,54 C2.5333298,53.4148907 1.9833353,52.7393655 1.59,51.9734043 C1.1966647,51.207443 1,50.207453 1,48.9734043 L1,44.0265957 Z M16,44.0265957 C16,42.792547 16.1966647,41.792557 16.59,41.0265957 C16.9833353,40.2606345 17.5333298,39.5851093 18.24,39 L20,39 C19.0799954,39.8936215 18.4666682,40.6515926 18.16,41.2739362 C17.8533318,41.8962797 17.7,42.8031855 17.7,43.9946809 L17.7,49.0053191 C17.7,50.1968145 17.8533318,51.1037203 18.16,51.7260638 C18.4666682,52.3484074 19.0799954,53.1063785 20,54 L18.24,54 C17.5333298,53.4148907 16.9833353,52.7393655 16.59,51.9734043 C16.1966647,51.207443 16,50.207453 16,48.9734043 L16,44.0265957 Z M31,55 L22,55 L22,54 L31,54 L31,55 Z M38,55 L29,55 L29,54 L38,54 L38,55 Z M40,44.0265957 C40,42.792547 40.1966647,41.792557 40.59,41.0265957 C40.9833353,40.2606345 41.5333298,39.5851093 42.24,39 L44,39 C43.0799954,39.8936215 42.4666682,40.6515926 42.16,41.2739362 C41.8533318,41.8962797 41.7,42.8031855 41.7,43.9946809 L41.7,49.0053191 C41.7,50.1968145 41.8533318,51.1037203 42.16,51.7260638 C42.4666682,52.3484074 43.0799954,53.1063785 44,54 L42.24,54 C41.5333298,53.4148907 40.9833353,52.7393655 40.59,51.9734043 C40.1966647,51.207443 40,50.207453 40,48.9734043 L40,44.0265957 Z M68,49.3285714 C68,50.2190521 67.7287527,50.8869025 67.18625,51.3321429 C66.6437473,51.7773832 65.8650051,52 64.85,52 L64.15,52 C63.1349949,52 62.3562527,51.7773832 61.81375,51.3321429 C61.2712473,50.8869025 61,50.2190521 61,49.3285714 L61,43.6714286 C61,42.7809479 61.2712473,42.1130975 61.81375,41.6678571 C62.3562527,41.2226168 63.1349949,41 64.15,41 L64.85,41 C65.8650051,41 66.6437473,41.2226168 67.18625,41.6678571 C67.7287527,42.1130975 68,42.7809479 68,43.6714286 L68,49.3285714 Z M67,48.9051095 L67,43.0948905 C67,42.7931858 66.8643081,42.5352809 66.5929204,42.3211679 C66.3215326,42.1070549 65.9675538,42 65.5309735,42 L64.4690265,42 C64.0324462,42 63.6784674,42.1070549 63.4070796,42.3211679 C63.1356919,42.5352809 63,42.7931858 63,43.0948905 L63,48.9051095 C63,49.2068142 63.1356919,49.4647191 63.4070796,49.6788321 C63.6784674,49.8929451 64.0324462,50 64.4690265,50 L65.5309735,50 C65.9675538,50 66.3215326,49.8929451 66.5929204,49.6788321 C66.8643081,49.4647191 67,49.2068142 67,48.9051095 Z M82,44.0265957 L82,48.9734043 C82,50.207453 81.8033353,51.207443 81.41,51.9734043 C81.0166647,52.7393655 80.4666702,53.4148907 79.76,54 L78,54 C78.9200046,53.1063785 79.5333318,52.3484074 79.84,51.7260638 C80.1466682,51.1037203 80.3,50.1968145 80.3,49.0053191 L80.3,43.9946809 C80.3,42.8031855 80.1466682,41.8962797 79.84,41.2739362 C79.5333318,40.6515926 78.9200046,39.8936215 78,39 L79.76,39 C80.4666702,39.5851093 81.0166647,40.2606345 81.41,41.0265957 C81.8033353,41.792557 82,42.792547 82,44.0265957 Z M92,40 L85.5272727,54 L84,54 L90.4727273,40 L92,40 Z M131,40 L124.527273,54 L123,54 L129.472727,40 L131,40 Z M138,40 L131.527273,54 L130,54 L136.472727,40 L138,40 Z M177,40 L170.527273,54 L169,54 L175.472727,40 L177,40 Z M191,44.0265957 L191,48.9734043 C191,50.207453 190.803335,51.207443 190.41,51.9734043 C190.016665,52.7393655 189.46667,53.4148907 188.76,54 L187,54 C187.920005,53.1063785 188.533332,52.3484074 188.84,51.7260638 C189.146668,51.1037203 189.3,50.1968145 189.3,49.0053191 L189.3,43.9946809 C189.3,42.8031855 189.146668,41.8962797 188.84,41.2739362 C188.533332,40.6515926 187.920005,39.8936215 187,39 L188.76,39 C189.46667,39.5851093 190.016665,40.2606345 190.41,41.0265957 C190.803335,41.792557 191,42.792547 191,44.0265957 Z M208,55 L199,55 L199,54 L208,54 L208,55 Z M214,44.0265957 L214,48.9734043 C214,50.207453 213.803335,51.207443 213.41,51.9734043 C213.016665,52.7393655 212.46667,53.4148907 211.76,54 L210,54 C210.920005,53.1063785 211.533332,52.3484074 211.84,51.7260638 C212.146668,51.1037203 212.3,50.1968145 212.3,49.0053191 L212.3,43.9946809 C212.3,42.8031855 212.146668,41.8962797 211.84,41.2739362 C211.533332,40.6515926 210.920005,39.8936215 210,39 L211.76,39 C212.46667,39.5851093 213.016665,40.2606345 213.41,41.0265957 C213.803335,41.792557 214,42.792547 214,44.0265957 Z M217,44.0265957 C217,42.792547 217.196665,41.792557 217.59,41.0265957 C217.983335,40.2606345 218.53333,39.5851093 219.24,39 L221,39 C220.079995,39.8936215 219.466668,40.6515926 219.16,41.2739362 C218.853332,41.8962797 218.7,42.8031855 218.7,43.9946809 L218.7,49.0053191 C218.7,50.1968145 218.853332,51.1037203 219.16,51.7260638 C219.466668,52.3484074 220.079995,53.1063785 221,54 L219.24,54 C218.53333,53.4148907 217.983335,52.7393655 217.59,51.9734043 C217.196665,51.207443 217,50.207453 217,48.9734043 L217,44.0265957 Z M233,44.0265957 C233,42.792547 233.196665,41.792557 233.59,41.0265957 C233.983335,40.2606345 234.53333,39.5851093 235.24,39 L237,39 C236.079995,39.8936215 235.466668,40.6515926 235.16,41.2739362 C234.853332,41.8962797 234.7,42.8031855 234.7,43.9946809 L234.7,49.0053191 C234.7,50.1968145 234.853332,51.1037203 235.16,51.7260638 C235.466668,52.3484074 236.079995,53.1063785 237,54 L235.24,54 C234.53333,53.4148907 233.983335,52.7393655 233.59,51.9734043 C233.196665,51.207443 233,50.207453 233,48.9734043 L233,44.0265957 Z M247,55 L238,55 L238,54 L247,54 L247,55 Z M255,55 L246,55 L246,54 L255,54 L255,55 Z M283,44.0265957 L283,48.9734043 C283,50.207453 282.803335,51.207443 282.41,51.9734043 C282.016665,52.7393655 281.46667,53.4148907 280.76,54 L279,54 C279.920005,53.1063785 280.533332,52.3484074 280.84,51.7260638 C281.146668,51.1037203 281.3,50.1968145 281.3,49.0053191 L281.3,43.9946809 C281.3,42.8031855 281.146668,41.8962797 280.84,41.2739362 C280.533332,40.6515926 279.920005,39.8936215 279,39 L280.76,39 C281.46667,39.5851093 282.016665,40.2606345 282.41,41.0265957 C282.803335,41.792557 283,42.792547 283,44.0265957 Z M287,44.0265957 C287,42.792547 287.196665,41.792557 287.59,41.0265957 C287.983335,40.2606345 288.53333,39.5851093 289.24,39 L291,39 C290.079995,39.8936215 289.466668,40.6515926 289.16,41.2739362 C288.853332,41.8962797 288.7,42.8031855 288.7,43.9946809 L288.7,49.0053191 C288.7,50.1968145 288.853332,51.1037203 289.16,51.7260638 C289.466668,52.3484074 290.079995,53.1063785 291,54 L289.24,54 C288.53333,53.4148907 287.983335,52.7393655 287.59,51.9734043 C287.196665,51.207443 287,50.207453 287,48.9734043 L287,44.0265957 Z M13.4727273,71 L7,57 L8.52727273,57 L15,71 L13.4727273,71 Z M23,72 L14,72 L14,71 L23,71 L23,72 Z M31,72 L22,72 L22,71 L31,71 L31,72 Z M38,72 L29,72 L29,71 L38,71 L38,72 Z M44,62.0265957 L44,66.9734043 C44,68.207453 43.8033353,69.207443 43.41,69.9734043 C43.0166647,70.7393655 42.4666702,71.4148907 41.76,72 L40,72 C40.9200046,71.1063785 41.5333318,70.3484074 41.84,69.7260638 C42.1466682,69.1037203 42.3,68.1968145 42.3,67.0053191 L42.3,61.9946809 C42.3,60.8031855 42.1466682,59.8962797 41.84,59.2739362 C41.5333318,58.6515926 40.9200046,57.8936215 40,57 L41.76,57 C42.4666702,57.5851093 43.0166647,58.2606345 43.41,59.0265957 C43.8033353,59.792557 44,60.792547 44,62.0265957 Z M51.4727273,71 L45,57 L46.5272727,57 L53,71 L51.4727273,71 Z M61,72 L52,72 L52,71 L61,71 L61,72 Z M69,72 L60,72 L60,71 L69,71 L69,72 Z M76,57 L69.5272727,71 L68,71 L74.4727273,57 L76,57 Z M90.4727273,71 L84,57 L85.5272727,57 L92,71 L90.4727273,71 Z M100,72 L91,72 L91,71 L100,71 L100,72 Z M105,62.0265957 L105,66.9734043 C105,68.207453 104.803335,69.207443 104.41,69.9734043 C104.016665,70.7393655 103.46667,71.4148907 102.76,72 L101,72 C101.920005,71.1063785 102.533332,70.3484074 102.84,69.7260638 C103.146668,69.1037203 103.3,68.1968145 103.3,67.0053191 L103.3,61.9946809 C103.3,60.8031855 103.146668,59.8962797 102.84,59.2739362 C102.533332,58.6515926 101.920005,57.8936215 101,57 L102.76,57 C103.46667,57.5851093 104.016665,58.2606345 104.41,59.0265957 C104.803335,59.792557 105,60.792547 105,62.0265957 Z M116,72 L107,72 L107,71 L116,71 L116,72 Z M123,72 L114,72 L114,71 L123,71 L123,72 Z M129,62.0265957 L129,66.9734043 C129,68.207453 128.803335,69.207443 128.41,69.9734043 C128.016665,70.7393655 127.46667,71.4148907 126.76,72 L125,72 C125.920005,71.1063785 126.533332,70.3484074 126.84,69.7260638 C127.146668,69.1037203 127.3,68.1968145 127.3,67.0053191 L127.3,61.9946809 C127.3,60.8031855 127.146668,59.8962797 126.84,59.2739362 C126.533332,58.6515926 125.920005,57.8936215 125,57 L126.76,57 C127.46667,57.5851093 128.016665,58.2606345 128.41,59.0265957 C128.803335,59.792557 129,60.792547 129,62.0265957 Z M136.472727,71 L130,57 L131.527273,57 L138,71 L136.472727,71 Z M146,72 L137,72 L137,71 L146,71 L146,72 Z M152,62.0265957 L152,66.9734043 C152,68.207453 151.803335,69.207443 151.41,69.9734043 C151.016665,70.7393655 150.46667,71.4148907 149.76,72 L148,72 C148.920005,71.1063785 149.533332,70.3484074 149.84,69.7260638 C150.146668,69.1037203 150.3,68.1968145 150.3,67.0053191 L150.3,61.9946809 C150.3,60.8031855 150.146668,59.8962797 149.84,59.2739362 C149.533332,58.6515926 148.920005,57.8936215 148,57 L149.76,57 C150.46667,57.5851093 151.016665,58.2606345 151.41,59.0265957 C151.803335,59.792557 152,60.792547 152,62.0265957 Z M162,72 L153,72 L153,71 L162,71 L162,72 Z M170,72 L161,72 L161,71 L170,71 L170,72 Z M175,62.0265957 L175,66.9734043 C175,68.207453 174.803335,69.207443 174.41,69.9734043 C174.016665,70.7393655 173.46667,71.4148907 172.76,72 L171,72 C171.920005,71.1063785 172.533332,70.3484074 172.84,69.7260638 C173.146668,69.1037203 173.3,68.1968145 173.3,67.0053191 L173.3,61.9946809 C173.3,60.8031855 173.146668,59.8962797 172.84,59.2739362 C172.533332,58.6515926 171.920005,57.8936215 171,57 L172.76,57 C173.46667,57.5851093 174.016665,58.2606345 174.41,59.0265957 C174.803335,59.792557 175,60.792547 175,62.0265957 Z M179,62.0265957 C179,60.792547 179.196665,59.792557 179.59,59.0265957 C179.983335,58.2606345 180.53333,57.5851093 181.24,57 L183,57 C182.079995,57.8936215 181.466668,58.6515926 181.16,59.2739362 C180.853332,59.8962797 180.7,60.8031855 180.7,61.9946809 L180.7,67.0053191 C180.7,68.1968145 180.853332,69.1037203 181.16,69.7260638 C181.466668,70.3484074 182.079995,71.1063785 183,72 L181.24,72 C180.53333,71.4148907 179.983335,70.7393655 179.59,69.9734043 C179.196665,69.207443 179,68.207453 179,66.9734043 L179,62.0265957 Z M193,72 L184,72 L184,71 L193,71 L193,72 Z M201,72 L192,72 L192,71 L201,71 L201,72 Z M208,72 L199,72 L199,71 L208,71 L208,72 Z M216,72 L207,72 L207,71 L216,71 L216,72 Z M221,62.0265957 L221,66.9734043 C221,68.207453 220.803335,69.207443 220.41,69.9734043 C220.016665,70.7393655 219.46667,71.4148907 218.76,72 L217,72 C217.920005,71.1063785 218.533332,70.3484074 218.84,69.7260638 C219.146668,69.1037203 219.3,68.1968145 219.3,67.0053191 L219.3,61.9946809 C219.3,60.8031855 219.146668,59.8962797 218.84,59.2739362 C218.533332,58.6515926 217.920005,57.8936215 217,57 L218.76,57 C219.46667,57.5851093 220.016665,58.2606345 220.41,59.0265957 C220.803335,59.792557 221,60.792547 221,62.0265957 Z M229.472727,71 L223,57 L224.527273,57 L231,71 L229.472727,71 Z M239,72 L230,72 L230,71 L239,71 L239,72 Z M247,72 L238,72 L238,71 L247,71 L247,72 Z M255,72 L246,72 L246,71 L255,71 L255,72 Z M260,62.0265957 L260,66.9734043 C260,68.207453 259.803335,69.207443 259.41,69.9734043 C259.016665,70.7393655 258.46667,71.4148907 257.76,72 L256,72 C256.920005,71.1063785 257.533332,70.3484074 257.84,69.7260638 C258.146668,69.1037203 258.3,68.1968145 258.3,67.0053191 L258.3,61.9946809 C258.3,60.8031855 258.146668,59.8962797 257.84,59.2739362 C257.533332,58.6515926 256.920005,57.8936215 256,57 L257.76,57 C258.46667,57.5851093 259.016665,58.2606345 259.41,59.0265957 C259.803335,59.792557 260,60.792547 260,62.0265957 Z M272,62.0265957 C272,60.792547 272.196665,59.792557 272.59,59.0265957 C272.983335,58.2606345 273.53333,57.5851093 274.24,57 L276,57 C275.079995,57.8936215 274.466668,58.6515926 274.16,59.2739362 C273.853332,59.8962797 273.7,60.8031855 273.7,61.9946809 L273.7,67.0053191 C273.7,68.1968145 273.853332,69.1037203 274.16,69.7260638 C274.466668,70.3484074 275.079995,71.1063785 276,72 L274.24,72 C273.53333,71.4148907 272.983335,70.7393655 272.59,69.9734043 C272.196665,69.207443 272,68.207453 272,66.9734043 L272,62.0265957 Z M286,72 L277,72 L277,71 L286,71 L286,72 Z M293,72 L284,72 L284,71 L293,71 L293,72 Z M299,62.0265957 L299,66.9734043 C299,68.207453 298.803335,69.207443 298.41,69.9734043 C298.016665,70.7393655 297.46667,71.4148907 296.76,72 L295,72 C295.920005,71.1063785 296.533332,70.3484074 296.84,69.7260638 C297.146668,69.1037203 297.3,68.1968145 297.3,67.0053191 L297.3,61.9946809 C297.3,60.8031855 297.146668,59.8962797 296.84,59.2739362 C296.533332,58.6515926 295.920005,57.8936215 295,57 L296.76,57 C297.46667,57.5851093 298.016665,58.2606345 298.41,59.0265957 C298.803335,59.792557 299,60.792547 299,62.0265957 Z" id="___-__-__-_-__-_-___"></path>
        </g>
    </g>
</svg>