<?xml version="1.0" encoding="UTF-8"?>
<svg width="40px" height="40px" viewBox="0 0 40 40" version="1.1" xmlns="http://www.w3.org/2000/svg" xmlns:xlink="http://www.w3.org/1999/xlink">
    <!-- Generator: Sketch 46.2 (44496) - http://www.bohemiancoding.com/sketch -->
    <title>menu-bars</title>
    <desc>Created with Sketch.</desc>
    <defs></defs>
    <g id="Page-1" stroke="none" stroke-width="1" fill="none" fill-rule="evenodd">
        <g id="menu-bars" fill="#E9541D">
            <g transform="translate(11.000000, 12.000000)">
                <path d="M19,0.751172241 C19,0.300093779 18.6833168,0 18.2073025,0 L0.792697536,0 C0.316683161,0 0,0.300093779 0,0.751172241 L0,2.24882776 C0,2.69990622 0.316683161,3 0.792697536,3 L18.2073025,3 C18.6833168,3 19,2.69990622 19,2.24882776 L19,0.751172241 Z" id="Fill-1"></path>
                <path d="M19,7.25 C19,6.8005618 18.6833168,6.5 18.2073025,6.5 L0.792697536,6.5 C0.316683161,6.5 0,6.8005618 0,7.25 L0,8.75 C0,9.1994382 0.316683161,9.5 0.792697536,9.5 L18.2073025,9.5 C18.6833168,9.5 19,9.1994382 19,8.75 L19,7.25 Z" id="Fill-3"></path>
                <path d="M19,13.7511722 C19,13.3000938 18.6833168,13 18.2073025,13 L0.792697536,13 C0.316683161,13 0,13.3000938 0,13.7511722 L0,15.2488278 C0,15.6999062 0.316683161,16 0.792697536,16 L18.2073025,16 C18.6833168,16 19,15.6999062 19,15.2488278 L19,13.7511722 Z" id="Fill-4"></path>
            </g>
        </g>
    </g>
</svg>