<?xml version="1.0" encoding="utf-8"?>
<!-- Generator: Adobe Illustrator 15.0.0, SVG Export Plug-In . SVG Version: 6.00 Build 0)  -->
<!DOCTYPE svg PUBLIC "-//W3C//DTD SVG 1.1//EN" "https://www.w3.org/Graphics/SVG/1.1/DTD/svg11.dtd">
<svg version="1.1" id="Layer_1" xmlns="https://www.w3.org/2000/svg" xmlns:xlink="https://www.w3.org/1999/xlink" x="0px" y="0px"
	 width="24px" height="24px" viewBox="0 0 24 24" enable-background="new 0 0 24 24" xml:space="preserve">
<path fill="#333333" d="M20.6,11c0.1-0.5,0.1-1.1,0.1-1.7c0-2.7-1.3-3.6-1.5-4.1c0.4-2-0.1-2.9-0.3-3.3c-0.7-0.3-2.5,0.7-3.5,1.3
	c-1.6-0.5-5-0.4-6.3,0.1C6.8,1.7,5.6,1.9,5.6,1.9S4.8,3.4,5.3,5.5C4.6,6.5,4,7.2,4,9c0,0.4,0,0.9,0.1,1.3c0.7,3.5,3.4,5,6.1,5.3
	c-0.4,0.3-0.9,0.9-1,1.6c-0.5,0.3-1.5,0.4-2.4,0.2c-1.1-0.4-1.6-2.6-3.2-2.3c-0.4,0.1-0.3,0.3,0,0.5c0.5,0.3,1,0.7,1.4,1.6
	c0.3,0.7,0.9,1.9,2.8,1.9c0.8,0,1.3-0.1,1.3-0.1s0,1.7,0,2.4c0,0.8-1,1-1,1.4c0,0.1,0.3,0.2,0.6,0.2c0.6,0,1.7-0.5,1.7-1.3
	c0-0.6,0-2.8,0-3.2c0-0.8,0.4-1.1,0.4-1.1s0.1,4.4-0.1,5c-0.2,0.7-0.5,0.6-0.5,0.9c0,0.5,1.4,0.1,1.8-0.9c0.4-0.8,0.2-5.1,0.2-5.1
	l0.4,0c0,0,0,2,0,2.9c0,0.9-0.1,2.1,0.4,2.7c0.4,0.4,1.5,1,1.5,0.4c0-0.3-0.8-0.6-0.8-1.6v-4.3c0.5,0,0.6,1.4,0.6,1.4l0.2,2.6
	c0,0-0.1,1,1,1.3c0.4,0.1,1.3,0.2,1.3-0.1c0-0.2-1-0.6-1-1.3c0-0.4,0-0.7,0-2.7c0-1.9-0.3-2.7-1.2-3.2C17.3,15.2,20.1,14.1,20.6,11z
	"/>
</svg>
