<?xml version="1.0" encoding="utf-8"?>
<!-- Generator: Adobe Illustrator 15.0.0, SVG Export Plug-In . SVG Version: 6.00 Build 0)  -->
<!DOCTYPE svg PUBLIC "-//W3C//DTD SVG 1.1//EN" "https://www.w3.org/Graphics/SVG/1.1/DTD/svg11.dtd">
<svg version="1.1" id="Layer_1" xmlns="https://www.w3.org/2000/svg" xmlns:xlink="https://www.w3.org/1999/xlink" x="0px" y="0px"
	 width="24px" height="24px" viewBox="0 0 24 24" enable-background="new 0 0 24 24" xml:space="preserve">
<path id="XMLID_802_" fill="#333333" d="M6.6,8.5H2.5c-0.2,0-0.3,0.1-0.3,0.3V22c0,0.2,0.1,0.3,0.3,0.3h4.1c0.2,0,0.3-0.1,0.3-0.3
	V8.8C6.9,8.6,6.8,8.5,6.6,8.5z"/>
<path id="XMLID_803_" fill="#333333" d="M4.5,1.9C3,1.9,1.8,3.1,1.8,4.6c0,1.5,1.2,2.7,2.7,2.7c1.5,0,2.7-1.2,2.7-2.7
	C7.2,3.1,6,1.9,4.5,1.9z"/>
<path id="XMLID_804_" fill="#333333" d="M17.1,8.2c-1.7,0-2.9,0.7-3.6,1.5V8.8c0-0.2-0.1-0.3-0.3-0.3H9.2C9,8.5,8.8,8.6,8.8,8.8V22
	c0,0.2,0.1,0.3,0.3,0.3h4.1c0.2,0,0.3-0.1,0.3-0.3v-6.5c0-2.2,0.6-3.1,2.1-3.1c1.7,0,1.8,1.4,1.8,3.2V22c0,0.2,0.1,0.3,0.3,0.3H22
	c0.2,0,0.3-0.1,0.3-0.3v-7.3C22.3,11.5,21.7,8.2,17.1,8.2z"/>
</svg>
