<?xml version="1.0" encoding="utf-8"?>
<!-- Generator: Adobe Illustrator 15.0.0, SVG Export Plug-In . SVG Version: 6.00 Build 0)  -->
<!DOCTYPE svg PUBLIC "-//W3C//DTD SVG 1.1//EN" "http://www.w3.org/Graphics/SVG/1.1/DTD/svg11.dtd">
<svg version="1.1" id="Layer_1" xmlns="http://www.w3.org/2000/svg" xmlns:xlink="http://www.w3.org/1999/xlink" x="0px" y="0px"
	 width="24px" height="24px" viewBox="0 0 24 24" enable-background="new 0 0 24 24" xml:space="preserve">
<g id="Layer_7">
	<g>
		<path fill="#333333" d="M13,14.2h4.9c-0.9,2.5-3.2,4.2-6,4.2c-3.3,0-6.1-2.7-6.2-6C5.6,8.8,8.4,5.9,12,5.9c1.6,0,3.1,0.6,4.2,1.6
			c0.3,0.2,0.7,0.2,0.9,0l1.8-1.7c0.3-0.3,0.3-0.7,0-1C17.2,3,14.8,2,12.2,1.9C6.7,1.8,1.9,6.4,1.9,12c0,5.6,4.5,10.2,10.1,10.2
			c5.4,0,9.8-4.2,10.1-9.6c0-0.1,0-2.3,0-2.3H13c-0.4,0-0.7,0.3-0.7,0.7v2.5C12.3,13.8,12.6,14.2,13,14.2z"/>
	</g>
</g>
</svg>
