<?xml version="1.0" encoding="utf-8"?>
<!-- Generator: Adobe Illustrator 15.0.0, SVG Export Plug-In . SVG Version: 6.00 Build 0)  -->
<!DOCTYPE svg PUBLIC "-//W3C//DTD SVG 1.1//EN" "http://www.w3.org/Graphics/SVG/1.1/DTD/svg11.dtd">
<svg version="1.1" id="Layer_1" xmlns="http://www.w3.org/2000/svg" xmlns:xlink="http://www.w3.org/1999/xlink" x="0px" y="0px"
	 width="24px" height="24px" viewBox="0 0 24 24" enable-background="new 0 0 24 24" xml:space="preserve">
<path fill="#333333" d="M23.2,6.8L16,3.2c0,0-0.1,0-0.1,0c0,0,0,0,0,0c-0.1,0-0.2,0-0.2,0.1l-4.4,7.2l4.9,8L23.2,7
	C23.3,6.9,23.2,6.8,23.2,6.8z"/>
<polygon fill="#333333" points="8.9,7.9 8.9,15.7 15.8,19.1 "/>
<path fill="#333333" d="M16.4,19.4l6.3,3.2c0.3,0.2,0.6,0,0.6-0.4V8.1L16.4,19.4z"/>
<path fill="#333333" d="M8.1,6.8L1.5,3.5L1.1,3.3c-0.1,0-0.1,0-0.2,0c-0.1,0-0.1,0-0.2,0.1c0,0.1-0.1,0.1-0.1,0.2v15.1
	c0,0.3,0.2,0.6,0.4,0.7l6.5,3.3c0.1,0,0.2,0.1,0.3,0.1c0.2,0,0.4-0.2,0.4-0.5V7C8.2,6.9,8.2,6.8,8.1,6.8z"/>
</svg>
