<?xml version="1.0" encoding="utf-8"?>
<!-- Generator: Adobe Illustrator 15.0.0, SVG Export Plug-In . SVG Version: 6.00 Build 0)  -->
<!DOCTYPE svg PUBLIC "-//W3C//DTD SVG 1.1//EN" "http://www.w3.org/Graphics/SVG/1.1/DTD/svg11.dtd">
<svg version="1.1" id="Layer_1" xmlns="http://www.w3.org/2000/svg" xmlns:xlink="http://www.w3.org/1999/xlink" x="0px" y="0px"
	 width="24px" height="24px" viewBox="0 0 24 24" enable-background="new 0 0 24 24" xml:space="preserve">
<path fill="#333333" d="M23.6,5.5c-0.8,0.4-1.7,0.6-2.7,0.7c1-0.6,1.7-1.5,2-2.6C22,4.2,21,4.5,20,4.7c-0.8-0.9-2-1.5-3.4-1.5
	c-2.6,0-4.6,2.1-4.6,4.6c0,0.4,0,0.7,0.1,1.1c-3.8-0.2-7.2-2-9.5-4.8C2.2,4.8,2,5.6,2,6.5c0,1.6,0.8,3,2.1,3.8
	c-0.8,0-1.5-0.2-2.1-0.6v0.1c0,2.2,1.6,4.1,3.7,4.5c-0.4,0.1-0.8,0.2-1.2,0.2c-0.3,0-0.6,0-0.9-0.1c0.6,1.8,2.3,3.2,4.3,3.2
	c-1.6,1.2-3.6,2-5.7,2c-0.4,0-0.7,0-1.1-0.1c2,1.3,4.5,2.1,7.1,2.1c8.5,0,13.2-7,13.2-13.2l0-0.6C22.1,7.2,22.9,6.4,23.6,5.5z"/>
</svg>
