<?xml version="1.0" encoding="utf-8"?>
<!-- Generator: Adobe Illustrator 15.0.0, SVG Export Plug-In . SVG Version: 6.00 Build 0)  -->
<!DOCTYPE svg PUBLIC "-//W3C//DTD SVG 1.1//EN" "https://www.w3.org/Graphics/SVG/1.1/DTD/svg11.dtd">
<svg version="1.1" id="Layer_1" xmlns="https://www.w3.org/2000/svg" xmlns:xlink="https://www.w3.org/1999/xlink" x="0px" y="0px"
	 width="24px" height="24px" viewBox="0 0 24 24" enable-background="new 0 0 24 24" xml:space="preserve">
<path fill="#333333" d="M7.9,19.4L7.9,19.4l7.5,0c0.3,0,0.6-0.3,0.6-0.6v-0.8c0-0.3-0.3-0.6-0.6-0.6l-7.5,0c-0.3,0-0.6,0.3-0.6,0.6
	v0.8C7.3,19.1,7.6,19.4,7.9,19.4z"/>
<path fill="#333333" d="M4.7,21.1c0,1.2,0,1.2,0.1,1.2h0l0.4,0c0,0,0,0,0,0c0,0,3.4,0,6.8,0c1.7,0,3.4,0,4.7,0c0.6,0,1.2,0,1.5,0
	c0.7,0,0.7,0,0.7-0.1l0-0.4v-8c0-0.3-0.3-0.6-0.6-0.6h-0.5c-0.3,0-0.6,0.3-0.6,0.6v6.5c0,0.2-0.2,0.4-0.4,0.4H6.7
	c-0.2,0-0.4-0.2-0.4-0.4v-6.5c0-0.3-0.3-0.6-0.6-0.6H5.3c-0.3,0-0.6,0.3-0.6,0.6c0,0.9,0,3,0,4.9C4.7,19.6,4.7,20.4,4.7,21.1z"/>
<path fill="#333333" d="M8,16.3l7.5,0.7c0,0,0,0,0.1,0c0.3,0,0.6-0.2,0.6-0.6l0.1-0.8c0-0.3-0.2-0.6-0.6-0.7l-7.5-0.7
	c-0.3,0-0.6,0.2-0.7,0.5l-0.1,0.8c0,0.2,0,0.3,0.1,0.4C7.7,16.2,7.8,16.3,8,16.3z"/>
<path fill="#333333" d="M19.7,8.8c0.1,0.3,0.3,0.5,0.6,0.5c0,0,0.1,0,0.1,0l0.8-0.1c0.3-0.1,0.6-0.4,0.5-0.7L20.5,1
	c-0.1-0.3-0.4-0.6-0.7-0.5l-0.8,0.1c-0.3,0.1-0.6,0.4-0.5,0.7L19.7,8.8z"/>
<path fill="#333333" d="M9.9,8.2l6.5,3.8c0.1,0.1,0.2,0.1,0.3,0.1c0.2,0,0.4-0.1,0.5-0.3l0.4-0.7c0.1-0.1,0.1-0.3,0.1-0.5
	c0-0.2-0.1-0.3-0.3-0.4L11,6.5c-0.3-0.2-0.7-0.1-0.8,0.2L9.7,7.4C9.6,7.5,9.6,7.7,9.6,7.9C9.7,8,9.8,8.1,9.9,8.2z"/>
<path fill="#333333" d="M17.7,10.1c0.1,0.2,0.3,0.3,0.5,0.3c0.1,0,0.2,0,0.3-0.1l0.7-0.5c0.3-0.2,0.3-0.6,0.2-0.8l-4.3-6.2
	c-0.2-0.3-0.6-0.3-0.8-0.2L13.6,3c-0.3,0.2-0.3,0.6-0.2,0.8L17.7,10.1z"/>
<path fill="#333333" d="M8.5,12.5l7.3,2c0.1,0,0.1,0,0.2,0c0.3,0,0.5-0.2,0.6-0.5l0.2-0.8c0.1-0.3-0.1-0.7-0.4-0.7l-7.3-2
	c-0.3-0.1-0.7,0.1-0.7,0.4L8,11.8C8,12.1,8.1,12.4,8.5,12.5z"/>
</svg>
