<?xml version="1.0" encoding="utf-8"?>
<!-- Generator: Adobe Illustrator 15.0.0, SVG Export Plug-In . SVG Version: 6.00 Build 0)  -->
<!DOCTYPE svg PUBLIC "-//W3C//DTD SVG 1.1//EN" "https://www.w3.org/Graphics/SVG/1.1/DTD/svg11.dtd">
<svg version="1.1" id="Layer_1" xmlns="https://www.w3.org/2000/svg" xmlns:xlink="https://www.w3.org/1999/xlink" x="0px" y="0px"
	 width="24px" height="24px" viewBox="0 0 24 24" enable-background="new 0 0 24 24" xml:space="preserve">
<g id="Layer_8">
	<g>
		<path id="Facebook" fill="#333333" d="M9.1,5.2c0,0.6,0,3.1,0,3.1H6.8V12h2.3v11.2h4.6V12h3.1c0,0,0.3-1.8,0.4-3.8
			c-0.4,0-3.5,0-3.5,0s0-2.2,0-2.6s0.5-0.9,1-0.9s1.5,0,2.5,0c0-0.5,0-2.3,0-3.9c-1.3,0-2.8,0-3.4,0C9,0.8,9.1,4.6,9.1,5.2z"/>
	</g>
</g>
</svg>
