<?xml version="1.0" encoding="utf-8"?>
<!-- Generator: Adobe Illustrator 15.0.0, SVG Export Plug-In . SVG Version: 6.00 Build 0)  -->
<!DOCTYPE svg PUBLIC "-//W3C//DTD SVG 1.1//EN" "http://www.w3.org/Graphics/SVG/1.1/DTD/svg11.dtd">
<svg version="1.1" id="Layer_1" xmlns="http://www.w3.org/2000/svg" xmlns:xlink="http://www.w3.org/1999/xlink" x="0px" y="0px"
	 width="24px" height="24px" viewBox="0 0 24 24" enable-background="new 0 0 24 24" xml:space="preserve">
<g id="site">
	<g>
		<path fill="#333333" d="M20,9.2l0.2,0.1h0.2V9l0.5-0.1l0.5,0.4h0.8l0.1-0.1C22.1,9,22,8.7,21.9,8.4l-0.5,0l-0.3-0.3l-0.1-0.5
			l-0.3,0.1l-0.1,0.6L20.3,8l0-0.4l-0.4-0.3l-0.1-0.1h-0.4l0.1,0.4L20,7.8L20,7.9L19.9,8l0,0.3l-0.3,0.1l-0.2,0l-0.1-0.2l0.4,0
			L19.8,8L19,7.5l-0.1-0.2l-0.3,0.3l-0.3-0.1l-0.5,0.6l-0.1,0.3l-0.3,0l-0.5,0l-0.3-0.1l-0.1-0.6l0.1-0.3l0.5-0.1l0.5,0.1l0.1-0.3
			l-0.2-0.1l0.1-0.5l0.5-0.1l0.4-0.5L18.8,6L19.2,6h0.1l-0.1-0.5l-0.4,0.2l-0.1-0.4l-0.2,0l0-0.3l0.2-0.2L19,4.7l0.1-0.2
			c-1.8-1.6-4.2-2.5-6.7-2.5c-2.2,0-4.3,0.7-6,2l0.5,0L7.2,4l0.4,0.1l0,0.2l0.7,0L8.2,4.1L7.6,4l0.1-0.1l0-0.2H7.2l0.6-0.4h0.6
			l0.3,0.4l0.4,0l0.3-0.3l0.2,0.1L9.2,3.9c0,0-0.5,0-0.5,0c0,0,0,0.4,0,0.4l0.6,0l0.1-0.2l0.4,0l0.1-0.3l-0.3,0l0.1-0.2l0.2-0.1
			l0.7,0l-0.4,0.3l0.1,0.3l0.4,0.1l0-0.5L11,3.5l0.7-0.1l1,0.4v0.4l0.3,0.1l-0.2,0.3h-0.4l-0.1,0.3l-1-0.2L12,4.3L11.7,4l-0.7,0.1
			L11,4.1l0,0l0,0l-0.2,0.2l-0.3,0l0,0.2l0.1,0l0,0.1l-0.3,0l0,0.2l-0.2,0l0-0.3L9.6,4.7L8.7,5.2l0.1,0.4L9,5.7l0.5,0.1v0.6l0.2,0
			L10,5.9l0.5-0.2V5l0.3-0.2L11.6,5l-0.1,0.5h0.2l0.5-0.3l0,0.6L12.7,6l0,0.4l-0.4,0.1l0,0.1l0.5,0.2l0,0.2l-0.1,0c0,0,0,0,0,0
			L12,6.9l0-0.2l0,0l0.2-0.1V6.4l-0.2,0l0,0.2l-0.3,0l0,0v0l-0.1,0l-0.1-0.2l-0.1,0h-0.2L11,6.5v0.2l0.2,0.1l0.2,0l0,0L11.2,7
			l-0.1-0.1l-0.2,0l-0.5,0.4l0.1,0L9.9,7.7L9.2,8.3l0,0.3L8.6,9L8.2,9.3l0,0.6L7.8,9.8l0-0.4H6.6L6,9.7l-0.3,0.5l-0.1,0.4L5.8,11
			L6.3,11l0.8-0.5l0.1,0.3l-0.2,0.4l0.6,0.1l0.1,0.9l0.8,0.1l0.5-0.6l0.6,0.1l0.2,0.3l0.6,0l0-0.2l0.3,0.2l0.4,0.6l0.6,0l0.2,0.4
			l0,0.5l0.7,0.3l0.9,0l0.3,0.4l0.4,0.1l-0.1,0.4l-0.4,0.6l-0.1,1.2L13.2,17l-0.6,0l-0.2,0.3l0.1,0.6L12,18.7l-0.2,0.4l-0.6,0.3
			l-0.4,0.1l0,0.2l0.3,0.1l0,0.2l-0.3,0.2l0.2,0.2l0.3,0l0,0.2l-0.1,0.2l0,0.2l0.4,0.4l-0.1,0.2l-0.6,0L10.2,21l-0.5-0.8l0.1-0.8
			l-0.4-0.5l0.1-0.8l-0.2-0.1v-1.7c0,0-0.6-0.4-0.6-0.4c0,0-0.3-0.1-0.3-0.1l-0.1-0.3l-0.8-1l0.1-0.3l0-0.6l0.5-0.4l-0.1-0.6
			l-0.8-0.1l-0.6-0.7l-0.4-0.1l-0.3-0.1l0-0.3l-0.4-0.1v0.1l-0.9-0.2l-0.4-0.5l0.1-0.3L4.1,9.6L4,9H3.8l0.1,0.6l0.4,0.6l0,0.2
			l-0.3-0.1L3.5,9.7V8.9L3,8.7V8.1c-0.5,1.2-0.8,2.6-0.8,4c0,5.6,4.6,10.2,10.2,10.2c3.2,0,6-1.5,7.9-3.8H20v-0.7l-0.4-0.5v-0.8
			l-0.3-0.3l0-0.3l0.4-0.7l-0.7-1.3L19,13L18.4,13l-0.2-0.2h-0.4l-0.2,0.2h-0.8l0,0.1h-0.4l-1-1.1l0-0.9l0.2-0.1l0.1-0.3h-0.2
			l-0.1-0.3l1.1-0.8V8.9l0.6-0.3l0.2,0h0.5l0.4-0.2l1.1-0.1v0.6L20,9.2z M17.1,5.5l0.1-0.1l0.3-0.1l0.1,0.4L17.8,6l0.1,0.1l0.2,0.1
			l-0.2,0.2l-0.4,0h-0.3l0-0.4l0.2-0.1l0-0.2l-0.2-0.1l-0.2-0.1V5.5L17.1,5.5z M16.6,6.2l0.2-0.3L17,5.8l0.2,0.1l0,0.2l-0.4,0.3
			h-0.2L16.6,6.2L16.6,6.2z M11,7.4l-0.2,0l0-0.1l0.1-0.1L11,7.3L11,7.4z M11.8,7.2l-0.1,0l0,0.1l-0.1,0.1l-0.2,0c0,0,0-0.1,0-0.1
			h-0.1V7.2h0.3L11.6,7l0.1,0l0.1,0L11.8,7.2z"/>
	</g>
</g>
<g id="Layer_1_1_">
</g>
</svg>
