<?xml version="1.0" encoding="UTF-8"?>
<svg width="888px" height="255px" viewBox="0 0 888 255" version="1.1" xmlns="http://www.w3.org/2000/svg" xmlns:xlink="http://www.w3.org/1999/xlink">
    <!-- Generator: Sketch 46.2 (44496) - http://www.bohemiancoding.com/sketch -->
    <title>logo_server</title>
    <desc>Created with Sketch.</desc>
    <defs></defs>
    <g id="Page-1" stroke="none" stroke-width="1" fill="none" fill-rule="evenodd">
        <g id="logo_server">
            <g id="Group-3" transform="translate(178.000000, 46.000000)">
                <path d="M58.1649485,9.9456869 C56.8865979,8.69968051 55.6082474,7.86900958 54.1168385,7.03833866 C52.6254296,6.41533546 50.9209622,6 49.2164948,6 L12.7835052,6 C11.0790378,6 9.37457045,6.41533546 7.88316151,7.03833866 C6.17869416,7.86900958 4.90034364,8.90734824 3.83505155,9.9456869 C2.76975945,11.1916933 1.70446735,12.6453674 1.0652921,14.0990415 C0.426116838,15.9680511 0,17.629393 0,19.4984026 L0,57.7092652 C0,59.5782748 0.426116838,61.2396166 1.0652921,62.9009585 C1.70446735,64.5623003 2.55670103,66.0159744 3.83505155,67.0543131 C4.90034364,68.3003195 6.39175258,69.1309904 7.88316151,69.9616613 C9.37457045,70.5846645 11.0790378,71 12.7835052,71 L49.2164948,71 C50.9209622,71 52.6254296,70.5846645 54.1168385,69.9616613 C55.6082474,69.3386581 57.0996564,68.3003195 58.1649485,67.0543131 C59.443299,65.8083067 60.2955326,64.3546326 60.9347079,62.9009585 C61.5738832,61.2396166 62,59.5782748 62,57.7092652 L62,19.4984026 C62,17.629393 61.5738832,15.9680511 60.9347079,14.3067093 C60.2955326,12.6453674 59.443299,11.1916933 58.1649485,9.9456869 Z M48,56 L14,56 L14,18 L48,18 L48,56 Z M135.460411,21.9960317 C134.419355,20.734127 133.170088,19.8928571 131.504399,19.0515873 C130.046921,18.4206349 128.381232,18 126.715543,18 L68,18 L68,70.7896825 L80.9090909,70.7896825 L80.9090909,32.0912698 L97.1495601,32.0912698 L97.1495601,71 L110.058651,71 L110.058651,32.0912698 L126.29912,32.0912698 L126.29912,71 L139,71 L139,31.25 C139,29.3571429 138.583578,27.6746032 137.958944,26.202381 C137.334311,24.7301587 136.501466,23.2579365 135.460411,21.9960317 Z M190.025105,22.0119522 C188.979079,20.7450199 187.723849,19.9003984 186.050209,19.0557769 C184.585774,18.4223108 182.912134,18 181.238494,18 L144,18 L144,31.936255 L180.610879,31.936255 L180.610879,37.4262948 L144,37.4262948 L144,57.6972112 C144,59.5976096 144.41841,61.2868526 145.046025,62.7649402 C145.67364,64.4541833 146.51046,65.7211155 147.76569,66.9880478 C148.811715,68.2549801 150.066946,69.0996016 151.740586,69.9442231 C153.205021,70.5776892 154.878661,71 156.552301,71 L194,71 L194,31.3027888 C194,29.4023904 193.58159,27.7131474 192.953975,26.2350598 C191.90795,24.7569721 191.07113,23.2788845 190.025105,22.0119522 Z M183,57 L158,57 L158,50 L183,50 L183,57 Z M208.675532,19.0557769 C207.223404,19.689243 205.978723,20.7450199 204.734043,22.0119522 C203.696809,23.2788845 202.659574,24.5458167 202.037234,26.2350598 C201.414894,27.9243028 201,29.6135458 201,31.3027888 L201,71 L213.861702,71 L213.861702,32.1474104 L240,32.1474104 L240,18 L213.239362,18 C211.787234,18 210.12766,18.4223108 208.675532,19.0557769 Z M323.164948,9.95833333 C322.099656,8.70833333 320.608247,7.875 319.116838,7.04166667 C317.62543,6.41666667 315.920962,6 314.216495,6 L277.783505,6 C276.079038,6 274.37457,6.41666667 272.883162,7.04166667 C271.391753,7.66666667 269.900344,8.70833333 268.835052,9.95833333 C267.769759,11.2083333 266.704467,12.6666667 266.065292,14.125 C265.426117,15.7916667 265,17.4583333 265,19.3333333 L265,71 L278.42268,71 L278.42268,50.1666667 L313.57732,50.1666667 L313.57732,71 L327,71 L327,19.5416667 C327,17.6666667 326.573883,16 325.934708,14.3333333 C325.295533,12.6666667 324.230241,11.2083333 323.164948,9.95833333 Z M313,34 L279,34 L279,18 L313,18 L313,34 Z M344.405405,0 L331,0 L331,56.7964072 C331,58.6826347 331.432432,60.3592814 332.081081,61.8263473 C332.72973,63.502994 333.594595,64.760479 334.891892,66.0179641 C335.972973,67.2754491 337.486486,68.1137725 339,68.9520958 C340.513514,69.5808383 342.243243,70 343.972973,70 L355,70 L355,56.1676647 L344.837838,56.1676647 L344.837838,0 L344.405405,0 Z M405.041667,21.1676647 C404,19.9101796 402.75,19.0718563 401.083333,18.2335329 C399.625,17.6047904 397.958333,17.1856287 396.291667,17.1856287 L371.916667,17.1856287 L371.916667,0 L359,0 L359,70 L396.5,70 C398.166667,70 399.833333,69.5808383 401.291667,68.9520958 C402.75,68.3233533 404,67.2754491 405.25,66.0179641 C406.291667,64.760479 407.125,63.502994 407.958333,61.8263473 C408.583333,60.1497006 409,58.4730539 409,56.7964072 L409,30.3892216 C409,28.502994 408.583333,26.8263473 407.958333,25.3592814 C407.125,23.8922156 406.083333,22.4251497 405.041667,21.1676647 Z M395,56 L370,56 L370,31 L395,31 L395,56 Z M458.443515,21.9960317 C457.39749,20.734127 456.142259,19.8928571 454.468619,19.0515873 C453.004184,18.4206349 451.330544,18 449.656904,18 L424.552301,18 C422.878661,18 421.205021,18.4206349 419.740586,19.0515873 C418.276151,19.6825397 417.020921,20.734127 415.76569,21.9960317 C414.719665,23.2579365 413.67364,24.5198413 413.046025,26.202381 C412.41841,27.8849206 412,29.5674603 412,31.25 L412,57.75 C412,59.6428571 412.41841,61.3253968 413.046025,62.797619 C413.67364,64.4801587 414.51046,65.7420635 415.76569,67.0039683 C416.811715,68.265873 418.276151,69.1071429 419.740586,69.9484127 C421.205021,70.5793651 422.878661,71 424.552301,71 L462,71 L462,57.1190476 L425.179916,57.1190476 L425.179916,51.6507937 L462,51.6507937 L462,31.4603175 C462,29.5674603 461.58159,27.8849206 460.953975,26.4126984 C460.32636,24.7301587 459.48954,23.2579365 458.443515,21.9960317 Z M449,38 L424,38 L424,31 L449,31 L449,38 Z M464,71 L478,71 L478,18 L464,18 L464,71 Z M464,14 L478,14 L478,0 L464,0 L464,14 Z M532,17.1856287 L519.07234,17.1856287 L502.391489,36.4670659 L495.92766,36.4670659 L495.92766,0 L483,0 L483,70 L495.92766,70 L495.92766,50.7185629 L502.391489,50.7185629 L519.07234,70 L532,70 L532,65.1796407 L513.859574,43.5928144 L532,22.005988 L532,17.1856287 Z" id="Shape" fill="#373737" fill-rule="nonzero"></path>
                <g id="Group-2" transform="translate(0.000000, 93.000000)">
                    <text id="Django" font-family="OpenSans, Open Sans" font-size="22" font-weight="normal" letter-spacing="-2.25413275" fill="#000000">
                        <tspan x="0" y="24">Django</tspan>
                    </text>
                    <text id="Python-3" font-family="OpenSans, Open Sans" font-size="22" font-weight="normal" letter-spacing="-2.25413275" fill="#000000">
                        <tspan x="328.333333" y="24">Python 3</tspan>
                    </text>
                    <text id="PostgreSQL-Copy" font-family="OpenSans, Open Sans" font-size="22" font-weight="normal" letter-spacing="-2.25413275" fill="#000000">
                        <tspan x="436" y="24">PostgreSQL</tspan>
                    </text>
                    <text id="Django-REST-framewor" font-family="OpenSans, Open Sans" font-size="22" font-weight="normal" letter-spacing="-2.25413275" fill="#000000">
                        <tspan x="94.6666667" y="24">Django REST framework</tspan>
                    </text>
                    <circle id="Oval" fill="#F95826" cx="311" cy="17.5" r="2.5"></circle>
                    <circle id="Oval-Copy-2" fill="#F95826" cx="418.666667" cy="17.5" r="2.5"></circle>
                    <circle id="Oval-Copy" fill="#F95826" cx="77.3333333" cy="17.5" r="2.5"></circle>
                </g>
            </g>
            <rect id="Rectangle" fill="#F95826" x="0" y="200" width="888" height="55"></rect>
            <rect id="Rectangle-Copy" fill="#F95826" x="0" y="0" width="888" height="6"></rect>
            <text id="REST-API-SERVER" font-family="ShareTechMono-Regular, Share Tech Mono" font-size="27" font-weight="normal" letter-spacing="-1.65986156" fill="#FFFFFF">
                <tspan x="347" y="238">REST API SERVER</tspan>
            </text>
        </g>
    </g>
</svg>