<?xml version="1.0" encoding="utf-8"?>
<!-- Generator: Adobe Illustrator 15.0.0, SVG Export Plug-In . SVG Version: 6.00 Build 0)  -->
<!DOCTYPE svg PUBLIC "-//W3C//DTD SVG 1.1//EN" "http://www.w3.org/Graphics/SVG/1.1/DTD/svg11.dtd">
<svg version="1.1" id="Layer_1" xmlns="http://www.w3.org/2000/svg" xmlns:xlink="http://www.w3.org/1999/xlink" x="0px" y="0px"
	 width="916px" height="309px" viewBox="0 0 916 309" enable-background="new 0 0 916 309" xml:space="preserve">
<g id="Layer_1_1_">
	<path fill="#CCCCCC" d="M24.5,12.9h869c5.5,0,10,4.5,10,10v272c0,5.5-4.5,10-10,10h-869c-5.5,0-10-4.5-10-10v-272
		C14.5,17.4,19,12.9,24.5,12.9z"/>
	<path fill="#0E221C" d="M0,238.1h916l-14,10H14L0,238.1z"/>
	<path fill="#322D36" d="M24.5,7.9h869c5.5,0,10,4.5,10,10v272c0,5.5-4.5,10-10,10h-869c-5.5,0-10-4.5-10-10v-272
		C14.5,12.4,19,7.9,24.5,7.9z"/>
	<path fill="#FFA471" d="M384.7,30.3c-7.2,0-14,1.3-20.3,3.9c-6.3,2.6-11.8,6.1-16.4,10.6c-4.7,4.5-8.3,9.7-11,15.8
		c-2.7,6-4,12.5-4,19.5v142.5c0,6.9,1.3,13.4,4,19.5c2.7,6,6.4,11.3,11,15.8c4.7,4.5,10.1,8,16.4,10.6c6.3,2.6,13.1,3.9,20.3,3.9
		H533c7,0,13.6-1.3,19.9-3.9c6.3-2.6,11.8-6.1,16.6-10.6s8.5-9.7,11.2-15.8c2.7-6,4-12.5,4-19.5V80c0-6.9-1.3-13.4-4-19.5
		c-2.7-6-6.4-11.3-11.2-15.8s-10.3-8-16.6-10.6c-6.3-2.6-12.9-3.9-19.9-3.9L384.7,30.3L384.7,30.3z M387.1,82.7h142.7v137.1H387.1
		V82.7z"/>
	<path fill="#E9541D" d="M384.7,31.2c-7.2,0-14,1.3-20.3,3.9c-6.3,2.6-11.8,6.1-16.4,10.6c-4.7,4.5-8.3,9.7-11,15.8
		c-2.7,6-4,12.5-4,19.5v142.5c0,6.9,1.3,13.4,4,19.5c2.7,6,6.4,11.3,11,15.8c4.7,4.5,10.1,8,16.4,10.6c6.3,2.6,13.1,3.9,20.3,3.9
		H533c7,0,13.6-1.3,19.9-3.9c6.3-2.6,11.8-6.1,16.6-10.6s8.5-9.7,11.2-15.8c2.7-6,4-12.5,4-19.5V80.9c0-6.9-1.3-13.4-4-19.5
		c-2.7-6-6.4-11.3-11.2-15.8s-10.3-8-16.6-10.6c-6.3-2.6-12.9-3.9-19.9-3.9H384.7V31.2z M387.1,83.6h142.7v137.1H387.1V83.6z"/>
	<path opacity="0.5" fill="#322D36" enable-background="new    " d="M14.5,193.1h889v49.6h-889V193.1z"/>
	<path fill="#4B8A67" d="M0,186.6h916v51H0V186.6z"/>
	<path fill="#2F5D44" d="M0,187.5h916v51H0V187.5z"/>
	<g>
		<path fill="#FFFFFF" d="M311.4,66.7c1.1,0,2.2,0.2,3.2,0.6c1,0.4,1.9,1,2.7,1.8c0.8,0.7,1.4,1.6,1.8,2.6c0.4,1,0.6,2.1,0.6,3.3
			v23.8c0,1.2-0.2,2.2-0.6,3.3c-0.4,1-1,1.9-1.8,2.6c-0.8,0.7-1.7,1.3-2.7,1.8c-1,0.4-2.1,0.6-3.2,0.6h-23.8c-1.2,0-2.2-0.2-3.3-0.6
			c-1-0.4-1.9-1-2.6-1.8c-0.7-0.7-1.3-1.6-1.8-2.6c-0.4-1-0.6-2.1-0.6-3.3V75c0-1.2,0.2-2.2,0.6-3.3c0.4-1,1-1.9,1.8-2.6
			c0.7-0.7,1.6-1.3,2.6-1.8c1-0.4,2.1-0.6,3.3-0.6H311.4z M288,98.3h22.9V75.4H288V98.3z"/>
		<path fill="#FFFFFF" d="M364.9,74.5c1.1,0,2.2,0.2,3.2,0.6s1.9,1,2.6,1.8c0.7,0.7,1.3,1.6,1.7,2.6c0.4,1,0.6,2,0.6,3.1V107h-8.5
			V83.1h-10.8V107h-8.6V83.1h-10.8V107h-8.6V74.5H364.9z"/>
		<path fill="#FFFFFF" d="M403.6,74.5c1.1,0,2.2,0.2,3.2,0.6s1.9,1,2.6,1.8c0.7,0.7,1.3,1.6,1.7,2.6c0.4,1,0.6,2,0.6,3.1V107h-24.8
			c-1.1,0-2.2-0.2-3.2-0.6s-1.9-1-2.6-1.8c-0.7-0.7-1.3-1.6-1.7-2.6c-0.4-1-0.6-2-0.6-3.1V86.5h24.4v-3.4h-24.4v-8.6H403.6z
			 M403.1,94h-15.8v4.5h15.8V94z"/>
		<path fill="#FFFFFF" d="M442.3,74.5v8.6h-17.5V107h-8.6V82.7c0-1.1,0.2-2.2,0.6-3.1c0.4-1,1-1.8,1.8-2.6c0.7-0.7,1.6-1.3,2.6-1.8
			c1-0.4,2-0.6,3.2-0.6h17.9V74.5z"/>
		<path fill="#FFFFFF" d="M496.1,66.7c1.2,0,2.2,0.2,3.3,0.6c1,0.4,1.9,1,2.6,1.8c0.7,0.7,1.3,1.6,1.8,2.6c0.4,1,0.7,2.1,0.7,3.3
			v32.1h-8.8v-13h-22.9v13H464V75c0-1.2,0.2-2.2,0.6-3.3c0.4-1.1,1-1.9,1.8-2.6c0.7-0.7,1.6-1.3,2.6-1.8c1-0.4,2.1-0.6,3.3-0.6
			H496.1z M495.6,85.3v-9.9h-22.9v9.9H495.6z"/>
		<path fill="#FFFFFF" d="M519.2,63.8v34.7h6.6v8.6h-7.1c-1.1,0-2.2-0.2-3.1-0.6c-1-0.4-1.8-1-2.6-1.8c-0.7-0.7-1.3-1.6-1.8-2.6
			c-0.4-1-0.6-2-0.6-3.1V63.8H519.2z"/>
		<path fill="#FFFFFF" d="M554.6,74.5c1.1,0,2.2,0.2,3.2,0.6s1.9,1,2.6,1.8c0.7,0.7,1.3,1.6,1.7,2.6c0.4,1,0.6,2,0.6,3.1v16.3
			c0,1.1-0.2,2.2-0.6,3.1c-0.4,1-1,1.8-1.7,2.6c-0.7,0.7-1.6,1.3-2.6,1.8c-1,0.4-2,0.6-3.2,0.6h-24.8V63.9h8.6v10.7h16.2V74.5z
			 M538.3,98.5h15.8V83.1h-15.8V98.5z"/>
		<path fill="#FFFFFF" d="M591.8,74.5c1.1,0,2.2,0.2,3.2,0.6s1.8,1,2.6,1.8c0.7,0.7,1.3,1.6,1.7,2.6c0.4,1,0.6,2,0.6,3.1V95h-24.4
			v3.4h24.4v8.6h-24.8c-1.1,0-2.2-0.2-3.1-0.6c-1-0.4-1.8-1-2.6-1.8c-0.7-0.7-1.3-1.6-1.8-2.6c-0.4-1-0.6-2-0.6-3.1V82.7
			c0-1.1,0.2-2.2,0.6-3.1c0.4-1,1-1.8,1.8-2.6c0.7-0.7,1.6-1.3,2.6-1.8c1-0.4,2-0.6,3.1-0.6h16.7V74.5z M591.4,87.6v-4.5h-15.8v4.5
			H591.4z"/>
		<path fill="#FFFFFF" d="M614.4,63.9v8.6h-8.6v-8.6H614.4z M605.8,74.5h8.6V107h-8.6V74.5z"/>
		<path fill="#FFFFFF" d="M652,74.5v2.9l-12.1,13.3L652,104v2.9h-8.6l-11-11.9H628v11.9h-8.6v-43h8.6v22.6h4.4l11-11.9h8.6V74.5z"/>
	</g>
	<g opacity="0.35">
		<path fill="#222222" d="M311.4,69.5c1.1,0,2.2,0.2,3.2,0.6s1.9,1,2.7,1.8c0.8,0.7,1.4,1.6,1.8,2.6c0.4,1,0.6,2.1,0.6,3.3v23.8
			c0,1.2-0.2,2.2-0.6,3.3c-0.4,1-1,1.9-1.8,2.6s-1.7,1.3-2.7,1.8c-1,0.4-2.1,0.6-3.2,0.6h-23.8c-1.2,0-2.2-0.2-3.3-0.6
			c-1-0.4-1.9-1-2.6-1.8c-0.7-0.7-1.3-1.6-1.8-2.6c-0.4-1-0.6-2.1-0.6-3.3V77.8c0-1.2,0.2-2.2,0.6-3.3c0.4-1,1-1.9,1.8-2.6
			c0.7-0.7,1.6-1.3,2.6-1.8c1-0.4,2.1-0.6,3.3-0.6H311.4z M288,101.1h22.9V78.3H288V101.1z"/>
		<path fill="#222222" d="M364.9,77.4c1.1,0,2.2,0.2,3.2,0.6s1.9,1,2.6,1.8c0.7,0.7,1.3,1.6,1.7,2.6c0.4,1,0.6,2,0.6,3.1v24.4h-8.5
			V86h-10.8v23.9h-8.6V86h-10.8v23.9h-8.6V77.4H364.9z"/>
		<path fill="#222222" d="M403.6,77.4c1.1,0,2.2,0.2,3.2,0.6s1.9,1,2.6,1.8c0.7,0.7,1.3,1.6,1.7,2.6c0.4,1,0.6,2,0.6,3.1v24.4h-24.8
			c-1.1,0-2.2-0.2-3.2-0.6c-1-0.4-1.9-1-2.6-1.8c-0.7-0.7-1.3-1.6-1.7-2.6c-0.4-1-0.6-2-0.6-3.1V89.3h24.4V86h-24.4v-8.6H403.6z
			 M403.1,96.8h-15.8v4.5h15.8V96.8z"/>
		<path fill="#222222" d="M442.3,77.4V86h-17.5v23.9h-8.6V85.5c0-1.1,0.2-2.2,0.6-3.1c0.4-1,1-1.8,1.8-2.6c0.7-0.7,1.6-1.3,2.6-1.8
			c1-0.4,2-0.6,3.2-0.6H442.3z"/>
		<path fill="#222222" d="M496.1,69.5c1.2,0,2.2,0.2,3.3,0.6c1,0.4,1.9,1,2.6,1.8c0.7,0.7,1.3,1.6,1.8,2.6c0.4,1,0.7,2.1,0.7,3.3
			v32.1h-8.8v-13h-22.9v13H464V77.8c0-1.2,0.2-2.2,0.6-3.3c0.4-1.1,1-1.9,1.8-2.6c0.7-0.7,1.6-1.3,2.6-1.8c1-0.4,2.1-0.6,3.3-0.6
			H496.1z M495.6,88.1v-9.9h-22.9v9.9H495.6z"/>
		<path fill="#222222" d="M519.2,66.7v34.7h6.6v8.6h-7.1c-1.1,0-2.2-0.2-3.1-0.6c-1-0.4-1.8-1-2.6-1.8c-0.7-0.7-1.3-1.6-1.8-2.6
			c-0.4-1-0.6-2-0.6-3.1V66.7H519.2z"/>
		<path fill="#222222" d="M554.6,77.4c1.1,0,2.2,0.2,3.2,0.6s1.9,1,2.6,1.8c0.7,0.7,1.3,1.6,1.7,2.6c0.4,1,0.6,2,0.6,3.1v16.3
			c0,1.1-0.2,2.2-0.6,3.1c-0.4,1-1,1.8-1.7,2.6c-0.7,0.7-1.6,1.3-2.6,1.8c-1,0.4-2,0.6-3.2,0.6h-24.8V66.7h8.6v10.7H554.6z
			 M538.3,101.3h15.8V86h-15.8V101.3z"/>
		<path fill="#222222" d="M591.8,77.4c1.1,0,2.2,0.2,3.2,0.6s1.8,1,2.6,1.8c0.7,0.7,1.3,1.6,1.7,2.6c0.4,1,0.6,2,0.6,3.1v12.4h-24.4
			v3.4h24.4v8.6h-24.8c-1.1,0-2.2-0.2-3.1-0.6c-1-0.4-1.8-1-2.6-1.8c-0.7-0.7-1.3-1.6-1.8-2.6c-0.4-1-0.6-2-0.6-3.1V85.5
			c0-1.1,0.2-2.2,0.6-3.1c0.4-1,1-1.8,1.8-2.6c0.7-0.7,1.6-1.3,2.6-1.8c1-0.4,2-0.6,3.1-0.6H591.8z M591.4,90.4V86h-15.8v4.5h15.8
			V90.4z"/>
		<path fill="#222222" d="M614.4,66.7v8.6h-8.6v-8.6H614.4z M605.8,77.4h8.6v32.5h-8.6V77.4z"/>
		<path fill="#222222" d="M652,77.4v2.9l-12.1,13.3L652,107v2.9h-8.6l-11-11.9H628v11.9h-8.6V66.7h8.6v22.6h4.4l11-11.9H652z"/>
	</g>
	<g>
		<path fill="#DDDDDD" d="M311.4,67.5c1.1,0,2.2,0.2,3.2,0.6s1.9,1,2.7,1.8c0.8,0.7,1.4,1.6,1.8,2.6c0.4,1,0.6,2.1,0.6,3.3v23.8
			c0,1.2-0.2,2.2-0.6,3.3c-0.4,1-1,1.9-1.8,2.6s-1.7,1.3-2.7,1.8c-1,0.4-2.1,0.6-3.2,0.6h-23.8c-1.2,0-2.2-0.2-3.3-0.6
			c-1-0.4-1.9-1-2.6-1.8c-0.7-0.7-1.3-1.6-1.8-2.6c-0.4-1-0.6-2.1-0.6-3.3V75.8c0-1.2,0.2-2.2,0.6-3.3c0.4-1,1-1.9,1.8-2.6
			c0.7-0.7,1.6-1.3,2.6-1.8c1-0.4,2.1-0.6,3.3-0.6H311.4z M288,99.1h22.9V76.2H288V99.1z"/>
		<path fill="#DDDDDD" d="M364.9,75.3c1.1,0,2.2,0.2,3.2,0.6s1.9,1,2.6,1.8c0.7,0.7,1.3,1.6,1.7,2.6c0.4,1,0.6,2,0.6,3.1v24.4h-8.5
			V83.9h-10.8v23.9h-8.6V83.9h-10.8v23.9h-8.6V75.3H364.9z"/>
		<path fill="#DDDDDD" d="M403.6,75.3c1.1,0,2.2,0.2,3.2,0.6s1.9,1,2.6,1.8c0.7,0.7,1.3,1.6,1.7,2.6c0.4,1,0.6,2,0.6,3.1v24.4h-24.8
			c-1.1,0-2.2-0.2-3.2-0.6c-1-0.4-1.9-1-2.6-1.8c-0.7-0.7-1.3-1.6-1.7-2.6c-0.4-1-0.6-2-0.6-3.1V87.3h24.4v-3.4h-24.4v-8.6H403.6z
			 M403.1,94.8h-15.8v4.5h15.8V94.8z"/>
		<path fill="#DDDDDD" d="M442.3,75.3v8.6h-17.5v23.9h-8.6V83.5c0-1.1,0.2-2.2,0.6-3.1c0.4-1,1-1.8,1.8-2.6c0.7-0.7,1.6-1.3,2.6-1.8
			c1-0.4,2-0.6,3.2-0.6h17.9V75.3z"/>
		<path fill="#DDDDDD" d="M496.1,67.5c1.2,0,2.2,0.2,3.3,0.6c1,0.4,1.9,1,2.6,1.8c0.7,0.7,1.3,1.6,1.8,2.6c0.4,1,0.7,2.1,0.7,3.3
			v32.1h-8.8v-13h-22.9v13H464V75.8c0-1.2,0.2-2.2,0.6-3.3c0.4-1.1,1-1.9,1.8-2.6c0.7-0.7,1.6-1.3,2.6-1.8c1-0.4,2.1-0.6,3.3-0.6
			H496.1z M495.6,86.1v-9.9h-22.9v9.9H495.6z"/>
		<path fill="#DDDDDD" d="M519.2,64.6v34.7h6.6v8.6h-7.1c-1.1,0-2.2-0.2-3.1-0.6c-1-0.4-1.8-1-2.6-1.8c-0.7-0.7-1.3-1.6-1.8-2.6
			c-0.4-1-0.6-2-0.6-3.1V64.6H519.2z"/>
		<path fill="#DDDDDD" d="M554.6,75.3c1.1,0,2.2,0.2,3.2,0.6s1.9,1,2.6,1.8c0.7,0.7,1.3,1.6,1.7,2.6c0.4,1,0.6,2,0.6,3.1v16.3
			c0,1.1-0.2,2.2-0.6,3.1c-0.4,1-1,1.8-1.7,2.6c-0.7,0.7-1.6,1.3-2.6,1.8c-1,0.4-2,0.6-3.2,0.6h-24.8V64.7h8.6v10.7h16.2V75.3z
			 M538.3,99.3h15.8V83.9h-15.8V99.3z"/>
		<path fill="#DDDDDD" d="M591.8,75.3c1.1,0,2.2,0.2,3.2,0.6s1.8,1,2.6,1.8c0.7,0.7,1.3,1.6,1.7,2.6c0.4,1,0.6,2,0.6,3.1v12.4h-24.4
			v3.4h24.4v8.6h-24.8c-1.1,0-2.2-0.2-3.1-0.6c-1-0.4-1.8-1-2.6-1.8c-0.7-0.7-1.3-1.6-1.8-2.6c-0.4-1-0.6-2-0.6-3.1V83.5
			c0-1.1,0.2-2.2,0.6-3.1c0.4-1,1-1.8,1.8-2.6c0.7-0.7,1.6-1.3,2.6-1.8c1-0.4,2-0.6,3.1-0.6h16.7V75.3z M591.4,88.4v-4.5h-15.8v4.5
			H591.4z"/>
		<path fill="#DDDDDD" d="M614.4,64.7v8.6h-8.6v-8.6H614.4z M605.8,75.3h8.6v32.5h-8.6V75.3z"/>
		<path fill="#DDDDDD" d="M652,75.3v2.9l-12.1,13.3l12.1,13.3v2.9h-8.6l-11-11.9H628v11.9h-8.6v-43h8.6v22.6h4.4l11-11.9h8.6V75.3z"
			/>
	</g>
	<g>
		<polygon fill="none" points="374.5,255.9 377.2,255.9 377.2,255.9 		"/>
	</g>
</g>
<g id="REST_API">
	<g opacity="0.3">
		<path fill="#222222" d="M381.6,211.2c0,1.1-0.8,1.9-1.9,1.9h-1.8l3.6,4.3h-1.7l-3.6-4.3H372c-0.2,0-0.4,0-0.6-0.1v4.4h-1.3v-11.5
			h9.6c1.1,0,1.9,0.9,1.9,1.9V211.2z M379.7,211.8c0.3,0,0.6-0.3,0.6-0.6v-3.4c0-0.3-0.3-0.6-0.6-0.6H372c-0.3,0-0.6,0.3-0.6,0.6
			v3.4c0,0.3,0.3,0.6,0.6,0.6H379.7z"/>
		<path fill="#222222" d="M395.6,207.2h-9.2v3.8h7.4v1.3h-7.4v3.8h9.2v1.3h-10.5v-11.5h10.5V207.2z"/>
		<path fill="#222222" d="M410.4,208.3h-1.3v-0.4c0-0.3-0.3-0.6-0.6-0.6h-7.7c-0.3,0-0.6,0.3-0.6,0.6v2.6c0,0.3,0.3,0.6,0.6,0.6h7.7
			c1.1,0,1.9,0.9,1.9,1.9v2.6c0,1.1-0.8,1.9-1.9,1.9h-7.7c-1.1,0-1.9-0.8-1.9-1.9v-0.4h1.3v0.4c0,0.3,0.3,0.6,0.6,0.6h7.7
			c0.3,0,0.6-0.3,0.6-0.6V213c0-0.3-0.3-0.6-0.6-0.6h-7.7c-1.1,0-1.9-0.9-1.9-1.9v-2.6c0-1.1,0.8-1.9,1.9-1.9h7.7
			c1.1,0,1.9,0.8,1.9,1.9V208.3z"/>
		<path fill="#222222" d="M424.8,205.9v1.3h-5.1v10.2h-1.3v-10.2h-5.1v-1.3H424.8z"/>
		<path fill="#222222" d="M443.5,205.9c1.1,0,1.9,0.8,1.9,1.9v9.6h-1.3v-4.2h-8.9v4.2h-1.3v-9.6c0-1.1,0.8-1.9,1.9-1.9H443.5z
			 M444.1,211.9v-4.1c0-0.3-0.3-0.6-0.6-0.6h-7.7c-0.3,0-0.6,0.3-0.6,0.6v4.1H444.1z"/>
		<path fill="#222222" d="M458.5,205.9c1.1,0,1.9,0.9,1.9,1.9v3.4c0,1.1-0.8,1.9-1.9,1.9h-7.7c-0.1,0-0.4,0-0.6-0.1v4.4h-1.3v-11.5
			H458.5L458.5,205.9z M459.2,207.9c0-0.3-0.3-0.6-0.6-0.6h-7.7c-0.3,0-0.6,0.3-0.6,0.6v3.4c0,0.3,0.3,0.6,0.6,0.6h7.7
			c0.3,0,0.6-0.3,0.6-0.6V207.9z"/>
		<path fill="#222222" d="M463.3,205.9h1.3v11.5h-1.3V205.9z"/>
		<path fill="#222222" d="M486.1,208.3h-1.3v-0.4c0-0.3-0.3-0.6-0.6-0.6h-7.7c-0.3,0-0.6,0.3-0.6,0.6v2.6c0,0.3,0.3,0.6,0.6,0.6h7.7
			c1.1,0,1.9,0.9,1.9,1.9v2.6c0,1.1-0.8,1.9-1.9,1.9h-7.7c-1.1,0-1.9-0.8-1.9-1.9v-0.4h1.3v0.4c0,0.3,0.3,0.6,0.6,0.6h7.7
			c0.3,0,0.6-0.3,0.6-0.6V213c0-0.3-0.3-0.6-0.6-0.6h-7.7c-1.1,0-1.9-0.9-1.9-1.9v-2.6c0-1.1,0.8-1.9,1.9-1.9h7.7
			c1.1,0,1.9,0.8,1.9,1.9V208.3z"/>
		<path fill="#222222" d="M498.9,210.1v3.4h-8.1v2c0,0.3,0.3,0.6,0.6,0.6h7.5v1.3h-7.5c-1.1,0-1.9-0.9-1.9-1.9v-5.4
			c0-1.1,0.9-1.9,1.9-1.9h5.6C498,208.2,498.9,209,498.9,210.1z M497.6,212.1v-2c0-0.3-0.3-0.6-0.6-0.6h-5.6c-0.3,0-0.6,0.3-0.6,0.6
			v2H497.6z"/>
		<path fill="#222222" d="M509.3,208.2v1.3h-5.2c-0.3,0-0.6,0.3-0.6,0.6v7.3h-1.3v-7.3c0-1.1,0.9-1.9,1.9-1.9H509.3z"/>
		<path fill="#222222" d="M523.4,208.2l-5.1,9.3h-1.5c-1.7-3.1-3.4-6.2-5.1-9.3h1.5l4.4,8l4.4-8H523.4z"/>
		<path fill="#222222" d="M535.4,210.1v3.4h-8.1v2c0,0.3,0.3,0.6,0.6,0.6h7.5v1.3h-7.5c-1.1,0-1.9-0.9-1.9-1.9v-5.4
			c0-1.1,0.9-1.9,1.9-1.9h5.6C534.6,208.2,535.4,209,535.4,210.1z M534.1,212.1v-2c0-0.3-0.3-0.6-0.6-0.6h-5.6
			c-0.3,0-0.6,0.3-0.6,0.6v2H534.1z"/>
		<path fill="#222222" d="M545.9,208.2v1.3h-5.2c-0.3,0-0.6,0.3-0.6,0.6v7.3h-1.3v-7.3c0-1.1,0.9-1.9,1.9-1.9H545.9z"/>
	</g>
	<g>
		<path fill="#FFFFFF" d="M241,258.2v-9h3.1c0.7,0,1.4,0.1,1.9,0.4c0.5,0.2,1,0.6,1.4,1c0.4,0.4,0.6,0.9,0.8,1.4
			c0.2,0.5,0.3,1.1,0.3,1.8s-0.1,1.3-0.3,1.9c-0.2,0.6-0.5,1-0.9,1.4c-0.4,0.4-0.8,0.7-1.4,0.9c-0.5,0.2-1.1,0.3-1.8,0.3L241,258.2
			L241,258.2z M247.3,253.6c0-0.5-0.1-1-0.2-1.4c-0.1-0.4-0.3-0.8-0.6-1.1c-0.3-0.3-0.6-0.5-1-0.7c-0.4-0.2-0.9-0.3-1.4-0.3h-2v7h2
			c0.5,0,1-0.1,1.4-0.3s0.7-0.4,1-0.7c0.3-0.3,0.5-0.7,0.6-1.1C247.3,254.6,247.3,254.1,247.3,253.6z"/>
		<path fill="#FFFFFF" d="M249.7,260.5c-0.3,0-0.6,0-0.8-0.1c-0.3-0.1-0.5-0.2-0.7-0.4l0.5-0.8c0.1,0.1,0.3,0.2,0.4,0.2
			c0.2,0,0.3,0.1,0.5,0.1c0.1,0,0.3,0,0.4-0.1c0.1-0.1,0.2-0.1,0.3-0.2c0.1-0.1,0.2-0.2,0.2-0.3c0.1-0.1,0.1-0.3,0.1-0.4v-6.9h1.1
			v6.9c0,0.3-0.1,0.6-0.2,0.9c-0.1,0.3-0.3,0.5-0.5,0.7c-0.2,0.2-0.4,0.3-0.7,0.4C250.3,260.5,250,260.5,249.7,260.5z M250.7,250.3
			v-1.4h1.1v1.4H250.7z"/>
		<path fill="#FFFFFF" d="M256.1,258.3c-0.3,0-0.6-0.1-0.9-0.2c-0.3-0.1-0.5-0.3-0.7-0.4c-0.2-0.1-0.4-0.4-0.5-0.6
			c-0.1-0.3-0.2-0.5-0.2-0.8s0.1-0.6,0.2-0.9c0.1-0.3,0.3-0.5,0.6-0.7c0.3-0.2,0.5-0.3,0.9-0.4c0.4-0.1,0.7-0.1,1.1-0.1
			c0.3,0,0.6,0,1,0.1c0.3,0.1,0.6,0.1,0.9,0.2V254c0-0.5-0.2-1-0.5-1.3s-0.7-0.5-1.3-0.5c-0.7,0-1.4,0.3-2.1,0.8l-0.4-0.7
			c0.4-0.3,0.9-0.5,1.3-0.6c0.4-0.1,0.9-0.2,1.3-0.2c0.8,0,1.5,0.2,2,0.7s0.7,1.1,0.7,2v2.7c0,0.3,0.1,0.4,0.4,0.4v1
			c-0.1,0-0.2,0-0.2,0c-0.1,0-0.1,0-0.2,0c-0.2,0-0.4-0.1-0.5-0.2c-0.2-0.1-0.3-0.3-0.3-0.5v-0.5c-0.2,0.2-0.3,0.4-0.5,0.5
			c-0.2,0.2-0.4,0.3-0.6,0.4c-0.2,0.1-0.4,0.2-0.7,0.2C256.6,258.2,256.4,258.3,256.1,258.3z M256.4,257.4c0.4,0,0.7-0.1,1-0.2
			c0.3-0.2,0.6-0.3,0.8-0.6c0.2-0.2,0.2-0.4,0.2-0.5v-1c-0.3-0.1-0.5-0.2-0.8-0.2c-0.3-0.1-0.6-0.1-0.8-0.1c-0.6,0-1,0.1-1.4,0.3
			c-0.3,0.2-0.5,0.6-0.5,1c0,0.2,0,0.3,0.1,0.5c0.1,0.2,0.2,0.3,0.3,0.4c0.1,0.1,0.3,0.2,0.5,0.3C256,257.4,256.2,257.4,256.4,257.4
			z"/>
		<path fill="#FFFFFF" d="M268,258.2h-1.1v-3.7c0-0.7-0.1-1.2-0.3-1.6c-0.2-0.3-0.5-0.5-1-0.5c-0.2,0-0.5,0-0.7,0.1
			c-0.2,0.1-0.4,0.2-0.6,0.4c-0.2,0.2-0.4,0.3-0.5,0.5c-0.1,0.2-0.3,0.4-0.3,0.7v4h-1.1v-6.6h1v1.4c0.3-0.5,0.6-0.8,1.1-1.1
			s1-0.4,1.6-0.4c0.4,0,0.7,0.1,1,0.2c0.3,0.1,0.5,0.3,0.6,0.6c0.2,0.3,0.3,0.5,0.3,0.9c0.1,0.3,0.1,0.7,0.1,1.1v4H268z"/>
		<path fill="#FFFFFF" d="M273.1,258.2c-0.5,0-0.9-0.1-1.2-0.3c-0.4-0.2-0.7-0.4-1-0.8c-0.3-0.3-0.5-0.7-0.6-1.1
			c-0.1-0.4-0.2-0.8-0.2-1.3s0.1-0.9,0.2-1.3c0.1-0.4,0.4-0.8,0.6-1.1c0.3-0.3,0.6-0.6,1-0.7c0.4-0.2,0.8-0.3,1.3-0.3
			c0.6,0,1,0.1,1.5,0.4c0.4,0.3,0.8,0.6,1,1v-1.3h1v6.6c0,0.5-0.1,0.9-0.3,1.3c-0.2,0.4-0.4,0.7-0.7,0.9c-0.3,0.2-0.7,0.4-1.1,0.6
			c-0.4,0.1-0.9,0.2-1.3,0.2c-0.8,0-1.4-0.1-1.8-0.4c-0.5-0.3-0.9-0.6-1.2-1.1l0.6-0.6c0.3,0.4,0.6,0.7,1,0.9s0.9,0.3,1.4,0.3
			c0.3,0,0.6,0,0.9-0.1c0.3-0.1,0.5-0.2,0.7-0.4c0.2-0.2,0.4-0.4,0.5-0.6s0.2-0.6,0.2-0.9v-1.2c-0.1,0.2-0.3,0.4-0.5,0.6
			c-0.2,0.2-0.4,0.3-0.6,0.4c-0.2,0.1-0.4,0.2-0.6,0.3C273.6,258.2,273.3,258.2,273.1,258.2z M273.4,257.3c0.2,0,0.5,0,0.7-0.1
			c0.2-0.1,0.4-0.2,0.6-0.3c0.2-0.1,0.3-0.3,0.5-0.5c0.1-0.2,0.2-0.4,0.3-0.5V254c-0.1-0.2-0.2-0.4-0.4-0.6
			c-0.1-0.2-0.3-0.3-0.5-0.5c-0.2-0.1-0.4-0.2-0.6-0.3c-0.2-0.1-0.4-0.1-0.7-0.1c-0.3,0-0.6,0.1-0.9,0.2c-0.3,0.1-0.5,0.3-0.7,0.6
			c-0.2,0.2-0.3,0.5-0.4,0.8c-0.1,0.3-0.2,0.6-0.2,0.9s0.1,0.6,0.2,0.9c0.1,0.3,0.3,0.6,0.5,0.8c0.2,0.2,0.4,0.4,0.7,0.5
			C272.8,257.3,273.1,257.3,273.4,257.3z"/>
		<path fill="#FFFFFF" d="M282,258.3c-0.5,0-1-0.1-1.4-0.3s-0.8-0.4-1.1-0.8c-0.3-0.4-0.5-0.7-0.7-1.1c-0.2-0.4-0.2-0.9-0.2-1.3
			c0-0.5,0.1-0.9,0.2-1.3c0.1-0.4,0.4-0.8,0.7-1.1c0.3-0.3,0.6-0.6,1.1-0.8c0.4-0.2,0.9-0.3,1.4-0.3s0.9,0.1,1.4,0.3
			c0.5,0.2,0.8,0.4,1.1,0.8c0.3,0.3,0.5,0.7,0.7,1.1c0.2,0.4,0.2,0.9,0.2,1.3c0,0.5-0.1,0.9-0.2,1.3c-0.2,0.4-0.4,0.8-0.7,1.1
			s-0.7,0.6-1.1,0.8S282.5,258.3,282,258.3z M279.8,254.9c0,0.3,0.1,0.7,0.2,1c0.1,0.3,0.3,0.6,0.5,0.8s0.4,0.4,0.7,0.5
			c0.3,0.1,0.6,0.2,0.9,0.2c0.3,0,0.6-0.1,0.9-0.2c0.3-0.1,0.5-0.3,0.7-0.5c0.2-0.2,0.4-0.5,0.5-0.8c0.1-0.3,0.2-0.6,0.2-1
			c0-0.3-0.1-0.7-0.2-1c-0.1-0.3-0.3-0.6-0.5-0.8c-0.2-0.2-0.4-0.4-0.7-0.5c-0.3-0.1-0.6-0.2-0.9-0.2c-0.3,0-0.6,0.1-0.9,0.2
			c-0.3,0.1-0.5,0.3-0.7,0.5c-0.2,0.2-0.4,0.5-0.5,0.8C279.9,254.2,279.8,254.5,279.8,254.9z"/>
		<path fill="#FFFFFF" d="M298,258.2V252h4.1v6.2H298z"/>
		<path fill="#FFFFFF" d="M314,258.2v-9h3.1c0.7,0,1.4,0.1,1.9,0.4c0.5,0.2,1,0.6,1.4,1c0.4,0.4,0.6,0.9,0.8,1.4s0.3,1.1,0.3,1.8
			s-0.1,1.3-0.3,1.9c-0.2,0.6-0.5,1-0.9,1.4c-0.4,0.4-0.8,0.7-1.4,0.9c-0.5,0.2-1.1,0.3-1.8,0.3L314,258.2L314,258.2z M320.3,253.6
			c0-0.5-0.1-1-0.2-1.4c-0.1-0.4-0.3-0.8-0.6-1.1c-0.3-0.3-0.6-0.5-1-0.7c-0.4-0.2-0.9-0.3-1.4-0.3h-2v7h2c0.5,0,1-0.1,1.4-0.3
			s0.7-0.4,1-0.7c0.3-0.3,0.5-0.7,0.6-1.1C320.2,254.6,320.3,254.1,320.3,253.6z"/>
		<path fill="#FFFFFF" d="M322.7,260.5c-0.3,0-0.6,0-0.8-0.1c-0.3-0.1-0.5-0.2-0.7-0.4l0.5-0.8c0.1,0.1,0.3,0.2,0.4,0.2
			c0.2,0,0.3,0.1,0.5,0.1c0.1,0,0.3,0,0.4-0.1c0.1-0.1,0.2-0.1,0.3-0.2c0.1-0.1,0.2-0.2,0.2-0.3c0.1-0.1,0.1-0.3,0.1-0.4v-6.9h1.1
			v6.9c0,0.3-0.1,0.6-0.2,0.9c-0.1,0.3-0.3,0.5-0.5,0.7c-0.2,0.2-0.4,0.3-0.7,0.4C323.3,260.5,323,260.5,322.7,260.5z M323.7,250.3
			v-1.4h1.1v1.4H323.7z"/>
		<path fill="#FFFFFF" d="M329.1,258.3c-0.3,0-0.6-0.1-0.9-0.2c-0.3-0.1-0.5-0.3-0.7-0.4c-0.2-0.1-0.4-0.4-0.5-0.6
			c-0.1-0.3-0.2-0.5-0.2-0.8s0.1-0.6,0.2-0.9c0.1-0.3,0.3-0.5,0.6-0.7c0.3-0.2,0.5-0.3,0.9-0.4c0.4-0.1,0.7-0.1,1.1-0.1
			c0.3,0,0.6,0,1,0.1c0.3,0.1,0.6,0.1,0.9,0.2V254c0-0.5-0.2-1-0.5-1.3s-0.7-0.5-1.3-0.5c-0.7,0-1.4,0.3-2.1,0.8l-0.4-0.7
			c0.4-0.3,0.9-0.5,1.3-0.6c0.4-0.1,0.9-0.2,1.3-0.2c0.8,0,1.5,0.2,2,0.7s0.7,1.1,0.7,2v2.7c0,0.3,0.1,0.4,0.4,0.4v1
			c-0.1,0-0.2,0-0.2,0c-0.1,0-0.1,0-0.2,0c-0.2,0-0.4-0.1-0.5-0.2c-0.2-0.1-0.3-0.3-0.3-0.5v-0.5c-0.2,0.2-0.3,0.4-0.5,0.5
			c-0.2,0.2-0.4,0.3-0.6,0.4c-0.2,0.1-0.4,0.2-0.7,0.2C329.6,258.2,329.3,258.3,329.1,258.3z M329.4,257.4c0.4,0,0.7-0.1,1-0.2
			c0.3-0.2,0.6-0.3,0.8-0.6c0.2-0.2,0.2-0.4,0.2-0.5v-1c-0.3-0.1-0.5-0.2-0.8-0.2c-0.3-0.1-0.6-0.1-0.8-0.1c-0.6,0-1,0.1-1.4,0.3
			c-0.3,0.2-0.5,0.6-0.5,1c0,0.2,0,0.3,0.1,0.5c0.1,0.2,0.2,0.3,0.3,0.4c0.1,0.1,0.3,0.2,0.5,0.3
			C328.9,257.4,329.2,257.4,329.4,257.4z"/>
		<path fill="#FFFFFF" d="M340.9,258.2h-1.1v-3.7c0-0.7-0.1-1.2-0.3-1.6c-0.2-0.3-0.5-0.5-1-0.5c-0.2,0-0.5,0-0.7,0.1
			s-0.4,0.2-0.6,0.4c-0.2,0.2-0.4,0.3-0.5,0.5c-0.1,0.2-0.3,0.4-0.3,0.7v4h-1.1v-6.6h1v1.4c0.3-0.5,0.6-0.8,1.1-1.1s1-0.4,1.6-0.4
			c0.4,0,0.7,0.1,1,0.2c0.3,0.1,0.5,0.3,0.6,0.6c0.2,0.3,0.3,0.5,0.3,0.9c0.1,0.3,0.1,0.7,0.1,1.1L340.9,258.2L340.9,258.2z"/>
		<path fill="#FFFFFF" d="M346.1,258.2c-0.5,0-0.9-0.1-1.2-0.3c-0.4-0.2-0.7-0.4-1-0.8c-0.3-0.3-0.5-0.7-0.6-1.1
			c-0.1-0.4-0.2-0.8-0.2-1.3s0.1-0.9,0.2-1.3c0.1-0.4,0.4-0.8,0.6-1.1c0.3-0.3,0.6-0.6,1-0.7c0.4-0.2,0.8-0.3,1.3-0.3
			c0.6,0,1,0.1,1.5,0.4c0.4,0.3,0.8,0.6,1,1v-1.3h1v6.6c0,0.5-0.1,0.9-0.3,1.3c-0.2,0.4-0.4,0.7-0.7,0.9s-0.7,0.4-1.1,0.6
			c-0.4,0.1-0.9,0.2-1.3,0.2c-0.8,0-1.4-0.1-1.8-0.4c-0.5-0.3-0.9-0.6-1.2-1.1l0.6-0.6c0.3,0.4,0.6,0.7,1,0.9
			c0.4,0.2,0.9,0.3,1.4,0.3c0.3,0,0.6,0,0.9-0.1s0.5-0.2,0.7-0.4c0.2-0.2,0.4-0.4,0.5-0.6c0.1-0.2,0.2-0.6,0.2-0.9v-1.2
			c-0.1,0.2-0.3,0.4-0.5,0.6c-0.2,0.2-0.4,0.3-0.6,0.4c-0.2,0.1-0.4,0.2-0.6,0.3C346.5,258.2,346.3,258.2,346.1,258.2z M346.4,257.3
			c0.2,0,0.5,0,0.7-0.1c0.2-0.1,0.4-0.2,0.6-0.3c0.2-0.1,0.3-0.3,0.5-0.5c0.1-0.2,0.2-0.4,0.3-0.5V254c-0.1-0.2-0.2-0.4-0.4-0.6
			c-0.1-0.2-0.3-0.3-0.5-0.5c-0.2-0.1-0.4-0.2-0.6-0.3c-0.2-0.1-0.4-0.1-0.7-0.1s-0.6,0.1-0.9,0.2c-0.3,0.1-0.5,0.3-0.7,0.6
			c-0.2,0.2-0.3,0.5-0.4,0.8c-0.1,0.3-0.2,0.6-0.2,0.9s0.1,0.6,0.2,0.9c0.1,0.3,0.3,0.6,0.5,0.8s0.4,0.4,0.7,0.5
			C345.8,257.3,346.1,257.3,346.4,257.3z"/>
		<path fill="#FFFFFF" d="M355,258.3c-0.5,0-1-0.1-1.4-0.3c-0.4-0.2-0.8-0.4-1.1-0.8c-0.3-0.4-0.5-0.7-0.7-1.1
			c-0.2-0.4-0.2-0.9-0.2-1.3c0-0.5,0.1-0.9,0.2-1.3c0.1-0.4,0.4-0.8,0.7-1.1c0.3-0.3,0.6-0.6,1.1-0.8c0.4-0.2,0.9-0.3,1.4-0.3
			s0.9,0.1,1.4,0.3c0.5,0.2,0.8,0.4,1.1,0.8c0.3,0.3,0.5,0.7,0.7,1.1s0.2,0.9,0.2,1.3c0,0.5-0.1,0.9-0.2,1.3
			c-0.2,0.4-0.4,0.8-0.7,1.1s-0.7,0.6-1.1,0.8C356,258.2,355.5,258.3,355,258.3z M352.8,254.9c0,0.3,0.1,0.7,0.2,1
			c0.1,0.3,0.3,0.6,0.5,0.8s0.4,0.4,0.7,0.5c0.3,0.1,0.6,0.2,0.9,0.2c0.3,0,0.6-0.1,0.9-0.2c0.3-0.1,0.5-0.3,0.7-0.5
			s0.4-0.5,0.5-0.8c0.1-0.3,0.2-0.6,0.2-1c0-0.3-0.1-0.7-0.2-1c-0.1-0.3-0.3-0.6-0.5-0.8c-0.2-0.2-0.4-0.4-0.7-0.5
			c-0.3-0.1-0.6-0.2-0.9-0.2c-0.3,0-0.6,0.1-0.9,0.2c-0.3,0.1-0.5,0.3-0.7,0.5c-0.2,0.2-0.4,0.5-0.5,0.8
			C352.9,254.2,352.8,254.5,352.8,254.9z"/>
		<path fill="#FFFFFF" d="M364.6,258.2v-9h3.9c0.4,0,0.8,0.1,1.1,0.2c0.3,0.2,0.6,0.4,0.9,0.7c0.2,0.3,0.4,0.6,0.6,0.9
			c0.2,0.3,0.2,0.7,0.2,1.1c0,0.3,0,0.6-0.1,0.9c-0.1,0.3-0.2,0.6-0.4,0.8s-0.4,0.4-0.6,0.6c-0.2,0.2-0.5,0.3-0.8,0.4l2.2,3.5h-1.3
			l-2.1-3.2h-2.4v3.2L364.6,258.2L364.6,258.2z M365.8,253.9h2.7c0.2,0,0.5-0.1,0.6-0.2c0.2-0.1,0.4-0.2,0.5-0.4
			c0.1-0.2,0.2-0.4,0.3-0.6c0.1-0.2,0.1-0.5,0.1-0.7c0-0.3,0-0.5-0.1-0.7c-0.1-0.2-0.2-0.4-0.4-0.6c-0.1-0.2-0.3-0.3-0.5-0.4
			c-0.2-0.1-0.4-0.1-0.6-0.1h-2.7L365.8,253.9L365.8,253.9z"/>
		<path fill="#FFFFFF" d="M380,257.1v1h-6.1v-9h6v1H375v2.9h4.2v1H375v3.1H380z"/>
		<path fill="#FFFFFF" d="M387.6,251c-0.1-0.1-0.2-0.2-0.4-0.3c-0.2-0.1-0.4-0.2-0.6-0.3c-0.2-0.1-0.4-0.2-0.7-0.2
			c-0.3-0.1-0.5-0.1-0.8-0.1c-0.7,0-1.2,0.1-1.5,0.4c-0.3,0.3-0.5,0.6-0.5,1.1c0,0.2,0,0.5,0.1,0.6c0.1,0.2,0.2,0.3,0.4,0.4
			c0.2,0.1,0.4,0.2,0.7,0.3c0.3,0.1,0.6,0.2,1.1,0.3c0.5,0.1,0.9,0.2,1.3,0.3c0.4,0.1,0.7,0.3,1,0.5s0.5,0.4,0.6,0.7
			c0.1,0.3,0.2,0.6,0.2,1c0,0.4-0.1,0.8-0.3,1.1s-0.4,0.6-0.7,0.8c-0.3,0.2-0.6,0.4-1,0.5c-0.4,0.1-0.8,0.1-1.3,0.1
			c-0.7,0-1.4-0.1-2-0.3c-0.6-0.2-1.2-0.5-1.7-0.9l0.5-1c0.1,0.1,0.3,0.3,0.5,0.4c0.2,0.1,0.5,0.3,0.7,0.4c0.2,0.1,0.6,0.2,0.9,0.3
			c0.3,0.1,0.7,0.1,1,0.1c0.6,0,1.1-0.1,1.5-0.3c0.4-0.2,0.5-0.6,0.5-1c0-0.3-0.1-0.5-0.2-0.6c-0.1-0.2-0.3-0.3-0.5-0.5
			c-0.2-0.1-0.5-0.2-0.8-0.3c-0.3-0.1-0.7-0.2-1.1-0.3c-0.5-0.1-0.9-0.2-1.2-0.4c-0.3-0.1-0.6-0.3-0.9-0.5c-0.2-0.2-0.4-0.4-0.5-0.6
			c-0.1-0.3-0.2-0.6-0.2-0.9c0-0.4,0.1-0.8,0.2-1.1c0.2-0.3,0.4-0.6,0.7-0.8c0.3-0.2,0.6-0.4,1-0.5c0.4-0.1,0.8-0.2,1.3-0.2
			c0.6,0,1.2,0.1,1.7,0.3s0.9,0.4,1.3,0.8L387.6,251z"/>
		<path fill="#FFFFFF" d="M397.3,250.1h-3.1v8H393v-8h-3.1v-1h7.4V250.1z"/>
		<path fill="#FFFFFF" d="M403,258.2v-9h6v1h-4.8v3h4.1v1h-4.1v4.1L403,258.2L403,258.2z"/>
		<path fill="#FFFFFF" d="M414.4,252.5c-0.6,0-1.1,0.2-1.5,0.4c-0.4,0.2-0.7,0.6-0.9,1.1v4.1h-1.1v-6.6h1v1.5
			c0.2-0.5,0.5-0.8,0.9-1.1c0.4-0.3,0.8-0.5,1.2-0.5c0.1,0,0.2,0,0.2,0s0.1,0,0.2,0V252.5z"/>
		<path fill="#FFFFFF" d="M418,258.3c-0.3,0-0.6-0.1-0.9-0.2c-0.3-0.1-0.5-0.3-0.7-0.4c-0.2-0.1-0.4-0.4-0.5-0.6
			c-0.1-0.3-0.2-0.5-0.2-0.8s0.1-0.6,0.2-0.9c0.1-0.3,0.3-0.5,0.6-0.7s0.5-0.3,0.9-0.4c0.4-0.1,0.7-0.1,1.1-0.1c0.3,0,0.6,0,1,0.1
			c0.3,0.1,0.6,0.1,0.9,0.2V254c0-0.5-0.2-1-0.5-1.3c-0.3-0.3-0.7-0.5-1.3-0.5c-0.7,0-1.4,0.3-2.1,0.8l-0.4-0.7
			c0.4-0.3,0.9-0.5,1.3-0.6c0.4-0.1,0.9-0.2,1.3-0.2c0.8,0,1.5,0.2,2,0.7s0.7,1.1,0.7,2v2.7c0,0.3,0.1,0.4,0.4,0.4v1
			c-0.1,0-0.2,0-0.2,0c-0.1,0-0.1,0-0.2,0c-0.2,0-0.4-0.1-0.5-0.2c-0.2-0.1-0.3-0.3-0.3-0.5v-0.5c-0.2,0.2-0.3,0.4-0.5,0.5
			c-0.2,0.2-0.4,0.3-0.6,0.4s-0.4,0.2-0.7,0.2S418.2,258.3,418,258.3z M418.3,257.4c0.4,0,0.7-0.1,1-0.2c0.3-0.2,0.6-0.3,0.8-0.6
			c0.2-0.2,0.2-0.4,0.2-0.5v-1c-0.3-0.1-0.5-0.2-0.8-0.2c-0.3-0.1-0.6-0.1-0.8-0.1c-0.6,0-1,0.1-1.4,0.3c-0.3,0.2-0.5,0.6-0.5,1
			c0,0.2,0,0.3,0.1,0.5c0.1,0.2,0.2,0.3,0.3,0.4c0.1,0.1,0.3,0.2,0.5,0.3C417.8,257.4,418,257.4,418.3,257.4z"/>
		<path fill="#FFFFFF" d="M434.1,258.2H433v-3.7c0-0.7-0.1-1.2-0.3-1.5s-0.6-0.5-1-0.5c-0.5,0-0.9,0.2-1.2,0.5
			c-0.4,0.3-0.6,0.8-0.8,1.3v4h-1.1v-3.7c0-0.7-0.1-1.2-0.3-1.6s-0.6-0.5-1-0.5c-0.5,0-0.9,0.2-1.2,0.5c-0.3,0.3-0.6,0.7-0.8,1.3v4
			H424v-6.6h1v1.4c0.3-0.5,0.6-0.9,1.1-1.1s0.9-0.4,1.5-0.4c0.6,0,1,0.2,1.3,0.5c0.3,0.3,0.5,0.7,0.6,1.2c0.6-1.1,1.4-1.6,2.5-1.6
			c0.4,0,0.7,0.1,1,0.2c0.3,0.1,0.5,0.3,0.6,0.6c0.2,0.3,0.3,0.5,0.3,0.9c0.1,0.3,0.1,0.7,0.1,1.1L434.1,258.2L434.1,258.2z"/>
		<path fill="#FFFFFF" d="M439.5,258.3c-0.5,0-1-0.1-1.4-0.3c-0.4-0.2-0.8-0.4-1.1-0.7s-0.5-0.7-0.7-1.1c-0.2-0.4-0.2-0.9-0.2-1.3
			c0-0.5,0.1-0.9,0.2-1.3c0.1-0.4,0.4-0.8,0.7-1.1s0.7-0.6,1.1-0.7c0.4-0.1,0.9-0.3,1.4-0.3s1,0.1,1.4,0.3c0.4,0.2,0.8,0.4,1.1,0.7
			s0.5,0.7,0.7,1.1c0.2,0.4,0.2,0.8,0.2,1.3c0,0.1,0,0.2,0,0.3c0,0.1,0,0.1,0,0.2h-5.5c0,0.3,0.1,0.6,0.2,0.9
			c0.1,0.3,0.3,0.5,0.5,0.7c0.2,0.2,0.4,0.3,0.7,0.5c0.3,0.1,0.5,0.2,0.8,0.2c0.2,0,0.4,0,0.6-0.1c0.2-0.1,0.4-0.1,0.5-0.2
			c0.2-0.1,0.3-0.2,0.5-0.3c0.1-0.1,0.2-0.3,0.3-0.5l1,0.3c-0.1,0.2-0.3,0.5-0.5,0.7c-0.2,0.2-0.4,0.4-0.7,0.5
			c-0.3,0.1-0.5,0.3-0.8,0.4S439.8,258.3,439.5,258.3z M441.8,254.4c0-0.3-0.1-0.6-0.2-0.9c-0.1-0.3-0.3-0.5-0.5-0.7
			c-0.2-0.2-0.4-0.3-0.7-0.4c-0.3-0.1-0.5-0.2-0.8-0.2c-0.3,0-0.6,0.1-0.8,0.2c-0.3,0.1-0.5,0.3-0.7,0.4c-0.2,0.2-0.4,0.4-0.5,0.7
			c-0.1,0.3-0.2,0.6-0.2,0.9H441.8z"/>
		<path fill="#FFFFFF" d="M453,251.5h1.1l-2.8,6.6h-0.9l-1.3-3.2l-1.3,3.2h-0.9l-2.8-6.6h1.1l2.3,5.5l1.1-2.8l-1.1-2.8h0.9l0.8,2.1
			l0.8-2.1h0.9l-1.1,2.8l1.1,2.8L453,251.5z"/>
		<path fill="#FFFFFF" d="M458.5,258.3c-0.5,0-1-0.1-1.4-0.3c-0.4-0.2-0.8-0.4-1.1-0.8c-0.3-0.4-0.5-0.7-0.7-1.1
			c-0.2-0.4-0.2-0.9-0.2-1.3c0-0.5,0.1-0.9,0.2-1.3c0.1-0.4,0.4-0.8,0.7-1.1c0.3-0.3,0.6-0.6,1.1-0.8c0.4-0.2,0.9-0.3,1.4-0.3
			s0.9,0.1,1.4,0.3c0.5,0.2,0.8,0.4,1.1,0.8c0.3,0.3,0.5,0.7,0.7,1.1s0.2,0.9,0.2,1.3c0,0.5-0.1,0.9-0.2,1.3
			c-0.2,0.4-0.4,0.8-0.7,1.1s-0.7,0.6-1.1,0.8C459.5,258.2,459,258.3,458.5,258.3z M456.3,254.9c0,0.3,0.1,0.7,0.2,1
			c0.1,0.3,0.3,0.6,0.5,0.8s0.4,0.4,0.7,0.5c0.3,0.1,0.6,0.2,0.9,0.2c0.3,0,0.6-0.1,0.9-0.2c0.3-0.1,0.5-0.3,0.7-0.5
			s0.4-0.5,0.5-0.8c0.1-0.3,0.2-0.6,0.2-1c0-0.3-0.1-0.7-0.2-1c-0.1-0.3-0.3-0.6-0.5-0.8c-0.2-0.2-0.4-0.4-0.7-0.5
			c-0.3-0.1-0.6-0.2-0.9-0.2c-0.3,0-0.6,0.1-0.9,0.2c-0.3,0.1-0.5,0.3-0.7,0.5c-0.2,0.2-0.4,0.5-0.5,0.8
			C456.4,254.2,456.3,254.5,456.3,254.9z"/>
		<path fill="#FFFFFF" d="M467.5,252.5c-0.6,0-1.1,0.2-1.5,0.4c-0.4,0.2-0.7,0.6-0.9,1.1v4.1H464v-6.6h1v1.5
			c0.2-0.5,0.5-0.8,0.9-1.1c0.4-0.3,0.8-0.5,1.2-0.5c0.1,0,0.2,0,0.2,0c0.1,0,0.1,0,0.2,0V252.5z"/>
		<path fill="#FFFFFF" d="M474,258.2l-2.3-3.2l-1.3,1.2v2.1h-1.1V249h1.1v6.1l3.4-3.5h1.2l-2.6,2.8l2.8,3.9L474,258.2L474,258.2z"/>
		<path fill="#FFFFFF" d="M487.5,258.2V252h4.1v6.2H487.5z"/>
		<path fill="#FFFFFF" d="M503.4,258.2v-9h3.8c0.4,0,0.8,0.1,1.1,0.2c0.3,0.2,0.6,0.4,0.9,0.7c0.2,0.3,0.4,0.6,0.6,0.9
			s0.2,0.7,0.2,1.1c0,0.4-0.1,0.7-0.2,1.1c-0.1,0.3-0.3,0.7-0.5,0.9c-0.2,0.2-0.5,0.5-0.8,0.6c-0.3,0.1-0.7,0.2-1.1,0.2h-2.7v3.2
			h-1.3V258.2z M504.6,253.9h2.6c0.2,0,0.5,0,0.6-0.1c0.2-0.1,0.4-0.2,0.5-0.4c0.1-0.2,0.2-0.4,0.3-0.6c0.1-0.2,0.1-0.5,0.1-0.7
			c0-0.3,0-0.5-0.1-0.7c-0.1-0.2-0.2-0.4-0.4-0.6s-0.3-0.3-0.5-0.4c-0.2-0.1-0.4-0.1-0.6-0.1h-2.6L504.6,253.9L504.6,253.9z"/>
		<path fill="#FFFFFF" d="M512.3,260c0.2,0,0.4,0,0.6,0c0.1,0,0.1,0,0.2-0.1c0.1,0,0.1-0.1,0.2-0.2c0.1-0.1,0.2-0.3,0.3-0.6
			c0.1-0.2,0.2-0.6,0.4-1l-2.8-6.6h1.2l2.3,5.6l2.1-5.6h1.1l-3.3,8.4c-0.2,0.4-0.4,0.7-0.7,0.9c-0.3,0.2-0.6,0.3-1,0.3
			c-0.1,0-0.2,0-0.3,0c-0.1,0-0.2,0-0.3-0.1V260z"/>
		<path fill="#FFFFFF" d="M523.1,257.8c-0.1,0-0.2,0.1-0.3,0.1c-0.1,0-0.2,0.1-0.4,0.1c-0.1,0-0.3,0.1-0.5,0.1c-0.2,0-0.3,0-0.5,0
			c-0.4,0-0.8-0.1-1.1-0.3s-0.4-0.6-0.4-1.1v-4.5H519v-0.9h0.9v-2.2h1.1v2.2h1.5v0.9H521v4.1c0,0.2,0.1,0.4,0.2,0.5
			c0.1,0.1,0.3,0.2,0.5,0.2s0.4,0,0.6-0.1c0.2-0.1,0.3-0.1,0.4-0.2L523.1,257.8z"/>
		<path fill="#FFFFFF" d="M530.6,258.2h-1.1v-3.7c0-0.7-0.1-1.2-0.4-1.5c-0.2-0.3-0.6-0.5-1-0.5c-0.2,0-0.4,0-0.7,0.1
			c-0.2,0.1-0.4,0.2-0.6,0.4s-0.4,0.3-0.5,0.5c-0.1,0.2-0.3,0.4-0.3,0.7v4h-1.1v-9.3h1.1v4.1c0.3-0.5,0.6-0.9,1.1-1.1
			c0.4-0.3,0.9-0.4,1.5-0.4c0.4,0,0.7,0.1,1,0.2c0.3,0.1,0.5,0.3,0.6,0.6c0.2,0.2,0.3,0.5,0.4,0.9c0.1,0.4,0.1,0.7,0.1,1.1v3.9
			H530.6z"/>
		<path fill="#FFFFFF" d="M536,258.3c-0.5,0-1-0.1-1.4-0.3c-0.4-0.2-0.8-0.4-1.1-0.8c-0.3-0.4-0.5-0.7-0.7-1.1
			c-0.2-0.4-0.2-0.9-0.2-1.3c0-0.5,0.1-0.9,0.2-1.3c0.2-0.4,0.4-0.8,0.7-1.1c0.3-0.3,0.6-0.6,1.1-0.8c0.5-0.2,0.9-0.3,1.4-0.3
			s0.9,0.1,1.4,0.3c0.5,0.2,0.8,0.4,1.1,0.8c0.3,0.3,0.5,0.7,0.7,1.1s0.2,0.9,0.2,1.3c0,0.5-0.1,0.9-0.2,1.3
			c-0.2,0.4-0.4,0.8-0.7,1.1s-0.7,0.6-1.1,0.8C537,258.2,536.5,258.3,536,258.3z M533.8,254.9c0,0.3,0.1,0.7,0.2,1
			c0.1,0.3,0.3,0.6,0.5,0.8s0.4,0.4,0.7,0.5c0.3,0.1,0.6,0.2,0.9,0.2c0.3,0,0.6-0.1,0.9-0.2c0.3-0.1,0.5-0.3,0.7-0.5
			s0.4-0.5,0.5-0.8c0.1-0.3,0.2-0.6,0.2-1c0-0.3-0.1-0.7-0.2-1c-0.1-0.3-0.3-0.6-0.5-0.8c-0.2-0.2-0.4-0.4-0.7-0.5
			c-0.3-0.1-0.6-0.2-0.9-0.2c-0.3,0-0.6,0.1-0.9,0.2c-0.3,0.1-0.5,0.3-0.7,0.5c-0.2,0.2-0.4,0.5-0.5,0.8
			C533.9,254.2,533.8,254.5,533.8,254.9z"/>
		<path fill="#FFFFFF" d="M547.3,258.2h-1.1v-3.7c0-0.7-0.1-1.2-0.3-1.6c-0.2-0.3-0.5-0.5-1-0.5c-0.2,0-0.5,0-0.7,0.1
			s-0.4,0.2-0.6,0.4c-0.2,0.2-0.4,0.3-0.5,0.5c-0.2,0.2-0.3,0.4-0.3,0.7v4h-1.1v-6.6h1v1.4c0.3-0.5,0.6-0.8,1.1-1.1s1-0.4,1.6-0.4
			c0.4,0,0.7,0.1,1,0.2c0.3,0.1,0.5,0.3,0.6,0.6c0.2,0.3,0.3,0.5,0.3,0.9c0.1,0.3,0.1,0.7,0.1,1.1v4H547.3z"/>
		<path fill="#FFFFFF" d="M557.4,255.2c0.5,0.1,1,0.3,1.3,0.8c0.3,0.4,0.5,0.9,0.5,1.5c0,0.4-0.1,0.7-0.2,1.1
			c-0.1,0.3-0.4,0.6-0.6,0.8c-0.2,0.2-0.6,0.4-1,0.5c-0.4,0.1-0.8,0.2-1.2,0.2c-0.6,0-1.2-0.1-1.7-0.4s-0.9-0.6-1.1-1l0.8-0.8
			c0.2,0.3,0.5,0.6,0.8,0.8s0.8,0.3,1.3,0.3c0.6,0,1-0.1,1.4-0.4c0.3-0.3,0.5-0.7,0.5-1.2s-0.2-1-0.5-1.3c-0.4-0.3-0.9-0.5-1.6-0.5
			h-0.3v-0.9h0.4c0.6,0,1.1-0.1,1.4-0.4c0.3-0.3,0.5-0.7,0.5-1.1c0-0.4-0.2-0.8-0.5-1c-0.3-0.2-0.7-0.3-1.2-0.3s-0.9,0.1-1.2,0.3
			c-0.4,0.2-0.6,0.5-0.8,0.8l-0.7-0.7c0.1-0.2,0.3-0.4,0.5-0.6s0.4-0.3,0.7-0.5c0.3-0.1,0.5-0.2,0.8-0.3c0.3-0.1,0.6-0.1,0.9-0.1
			c0.4,0,0.8,0.1,1.1,0.2s0.6,0.3,0.9,0.5c0.3,0.2,0.4,0.4,0.6,0.7s0.2,0.6,0.2,0.9c0,0.3,0,0.5-0.1,0.7c-0.1,0.2-0.2,0.4-0.3,0.6
			c-0.1,0.2-0.3,0.3-0.5,0.5C557.8,255,557.6,255.1,557.4,255.2z"/>
		<path fill="#FFFFFF" d="M571.9,258.2V252h4.1v6.2H571.9z"/>
		<path fill="#FFFFFF" d="M587.9,258.2v-9h3.8c0.4,0,0.8,0.1,1.1,0.2c0.3,0.2,0.6,0.4,0.9,0.7c0.2,0.3,0.4,0.6,0.6,0.9
			s0.2,0.7,0.2,1.1c0,0.4-0.1,0.7-0.2,1.1c-0.1,0.3-0.3,0.7-0.5,0.9c-0.2,0.2-0.5,0.5-0.8,0.6c-0.3,0.1-0.7,0.2-1.1,0.2H589v3.2
			h-1.1V258.2z M589,253.9h2.6c0.2,0,0.5,0,0.6-0.1c0.2-0.1,0.4-0.2,0.5-0.4c0.1-0.2,0.2-0.4,0.3-0.6s0.1-0.5,0.1-0.7
			c0-0.3,0-0.5-0.1-0.7c-0.1-0.2-0.2-0.4-0.4-0.6c-0.2-0.2-0.3-0.3-0.5-0.4c-0.2-0.1-0.4-0.1-0.6-0.1H589V253.9z"/>
		<path fill="#FFFFFF" d="M599.1,258.3c-0.5,0-1-0.1-1.4-0.3c-0.4-0.2-0.8-0.4-1.1-0.8c-0.3-0.4-0.5-0.7-0.7-1.1
			c-0.2-0.4-0.2-0.9-0.2-1.3c0-0.5,0.1-0.9,0.2-1.3c0.2-0.4,0.4-0.8,0.7-1.1c0.3-0.3,0.6-0.6,1.1-0.8c0.5-0.2,0.9-0.3,1.4-0.3
			s0.9,0.1,1.4,0.3c0.5,0.2,0.8,0.4,1.1,0.8c0.3,0.3,0.5,0.7,0.7,1.1s0.2,0.9,0.2,1.3c0,0.5-0.1,0.9-0.2,1.3
			c-0.2,0.4-0.4,0.8-0.7,1.1c-0.3,0.3-0.7,0.6-1.1,0.8C600,258.2,599.6,258.3,599.1,258.3z M596.9,254.9c0,0.3,0.1,0.7,0.2,1
			c0.1,0.3,0.3,0.6,0.5,0.8c0.2,0.2,0.4,0.4,0.7,0.5c0.3,0.1,0.6,0.2,0.9,0.2s0.6-0.1,0.9-0.2c0.3-0.1,0.5-0.3,0.7-0.5
			s0.4-0.5,0.5-0.8c0.1-0.3,0.2-0.6,0.2-1c0-0.3-0.1-0.7-0.2-1c-0.1-0.3-0.3-0.6-0.5-0.8c-0.2-0.2-0.4-0.4-0.7-0.5
			c-0.3-0.1-0.6-0.2-0.9-0.2s-0.6,0.1-0.9,0.2c-0.3,0.1-0.5,0.3-0.7,0.5c-0.2,0.2-0.4,0.5-0.5,0.8
			C596.9,254.2,596.9,254.5,596.9,254.9z"/>
		<path fill="#FFFFFF" d="M606.9,258.3c-0.5,0-1.1-0.1-1.6-0.2c-0.5-0.2-1-0.4-1.3-0.7l0.5-0.8c0.4,0.3,0.8,0.5,1.2,0.7
			c0.4,0.1,0.8,0.2,1.2,0.2c0.5,0,0.9-0.1,1.2-0.3c0.3-0.2,0.4-0.5,0.4-0.8c0-0.2,0-0.3-0.1-0.4c-0.1-0.1-0.2-0.2-0.3-0.3
			c-0.2-0.1-0.3-0.2-0.6-0.2c-0.2-0.1-0.5-0.1-0.8-0.2c-0.4-0.1-0.7-0.2-1-0.3s-0.5-0.2-0.7-0.3c-0.2-0.1-0.3-0.3-0.4-0.5
			c-0.1-0.2-0.1-0.4-0.1-0.7s0.1-0.6,0.2-0.9c0.1-0.3,0.3-0.5,0.5-0.6s0.5-0.3,0.8-0.4c0.3-0.1,0.6-0.1,1-0.1c0.5,0,1,0.1,1.4,0.2
			c0.4,0.2,0.8,0.4,1.1,0.6L609,253c-0.3-0.2-0.6-0.4-0.9-0.6c-0.3-0.1-0.7-0.2-1.1-0.2c-0.4,0-0.8,0.1-1,0.3
			c-0.3,0.2-0.4,0.5-0.4,0.8c0,0.2,0,0.3,0.1,0.4c0.1,0.1,0.1,0.2,0.3,0.3c0.1,0.1,0.3,0.1,0.5,0.2c0.2,0.1,0.4,0.1,0.7,0.2
			c0.4,0.1,0.8,0.2,1.2,0.3c0.3,0.1,0.6,0.2,0.8,0.4c0.2,0.1,0.4,0.3,0.5,0.5c0.1,0.2,0.2,0.4,0.2,0.7c0,0.6-0.2,1.1-0.7,1.5
			C608.7,258.2,607.7,258.3,606.9,258.3z"/>
		<path fill="#FFFFFF" d="M615,257.8c-0.1,0-0.2,0.1-0.3,0.1c-0.1,0-0.2,0.1-0.4,0.1c-0.1,0-0.3,0.1-0.5,0.1s-0.3,0-0.5,0
			c-0.4,0-0.8-0.1-1.1-0.3s-0.4-0.6-0.4-1.1v-4.5H611v-0.9h0.9v-2.2h1.1v2.2h1.5v0.9H613v4.1c0,0.2,0.1,0.4,0.2,0.5
			c0.1,0.1,0.3,0.2,0.5,0.2s0.4,0,0.6-0.1c0.2-0.1,0.3-0.1,0.4-0.2L615,257.8z"/>
		<path fill="#FFFFFF" d="M619.4,258.2c-0.5,0-0.9-0.1-1.2-0.3c-0.4-0.2-0.7-0.4-1-0.8c-0.3-0.3-0.5-0.7-0.6-1.1
			c-0.1-0.4-0.2-0.8-0.2-1.3s0.1-0.9,0.2-1.3c0.1-0.4,0.4-0.8,0.6-1.1c0.3-0.3,0.6-0.6,1-0.7c0.4-0.1,0.8-0.3,1.3-0.3
			c0.6,0,1,0.1,1.5,0.4c0.4,0.3,0.8,0.6,1,1v-1.3h1v6.6c0,0.5-0.1,0.9-0.3,1.3c-0.2,0.4-0.4,0.7-0.7,0.9s-0.7,0.4-1.1,0.6
			c-0.4,0.1-0.9,0.2-1.3,0.2c-0.8,0-1.4-0.1-1.8-0.4c-0.5-0.3-0.9-0.6-1.2-1.1l0.6-0.6c0.3,0.4,0.6,0.7,1,0.9
			c0.4,0.2,0.9,0.3,1.3,0.3c0.3,0,0.6,0,0.9-0.1c0.3-0.1,0.5-0.2,0.7-0.4c0.2-0.2,0.4-0.4,0.5-0.6c0.1-0.2,0.2-0.6,0.2-0.9v-1.2
			c-0.1,0.2-0.3,0.4-0.5,0.6s-0.4,0.3-0.6,0.4c-0.2,0.1-0.4,0.2-0.6,0.3C619.8,258.2,619.6,258.2,619.4,258.2z M619.7,257.3
			c0.2,0,0.5,0,0.7-0.1c0.2-0.1,0.4-0.2,0.6-0.3c0.2-0.1,0.3-0.3,0.5-0.5c0.1-0.2,0.2-0.4,0.3-0.5V254c-0.1-0.2-0.2-0.4-0.4-0.6
			c-0.1-0.2-0.3-0.3-0.5-0.5c-0.2-0.1-0.4-0.2-0.6-0.3c-0.2-0.1-0.4-0.1-0.7-0.1c-0.3,0-0.6,0.1-0.9,0.2c-0.3,0.1-0.5,0.3-0.7,0.6
			c-0.2,0.2-0.3,0.5-0.4,0.8c-0.1,0.3-0.2,0.6-0.2,0.9s0.1,0.6,0.2,0.9c0.1,0.3,0.3,0.6,0.5,0.8c0.2,0.2,0.4,0.4,0.7,0.5
			C619.1,257.3,619.4,257.3,619.7,257.3z"/>
		<path fill="#FFFFFF" d="M628.9,252.5c-0.6,0-1.1,0.2-1.5,0.4c-0.4,0.2-0.7,0.6-0.9,1.1v4.1h-1.1v-6.6h1v1.5
			c0.2-0.5,0.5-0.8,0.9-1.1c0.4-0.3,0.8-0.5,1.2-0.5c0.1,0,0.2,0,0.2,0c0.1,0,0.1,0,0.2,0V252.5L628.9,252.5z"/>
		<path fill="#FFFFFF" d="M633.7,258.3c-0.5,0-1-0.1-1.4-0.3c-0.4-0.2-0.8-0.4-1.1-0.7s-0.5-0.7-0.7-1.1c-0.2-0.4-0.2-0.9-0.2-1.3
			c0-0.5,0.1-0.9,0.2-1.3c0.2-0.4,0.4-0.8,0.7-1.1s0.7-0.6,1.1-0.7c0.4-0.2,0.9-0.3,1.4-0.3s1,0.1,1.4,0.3c0.4,0.2,0.8,0.4,1.1,0.7
			s0.5,0.7,0.7,1.1c0.2,0.4,0.2,0.8,0.2,1.3c0,0.1,0,0.2,0,0.3c0,0.1,0,0.1,0,0.2h-5.5c0,0.3,0.1,0.6,0.2,0.9
			c0.1,0.3,0.3,0.5,0.5,0.7s0.4,0.3,0.7,0.5s0.5,0.2,0.8,0.2c0.2,0,0.4,0,0.6-0.1c0.2-0.1,0.4-0.1,0.5-0.2c0.2-0.1,0.3-0.2,0.5-0.3
			c0.1-0.1,0.2-0.3,0.3-0.5l1,0.3c-0.1,0.2-0.3,0.5-0.5,0.7c-0.2,0.2-0.4,0.4-0.7,0.5c-0.3,0.1-0.5,0.3-0.8,0.4
			C634.4,258.2,634.1,258.3,633.7,258.3z M636,254.4c0-0.3-0.1-0.6-0.2-0.9c-0.1-0.3-0.3-0.5-0.5-0.7s-0.4-0.3-0.7-0.4
			c-0.3-0.1-0.5-0.2-0.8-0.2s-0.6,0.1-0.8,0.2c-0.3,0.1-0.5,0.3-0.7,0.4c-0.2,0.2-0.4,0.4-0.5,0.7c-0.1,0.3-0.2,0.6-0.2,0.9H636z"/>
		<path fill="#FFFFFF" d="M641.4,258.3c-0.5,0-1.1-0.1-1.6-0.2c-0.5-0.2-1-0.4-1.3-0.7l0.5-0.8c0.4,0.3,0.8,0.5,1.2,0.7
			c0.4,0.1,0.8,0.2,1.2,0.2c0.5,0,0.9-0.1,1.2-0.3c0.3-0.2,0.4-0.5,0.4-0.8c0-0.2,0-0.3-0.1-0.4c-0.1-0.1-0.2-0.2-0.3-0.3
			c-0.2-0.1-0.3-0.2-0.6-0.2c-0.2-0.1-0.5-0.1-0.8-0.2c-0.4-0.1-0.7-0.2-1-0.3s-0.5-0.2-0.7-0.3c-0.2-0.1-0.3-0.3-0.4-0.5
			c-0.1-0.2-0.1-0.4-0.1-0.7s0.1-0.6,0.2-0.9c0.1-0.3,0.3-0.5,0.5-0.6s0.5-0.3,0.8-0.4c0.3-0.1,0.6-0.1,1-0.1c0.5,0,1,0.1,1.4,0.2
			c0.4,0.2,0.8,0.4,1.1,0.6l-0.5,0.7c-0.3-0.2-0.6-0.4-0.9-0.6c-0.3-0.1-0.7-0.2-1.1-0.2c-0.4,0-0.8,0.1-1,0.3
			c-0.3,0.2-0.4,0.5-0.4,0.8c0,0.2,0,0.3,0.1,0.4c0.1,0.1,0.1,0.2,0.3,0.3c0.1,0.1,0.3,0.1,0.5,0.2c0.2,0.1,0.4,0.1,0.7,0.2
			c0.4,0.1,0.8,0.2,1.2,0.3c0.3,0.1,0.6,0.2,0.8,0.4c0.2,0.1,0.4,0.3,0.5,0.5c0.1,0.2,0.2,0.4,0.2,0.7c0,0.6-0.2,1.1-0.7,1.5
			C643.2,258.2,642.2,258.3,641.4,258.3z"/>
		<path fill="#FFFFFF" d="M651.6,251c-0.1-0.1-0.2-0.2-0.4-0.3c-0.2-0.1-0.4-0.2-0.6-0.3c-0.2-0.1-0.4-0.2-0.7-0.2
			c-0.3-0.1-0.5-0.1-0.8-0.1c-0.7,0-1.2,0.1-1.5,0.4c-0.3,0.3-0.5,0.6-0.5,1.1c0,0.2,0,0.5,0.1,0.6c0.1,0.2,0.2,0.3,0.4,0.4
			c0.2,0.1,0.4,0.2,0.7,0.3c0.3,0.1,0.6,0.2,1.1,0.3c0.5,0.1,0.9,0.2,1.3,0.3c0.4,0.1,0.7,0.3,1,0.5s0.5,0.4,0.6,0.7
			c0.1,0.3,0.2,0.6,0.2,1c0,0.4-0.1,0.8-0.3,1.1s-0.4,0.6-0.7,0.8c-0.3,0.2-0.6,0.4-1,0.5c-0.4,0.1-0.8,0.1-1.3,0.1
			c-0.7,0-1.4-0.1-2-0.3c-0.6-0.2-1.2-0.5-1.7-0.9l0.5-1c0.1,0.1,0.3,0.3,0.5,0.4c0.2,0.1,0.5,0.3,0.7,0.4c0.2,0.1,0.6,0.2,0.9,0.3
			c0.3,0.1,0.7,0.1,1,0.1c0.6,0,1.1-0.1,1.5-0.3c0.4-0.2,0.5-0.6,0.5-1c0-0.3-0.1-0.5-0.2-0.6c-0.1-0.2-0.3-0.3-0.5-0.5
			c-0.2-0.1-0.5-0.2-0.8-0.3c-0.3-0.1-0.7-0.2-1.1-0.3c-0.5-0.1-0.9-0.2-1.2-0.4c-0.3-0.1-0.6-0.3-0.9-0.5c-0.2-0.2-0.4-0.4-0.5-0.6
			c-0.1-0.2-0.2-0.6-0.2-0.9c0-0.4,0.1-0.8,0.2-1.1c0.1-0.3,0.4-0.6,0.7-0.8c0.3-0.2,0.6-0.4,1-0.5c0.4-0.1,0.8-0.2,1.3-0.2
			c0.6,0,1.2,0.1,1.7,0.3s0.9,0.4,1.3,0.8L651.6,251z"/>
		<path fill="#FFFFFF" d="M661,257.4c-0.3,0.2-0.7,0.4-1.1,0.6c-0.4,0.1-0.8,0.2-1.3,0.2c-0.6,0-1.2-0.1-1.7-0.4s-1-0.6-1.3-1
			c-0.4-0.4-0.7-0.9-0.9-1.5c-0.2-0.6-0.3-1.1-0.3-1.7c0-0.6,0.1-1.2,0.3-1.7c0.2-0.6,0.5-1,0.9-1.5c0.4-0.4,0.8-0.8,1.4-1
			c0.5-0.3,1.1-0.4,1.7-0.4c0.6,0,1.2,0.1,1.7,0.4c0.5,0.3,1,0.6,1.3,1.1c0.4,0.4,0.7,0.9,0.9,1.5c0.2,0.6,0.3,1.1,0.3,1.7
			c0,0.6-0.1,1.2-0.3,1.7c-0.2,0.5-0.5,1-0.9,1.5l1.1,1.3h-1.1L661,257.4z M658.6,257.2c0.3,0,0.6-0.1,0.9-0.2s0.6-0.2,0.8-0.4
			l-1.2-1.4h1.1l0.7,0.8c0.2-0.3,0.4-0.7,0.6-1.1c0.1-0.4,0.2-0.8,0.2-1.3s-0.1-0.9-0.2-1.3c-0.1-0.4-0.4-0.8-0.6-1.1
			c-0.3-0.3-0.6-0.6-1-0.8c-0.4-0.2-0.8-0.3-1.3-0.3s-0.9,0.1-1.3,0.3c-0.4,0.2-0.7,0.5-1,0.8s-0.5,0.7-0.6,1.1
			c-0.1,0.4-0.2,0.9-0.2,1.3c0,0.5,0.1,0.9,0.2,1.3c0.1,0.4,0.4,0.8,0.6,1.1c0.3,0.3,0.6,0.6,1,0.8
			C657.7,257,658.1,257.2,658.6,257.2z"/>
		<path fill="#FFFFFF" d="M665.2,258.2v-9h1.1v8h5v1H665.2z"/>
	</g>
	<g>
		<path fill="#FFFFFF" d="M381.6,209c0,1.1-0.8,1.9-1.9,1.9h-1.8l3.6,4.3h-1.7l-3.6-4.3H372c-0.2,0-0.4,0-0.6-0.1v4.4h-1.3v-11.5
			h9.6c1.1,0,1.9,0.9,1.9,1.9V209z M379.7,209.6c0.3,0,0.6-0.3,0.6-0.6v-3.4c0-0.3-0.3-0.6-0.6-0.6H372c-0.3,0-0.6,0.3-0.6,0.6v3.4
			c0,0.3,0.3,0.6,0.6,0.6H379.7z"/>
		<path fill="#FFFFFF" d="M395.6,205h-9.2v3.8h7.4v1.3h-7.4v3.8h9.2v1.3h-10.5v-11.5h10.5V205z"/>
		<path fill="#FFFFFF" d="M410.4,206.1h-1.3v-0.4c0-0.3-0.3-0.6-0.6-0.6h-7.7c-0.3,0-0.6,0.3-0.6,0.6v2.6c0,0.3,0.3,0.6,0.6,0.6h7.7
			c1.1,0,1.9,0.9,1.9,1.9v2.6c0,1.1-0.8,1.9-1.9,1.9h-7.7c-1.1,0-1.9-0.8-1.9-1.9V213h1.3v0.4c0,0.3,0.3,0.6,0.6,0.6h7.7
			c0.3,0,0.6-0.3,0.6-0.6v-2.6c0-0.3-0.3-0.6-0.6-0.6h-7.7c-1.1,0-1.9-0.9-1.9-1.9v-2.6c0-1.1,0.8-1.9,1.9-1.9h7.7
			c1.1,0,1.9,0.8,1.9,1.9V206.1z"/>
		<path fill="#FFFFFF" d="M424.8,203.7v1.3h-5.1v10.2h-1.3V205h-5.1v-1.3H424.8z"/>
		<path fill="#FFFFFF" d="M443.5,203.7c1.1,0,1.9,0.8,1.9,1.9v9.6h-1.3V211h-8.9v4.2h-1.3v-9.6c0-1.1,0.8-1.9,1.9-1.9H443.5z
			 M444.1,209.7v-4.1c0-0.3-0.3-0.6-0.6-0.6h-7.7c-0.3,0-0.6,0.3-0.6,0.6v4.1H444.1z"/>
		<path fill="#FFFFFF" d="M458.5,203.7c1.1,0,1.9,0.9,1.9,1.9v3.4c0,1.1-0.8,1.9-1.9,1.9h-7.7c-0.1,0-0.4,0-0.6-0.1v4.4h-1.3v-11.5
			H458.5L458.5,203.7z M459.2,205.7c0-0.3-0.3-0.6-0.6-0.6h-7.7c-0.3,0-0.6,0.3-0.6,0.6v3.4c0,0.3,0.3,0.6,0.6,0.6h7.7
			c0.3,0,0.6-0.3,0.6-0.6V205.7z"/>
		<path fill="#FFFFFF" d="M463.3,203.7h1.3v11.5h-1.3V203.7z"/>
		<path fill="#FFFFFF" d="M486.1,206.1h-1.3v-0.4c0-0.3-0.3-0.6-0.6-0.6h-7.7c-0.3,0-0.6,0.3-0.6,0.6v2.6c0,0.3,0.3,0.6,0.6,0.6h7.7
			c1.1,0,1.9,0.9,1.9,1.9v2.6c0,1.1-0.8,1.9-1.9,1.9h-7.7c-1.1,0-1.9-0.8-1.9-1.9V213h1.3v0.4c0,0.3,0.3,0.6,0.6,0.6h7.7
			c0.3,0,0.6-0.3,0.6-0.6v-2.6c0-0.3-0.3-0.6-0.6-0.6h-7.7c-1.1,0-1.9-0.9-1.9-1.9v-2.6c0-1.1,0.8-1.9,1.9-1.9h7.7
			c1.1,0,1.9,0.8,1.9,1.9V206.1z"/>
		<path fill="#FFFFFF" d="M498.9,207.9v3.4h-8.1v2c0,0.3,0.3,0.6,0.6,0.6h7.5v1.3h-7.5c-1.1,0-1.9-0.9-1.9-1.9v-5.4
			c0-1.1,0.9-1.9,1.9-1.9h5.6C498,206,498.9,206.8,498.9,207.9z M497.6,209.9v-2c0-0.3-0.3-0.6-0.6-0.6h-5.6c-0.3,0-0.6,0.3-0.6,0.6
			v2H497.6z"/>
		<path fill="#FFFFFF" d="M509.3,206v1.3h-5.2c-0.3,0-0.6,0.3-0.6,0.6v7.3h-1.3v-7.3c0-1.1,0.9-1.9,1.9-1.9H509.3z"/>
		<path fill="#FFFFFF" d="M523.4,206l-5.1,9.3h-1.5c-1.7-3.1-3.4-6.2-5.1-9.3h1.5l4.4,8l4.4-8H523.4z"/>
		<path fill="#FFFFFF" d="M535.4,207.9v3.4h-8.1v2c0,0.3,0.3,0.6,0.6,0.6h7.5v1.3h-7.5c-1.1,0-1.9-0.9-1.9-1.9v-5.4
			c0-1.1,0.9-1.9,1.9-1.9h5.6C534.6,206,535.4,206.8,535.4,207.9z M534.1,209.9v-2c0-0.3-0.3-0.6-0.6-0.6h-5.6
			c-0.3,0-0.6,0.3-0.6,0.6v2H534.1z"/>
		<path fill="#FFFFFF" d="M545.9,206v1.3h-5.2c-0.3,0-0.6,0.3-0.6,0.6v7.3h-1.3v-7.3c0-1.1,0.9-1.9,1.9-1.9H545.9z"/>
	</g>
	<g>
		<path fill="#CCCCCC" d="M381.6,210.2c0,1.1-0.8,1.9-1.9,1.9h-1.8l3.6,4.3h-1.7l-3.6-4.3H372c-0.2,0-0.4,0-0.6-0.1v4.4h-1.3v-11.5
			h9.6c1.1,0,1.9,0.9,1.9,1.9V210.2z M379.7,210.8c0.3,0,0.6-0.3,0.6-0.6v-3.4c0-0.3-0.3-0.6-0.6-0.6H372c-0.3,0-0.6,0.3-0.6,0.6
			v3.4c0,0.3,0.3,0.6,0.6,0.6H379.7z"/>
		<path fill="#CCCCCC" d="M395.6,206.2h-9.2v3.8h7.4v1.3h-7.4v3.8h9.2v1.3h-10.5v-11.5h10.5V206.2z"/>
		<path fill="#CCCCCC" d="M410.4,207.3h-1.3v-0.4c0-0.3-0.3-0.6-0.6-0.6h-7.7c-0.3,0-0.6,0.3-0.6,0.6v2.6c0,0.3,0.3,0.6,0.6,0.6h7.7
			c1.1,0,1.9,0.9,1.9,1.9v2.6c0,1.1-0.8,1.9-1.9,1.9h-7.7c-1.1,0-1.9-0.8-1.9-1.9v-0.4h1.3v0.4c0,0.3,0.3,0.6,0.6,0.6h7.7
			c0.3,0,0.6-0.3,0.6-0.6V212c0-0.3-0.3-0.6-0.6-0.6h-7.7c-1.1,0-1.9-0.9-1.9-1.9v-2.6c0-1.1,0.8-1.9,1.9-1.9h7.7
			c1.1,0,1.9,0.8,1.9,1.9V207.3z"/>
		<path fill="#CCCCCC" d="M424.8,204.9v1.3h-5.1v10.2h-1.3v-10.2h-5.1v-1.3H424.8z"/>
		<path fill="#CCCCCC" d="M443.5,204.9c1.1,0,1.9,0.8,1.9,1.9v9.6h-1.3v-4.2h-8.9v4.2h-1.3v-9.6c0-1.1,0.8-1.9,1.9-1.9H443.5z
			 M444.1,210.9v-4.1c0-0.3-0.3-0.6-0.6-0.6h-7.7c-0.3,0-0.6,0.3-0.6,0.6v4.1H444.1z"/>
		<path fill="#CCCCCC" d="M458.5,204.9c1.1,0,1.9,0.9,1.9,1.9v3.4c0,1.1-0.8,1.9-1.9,1.9h-7.7c-0.1,0-0.4,0-0.6-0.1v4.4h-1.3v-11.5
			H458.5L458.5,204.9z M459.2,206.9c0-0.3-0.3-0.6-0.6-0.6h-7.7c-0.3,0-0.6,0.3-0.6,0.6v3.4c0,0.3,0.3,0.6,0.6,0.6h7.7
			c0.3,0,0.6-0.3,0.6-0.6V206.9z"/>
		<path fill="#CCCCCC" d="M463.3,204.9h1.3v11.5h-1.3V204.9z"/>
		<path fill="#CCCCCC" d="M486.1,207.3h-1.3v-0.4c0-0.3-0.3-0.6-0.6-0.6h-7.7c-0.3,0-0.6,0.3-0.6,0.6v2.6c0,0.3,0.3,0.6,0.6,0.6h7.7
			c1.1,0,1.9,0.9,1.9,1.9v2.6c0,1.1-0.8,1.9-1.9,1.9h-7.7c-1.1,0-1.9-0.8-1.9-1.9v-0.4h1.3v0.4c0,0.3,0.3,0.6,0.6,0.6h7.7
			c0.3,0,0.6-0.3,0.6-0.6V212c0-0.3-0.3-0.6-0.6-0.6h-7.7c-1.1,0-1.9-0.9-1.9-1.9v-2.6c0-1.1,0.8-1.9,1.9-1.9h7.7
			c1.1,0,1.9,0.8,1.9,1.9V207.3z"/>
		<path fill="#CCCCCC" d="M498.9,209.1v3.4h-8.1v2c0,0.3,0.3,0.6,0.6,0.6h7.5v1.3h-7.5c-1.1,0-1.9-0.9-1.9-1.9v-5.4
			c0-1.1,0.9-1.9,1.9-1.9h5.6C498,207.2,498.9,208,498.9,209.1z M497.6,211.1v-2c0-0.3-0.3-0.6-0.6-0.6h-5.6c-0.3,0-0.6,0.3-0.6,0.6
			v2H497.6z"/>
		<path fill="#CCCCCC" d="M509.3,207.2v1.3h-5.2c-0.3,0-0.6,0.3-0.6,0.6v7.3h-1.3v-7.3c0-1.1,0.9-1.9,1.9-1.9H509.3z"/>
		<path fill="#CCCCCC" d="M523.4,207.2l-5.1,9.3h-1.5c-1.7-3.1-3.4-6.2-5.1-9.3h1.5l4.4,8l4.4-8H523.4z"/>
		<path fill="#CCCCCC" d="M535.4,209.1v3.4h-8.1v2c0,0.3,0.3,0.6,0.6,0.6h7.5v1.3h-7.5c-1.1,0-1.9-0.9-1.9-1.9v-5.4
			c0-1.1,0.9-1.9,1.9-1.9h5.6C534.6,207.2,535.4,208,535.4,209.1z M534.1,211.1v-2c0-0.3-0.3-0.6-0.6-0.6h-5.6
			c-0.3,0-0.6,0.3-0.6,0.6v2H534.1z"/>
		<path fill="#CCCCCC" d="M545.9,207.2v1.3h-5.2c-0.3,0-0.6,0.3-0.6,0.6v7.3h-1.3v-7.3c0-1.1,0.9-1.9,1.9-1.9H545.9z"/>
	</g>
</g>
</svg>
