<?xml version="1.0" encoding="utf-8"?>
<!-- Generator: Adobe Illustrator 15.0.0, SVG Export Plug-In . SVG Version: 6.00 Build 0)  -->
<!DOCTYPE svg PUBLIC "-//W3C//DTD SVG 1.1//EN" "http://www.w3.org/Graphics/SVG/1.1/DTD/svg11.dtd">
<svg version="1.1" xmlns="http://www.w3.org/2000/svg" xmlns:xlink="http://www.w3.org/1999/xlink" x="0px" y="0px" width="916px"
	 height="309px" viewBox="0 0 916 309" enable-background="new 0 0 916 309" xml:space="preserve">
<g id="Layer_1">
	<path fill-rule="evenodd" clip-rule="evenodd" fill="#CCCCCC" d="M24.5,12.9h869c5.5,0,10,4.5,10,10v272c0,5.5-4.5,10-10,10h-869
		c-5.5,0-10-4.5-10-10v-272C14.5,17.4,19,12.9,24.5,12.9z"/>
	<path fill-rule="evenodd" clip-rule="evenodd" fill="#564730" d="M0,238.1h916l-14,10H14L0,238.1z"/>
	<path fill-rule="evenodd" clip-rule="evenodd" fill="#322D36" d="M24.5,7.9h869c5.5,0,10,4.5,10,10v272c0,5.5-4.5,10-10,10h-869
		c-5.5,0-10-4.5-10-10v-272C14.5,12.4,19,7.9,24.5,7.9z"/>
	<path fill="#FFA471" d="M384.7,30.3c-7.2,0-14,1.3-20.3,3.9c-6.3,2.6-11.8,6.1-16.4,10.6c-4.7,4.5-8.3,9.7-11,15.8
		c-2.7,6-4,12.5-4,19.5v142.5c0,6.9,1.3,13.4,4,19.5c2.7,6,6.4,11.3,11,15.8c4.7,4.5,10.1,8,16.4,10.6c6.3,2.6,13.1,3.9,20.3,3.9
		H533c7,0,13.6-1.3,19.9-3.9c6.3-2.6,11.8-6.1,16.6-10.6c4.8-4.5,8.5-9.7,11.2-15.8c2.7-6,4-12.5,4-19.5V80c0-6.9-1.3-13.4-4-19.5
		c-2.7-6-6.4-11.3-11.2-15.8c-4.8-4.5-10.3-8-16.6-10.6c-6.3-2.6-12.9-3.9-19.9-3.9H384.7z M387.1,82.7h142.7v137.1H387.1V82.7z"/>
	<path fill="#E9541D" d="M384.7,31.2c-7.2,0-14,1.3-20.3,3.9c-6.3,2.6-11.8,6.1-16.4,10.6c-4.7,4.5-8.3,9.7-11,15.8
		c-2.7,6-4,12.5-4,19.5v142.5c0,6.9,1.3,13.4,4,19.5c2.7,6,6.4,11.3,11,15.8c4.7,4.5,10.1,8,16.4,10.6c6.3,2.6,13.1,3.9,20.3,3.9
		H533c7,0,13.6-1.3,19.9-3.9c6.3-2.6,11.8-6.1,16.6-10.6c4.8-4.5,8.5-9.7,11.2-15.8c2.7-6,4-12.5,4-19.5V80.9c0-6.9-1.3-13.4-4-19.5
		c-2.7-6-6.4-11.3-11.2-15.8c-4.8-4.5-10.3-8-16.6-10.6c-6.3-2.6-12.9-3.9-19.9-3.9H384.7z M387.1,83.6h142.7v137.1H387.1V83.6z"/>
	<path opacity="0.5" fill-rule="evenodd" clip-rule="evenodd" fill="#322D36" d="M14.5,193.1h889v49.6h-889V193.1z"/>
	<path fill-rule="evenodd" clip-rule="evenodd" fill="#EDD2A6" d="M0,186.6h916v51H0V186.6z"/>
	<g>
		<path fill="#FFFFFF" d="M311.4,66.7c1.1,0,2.2,0.2,3.2,0.6c1,0.4,1.9,1,2.7,1.8c0.8,0.7,1.4,1.6,1.8,2.6c0.4,1,0.6,2.1,0.6,3.3
			v23.8c0,1.2-0.2,2.2-0.6,3.3c-0.4,1-1,1.9-1.8,2.6c-0.8,0.7-1.7,1.3-2.7,1.8c-1,0.4-2.1,0.6-3.2,0.6h-23.8c-1.2,0-2.2-0.2-3.3-0.6
			c-1-0.4-1.9-1-2.6-1.8c-0.7-0.7-1.3-1.6-1.8-2.6c-0.4-1-0.6-2.1-0.6-3.3V75c0-1.2,0.2-2.2,0.6-3.3c0.4-1,1-1.9,1.8-2.6
			c0.7-0.7,1.6-1.3,2.6-1.8c1-0.4,2.1-0.6,3.3-0.6H311.4z M288,98.3h22.9V75.4H288V98.3z"/>
		<path fill="#FFFFFF" d="M364.9,74.5c1.1,0,2.2,0.2,3.2,0.6c1,0.4,1.9,1,2.6,1.8c0.7,0.7,1.3,1.6,1.7,2.6c0.4,1,0.6,2,0.6,3.1v24.4
			h-8.5V83.1h-10.8v23.9h-8.6V83.1h-10.8v23.9h-8.6V74.5H364.9z"/>
		<path fill="#FFFFFF" d="M403.6,74.5c1.1,0,2.2,0.2,3.2,0.6c1,0.4,1.9,1,2.6,1.8c0.7,0.7,1.3,1.6,1.7,2.6c0.4,1,0.6,2,0.6,3.1v24.4
			h-24.8c-1.1,0-2.2-0.2-3.2-0.6c-1-0.4-1.9-1-2.6-1.8c-0.7-0.7-1.3-1.6-1.7-2.6c-0.4-1-0.6-2-0.6-3.1V86.5h24.4v-3.4h-24.4v-8.6
			H403.6z M403.1,94h-15.8v4.5h15.8V94z"/>
		<path fill="#FFFFFF" d="M442.3,74.5v8.6h-17.5v23.9h-8.6V82.7c0-1.1,0.2-2.2,0.6-3.1c0.4-1,1-1.8,1.8-2.6c0.7-0.7,1.6-1.3,2.6-1.8
			c1-0.4,2-0.6,3.2-0.6H442.3z"/>
		<path fill="#FFFFFF" d="M496.1,66.7c1.2,0,2.2,0.2,3.3,0.6c1,0.4,1.9,1,2.6,1.8c0.7,0.7,1.3,1.6,1.8,2.6c0.4,1,0.7,2.1,0.7,3.3
			v32.1h-8.8v-13h-22.9v13H464V75c0-1.2,0.2-2.2,0.6-3.3s1-1.9,1.8-2.6c0.7-0.7,1.6-1.3,2.6-1.8c1-0.4,2.1-0.6,3.3-0.6H496.1z
			 M495.6,85.3v-9.9h-22.9v9.9H495.6z"/>
		<path fill="#FFFFFF" d="M519.2,63.8v34.7h6.6v8.6h-7.1c-1.1,0-2.2-0.2-3.1-0.6c-1-0.4-1.8-1-2.6-1.8c-0.7-0.7-1.3-1.6-1.8-2.6
			c-0.4-1-0.6-2-0.6-3.1V63.8H519.2z"/>
		<path fill="#FFFFFF" d="M554.6,74.5c1.1,0,2.2,0.2,3.2,0.6c1,0.4,1.9,1,2.6,1.8c0.7,0.7,1.3,1.6,1.7,2.6c0.4,1,0.6,2,0.6,3.1v16.3
			c0,1.1-0.2,2.2-0.6,3.1c-0.4,1-1,1.8-1.7,2.6c-0.7,0.7-1.6,1.3-2.6,1.8c-1,0.4-2,0.6-3.2,0.6h-24.8V63.9h8.6v10.7H554.6z
			 M538.3,98.5h15.8V83.1h-15.8V98.5z"/>
		<path fill="#FFFFFF" d="M591.8,74.5c1.1,0,2.2,0.2,3.2,0.6c1,0.4,1.8,1,2.6,1.8c0.7,0.7,1.3,1.6,1.7,2.6c0.4,1,0.6,2,0.6,3.1v12.4
			h-24.4v3.4h24.4v8.6h-24.8c-1.1,0-2.2-0.2-3.1-0.6c-1-0.4-1.8-1-2.6-1.8c-0.7-0.7-1.3-1.6-1.8-2.6c-0.4-1-0.6-2-0.6-3.1V82.7
			c0-1.1,0.2-2.2,0.6-3.1c0.4-1,1-1.8,1.8-2.6c0.7-0.7,1.6-1.3,2.6-1.8c1-0.4,2-0.6,3.1-0.6H591.8z M591.4,87.6v-4.5h-15.8v4.5
			H591.4z"/>
		<path fill="#FFFFFF" d="M614.4,63.9v8.6h-8.6v-8.6H614.4z M605.8,74.5h8.6v32.5h-8.6V74.5z"/>
		<path fill="#FFFFFF" d="M652,74.5v2.9l-12.1,13.3l12.1,13.3v2.9h-8.6l-11-11.9h-4.4v11.9h-8.6V63.9h8.6v22.6h4.4l11-11.9H652z"/>
	</g>
	<g opacity="0.35">
		<path fill="#222222" d="M311.4,69.5c1.1,0,2.2,0.2,3.2,0.6c1,0.4,1.9,1,2.7,1.8c0.8,0.7,1.4,1.6,1.8,2.6c0.4,1,0.6,2.1,0.6,3.3
			v23.8c0,1.2-0.2,2.2-0.6,3.3c-0.4,1-1,1.9-1.8,2.6c-0.8,0.7-1.7,1.3-2.7,1.8c-1,0.4-2.1,0.6-3.2,0.6h-23.8c-1.2,0-2.2-0.2-3.3-0.6
			c-1-0.4-1.9-1-2.6-1.8c-0.7-0.7-1.3-1.6-1.8-2.6c-0.4-1-0.6-2.1-0.6-3.3V77.8c0-1.2,0.2-2.2,0.6-3.3c0.4-1,1-1.9,1.8-2.6
			c0.7-0.7,1.6-1.3,2.6-1.8c1-0.4,2.1-0.6,3.3-0.6H311.4z M288,101.1h22.9V78.3H288V101.1z"/>
		<path fill="#222222" d="M364.9,77.4c1.1,0,2.2,0.2,3.2,0.6c1,0.4,1.9,1,2.6,1.8c0.7,0.7,1.3,1.6,1.7,2.6c0.4,1,0.6,2,0.6,3.1v24.4
			h-8.5V86h-10.8v23.9h-8.6V86h-10.8v23.9h-8.6V77.4H364.9z"/>
		<path fill="#222222" d="M403.6,77.4c1.1,0,2.2,0.2,3.2,0.6c1,0.4,1.9,1,2.6,1.8c0.7,0.7,1.3,1.6,1.7,2.6c0.4,1,0.6,2,0.6,3.1v24.4
			h-24.8c-1.1,0-2.2-0.2-3.2-0.6c-1-0.4-1.9-1-2.6-1.8c-0.7-0.7-1.3-1.6-1.7-2.6c-0.4-1-0.6-2-0.6-3.1V89.3h24.4V86h-24.4v-8.6
			H403.6z M403.1,96.8h-15.8v4.5h15.8V96.8z"/>
		<path fill="#222222" d="M442.3,77.4V86h-17.5v23.9h-8.6V85.5c0-1.1,0.2-2.2,0.6-3.1c0.4-1,1-1.8,1.8-2.6c0.7-0.7,1.6-1.3,2.6-1.8
			c1-0.4,2-0.6,3.2-0.6H442.3z"/>
		<path fill="#222222" d="M496.1,69.5c1.2,0,2.2,0.2,3.3,0.6c1,0.4,1.9,1,2.6,1.8c0.7,0.7,1.3,1.6,1.8,2.6c0.4,1,0.7,2.1,0.7,3.3
			v32.1h-8.8v-13h-22.9v13H464V77.8c0-1.2,0.2-2.2,0.6-3.3s1-1.9,1.8-2.6c0.7-0.7,1.6-1.3,2.6-1.8c1-0.4,2.1-0.6,3.3-0.6H496.1z
			 M495.6,88.1v-9.9h-22.9v9.9H495.6z"/>
		<path fill="#222222" d="M519.2,66.7v34.7h6.6v8.6h-7.1c-1.1,0-2.2-0.2-3.1-0.6c-1-0.4-1.8-1-2.6-1.8c-0.7-0.7-1.3-1.6-1.8-2.6
			c-0.4-1-0.6-2-0.6-3.1V66.7H519.2z"/>
		<path fill="#222222" d="M554.6,77.4c1.1,0,2.2,0.2,3.2,0.6c1,0.4,1.9,1,2.6,1.8c0.7,0.7,1.3,1.6,1.7,2.6c0.4,1,0.6,2,0.6,3.1v16.3
			c0,1.1-0.2,2.2-0.6,3.1c-0.4,1-1,1.8-1.7,2.6c-0.7,0.7-1.6,1.3-2.6,1.8c-1,0.4-2,0.6-3.2,0.6h-24.8V66.7h8.6v10.7H554.6z
			 M538.3,101.3h15.8V86h-15.8V101.3z"/>
		<path fill="#222222" d="M591.8,77.4c1.1,0,2.2,0.2,3.2,0.6c1,0.4,1.8,1,2.6,1.8c0.7,0.7,1.3,1.6,1.7,2.6c0.4,1,0.6,2,0.6,3.1v12.4
			h-24.4v3.4h24.4v8.6h-24.8c-1.1,0-2.2-0.2-3.1-0.6c-1-0.4-1.8-1-2.6-1.8c-0.7-0.7-1.3-1.6-1.8-2.6c-0.4-1-0.6-2-0.6-3.1V85.5
			c0-1.1,0.2-2.2,0.6-3.1c0.4-1,1-1.8,1.8-2.6c0.7-0.7,1.6-1.3,2.6-1.8c1-0.4,2-0.6,3.1-0.6H591.8z M591.4,90.4V86h-15.8v4.5H591.4z
			"/>
		<path fill="#222222" d="M614.4,66.7v8.6h-8.6v-8.6H614.4z M605.8,77.4h8.6v32.5h-8.6V77.4z"/>
		<path fill="#222222" d="M652,77.4v2.9l-12.1,13.3L652,107v2.9h-8.6l-11-11.9h-4.4v11.9h-8.6V66.7h8.6v22.6h4.4l11-11.9H652z"/>
	</g>
	<g>
		<path fill="#DDDDDD" d="M311.4,67.5c1.1,0,2.2,0.2,3.2,0.6c1,0.4,1.9,1,2.7,1.8c0.8,0.7,1.4,1.6,1.8,2.6c0.4,1,0.6,2.1,0.6,3.3
			v23.8c0,1.2-0.2,2.2-0.6,3.3c-0.4,1-1,1.9-1.8,2.6c-0.8,0.7-1.7,1.3-2.7,1.8c-1,0.4-2.1,0.6-3.2,0.6h-23.8c-1.2,0-2.2-0.2-3.3-0.6
			c-1-0.4-1.9-1-2.6-1.8c-0.7-0.7-1.3-1.6-1.8-2.6c-0.4-1-0.6-2.1-0.6-3.3V75.8c0-1.2,0.2-2.2,0.6-3.3c0.4-1,1-1.9,1.8-2.6
			c0.7-0.7,1.6-1.3,2.6-1.8c1-0.4,2.1-0.6,3.3-0.6H311.4z M288,99.1h22.9V76.2H288V99.1z"/>
		<path fill="#DDDDDD" d="M364.9,75.3c1.1,0,2.2,0.2,3.2,0.6c1,0.4,1.9,1,2.6,1.8c0.7,0.7,1.3,1.6,1.7,2.6c0.4,1,0.6,2,0.6,3.1v24.4
			h-8.5V83.9h-10.8v23.9h-8.6V83.9h-10.8v23.9h-8.6V75.3H364.9z"/>
		<path fill="#DDDDDD" d="M403.6,75.3c1.1,0,2.2,0.2,3.2,0.6c1,0.4,1.9,1,2.6,1.8c0.7,0.7,1.3,1.6,1.7,2.6c0.4,1,0.6,2,0.6,3.1v24.4
			h-24.8c-1.1,0-2.2-0.2-3.2-0.6c-1-0.4-1.9-1-2.6-1.8c-0.7-0.7-1.3-1.6-1.7-2.6c-0.4-1-0.6-2-0.6-3.1V87.3h24.4v-3.4h-24.4v-8.6
			H403.6z M403.1,94.8h-15.8v4.5h15.8V94.8z"/>
		<path fill="#DDDDDD" d="M442.3,75.3v8.6h-17.5v23.9h-8.6V83.5c0-1.1,0.2-2.2,0.6-3.1c0.4-1,1-1.8,1.8-2.6c0.7-0.7,1.6-1.3,2.6-1.8
			c1-0.4,2-0.6,3.2-0.6H442.3z"/>
		<path fill="#DDDDDD" d="M496.1,67.5c1.2,0,2.2,0.2,3.3,0.6c1,0.4,1.9,1,2.6,1.8c0.7,0.7,1.3,1.6,1.8,2.6c0.4,1,0.7,2.1,0.7,3.3
			v32.1h-8.8v-13h-22.9v13H464V75.8c0-1.2,0.2-2.2,0.6-3.3s1-1.9,1.8-2.6c0.7-0.7,1.6-1.3,2.6-1.8c1-0.4,2.1-0.6,3.3-0.6H496.1z
			 M495.6,86.1v-9.9h-22.9v9.9H495.6z"/>
		<path fill="#DDDDDD" d="M519.2,64.6v34.7h6.6v8.6h-7.1c-1.1,0-2.2-0.2-3.1-0.6c-1-0.4-1.8-1-2.6-1.8c-0.7-0.7-1.3-1.6-1.8-2.6
			c-0.4-1-0.6-2-0.6-3.1V64.6H519.2z"/>
		<path fill="#DDDDDD" d="M554.6,75.3c1.1,0,2.2,0.2,3.2,0.6c1,0.4,1.9,1,2.6,1.8c0.7,0.7,1.3,1.6,1.7,2.6c0.4,1,0.6,2,0.6,3.1v16.3
			c0,1.1-0.2,2.2-0.6,3.1c-0.4,1-1,1.8-1.7,2.6c-0.7,0.7-1.6,1.3-2.6,1.8c-1,0.4-2,0.6-3.2,0.6h-24.8V64.7h8.6v10.7H554.6z
			 M538.3,99.3h15.8V83.9h-15.8V99.3z"/>
		<path fill="#DDDDDD" d="M591.8,75.3c1.1,0,2.2,0.2,3.2,0.6c1,0.4,1.8,1,2.6,1.8c0.7,0.7,1.3,1.6,1.7,2.6c0.4,1,0.6,2,0.6,3.1v12.4
			h-24.4v3.4h24.4v8.6h-24.8c-1.1,0-2.2-0.2-3.1-0.6c-1-0.4-1.8-1-2.6-1.8c-0.7-0.7-1.3-1.6-1.8-2.6c-0.4-1-0.6-2-0.6-3.1V83.5
			c0-1.1,0.2-2.2,0.6-3.1c0.4-1,1-1.8,1.8-2.6c0.7-0.7,1.6-1.3,2.6-1.8c1-0.4,2-0.6,3.1-0.6H591.8z M591.4,88.4v-4.5h-15.8v4.5
			H591.4z"/>
		<path fill="#DDDDDD" d="M614.4,64.7v8.6h-8.6v-8.6H614.4z M605.8,75.3h8.6v32.5h-8.6V75.3z"/>
		<path fill="#DDDDDD" d="M652,75.3v2.9l-12.1,13.3l12.1,13.3v2.9h-8.6l-11-11.9h-4.4v11.9h-8.6V64.7h8.6v22.6h4.4l11-11.9H652z"/>
	</g>
	<g>
		<rect x="374.5" y="255.9" fill="none" width="2.7" height="0"/>
	</g>
	<path fill-rule="evenodd" clip-rule="evenodd" fill="#C19F62" d="M0,187.5h916v51H0V187.5z"/>
</g>
<g id="Text">
	<g opacity="0.3">
		<path fill="#222222" d="M287.7,211.2c0,1.1-0.8,1.9-1.9,1.9H284l3.6,4.3h-1.7l-3.6-4.3h-4.2c-0.2,0-0.4,0-0.6-0.1v4.4h-1.3v-11.5
			h9.6c1.1,0,1.9,0.9,1.9,1.9V211.2z M285.8,211.8c0.3,0,0.6-0.3,0.6-0.6v-3.4c0-0.3-0.3-0.6-0.6-0.6h-7.7c-0.3,0-0.6,0.3-0.6,0.6
			v3.4c0,0.3,0.3,0.6,0.6,0.6H285.8z"/>
		<path fill="#222222" d="M301.7,207.2h-9.2v3.8h7.4v1.3h-7.4v3.8h9.2v1.3h-10.5v-11.5h10.5V207.2z"/>
		<path fill="#222222" d="M316.5,208.3h-1.3v-0.4c0-0.3-0.3-0.6-0.6-0.6h-7.7c-0.3,0-0.6,0.3-0.6,0.6v2.6c0,0.3,0.3,0.6,0.6,0.6h7.7
			c1.1,0,1.9,0.9,1.9,1.9v2.6c0,1.1-0.8,1.9-1.9,1.9h-7.7c-1.1,0-1.9-0.8-1.9-1.9v-0.4h1.3v0.4c0,0.3,0.3,0.6,0.6,0.6h7.7
			c0.3,0,0.6-0.3,0.6-0.6v-2.6c0-0.3-0.3-0.6-0.6-0.6h-7.7c-1.1,0-1.9-0.9-1.9-1.9v-2.6c0-1.1,0.8-1.9,1.9-1.9h7.7
			c1.1,0,1.9,0.8,1.9,1.9V208.3z"/>
		<path fill="#222222" d="M330.9,205.9v1.3h-5.1v10.2h-1.3v-10.2h-5.1v-1.3H330.9z"/>
		<path fill="#222222" d="M349.6,205.9c1.1,0,1.9,0.8,1.9,1.9v9.6h-1.3v-4.2h-8.9v4.2h-1.3v-9.6c0-1.1,0.8-1.9,1.9-1.9H349.6z
			 M350.2,211.9v-4.1c0-0.3-0.3-0.6-0.6-0.6h-7.7c-0.3,0-0.6,0.3-0.6,0.6v4.1H350.2z"/>
		<path fill="#222222" d="M364.6,205.9c1.1,0,1.9,0.9,1.9,1.9v3.4c0,1.1-0.8,1.9-1.9,1.9h-7.7c-0.1,0-0.4,0-0.6-0.1v4.4H355v-11.5
			H364.6z M365.3,207.9c0-0.3-0.3-0.6-0.6-0.6h-7.7c-0.3,0-0.6,0.3-0.6,0.6v3.4c0,0.3,0.3,0.6,0.6,0.6h7.7c0.3,0,0.6-0.3,0.6-0.6
			V207.9z"/>
		<path fill="#222222" d="M369.4,205.9h1.3v11.5h-1.3V205.9z"/>
		<path fill="#222222" d="M392.2,208.3h-1.3v-0.4c0-0.3-0.3-0.6-0.6-0.6h-7.7c-0.3,0-0.6,0.3-0.6,0.6v2.6c0,0.3,0.3,0.6,0.6,0.6h7.7
			c1.1,0,1.9,0.9,1.9,1.9v2.6c0,1.1-0.8,1.9-1.9,1.9h-7.7c-1.1,0-1.9-0.8-1.9-1.9v-0.4h1.3v0.4c0,0.3,0.3,0.6,0.6,0.6h7.7
			c0.3,0,0.6-0.3,0.6-0.6v-2.6c0-0.3-0.3-0.6-0.6-0.6h-7.7c-1.1,0-1.9-0.9-1.9-1.9v-2.6c0-1.1,0.8-1.9,1.9-1.9h7.7
			c1.1,0,1.9,0.8,1.9,1.9V208.3z"/>
		<path fill="#222222" d="M405,210.1v3.4h-8.1v2c0,0.3,0.3,0.6,0.6,0.6h7.5v1.3h-7.5c-1.1,0-1.9-0.9-1.9-1.9v-5.4
			c0-1.1,0.9-1.9,1.9-1.9h5.6C404.1,208.2,405,209,405,210.1z M403.7,212.1v-2c0-0.3-0.3-0.6-0.6-0.6h-5.6c-0.3,0-0.6,0.3-0.6,0.6v2
			H403.7z"/>
		<path fill="#222222" d="M415.4,208.2v1.3h-5.2c-0.3,0-0.6,0.3-0.6,0.6v7.3h-1.3v-7.3c0-1.1,0.9-1.9,1.9-1.9H415.4z"/>
		<path fill="#222222" d="M429.5,208.2l-5.1,9.3h-1.5c-1.7-3.1-3.4-6.2-5.1-9.3h1.5l4.4,8l4.4-8H429.5z"/>
		<path fill="#222222" d="M441.5,210.1v3.4h-8.1v2c0,0.3,0.3,0.6,0.6,0.6h7.5v1.3H434c-1.1,0-1.9-0.9-1.9-1.9v-5.4
			c0-1.1,0.9-1.9,1.9-1.9h5.6C440.7,208.2,441.5,209,441.5,210.1z M440.2,212.1v-2c0-0.3-0.3-0.6-0.6-0.6H434
			c-0.3,0-0.6,0.3-0.6,0.6v2H440.2z"/>
		<path fill="#222222" d="M452,208.2v1.3h-5.2c-0.3,0-0.6,0.3-0.6,0.6v7.3h-1.3v-7.3c0-1.1,0.9-1.9,1.9-1.9H452z"/>
		<path fill="#222222" d="M464,209.6v2.4h2.5v1.3H464v2.5h-1.3v-2.5h-2.4v-1.3h2.4v-2.4H464z"/>
		<path fill="#222222" d="M493.1,205.9l-4.2,11.5h-1.1l-3.6-9.8l-3.6,9.8h-1.1l-4.2-11.5h1.4l3.4,9.3c1-2.8,2.3-6.4,3.4-9.3h1.6
			l3.4,9.3c1-2.8,2.3-6.4,3.3-9.3H493.1z"/>
		<path fill="#222222" d="M505,210.1v3.4h-8.1v2c0,0.3,0.3,0.6,0.6,0.6h7.5v1.3h-7.5c-1.1,0-1.9-0.9-1.9-1.9v-5.4
			c0-1.1,0.9-1.9,1.9-1.9h5.6C504.1,208.2,505,209,505,210.1z M503.7,212.1v-2c0-0.3-0.3-0.6-0.6-0.6h-5.6c-0.3,0-0.6,0.3-0.6,0.6v2
			H503.7z"/>
		<path fill="#222222" d="M517.9,210.1v5.4c0,1.1-0.9,1.9-1.9,1.9h-7.5v-12.3h1.3v3h6.2C517,208.2,517.9,209,517.9,210.1z
			 M516.5,210.1c0-0.3-0.3-0.6-0.6-0.6h-5.6c-0.4,0-0.6,0.3-0.6,0.6v5.4c0,0.3,0.3,0.6,0.6,0.6h5.6c0.3,0,0.6-0.3,0.6-0.6V210.1z"/>
		<path fill="#222222" d="M536.5,205.9c1.1,0,1.9,0.8,1.9,1.9v9.6h-1.3v-4.2h-8.9v4.2h-1.3v-9.6c0-1.1,0.8-1.9,1.9-1.9H536.5z
			 M537.2,211.9v-4.1c0-0.3-0.3-0.6-0.6-0.6h-7.7c-0.3,0-0.6,0.3-0.6,0.6v4.1H537.2z"/>
		<path fill="#222222" d="M551.4,210.1v5.4c0,1.1-0.9,1.9-1.9,1.9h-6.2v3.7H542v-13h7.5C550.6,208.2,551.4,209,551.4,210.1z
			 M550.1,210.1c0-0.3-0.3-0.6-0.6-0.6h-5.6c-0.4,0-0.6,0.3-0.6,0.6v5.4c0,0.3,0.3,0.6,0.6,0.6h5.6c0.3,0,0.6-0.3,0.6-0.6V210.1z"/>
		<path fill="#222222" d="M563.8,210.1v5.4c0,1.1-0.9,1.9-1.9,1.9h-6.2v3.7h-1.3v-13h7.5C562.9,208.2,563.8,209,563.8,210.1z
			 M562.5,210.1c0-0.3-0.3-0.6-0.6-0.6h-5.6c-0.4,0-0.6,0.3-0.6,0.6v5.4c0,0.3,0.3,0.6,0.6,0.6h5.6c0.3,0,0.6-0.3,0.6-0.6V210.1z"/>
		<path fill="#222222" d="M568,205.1v10.4c0,0.3,0.3,0.6,0.6,0.6h1.6v1.3h-1.6c-1.1,0-1.9-0.9-1.9-1.9v-10.4H568z"/>
		<path fill="#222222" d="M574.5,205.1v1.3h-1.3v-1.3H574.5z M573.2,208.2h1.3v9.3h-1.3V208.2z"/>
		<path fill="#222222" d="M587.5,216.1v1.3h-7.5c-1.1,0-1.9-0.9-1.9-1.9v-5.4c0-1.1,0.9-1.9,1.9-1.9h7.5v1.3h-7.5
			c-0.3,0-0.6,0.3-0.6,0.6v5.4c0,0.3,0.3,0.6,0.6,0.6H587.5z"/>
		<path fill="#222222" d="M600.3,210.1v7.3h-7.5c-1.1,0-1.9-0.9-1.9-1.9v-3.4h8.1v-2c0-0.3-0.3-0.6-0.6-0.6h-7.5v-1.3h7.5
			C599.5,208.2,600.3,209,600.3,210.1z M599,213.5h-6.8v2c0,0.3,0.3,0.6,0.6,0.6h6.2V213.5z"/>
		<path fill="#222222" d="M605,209.5v6c0,0.3,0.3,0.6,0.6,0.6h3.4v1.3h-3.4c-1.1,0-1.9-0.9-1.9-1.9v-10.4h1.3v3h4v1.3H605z"/>
		<path fill="#222222" d="M613.4,205.1v1.3h-1.3v-1.3H613.4z M612.1,208.2h1.3v9.3h-1.3V208.2z"/>
		<path fill="#222222" d="M624.6,208.2c1.1,0,2,0.9,2,1.9v5.4c0,1.1-0.9,1.9-2,1.9h-5.6c-1.1,0-1.9-0.9-1.9-1.9v-5.4
			c0-1.1,0.9-1.9,1.9-1.9H624.6z M619.1,209.5c-0.3,0-0.6,0.3-0.6,0.6v5.4c0,0.3,0.3,0.6,0.6,0.6h5.6c0.4,0,0.6-0.3,0.6-0.6v-5.4
			c0-0.3-0.3-0.6-0.6-0.6H619.1z"/>
		<path fill="#222222" d="M639.2,210.1v7.3h-1.3v-7.3c0-0.3-0.3-0.6-0.6-0.6h-5.6c-0.4,0-0.6,0.3-0.6,0.6v7.3h-1.3v-9.3h7.5
			C638.3,208.2,639.2,209,639.2,210.1z"/>
	</g>
	<g>
		<path fill="#FFFFFF" d="M157.5,258.2v-9h3.1c0.7,0,1.4,0.1,1.9,0.4c0.5,0.2,1,0.6,1.4,1c0.4,0.4,0.6,0.9,0.8,1.4s0.3,1.1,0.3,1.8
			c0,0.7-0.1,1.3-0.3,1.9c-0.2,0.6-0.5,1-0.9,1.4c-0.4,0.4-0.8,0.7-1.4,0.9c-0.5,0.2-1.1,0.3-1.8,0.3H157.5z M163.8,253.6
			c0-0.5-0.1-1-0.2-1.4c-0.1-0.4-0.3-0.8-0.6-1.1s-0.6-0.5-1-0.7c-0.4-0.2-0.9-0.3-1.4-0.3h-2v7h2c0.5,0,1-0.1,1.4-0.3
			c0.4-0.2,0.7-0.4,1-0.7s0.5-0.7,0.6-1.1C163.7,254.6,163.8,254.1,163.8,253.6z"/>
		<path fill="#FFFFFF" d="M166.2,260.5c-0.3,0-0.6,0-0.8-0.1c-0.3-0.1-0.5-0.2-0.7-0.4l0.5-0.8c0.1,0.1,0.3,0.2,0.4,0.2
			c0.2,0,0.3,0.1,0.5,0.1c0.1,0,0.3,0,0.4-0.1c0.1-0.1,0.2-0.1,0.3-0.2c0.1-0.1,0.2-0.2,0.2-0.3c0.1-0.1,0.1-0.3,0.1-0.4v-6.9h1.1
			v6.9c0,0.3-0.1,0.6-0.2,0.9c-0.1,0.3-0.3,0.5-0.5,0.7c-0.2,0.2-0.4,0.3-0.7,0.4C166.7,260.5,166.5,260.5,166.2,260.5z
			 M167.2,250.3v-1.4h1.1v1.4H167.2z"/>
		<path fill="#FFFFFF" d="M172.6,258.3c-0.3,0-0.6-0.1-0.9-0.2c-0.3-0.1-0.5-0.3-0.7-0.4s-0.4-0.4-0.5-0.6c-0.1-0.3-0.2-0.5-0.2-0.8
			c0-0.3,0.1-0.6,0.2-0.9s0.3-0.5,0.6-0.7s0.5-0.3,0.9-0.4s0.7-0.1,1.1-0.1c0.3,0,0.6,0,1,0.1c0.3,0.1,0.6,0.1,0.9,0.2V254
			c0-0.5-0.2-1-0.5-1.3c-0.3-0.3-0.7-0.5-1.3-0.5c-0.7,0-1.4,0.3-2.1,0.8l-0.4-0.7c0.4-0.3,0.9-0.5,1.3-0.6s0.9-0.2,1.3-0.2
			c0.8,0,1.5,0.2,2,0.7c0.5,0.5,0.7,1.1,0.7,2v2.7c0,0.3,0.1,0.4,0.4,0.4v1c-0.1,0-0.2,0-0.2,0c-0.1,0-0.1,0-0.2,0
			c-0.2,0-0.4-0.1-0.5-0.2c-0.2-0.1-0.3-0.3-0.3-0.5l0-0.5c-0.2,0.2-0.3,0.4-0.5,0.5c-0.2,0.2-0.4,0.3-0.6,0.4
			c-0.2,0.1-0.4,0.2-0.7,0.2S172.8,258.3,172.6,258.3z M172.9,257.4c0.4,0,0.7-0.1,1-0.2c0.3-0.2,0.6-0.3,0.8-0.6
			c0.2-0.2,0.2-0.4,0.2-0.5v-1c-0.3-0.1-0.5-0.2-0.8-0.2c-0.3-0.1-0.6-0.1-0.8-0.1c-0.6,0-1,0.1-1.4,0.3c-0.3,0.2-0.5,0.6-0.5,1
			c0,0.2,0,0.3,0.1,0.5c0.1,0.2,0.2,0.3,0.3,0.4c0.1,0.1,0.3,0.2,0.5,0.3C172.4,257.4,172.6,257.4,172.9,257.4z"/>
		<path fill="#FFFFFF" d="M184.4,258.2h-1.1v-3.7c0-0.7-0.1-1.2-0.3-1.6c-0.2-0.3-0.5-0.5-1-0.5c-0.2,0-0.5,0-0.7,0.1
			c-0.2,0.1-0.4,0.2-0.6,0.4c-0.2,0.2-0.4,0.3-0.5,0.5s-0.3,0.4-0.3,0.7v4h-1.1v-6.6h1v1.4c0.3-0.5,0.6-0.8,1.1-1.1
			c0.5-0.3,1-0.4,1.6-0.4c0.4,0,0.7,0.1,1,0.2c0.3,0.1,0.5,0.3,0.6,0.6c0.2,0.3,0.3,0.5,0.3,0.9c0.1,0.3,0.1,0.7,0.1,1.1V258.2z"/>
		<path fill="#FFFFFF" d="M189.5,258.2c-0.5,0-0.9-0.1-1.2-0.3c-0.4-0.2-0.7-0.4-1-0.8c-0.3-0.3-0.5-0.7-0.6-1.1
			c-0.1-0.4-0.2-0.8-0.2-1.3c0-0.5,0.1-0.9,0.2-1.3c0.1-0.4,0.4-0.8,0.6-1.1c0.3-0.3,0.6-0.6,1-0.7c0.4-0.2,0.8-0.3,1.3-0.3
			c0.6,0,1,0.1,1.5,0.4c0.4,0.3,0.8,0.6,1,1v-1.3h1v6.6c0,0.5-0.1,0.9-0.3,1.3c-0.2,0.4-0.4,0.7-0.7,0.9s-0.7,0.4-1.1,0.6
			c-0.4,0.1-0.9,0.2-1.3,0.2c-0.8,0-1.4-0.1-1.8-0.4c-0.5-0.3-0.9-0.6-1.2-1.1l0.6-0.6c0.3,0.4,0.6,0.7,1,0.9
			c0.4,0.2,0.9,0.3,1.4,0.3c0.3,0,0.6,0,0.9-0.1s0.5-0.2,0.7-0.4c0.2-0.2,0.4-0.4,0.5-0.6s0.2-0.6,0.2-0.9v-1.2
			c-0.1,0.2-0.3,0.4-0.5,0.6c-0.2,0.2-0.4,0.3-0.6,0.4c-0.2,0.1-0.4,0.2-0.6,0.3C190,258.2,189.8,258.2,189.5,258.2z M189.9,257.3
			c0.2,0,0.5,0,0.7-0.1s0.4-0.2,0.6-0.3c0.2-0.1,0.3-0.3,0.5-0.5c0.1-0.2,0.2-0.4,0.3-0.5v-1.9c-0.1-0.2-0.2-0.4-0.4-0.6
			c-0.1-0.2-0.3-0.3-0.5-0.5c-0.2-0.1-0.4-0.2-0.6-0.3c-0.2-0.1-0.4-0.1-0.7-0.1c-0.3,0-0.6,0.1-0.9,0.2s-0.5,0.3-0.7,0.6
			c-0.2,0.2-0.3,0.5-0.4,0.8c-0.1,0.3-0.2,0.6-0.2,0.9c0,0.3,0.1,0.6,0.2,0.9s0.3,0.6,0.5,0.8c0.2,0.2,0.4,0.4,0.7,0.5
			S189.6,257.3,189.9,257.3z"/>
		<path fill="#FFFFFF" d="M198.5,258.3c-0.5,0-1-0.1-1.4-0.3c-0.4-0.2-0.8-0.4-1.1-0.8s-0.5-0.7-0.7-1.1c-0.2-0.4-0.2-0.9-0.2-1.3
			c0-0.5,0.1-0.9,0.2-1.3s0.4-0.8,0.7-1.1c0.3-0.3,0.6-0.6,1.1-0.8c0.4-0.2,0.9-0.3,1.4-0.3s0.9,0.1,1.4,0.3s0.8,0.4,1.1,0.8
			c0.3,0.3,0.5,0.7,0.7,1.1c0.2,0.4,0.2,0.9,0.2,1.3c0,0.5-0.1,0.9-0.2,1.3c-0.2,0.4-0.4,0.8-0.7,1.1c-0.3,0.3-0.7,0.6-1.1,0.8
			C199.4,258.2,199,258.3,198.5,258.3z M196.3,254.9c0,0.3,0.1,0.7,0.2,1s0.3,0.6,0.5,0.8c0.2,0.2,0.4,0.4,0.7,0.5
			c0.3,0.1,0.6,0.2,0.9,0.2s0.6-0.1,0.9-0.2c0.3-0.1,0.5-0.3,0.7-0.5c0.2-0.2,0.4-0.5,0.5-0.8c0.1-0.3,0.2-0.6,0.2-1
			c0-0.3-0.1-0.7-0.2-1s-0.3-0.6-0.5-0.8c-0.2-0.2-0.4-0.4-0.7-0.5c-0.3-0.1-0.6-0.2-0.9-0.2s-0.6,0.1-0.9,0.2
			c-0.3,0.1-0.5,0.3-0.7,0.5c-0.2,0.2-0.4,0.5-0.5,0.8S196.3,254.5,196.3,254.9z"/>
		<path fill="#FFFFFF" d="M214.5,258.2v-6.2h4.1v6.2H214.5z"/>
		<path fill="#FFFFFF" d="M230.4,258.2v-9h3.8c0.4,0,0.8,0.1,1.1,0.2c0.3,0.2,0.6,0.4,0.9,0.7c0.2,0.3,0.4,0.6,0.6,0.9
			c0.1,0.3,0.2,0.7,0.2,1.1c0,0.4-0.1,0.7-0.2,1.1c-0.1,0.3-0.3,0.7-0.5,0.9c-0.2,0.3-0.5,0.5-0.8,0.6c-0.3,0.2-0.7,0.2-1.1,0.2
			h-2.7v3.2H230.4z M231.6,253.9h2.6c0.2,0,0.5,0,0.6-0.1c0.2-0.1,0.4-0.2,0.5-0.4s0.2-0.4,0.3-0.6c0.1-0.2,0.1-0.5,0.1-0.7
			c0-0.3,0-0.5-0.1-0.7c-0.1-0.2-0.2-0.4-0.4-0.6c-0.1-0.2-0.3-0.3-0.5-0.4s-0.4-0.1-0.6-0.1h-2.6V253.9z"/>
		<path fill="#FFFFFF" d="M239.3,260c0.2,0,0.4,0,0.6,0c0.1,0,0.1,0,0.2-0.1c0.1,0,0.1-0.1,0.2-0.2c0.1-0.1,0.2-0.3,0.3-0.6
			c0.1-0.2,0.2-0.6,0.4-1l-2.8-6.6h1.2l2.3,5.6l2.1-5.6h1.1l-3.3,8.4c-0.2,0.4-0.4,0.7-0.7,0.9c-0.3,0.2-0.6,0.3-1,0.3
			c-0.1,0-0.2,0-0.3,0c-0.1,0-0.2,0-0.3-0.1V260z"/>
		<path fill="#FFFFFF" d="M250.1,257.8c-0.1,0-0.2,0.1-0.3,0.1s-0.2,0.1-0.4,0.1c-0.1,0-0.3,0.1-0.5,0.1c-0.2,0-0.3,0-0.5,0
			c-0.4,0-0.8-0.1-1.1-0.3c-0.3-0.2-0.4-0.6-0.4-1.1v-4.5h-0.9v-0.9h0.9v-2.2h1.1v2.2h1.5v0.9h-1.5v4.1c0,0.2,0.1,0.4,0.2,0.5
			c0.1,0.1,0.3,0.2,0.5,0.2c0.2,0,0.4,0,0.6-0.1s0.3-0.1,0.4-0.2L250.1,257.8z"/>
		<path fill="#FFFFFF" d="M257.6,258.2h-1.1v-3.7c0-0.7-0.1-1.2-0.4-1.5c-0.2-0.3-0.6-0.5-1-0.5c-0.2,0-0.4,0-0.7,0.1
			c-0.2,0.1-0.4,0.2-0.6,0.4c-0.2,0.2-0.4,0.3-0.5,0.5s-0.3,0.4-0.3,0.7v4h-1.1v-9.3h1.1v4.1c0.3-0.5,0.6-0.9,1.1-1.1
			c0.5-0.3,0.9-0.4,1.5-0.4c0.4,0,0.7,0.1,1,0.2c0.3,0.1,0.5,0.3,0.6,0.6c0.2,0.2,0.3,0.5,0.4,0.9c0.1,0.3,0.1,0.7,0.1,1.1V258.2z"
			/>
		<path fill="#FFFFFF" d="M263,258.3c-0.5,0-1-0.1-1.4-0.3c-0.4-0.2-0.8-0.4-1.1-0.8s-0.5-0.7-0.7-1.1c-0.2-0.4-0.2-0.9-0.2-1.3
			c0-0.5,0.1-0.9,0.2-1.3s0.4-0.8,0.7-1.1c0.3-0.3,0.6-0.6,1.1-0.8c0.4-0.2,0.9-0.3,1.4-0.3s0.9,0.1,1.4,0.3s0.8,0.4,1.1,0.8
			c0.3,0.3,0.5,0.7,0.7,1.1c0.2,0.4,0.2,0.9,0.2,1.3c0,0.5-0.1,0.9-0.2,1.3c-0.2,0.4-0.4,0.8-0.7,1.1c-0.3,0.3-0.7,0.6-1.1,0.8
			C264,258.2,263.5,258.3,263,258.3z M260.8,254.9c0,0.3,0.1,0.7,0.2,1s0.3,0.6,0.5,0.8c0.2,0.2,0.4,0.4,0.7,0.5
			c0.3,0.1,0.6,0.2,0.9,0.2s0.6-0.1,0.9-0.2c0.3-0.1,0.5-0.3,0.7-0.5c0.2-0.2,0.4-0.5,0.5-0.8c0.1-0.3,0.2-0.6,0.2-1
			c0-0.3-0.1-0.7-0.2-1s-0.3-0.6-0.5-0.8c-0.2-0.2-0.4-0.4-0.7-0.5c-0.3-0.1-0.6-0.2-0.9-0.2s-0.6,0.1-0.9,0.2
			c-0.3,0.1-0.5,0.3-0.7,0.5c-0.2,0.2-0.4,0.5-0.5,0.8S260.8,254.5,260.8,254.9z"/>
		<path fill="#FFFFFF" d="M274.2,258.2h-1.1v-3.7c0-0.7-0.1-1.2-0.3-1.6c-0.2-0.3-0.5-0.5-1-0.5c-0.2,0-0.5,0-0.7,0.1
			c-0.2,0.1-0.4,0.2-0.6,0.4c-0.2,0.2-0.4,0.3-0.5,0.5s-0.3,0.4-0.3,0.7v4h-1.1v-6.6h1v1.4c0.3-0.5,0.6-0.8,1.1-1.1
			c0.5-0.3,1-0.4,1.6-0.4c0.4,0,0.7,0.1,1,0.2c0.3,0.1,0.5,0.3,0.6,0.6c0.2,0.3,0.3,0.5,0.3,0.9c0.1,0.3,0.1,0.7,0.1,1.1V258.2z"/>
		<path fill="#FFFFFF" d="M284.4,255.2c0.5,0.1,1,0.3,1.3,0.8c0.3,0.4,0.5,0.9,0.5,1.5c0,0.4-0.1,0.7-0.2,1.1
			c-0.1,0.3-0.4,0.6-0.6,0.8s-0.6,0.4-1,0.5s-0.8,0.2-1.2,0.2c-0.6,0-1.2-0.1-1.7-0.4s-0.9-0.6-1.1-1l0.8-0.8
			c0.2,0.3,0.5,0.6,0.8,0.8c0.3,0.2,0.8,0.3,1.3,0.3c0.6,0,1-0.1,1.4-0.4c0.3-0.3,0.5-0.7,0.5-1.2c0-0.5-0.2-1-0.5-1.3
			c-0.4-0.3-0.9-0.5-1.6-0.5h-0.3v-0.9h0.4c0.6,0,1.1-0.1,1.4-0.4c0.3-0.3,0.5-0.7,0.5-1.1s-0.2-0.8-0.5-1c-0.3-0.2-0.7-0.3-1.2-0.3
			c-0.5,0-0.9,0.1-1.2,0.3c-0.4,0.2-0.6,0.5-0.8,0.8l-0.7-0.7c0.1-0.2,0.3-0.4,0.5-0.6c0.2-0.2,0.4-0.3,0.7-0.5
			c0.3-0.1,0.5-0.2,0.8-0.3c0.3-0.1,0.6-0.1,0.9-0.1c0.4,0,0.8,0.1,1.1,0.2c0.3,0.1,0.6,0.3,0.9,0.5c0.2,0.2,0.4,0.4,0.6,0.7
			c0.1,0.3,0.2,0.6,0.2,0.9c0,0.3,0,0.5-0.1,0.7c-0.1,0.2-0.2,0.4-0.3,0.6c-0.1,0.2-0.3,0.3-0.5,0.5
			C284.8,255,284.6,255.1,284.4,255.2z"/>
		<path fill="#FFFFFF" d="M298.9,258.2v-6.2h4.1v6.2H298.9z"/>
		<path fill="#FFFFFF" d="M314.8,258.2v-9h3.8c0.4,0,0.8,0.1,1.1,0.2c0.3,0.2,0.6,0.4,0.9,0.7c0.2,0.3,0.4,0.6,0.6,0.9
			c0.1,0.3,0.2,0.7,0.2,1.1c0,0.4-0.1,0.7-0.2,1.1c-0.1,0.3-0.3,0.7-0.5,0.9c-0.2,0.3-0.5,0.5-0.8,0.6c-0.3,0.2-0.7,0.2-1.1,0.2H316
			v3.2H314.8z M316,253.9h2.6c0.2,0,0.5,0,0.6-0.1c0.2-0.1,0.4-0.2,0.5-0.4s0.2-0.4,0.3-0.6c0.1-0.2,0.1-0.5,0.1-0.7
			c0-0.3,0-0.5-0.1-0.7c-0.1-0.2-0.2-0.4-0.4-0.6c-0.1-0.2-0.3-0.3-0.5-0.4s-0.4-0.1-0.6-0.1H316V253.9z"/>
		<path fill="#FFFFFF" d="M326.1,258.3c-0.5,0-1-0.1-1.4-0.3c-0.4-0.2-0.8-0.4-1.1-0.8s-0.5-0.7-0.7-1.1c-0.2-0.4-0.2-0.9-0.2-1.3
			c0-0.5,0.1-0.9,0.2-1.3s0.4-0.8,0.7-1.1c0.3-0.3,0.6-0.6,1.1-0.8c0.4-0.2,0.9-0.3,1.4-0.3s0.9,0.1,1.4,0.3s0.8,0.4,1.1,0.8
			c0.3,0.3,0.5,0.7,0.7,1.1c0.2,0.4,0.2,0.9,0.2,1.3c0,0.5-0.1,0.9-0.2,1.3c-0.2,0.4-0.4,0.8-0.7,1.1c-0.3,0.3-0.7,0.6-1.1,0.8
			C327,258.2,326.6,258.3,326.1,258.3z M323.9,254.9c0,0.3,0.1,0.7,0.2,1s0.3,0.6,0.5,0.8c0.2,0.2,0.4,0.4,0.7,0.5
			c0.3,0.1,0.6,0.2,0.9,0.2s0.6-0.1,0.9-0.2c0.3-0.1,0.5-0.3,0.7-0.5c0.2-0.2,0.4-0.5,0.5-0.8c0.1-0.3,0.2-0.6,0.2-1
			c0-0.3-0.1-0.7-0.2-1s-0.3-0.6-0.5-0.8c-0.2-0.2-0.4-0.4-0.7-0.5c-0.3-0.1-0.6-0.2-0.9-0.2s-0.6,0.1-0.9,0.2
			c-0.3,0.1-0.5,0.3-0.7,0.5c-0.2,0.2-0.4,0.5-0.5,0.8S323.9,254.5,323.9,254.9z"/>
		<path fill="#FFFFFF" d="M333.9,258.3c-0.5,0-1.1-0.1-1.6-0.2c-0.5-0.2-1-0.4-1.3-0.7l0.5-0.8c0.4,0.3,0.8,0.5,1.2,0.7
			c0.4,0.1,0.8,0.2,1.2,0.2c0.5,0,0.9-0.1,1.2-0.3c0.3-0.2,0.4-0.5,0.4-0.8c0-0.2,0-0.3-0.1-0.4c-0.1-0.1-0.2-0.2-0.3-0.3
			c-0.2-0.1-0.3-0.2-0.6-0.2c-0.2-0.1-0.5-0.1-0.8-0.2c-0.4-0.1-0.7-0.2-1-0.3c-0.3-0.1-0.5-0.2-0.7-0.3c-0.2-0.1-0.3-0.3-0.4-0.5
			c-0.1-0.2-0.1-0.4-0.1-0.7c0-0.3,0.1-0.6,0.2-0.9c0.1-0.3,0.3-0.5,0.5-0.6c0.2-0.2,0.5-0.3,0.8-0.4c0.3-0.1,0.6-0.1,1-0.1
			c0.5,0,1,0.1,1.4,0.2s0.8,0.4,1.1,0.6l-0.5,0.7c-0.3-0.2-0.6-0.4-0.9-0.6s-0.7-0.2-1.1-0.2c-0.4,0-0.8,0.1-1,0.3
			c-0.3,0.2-0.4,0.5-0.4,0.8c0,0.2,0,0.3,0.1,0.4c0.1,0.1,0.1,0.2,0.3,0.3c0.1,0.1,0.3,0.1,0.5,0.2c0.2,0.1,0.4,0.1,0.7,0.2
			c0.4,0.1,0.8,0.2,1.2,0.3c0.3,0.1,0.6,0.2,0.8,0.4c0.2,0.1,0.4,0.3,0.5,0.5s0.2,0.4,0.2,0.7c0,0.6-0.2,1.1-0.7,1.5
			S334.7,258.3,333.9,258.3z"/>
		<path fill="#FFFFFF" d="M342,257.8c-0.1,0-0.2,0.1-0.3,0.1s-0.2,0.1-0.4,0.1c-0.1,0-0.3,0.1-0.5,0.1c-0.2,0-0.3,0-0.5,0
			c-0.4,0-0.8-0.1-1.1-0.3c-0.3-0.2-0.4-0.6-0.4-1.1v-4.5h-0.9v-0.9h0.9v-2.2h1.1v2.2h1.5v0.9H340v4.1c0,0.2,0.1,0.4,0.2,0.5
			c0.1,0.1,0.3,0.2,0.5,0.2c0.2,0,0.4,0,0.6-0.1s0.3-0.1,0.4-0.2L342,257.8z"/>
		<path fill="#FFFFFF" d="M346.4,258.2c-0.5,0-0.9-0.1-1.2-0.3c-0.4-0.2-0.7-0.4-1-0.8c-0.3-0.3-0.5-0.7-0.6-1.1
			c-0.1-0.4-0.2-0.8-0.2-1.3c0-0.5,0.1-0.9,0.2-1.3c0.1-0.4,0.4-0.8,0.6-1.1c0.3-0.3,0.6-0.6,1-0.7c0.4-0.2,0.8-0.3,1.3-0.3
			c0.6,0,1,0.1,1.5,0.4c0.4,0.3,0.8,0.6,1,1v-1.3h1v6.6c0,0.5-0.1,0.9-0.3,1.3c-0.2,0.4-0.4,0.7-0.7,0.9s-0.7,0.4-1.1,0.6
			c-0.4,0.1-0.9,0.2-1.3,0.2c-0.8,0-1.4-0.1-1.8-0.4c-0.5-0.3-0.9-0.6-1.2-1.1l0.6-0.6c0.3,0.4,0.6,0.7,1,0.9
			c0.4,0.2,0.9,0.3,1.4,0.3c0.3,0,0.6,0,0.9-0.1s0.5-0.2,0.7-0.4c0.2-0.2,0.4-0.4,0.5-0.6s0.2-0.6,0.2-0.9v-1.2
			c-0.1,0.2-0.3,0.4-0.5,0.6c-0.2,0.2-0.4,0.3-0.6,0.4c-0.2,0.1-0.4,0.2-0.6,0.3C346.8,258.2,346.6,258.2,346.4,258.2z M346.7,257.3
			c0.2,0,0.5,0,0.7-0.1s0.4-0.2,0.6-0.3c0.2-0.1,0.3-0.3,0.5-0.5c0.1-0.2,0.2-0.4,0.3-0.5v-1.9c-0.1-0.2-0.2-0.4-0.4-0.6
			c-0.1-0.2-0.3-0.3-0.5-0.5c-0.2-0.1-0.4-0.2-0.6-0.3c-0.2-0.1-0.4-0.1-0.7-0.1c-0.3,0-0.6,0.1-0.9,0.2s-0.5,0.3-0.7,0.6
			c-0.2,0.2-0.3,0.5-0.4,0.8c-0.1,0.3-0.2,0.6-0.2,0.9c0,0.3,0.1,0.6,0.2,0.9s0.3,0.6,0.5,0.8c0.2,0.2,0.4,0.4,0.7,0.5
			S346.4,257.3,346.7,257.3z"/>
		<path fill="#FFFFFF" d="M355.9,252.5c-0.6,0-1.1,0.2-1.5,0.4s-0.7,0.6-0.9,1.1v4.1h-1.1v-6.6h1v1.5c0.2-0.5,0.5-0.8,0.9-1.1
			c0.4-0.3,0.8-0.5,1.2-0.5c0.1,0,0.2,0,0.2,0s0.1,0,0.2,0V252.5z"/>
		<path fill="#FFFFFF" d="M360.7,258.3c-0.5,0-1-0.1-1.4-0.3s-0.8-0.4-1.1-0.7c-0.3-0.3-0.5-0.7-0.7-1.1c-0.2-0.4-0.2-0.9-0.2-1.3
			c0-0.5,0.1-0.9,0.2-1.3s0.4-0.8,0.7-1.1c0.3-0.3,0.7-0.6,1.1-0.7s0.9-0.3,1.4-0.3s1,0.1,1.4,0.3c0.4,0.2,0.8,0.4,1.1,0.7
			c0.3,0.3,0.5,0.7,0.7,1.1c0.2,0.4,0.2,0.8,0.2,1.3c0,0.1,0,0.2,0,0.3c0,0.1,0,0.1,0,0.2h-5.5c0,0.3,0.1,0.6,0.2,0.9
			s0.3,0.5,0.5,0.7c0.2,0.2,0.4,0.3,0.7,0.5c0.3,0.1,0.5,0.2,0.8,0.2c0.2,0,0.4,0,0.6-0.1c0.2-0.1,0.4-0.1,0.5-0.2
			c0.2-0.1,0.3-0.2,0.5-0.3c0.1-0.1,0.2-0.3,0.3-0.5l1,0.3c-0.1,0.2-0.3,0.5-0.5,0.7s-0.4,0.4-0.7,0.5c-0.3,0.1-0.5,0.3-0.8,0.4
			S361.1,258.3,360.7,258.3z M363,254.4c0-0.3-0.1-0.6-0.2-0.9c-0.1-0.3-0.3-0.5-0.5-0.7c-0.2-0.2-0.4-0.3-0.7-0.4s-0.5-0.2-0.8-0.2
			s-0.6,0.1-0.8,0.2c-0.3,0.1-0.5,0.3-0.7,0.4c-0.2,0.2-0.4,0.4-0.5,0.7c-0.1,0.3-0.2,0.6-0.2,0.9H363z"/>
		<path fill="#FFFFFF" d="M368.4,258.3c-0.5,0-1.1-0.1-1.6-0.2c-0.5-0.2-1-0.4-1.3-0.7l0.5-0.8c0.4,0.3,0.8,0.5,1.2,0.7
			c0.4,0.1,0.8,0.2,1.2,0.2c0.5,0,0.9-0.1,1.2-0.3c0.3-0.2,0.4-0.5,0.4-0.8c0-0.2,0-0.3-0.1-0.4c-0.1-0.1-0.2-0.2-0.3-0.3
			c-0.2-0.1-0.3-0.2-0.6-0.2c-0.2-0.1-0.5-0.1-0.8-0.2c-0.4-0.1-0.7-0.2-1-0.3c-0.3-0.1-0.5-0.2-0.7-0.3c-0.2-0.1-0.3-0.3-0.4-0.5
			c-0.1-0.2-0.1-0.4-0.1-0.7c0-0.3,0.1-0.6,0.2-0.9c0.1-0.3,0.3-0.5,0.5-0.6c0.2-0.2,0.5-0.3,0.8-0.4c0.3-0.1,0.6-0.1,1-0.1
			c0.5,0,1,0.1,1.4,0.2s0.8,0.4,1.1,0.6l-0.5,0.7c-0.3-0.2-0.6-0.4-0.9-0.6s-0.7-0.2-1.1-0.2c-0.4,0-0.8,0.1-1,0.3
			c-0.3,0.2-0.4,0.5-0.4,0.8c0,0.2,0,0.3,0.1,0.4c0.1,0.1,0.1,0.2,0.3,0.3c0.1,0.1,0.3,0.1,0.5,0.2c0.2,0.1,0.4,0.1,0.7,0.2
			c0.4,0.1,0.8,0.2,1.2,0.3c0.3,0.1,0.6,0.2,0.8,0.4c0.2,0.1,0.4,0.3,0.5,0.5s0.2,0.4,0.2,0.7c0,0.6-0.2,1.1-0.7,1.5
			S369.2,258.3,368.4,258.3z"/>
		<path fill="#FFFFFF" d="M378.6,251c-0.1-0.1-0.2-0.2-0.4-0.3s-0.4-0.2-0.6-0.3c-0.2-0.1-0.4-0.2-0.7-0.2c-0.3-0.1-0.5-0.1-0.8-0.1
			c-0.7,0-1.2,0.1-1.5,0.4c-0.3,0.3-0.5,0.6-0.5,1.1c0,0.2,0,0.5,0.1,0.6c0.1,0.2,0.2,0.3,0.4,0.4c0.2,0.1,0.4,0.2,0.7,0.3
			s0.6,0.2,1.1,0.3c0.5,0.1,0.9,0.2,1.3,0.3c0.4,0.1,0.7,0.3,1,0.5s0.5,0.4,0.6,0.7s0.2,0.6,0.2,1c0,0.4-0.1,0.8-0.3,1.1
			c-0.2,0.3-0.4,0.6-0.7,0.8s-0.6,0.4-1,0.5c-0.4,0.1-0.8,0.1-1.3,0.1c-0.7,0-1.4-0.1-2-0.3c-0.6-0.2-1.2-0.5-1.7-0.9l0.5-1
			c0.1,0.1,0.3,0.3,0.5,0.4c0.2,0.1,0.5,0.3,0.7,0.4s0.6,0.2,0.9,0.3s0.7,0.1,1,0.1c0.6,0,1.1-0.1,1.5-0.3c0.4-0.2,0.5-0.6,0.5-1
			c0-0.3-0.1-0.5-0.2-0.6c-0.1-0.2-0.3-0.3-0.5-0.5c-0.2-0.1-0.5-0.2-0.8-0.3c-0.3-0.1-0.7-0.2-1.1-0.3c-0.5-0.1-0.9-0.2-1.2-0.4
			c-0.3-0.1-0.6-0.3-0.9-0.5c-0.2-0.2-0.4-0.4-0.5-0.6c-0.1-0.3-0.2-0.6-0.2-0.9c0-0.4,0.1-0.8,0.2-1.1c0.2-0.3,0.4-0.6,0.7-0.8
			s0.6-0.4,1-0.5c0.4-0.1,0.8-0.2,1.3-0.2c0.6,0,1.2,0.1,1.7,0.3c0.5,0.2,0.9,0.4,1.3,0.8L378.6,251z"/>
		<path fill="#FFFFFF" d="M388,257.4c-0.3,0.2-0.7,0.4-1.1,0.6c-0.4,0.1-0.8,0.2-1.3,0.2c-0.6,0-1.2-0.1-1.7-0.4
			c-0.5-0.3-1-0.6-1.3-1c-0.4-0.4-0.7-0.9-0.9-1.5c-0.2-0.6-0.3-1.1-0.3-1.7c0-0.6,0.1-1.2,0.3-1.7c0.2-0.6,0.5-1,0.9-1.5
			c0.4-0.4,0.8-0.8,1.4-1c0.5-0.3,1.1-0.4,1.7-0.4c0.6,0,1.2,0.1,1.7,0.4c0.5,0.3,1,0.6,1.3,1.1c0.4,0.4,0.7,0.9,0.9,1.5
			s0.3,1.1,0.3,1.7c0,0.6-0.1,1.2-0.3,1.7c-0.2,0.5-0.5,1-0.9,1.5l1.1,1.3h-1.1L388,257.4z M385.6,257.2c0.3,0,0.6-0.1,0.9-0.2
			c0.3-0.1,0.6-0.2,0.8-0.4l-1.2-1.4h1.1l0.7,0.8c0.2-0.3,0.4-0.7,0.6-1.1c0.1-0.4,0.2-0.8,0.2-1.3c0-0.5-0.1-0.9-0.2-1.3
			c-0.1-0.4-0.4-0.8-0.6-1.1s-0.6-0.6-1-0.8s-0.8-0.3-1.3-0.3c-0.5,0-0.9,0.1-1.3,0.3c-0.4,0.2-0.7,0.5-1,0.8
			c-0.3,0.3-0.5,0.7-0.6,1.1s-0.2,0.9-0.2,1.3c0,0.5,0.1,0.9,0.2,1.3s0.4,0.8,0.6,1.1c0.3,0.3,0.6,0.6,1,0.8
			S385.1,257.2,385.6,257.2z"/>
		<path fill="#FFFFFF" d="M392.2,258.2v-9h1.1v8h5v1H392.2z"/>
		<path fill="#FFFFFF" d="M410.5,258.2v-6.2h4.1v6.2H410.5z"/>
		<path fill="#FFFFFF" d="M430.4,258.2v-9h3.9c0.4,0,0.8,0.1,1.1,0.2c0.3,0.2,0.6,0.4,0.9,0.7c0.2,0.3,0.4,0.6,0.6,0.9
			s0.2,0.7,0.2,1.1c0,0.3,0,0.6-0.1,0.9c-0.1,0.3-0.2,0.6-0.4,0.8c-0.2,0.2-0.4,0.4-0.6,0.6s-0.5,0.3-0.8,0.4l2.2,3.5H436l-2.1-3.2
			h-2.4v3.2H430.4z M431.5,253.9h2.7c0.2,0,0.5-0.1,0.6-0.2c0.2-0.1,0.4-0.2,0.5-0.4c0.1-0.2,0.2-0.4,0.3-0.6
			c0.1-0.2,0.1-0.5,0.1-0.7c0-0.3,0-0.5-0.1-0.7c-0.1-0.2-0.2-0.4-0.4-0.6c-0.1-0.2-0.3-0.3-0.5-0.4c-0.2-0.1-0.4-0.1-0.6-0.1h-2.7
			V253.9z"/>
		<path fill="#FFFFFF" d="M442.4,258.3c-0.5,0-1-0.1-1.4-0.3s-0.8-0.4-1.1-0.7c-0.3-0.3-0.5-0.7-0.7-1.1c-0.2-0.4-0.2-0.9-0.2-1.3
			c0-0.5,0.1-0.9,0.2-1.3s0.4-0.8,0.7-1.1c0.3-0.3,0.7-0.6,1.1-0.7s0.9-0.3,1.4-0.3s1,0.1,1.4,0.3c0.4,0.2,0.8,0.4,1.1,0.7
			c0.3,0.3,0.5,0.7,0.7,1.1c0.2,0.4,0.2,0.8,0.2,1.3c0,0.1,0,0.2,0,0.3c0,0.1,0,0.1,0,0.2h-5.5c0,0.3,0.1,0.6,0.2,0.9
			s0.3,0.5,0.5,0.7c0.2,0.2,0.4,0.3,0.7,0.5c0.3,0.1,0.5,0.2,0.8,0.2c0.2,0,0.4,0,0.6-0.1c0.2-0.1,0.4-0.1,0.5-0.2
			c0.2-0.1,0.3-0.2,0.5-0.3c0.1-0.1,0.2-0.3,0.3-0.5l1,0.3c-0.1,0.2-0.3,0.5-0.5,0.7s-0.4,0.4-0.7,0.5c-0.3,0.1-0.5,0.3-0.8,0.4
			S442.7,258.3,442.4,258.3z M444.7,254.4c0-0.3-0.1-0.6-0.2-0.9c-0.1-0.3-0.3-0.5-0.5-0.7c-0.2-0.2-0.4-0.3-0.7-0.4
			s-0.5-0.2-0.8-0.2s-0.6,0.1-0.8,0.2c-0.3,0.1-0.5,0.3-0.7,0.4c-0.2,0.2-0.4,0.4-0.5,0.7c-0.1,0.3-0.2,0.6-0.2,0.9H444.7z"/>
		<path fill="#FFFFFF" d="M449.5,258.3c-0.3,0-0.6-0.1-0.9-0.2c-0.3-0.1-0.5-0.3-0.7-0.4s-0.4-0.4-0.5-0.6c-0.1-0.3-0.2-0.5-0.2-0.8
			c0-0.3,0.1-0.6,0.2-0.9s0.3-0.5,0.6-0.7s0.5-0.3,0.9-0.4s0.7-0.1,1.1-0.1c0.3,0,0.6,0,1,0.1c0.3,0.1,0.6,0.1,0.9,0.2V254
			c0-0.5-0.2-1-0.5-1.3c-0.3-0.3-0.7-0.5-1.3-0.5c-0.7,0-1.4,0.3-2.1,0.8l-0.4-0.7c0.4-0.3,0.9-0.5,1.3-0.6s0.9-0.2,1.3-0.2
			c0.8,0,1.5,0.2,2,0.7c0.5,0.5,0.7,1.1,0.7,2v2.7c0,0.3,0.1,0.4,0.4,0.4v1c-0.1,0-0.2,0-0.2,0c-0.1,0-0.1,0-0.2,0
			c-0.2,0-0.4-0.1-0.5-0.2c-0.2-0.1-0.3-0.3-0.3-0.5l0-0.5c-0.2,0.2-0.3,0.4-0.5,0.5c-0.2,0.2-0.4,0.3-0.6,0.4
			c-0.2,0.1-0.4,0.2-0.7,0.2S449.7,258.3,449.5,258.3z M449.8,257.4c0.4,0,0.7-0.1,1-0.2c0.3-0.2,0.6-0.3,0.8-0.6
			c0.2-0.2,0.2-0.4,0.2-0.5v-1c-0.3-0.1-0.5-0.2-0.8-0.2c-0.3-0.1-0.6-0.1-0.8-0.1c-0.6,0-1,0.1-1.4,0.3c-0.3,0.2-0.5,0.6-0.5,1
			c0,0.2,0,0.3,0.1,0.5c0.1,0.2,0.2,0.3,0.3,0.4c0.1,0.1,0.3,0.2,0.5,0.3C449.3,257.4,449.6,257.4,449.8,257.4z"/>
		<path fill="#FFFFFF" d="M455.2,254.8c0-0.5,0.1-0.9,0.2-1.3c0.2-0.4,0.4-0.8,0.7-1.1c0.3-0.3,0.7-0.6,1.1-0.7
			c0.4-0.2,0.9-0.3,1.4-0.3c0.7,0,1.2,0.1,1.7,0.4s0.8,0.7,1.1,1.2l-1.1,0.3c-0.2-0.3-0.4-0.6-0.7-0.7c-0.3-0.2-0.6-0.3-1-0.3
			c-0.3,0-0.6,0.1-0.9,0.2s-0.5,0.3-0.7,0.5s-0.4,0.5-0.5,0.8c-0.1,0.3-0.2,0.6-0.2,1c0,0.3,0.1,0.7,0.2,1s0.3,0.6,0.5,0.8
			c0.2,0.2,0.4,0.4,0.7,0.5c0.3,0.1,0.6,0.2,0.9,0.2c0.2,0,0.4,0,0.6-0.1c0.2-0.1,0.4-0.1,0.5-0.2s0.3-0.2,0.4-0.3
			c0.1-0.1,0.2-0.3,0.3-0.4l1.1,0.3c-0.1,0.2-0.2,0.5-0.4,0.7s-0.4,0.4-0.6,0.5c-0.2,0.1-0.5,0.3-0.8,0.3c-0.3,0.1-0.6,0.1-0.9,0.1
			c-0.5,0-1-0.1-1.4-0.3c-0.4-0.2-0.8-0.4-1.1-0.8c-0.3-0.3-0.5-0.7-0.7-1.1C455.2,255.7,455.2,255.3,455.2,254.8z"/>
		<path fill="#FFFFFF" d="M466.8,257.8c-0.1,0-0.2,0.1-0.3,0.1s-0.2,0.1-0.4,0.1c-0.1,0-0.3,0.1-0.5,0.1c-0.2,0-0.3,0-0.5,0
			c-0.4,0-0.8-0.1-1.1-0.3c-0.3-0.2-0.4-0.6-0.4-1.1v-4.5h-0.9v-0.9h0.9v-2.2h1.1v2.2h1.5v0.9h-1.5v4.1c0,0.2,0.1,0.4,0.2,0.5
			s0.3,0.2,0.5,0.2c0.2,0,0.4,0,0.6-0.1s0.3-0.1,0.4-0.2L466.8,257.8z"/>
		<path fill="#FFFFFF" d="M471.8,256.8c0.2,0.1,0.4,0.2,0.7,0.3c0.3,0.1,0.6,0.1,1,0.1c0.4,0,0.8-0.1,1-0.2c0.3-0.2,0.4-0.4,0.6-0.7
			c0.1-0.3,0.2-0.7,0.3-1.1c0-0.4,0.1-1,0.1-1.5v-4.6h1.1v4.6c0,0.7,0,1.3-0.1,1.9c-0.1,0.6-0.2,1-0.4,1.4c-0.2,0.4-0.5,0.7-0.9,0.9
			c-0.4,0.2-0.9,0.3-1.6,0.3c-0.8,0-1.4-0.2-2-0.6L471.8,256.8z"/>
		<path fill="#FFFFFF" d="M484.7,251c-0.1-0.1-0.2-0.2-0.4-0.3c-0.2-0.1-0.4-0.2-0.6-0.3c-0.2-0.1-0.4-0.2-0.7-0.2
			c-0.3-0.1-0.5-0.1-0.8-0.1c-0.7,0-1.2,0.1-1.5,0.4c-0.3,0.3-0.5,0.6-0.5,1.1c0,0.2,0,0.5,0.1,0.6c0.1,0.2,0.2,0.3,0.4,0.4
			c0.2,0.1,0.4,0.2,0.7,0.3s0.6,0.2,1.1,0.3c0.5,0.1,0.9,0.2,1.3,0.3c0.4,0.1,0.7,0.3,1,0.5s0.5,0.4,0.6,0.7s0.2,0.6,0.2,1
			c0,0.4-0.1,0.8-0.3,1.1s-0.4,0.6-0.7,0.8s-0.6,0.4-1,0.5c-0.4,0.1-0.8,0.1-1.3,0.1c-0.7,0-1.4-0.1-2-0.3c-0.6-0.2-1.2-0.5-1.7-0.9
			l0.5-1c0.1,0.1,0.3,0.3,0.5,0.4c0.2,0.1,0.5,0.3,0.7,0.4s0.6,0.2,0.9,0.3s0.7,0.1,1,0.1c0.6,0,1.1-0.1,1.5-0.3
			c0.4-0.2,0.5-0.6,0.5-1c0-0.3-0.1-0.5-0.2-0.6c-0.1-0.2-0.3-0.3-0.5-0.5c-0.2-0.1-0.5-0.2-0.8-0.3c-0.3-0.1-0.7-0.2-1.1-0.3
			c-0.5-0.1-0.9-0.2-1.2-0.4c-0.3-0.1-0.6-0.3-0.9-0.5c-0.2-0.2-0.4-0.4-0.5-0.6s-0.2-0.6-0.2-0.9c0-0.4,0.1-0.8,0.2-1.1
			s0.4-0.6,0.7-0.8c0.3-0.2,0.6-0.4,1-0.5c0.4-0.1,0.8-0.2,1.3-0.2c0.6,0,1.2,0.1,1.7,0.3c0.5,0.2,0.9,0.4,1.3,0.8L484.7,251z"/>
		<path fill="#FFFFFF" d="M498.3,258.2v-6.2h4.1v6.2H498.3z"/>
		<path fill="#FFFFFF" d="M514.2,258.2v-9h3.9c0.4,0,0.8,0.1,1.1,0.2c0.3,0.2,0.6,0.4,0.9,0.7c0.2,0.3,0.4,0.6,0.6,0.9
			c0.1,0.3,0.2,0.7,0.2,1.1c0,0.3,0,0.6-0.1,0.9c-0.1,0.3-0.2,0.6-0.4,0.8c-0.2,0.2-0.4,0.4-0.6,0.6s-0.5,0.3-0.8,0.4l2.2,3.5h-1.3
			l-2.1-3.2h-2.4v3.2H514.2z M515.4,253.9h2.7c0.2,0,0.5-0.1,0.6-0.2c0.2-0.1,0.4-0.2,0.5-0.4s0.2-0.4,0.3-0.6
			c0.1-0.2,0.1-0.5,0.1-0.7c0-0.3,0-0.5-0.1-0.7c-0.1-0.2-0.2-0.4-0.4-0.6s-0.3-0.3-0.5-0.4c-0.2-0.1-0.4-0.1-0.6-0.1h-2.7V253.9z"
			/>
		<path fill="#FFFFFF" d="M526.2,258.3c-0.5,0-1-0.1-1.4-0.3s-0.8-0.4-1.1-0.7c-0.3-0.3-0.5-0.7-0.7-1.1c-0.2-0.4-0.2-0.9-0.2-1.3
			c0-0.5,0.1-0.9,0.2-1.3c0.2-0.4,0.4-0.8,0.7-1.1c0.3-0.3,0.7-0.6,1.1-0.7c0.4-0.2,0.9-0.3,1.4-0.3s1,0.1,1.4,0.3
			c0.4,0.2,0.8,0.4,1.1,0.7c0.3,0.3,0.5,0.7,0.7,1.1c0.2,0.4,0.2,0.8,0.2,1.3c0,0.1,0,0.2,0,0.3c0,0.1,0,0.1,0,0.2H524
			c0,0.3,0.1,0.6,0.2,0.9c0.1,0.3,0.3,0.5,0.5,0.7c0.2,0.2,0.4,0.3,0.7,0.5s0.5,0.2,0.8,0.2c0.2,0,0.4,0,0.6-0.1
			c0.2-0.1,0.4-0.1,0.5-0.2c0.2-0.1,0.3-0.2,0.5-0.3c0.1-0.1,0.2-0.3,0.3-0.5l1,0.3c-0.1,0.2-0.3,0.5-0.5,0.7s-0.4,0.4-0.7,0.5
			c-0.3,0.1-0.5,0.3-0.8,0.4C526.9,258.2,526.6,258.3,526.2,258.3z M528.5,254.4c0-0.3-0.1-0.6-0.2-0.9c-0.1-0.3-0.3-0.5-0.5-0.7
			s-0.4-0.3-0.7-0.4s-0.5-0.2-0.8-0.2c-0.3,0-0.6,0.1-0.8,0.2c-0.3,0.1-0.5,0.3-0.7,0.4c-0.2,0.2-0.4,0.4-0.5,0.7
			c-0.1,0.3-0.2,0.6-0.2,0.9H528.5z"/>
		<path fill="#FFFFFF" d="M534.3,258.3c-0.5,0-0.9-0.1-1.3-0.3c-0.4-0.2-0.7-0.4-1-0.8s-0.5-0.7-0.7-1.1s-0.2-0.9-0.2-1.3
			c0-0.5,0.1-0.9,0.2-1.3c0.1-0.4,0.4-0.8,0.6-1.1c0.3-0.3,0.6-0.6,1-0.7c0.4-0.2,0.8-0.3,1.2-0.3c0.5,0,1,0.1,1.4,0.4
			c0.4,0.3,0.8,0.6,1,1v-4h1.1v7.9c0,0.3,0.1,0.4,0.4,0.4v1c-0.1,0-0.2,0-0.2,0s-0.1,0-0.2,0c-0.3,0-0.5-0.1-0.6-0.2
			c-0.2-0.1-0.2-0.3-0.2-0.5l0-0.6c-0.3,0.4-0.6,0.8-1.1,1C535.3,258.2,534.8,258.3,534.3,258.3z M534.6,257.3c0.2,0,0.4,0,0.6-0.1
			c0.2-0.1,0.4-0.2,0.6-0.3s0.4-0.3,0.5-0.5c0.1-0.2,0.2-0.4,0.3-0.6v-1.9c-0.1-0.2-0.2-0.4-0.3-0.6c-0.2-0.2-0.3-0.4-0.5-0.5
			c-0.2-0.1-0.4-0.3-0.6-0.3c-0.2-0.1-0.4-0.1-0.6-0.1c-0.3,0-0.6,0.1-0.9,0.2c-0.3,0.1-0.5,0.3-0.7,0.6c-0.2,0.2-0.3,0.5-0.4,0.8
			s-0.2,0.6-0.2,0.9c0,0.3,0.1,0.6,0.2,0.9c0.1,0.3,0.3,0.6,0.5,0.8s0.4,0.4,0.7,0.5C534,257.3,534.3,257.3,534.6,257.3z"/>
		<path fill="#FFFFFF" d="M542.4,258.3c-0.7,0-1.2-0.2-1.6-0.7c-0.4-0.5-0.5-1.2-0.5-2.1v-4h1.1v3.8c0,1.4,0.5,2,1.4,2
			c0.5,0,0.9-0.1,1.3-0.4s0.7-0.7,0.9-1.2v-4.2h1.1v5.3c0,0.3,0.1,0.4,0.4,0.4v1c-0.1,0-0.2,0-0.2,0c-0.1,0-0.1,0-0.2,0
			c-0.3,0-0.5-0.1-0.6-0.2c-0.1-0.1-0.2-0.3-0.2-0.5l0-0.8c-0.3,0.5-0.7,0.9-1.2,1.2C543.5,258.1,543,258.3,542.4,258.3z"/>
		<path fill="#FFFFFF" d="M549.2,251.5l1.8,2.4l0.1,0.2l0.1-0.2l1.8-2.4h1.2l-2.5,3.3l2.5,3.3h-1.2l-1.8-2.4l-0.1-0.2l-0.1,0.2
			l-1.8,2.4H548l2.5-3.3l-2.5-3.3H549.2z"/>
		<path fill="#FFFFFF" d="M566.6,258.2v-6.2h4.1v6.2H566.6z"/>
		<path fill="#FFFFFF" d="M582.5,258.2v-9h3.9c0.4,0,0.8,0.1,1.1,0.2c0.3,0.2,0.6,0.4,0.9,0.7c0.2,0.3,0.4,0.6,0.6,0.9
			c0.1,0.3,0.2,0.7,0.2,1.1c0,0.3,0,0.6-0.1,0.9c-0.1,0.3-0.2,0.6-0.4,0.8c-0.2,0.2-0.4,0.4-0.6,0.6s-0.5,0.3-0.8,0.4l2.2,3.5h-1.3
			l-2.1-3.2h-2.4v3.2H582.5z M583.7,253.9h2.7c0.2,0,0.5-0.1,0.6-0.2c0.2-0.1,0.4-0.2,0.5-0.4s0.2-0.4,0.3-0.6
			c0.1-0.2,0.1-0.5,0.1-0.7c0-0.3,0-0.5-0.1-0.7c-0.1-0.2-0.2-0.4-0.4-0.6s-0.3-0.3-0.5-0.4c-0.2-0.1-0.4-0.1-0.6-0.1h-2.7V253.9z"
			/>
		<path fill="#FFFFFF" d="M594.5,258.3c-0.5,0-1-0.1-1.4-0.3s-0.8-0.4-1.1-0.7c-0.3-0.3-0.5-0.7-0.7-1.1c-0.2-0.4-0.2-0.9-0.2-1.3
			c0-0.5,0.1-0.9,0.2-1.3c0.2-0.4,0.4-0.8,0.7-1.1c0.3-0.3,0.7-0.6,1.1-0.7c0.4-0.2,0.9-0.3,1.4-0.3s1,0.1,1.4,0.3
			c0.4,0.2,0.8,0.4,1.1,0.7c0.3,0.3,0.5,0.7,0.7,1.1c0.2,0.4,0.2,0.8,0.2,1.3c0,0.1,0,0.2,0,0.3c0,0.1,0,0.1,0,0.2h-5.5
			c0,0.3,0.1,0.6,0.2,0.9c0.1,0.3,0.3,0.5,0.5,0.7c0.2,0.2,0.4,0.3,0.7,0.5s0.5,0.2,0.8,0.2c0.2,0,0.4,0,0.6-0.1
			c0.2-0.1,0.4-0.1,0.5-0.2c0.2-0.1,0.3-0.2,0.5-0.3c0.1-0.1,0.2-0.3,0.3-0.5l1,0.3c-0.1,0.2-0.3,0.5-0.5,0.7s-0.4,0.4-0.7,0.5
			c-0.3,0.1-0.5,0.3-0.8,0.4C595.2,258.2,594.9,258.3,594.5,258.3z M596.8,254.4c0-0.3-0.1-0.6-0.2-0.9c-0.1-0.3-0.3-0.5-0.5-0.7
			s-0.4-0.3-0.7-0.4s-0.5-0.2-0.8-0.2c-0.3,0-0.6,0.1-0.8,0.2c-0.3,0.1-0.5,0.3-0.7,0.4c-0.2,0.2-0.4,0.4-0.5,0.7
			c-0.1,0.3-0.2,0.6-0.2,0.9H596.8z"/>
		<path fill="#FFFFFF" d="M601.7,258.3c-0.3,0-0.6-0.1-0.9-0.2c-0.3-0.1-0.5-0.3-0.7-0.4c-0.2-0.2-0.4-0.4-0.5-0.6
			c-0.1-0.3-0.2-0.5-0.2-0.8c0-0.3,0.1-0.6,0.2-0.9s0.3-0.5,0.6-0.7c0.3-0.2,0.5-0.3,0.9-0.4c0.3-0.1,0.7-0.1,1.1-0.1
			c0.3,0,0.6,0,1,0.1s0.6,0.1,0.9,0.2V254c0-0.5-0.2-1-0.5-1.3c-0.3-0.3-0.7-0.5-1.3-0.5c-0.7,0-1.4,0.3-2.1,0.8l-0.4-0.7
			c0.4-0.3,0.9-0.5,1.3-0.6s0.9-0.2,1.3-0.2c0.8,0,1.5,0.2,2,0.7c0.5,0.5,0.7,1.1,0.7,2v2.7c0,0.3,0.1,0.4,0.4,0.4v1
			c-0.1,0-0.2,0-0.2,0c-0.1,0-0.1,0-0.2,0c-0.2,0-0.4-0.1-0.5-0.2c-0.2-0.1-0.3-0.3-0.3-0.5l0-0.5c-0.2,0.2-0.3,0.4-0.5,0.5
			c-0.2,0.2-0.4,0.3-0.6,0.4c-0.2,0.1-0.4,0.2-0.7,0.2S601.9,258.3,601.7,258.3z M601.9,257.4c0.4,0,0.7-0.1,1-0.2
			c0.3-0.2,0.6-0.3,0.8-0.6c0.2-0.2,0.2-0.4,0.2-0.5v-1c-0.3-0.1-0.5-0.2-0.8-0.2c-0.3-0.1-0.6-0.1-0.8-0.1c-0.6,0-1,0.1-1.4,0.3
			c-0.3,0.2-0.5,0.6-0.5,1c0,0.2,0,0.3,0.1,0.5c0.1,0.2,0.2,0.3,0.3,0.4c0.1,0.1,0.3,0.2,0.5,0.3S601.7,257.4,601.9,257.4z"/>
		<path fill="#FFFFFF" d="M607.3,254.8c0-0.5,0.1-0.9,0.2-1.3s0.4-0.8,0.7-1.1c0.3-0.3,0.7-0.6,1.1-0.7s0.9-0.3,1.4-0.3
			c0.7,0,1.2,0.1,1.7,0.4c0.5,0.3,0.8,0.7,1.1,1.2l-1.1,0.3c-0.2-0.3-0.4-0.6-0.7-0.7c-0.3-0.2-0.6-0.3-1-0.3
			c-0.3,0-0.6,0.1-0.9,0.2s-0.5,0.3-0.7,0.5s-0.4,0.5-0.5,0.8c-0.1,0.3-0.2,0.6-0.2,1c0,0.3,0.1,0.7,0.2,1s0.3,0.6,0.5,0.8
			c0.2,0.2,0.4,0.4,0.7,0.5c0.3,0.1,0.6,0.2,0.9,0.2c0.2,0,0.4,0,0.6-0.1c0.2-0.1,0.4-0.1,0.5-0.2s0.3-0.2,0.4-0.3
			c0.1-0.1,0.2-0.3,0.3-0.4l1.1,0.3c-0.1,0.2-0.2,0.5-0.4,0.7s-0.4,0.4-0.6,0.5s-0.5,0.3-0.8,0.3s-0.6,0.1-0.9,0.1
			c-0.5,0-1-0.1-1.4-0.3c-0.4-0.2-0.8-0.4-1.1-0.8c-0.3-0.3-0.5-0.7-0.7-1.1C607.4,255.7,607.3,255.3,607.3,254.8z"/>
		<path fill="#FFFFFF" d="M619,257.8c-0.1,0-0.2,0.1-0.3,0.1s-0.2,0.1-0.4,0.1c-0.1,0-0.3,0.1-0.5,0.1c-0.2,0-0.3,0-0.5,0
			c-0.4,0-0.8-0.1-1.1-0.3c-0.3-0.2-0.4-0.6-0.4-1.1v-4.5H615v-0.9h0.9v-2.2h1.1v2.2h1.5v0.9H617v4.1c0,0.2,0.1,0.4,0.2,0.5
			s0.3,0.2,0.5,0.2c0.2,0,0.4,0,0.6-0.1s0.3-0.1,0.4-0.2L619,257.8z"/>
		<path fill="#FFFFFF" d="M624.9,258.2v-9h3.9c0.4,0,0.8,0.1,1.1,0.2c0.3,0.2,0.6,0.4,0.9,0.7c0.2,0.3,0.4,0.6,0.6,0.9
			c0.1,0.3,0.2,0.7,0.2,1.1c0,0.3,0,0.6-0.1,0.9c-0.1,0.3-0.2,0.6-0.4,0.8c-0.2,0.2-0.4,0.4-0.6,0.6s-0.5,0.3-0.8,0.4l2.2,3.5h-1.3
			l-2.1-3.2H626v3.2H624.9z M626,253.9h2.7c0.2,0,0.5-0.1,0.6-0.2c0.2-0.1,0.4-0.2,0.5-0.4s0.2-0.4,0.3-0.6c0.1-0.2,0.1-0.5,0.1-0.7
			c0-0.3,0-0.5-0.1-0.7c-0.1-0.2-0.2-0.4-0.4-0.6s-0.3-0.3-0.5-0.4c-0.2-0.1-0.4-0.1-0.6-0.1H626V253.9z"/>
		<path fill="#FFFFFF" d="M636.6,258.3c-0.5,0-1-0.1-1.4-0.3c-0.4-0.2-0.8-0.4-1.1-0.8s-0.5-0.7-0.7-1.1s-0.2-0.9-0.2-1.3
			c0-0.5,0.1-0.9,0.2-1.3c0.2-0.4,0.4-0.8,0.7-1.1c0.3-0.3,0.6-0.6,1.1-0.8s0.9-0.3,1.4-0.3s0.9,0.1,1.4,0.3s0.8,0.4,1.1,0.8
			c0.3,0.3,0.5,0.7,0.7,1.1c0.2,0.4,0.2,0.9,0.2,1.3c0,0.5-0.1,0.9-0.2,1.3c-0.2,0.4-0.4,0.8-0.7,1.1c-0.3,0.3-0.7,0.6-1.1,0.8
			C637.5,258.2,637.1,258.3,636.6,258.3z M634.4,254.9c0,0.3,0.1,0.7,0.2,1c0.1,0.3,0.3,0.6,0.5,0.8s0.4,0.4,0.7,0.5
			c0.3,0.1,0.6,0.2,0.9,0.2s0.6-0.1,0.9-0.2c0.3-0.1,0.5-0.3,0.7-0.5c0.2-0.2,0.4-0.5,0.5-0.8c0.1-0.3,0.2-0.6,0.2-1
			c0-0.3-0.1-0.7-0.2-1c-0.1-0.3-0.3-0.6-0.5-0.8c-0.2-0.2-0.4-0.4-0.7-0.5c-0.3-0.1-0.6-0.2-0.9-0.2s-0.6,0.1-0.9,0.2
			c-0.3,0.1-0.5,0.3-0.7,0.5c-0.2,0.2-0.4,0.5-0.5,0.8C634.4,254.2,634.4,254.5,634.4,254.9z"/>
		<path fill="#FFFFFF" d="M644.1,258.3c-0.7,0-1.2-0.2-1.6-0.7c-0.4-0.5-0.5-1.2-0.5-2.1v-4h1.1v3.8c0,1.4,0.5,2,1.4,2
			c0.5,0,0.9-0.1,1.3-0.4s0.7-0.7,0.9-1.2v-4.2h1.1v5.3c0,0.3,0.1,0.4,0.4,0.4v1c-0.1,0-0.2,0-0.2,0c-0.1,0-0.1,0-0.2,0
			c-0.3,0-0.5-0.1-0.6-0.2c-0.1-0.1-0.2-0.3-0.2-0.5l0-0.8c-0.3,0.5-0.7,0.9-1.2,1.2C645.2,258.1,644.6,258.3,644.1,258.3z"/>
		<path fill="#FFFFFF" d="M653.9,257.8c-0.1,0-0.2,0.1-0.3,0.1s-0.2,0.1-0.4,0.1c-0.1,0-0.3,0.1-0.5,0.1c-0.2,0-0.3,0-0.5,0
			c-0.4,0-0.8-0.1-1.1-0.3c-0.3-0.2-0.4-0.6-0.4-1.1v-4.5h-0.9v-0.9h0.9v-2.2h1.1v2.2h1.5v0.9h-1.5v4.1c0,0.2,0.1,0.4,0.2,0.5
			s0.3,0.2,0.5,0.2c0.2,0,0.4,0,0.6-0.1s0.3-0.1,0.4-0.2L653.9,257.8z"/>
		<path fill="#FFFFFF" d="M658.6,258.3c-0.5,0-1-0.1-1.4-0.3s-0.8-0.4-1.1-0.7c-0.3-0.3-0.5-0.7-0.7-1.1c-0.2-0.4-0.2-0.9-0.2-1.3
			c0-0.5,0.1-0.9,0.2-1.3c0.2-0.4,0.4-0.8,0.7-1.1c0.3-0.3,0.7-0.6,1.1-0.7c0.4-0.2,0.9-0.3,1.4-0.3s1,0.1,1.4,0.3
			c0.4,0.2,0.8,0.4,1.1,0.7c0.3,0.3,0.5,0.7,0.7,1.1c0.2,0.4,0.2,0.8,0.2,1.3c0,0.1,0,0.2,0,0.3c0,0.1,0,0.1,0,0.2h-5.5
			c0,0.3,0.1,0.6,0.2,0.9c0.1,0.3,0.3,0.5,0.5,0.7c0.2,0.2,0.4,0.3,0.7,0.5s0.5,0.2,0.8,0.2c0.2,0,0.4,0,0.6-0.1
			c0.2-0.1,0.4-0.1,0.5-0.2c0.2-0.1,0.3-0.2,0.5-0.3c0.1-0.1,0.2-0.3,0.3-0.5l1,0.3c-0.1,0.2-0.3,0.5-0.5,0.7s-0.4,0.4-0.7,0.5
			c-0.3,0.1-0.5,0.3-0.8,0.4C659.2,258.2,658.9,258.3,658.6,258.3z M660.9,254.4c0-0.3-0.1-0.6-0.2-0.9c-0.1-0.3-0.3-0.5-0.5-0.7
			s-0.4-0.3-0.7-0.4s-0.5-0.2-0.8-0.2c-0.3,0-0.6,0.1-0.8,0.2c-0.3,0.1-0.5,0.3-0.7,0.4c-0.2,0.2-0.4,0.4-0.5,0.7
			c-0.1,0.3-0.2,0.6-0.2,0.9H660.9z"/>
		<path fill="#FFFFFF" d="M667.4,252.5c-0.6,0-1.1,0.2-1.5,0.4s-0.7,0.6-0.9,1.1v4.1h-1.1v-6.6h1v1.5c0.2-0.5,0.5-0.8,0.9-1.1
			c0.4-0.3,0.8-0.5,1.2-0.5c0.1,0,0.2,0,0.2,0c0.1,0,0.1,0,0.2,0V252.5z"/>
		<path fill="#FFFFFF" d="M679.6,258.2v-6.2h4.1v6.2H679.6z"/>
		<path fill="#FFFFFF" d="M702.5,255.8c0,0.3-0.1,0.7-0.2,1c-0.1,0.3-0.3,0.5-0.6,0.7s-0.5,0.4-0.8,0.5c-0.3,0.1-0.7,0.2-1,0.2h-4.3
			v-9h4.5c0.3,0,0.6,0.1,0.9,0.2s0.5,0.3,0.6,0.5c0.2,0.2,0.3,0.5,0.4,0.7c0.1,0.3,0.1,0.6,0.1,0.8c0,0.5-0.1,0.9-0.3,1.2
			c-0.2,0.4-0.5,0.7-1,0.9c0.5,0.2,0.9,0.4,1.2,0.8C702.3,254.8,702.5,255.3,702.5,255.8z M696.7,250.1v3h2.9c0.2,0,0.4,0,0.6-0.1
			s0.3-0.2,0.4-0.3s0.2-0.3,0.3-0.5s0.1-0.4,0.1-0.6c0-0.2,0-0.4-0.1-0.6c-0.1-0.2-0.2-0.3-0.3-0.5c-0.1-0.1-0.3-0.2-0.4-0.3
			c-0.2-0.1-0.3-0.1-0.5-0.1H696.7z M701.3,255.6c0-0.2,0-0.4-0.1-0.6c-0.1-0.2-0.2-0.4-0.3-0.5s-0.3-0.3-0.4-0.3
			c-0.2-0.1-0.4-0.1-0.6-0.1h-3.2v3.1h3.1c0.2,0,0.4,0,0.6-0.1c0.2-0.1,0.3-0.2,0.5-0.3c0.1-0.1,0.2-0.3,0.3-0.5
			C701.3,256,701.3,255.8,701.3,255.6z"/>
		<path fill="#FFFFFF" d="M707.5,258.3c-0.5,0-1-0.1-1.4-0.3c-0.4-0.2-0.8-0.4-1.1-0.8s-0.5-0.7-0.7-1.1s-0.2-0.9-0.2-1.3
			c0-0.5,0.1-0.9,0.2-1.3c0.2-0.4,0.4-0.8,0.7-1.1c0.3-0.3,0.6-0.6,1.1-0.8s0.9-0.3,1.4-0.3s0.9,0.1,1.4,0.3s0.8,0.4,1.1,0.8
			c0.3,0.3,0.5,0.7,0.7,1.1c0.2,0.4,0.2,0.9,0.2,1.3c0,0.5-0.1,0.9-0.2,1.3c-0.2,0.4-0.4,0.8-0.7,1.1c-0.3,0.3-0.7,0.6-1.1,0.8
			C708.5,258.2,708,258.3,707.5,258.3z M705.3,254.9c0,0.3,0.1,0.7,0.2,1c0.1,0.3,0.3,0.6,0.5,0.8s0.4,0.4,0.7,0.5
			c0.3,0.1,0.6,0.2,0.9,0.2s0.6-0.1,0.9-0.2c0.3-0.1,0.5-0.3,0.7-0.5c0.2-0.2,0.4-0.5,0.5-0.8c0.1-0.3,0.2-0.6,0.2-1
			c0-0.3-0.1-0.7-0.2-1c-0.1-0.3-0.3-0.6-0.5-0.8c-0.2-0.2-0.4-0.4-0.7-0.5c-0.3-0.1-0.6-0.2-0.9-0.2s-0.6,0.1-0.9,0.2
			c-0.3,0.1-0.5,0.3-0.7,0.5c-0.2,0.2-0.4,0.5-0.5,0.8C705.4,254.2,705.3,254.5,705.3,254.9z"/>
		<path fill="#FFFFFF" d="M715.9,258.3c-0.5,0-1-0.1-1.4-0.3c-0.4-0.2-0.8-0.4-1.1-0.8s-0.5-0.7-0.7-1.1s-0.2-0.9-0.2-1.3
			c0-0.5,0.1-0.9,0.2-1.3c0.2-0.4,0.4-0.8,0.7-1.1c0.3-0.3,0.6-0.6,1.1-0.8s0.9-0.3,1.4-0.3s0.9,0.1,1.4,0.3s0.8,0.4,1.1,0.8
			c0.3,0.3,0.5,0.7,0.7,1.1c0.2,0.4,0.2,0.9,0.2,1.3c0,0.5-0.1,0.9-0.2,1.3c-0.2,0.4-0.4,0.8-0.7,1.1c-0.3,0.3-0.7,0.6-1.1,0.8
			C716.9,258.2,716.4,258.3,715.9,258.3z M713.7,254.9c0,0.3,0.1,0.7,0.2,1c0.1,0.3,0.3,0.6,0.5,0.8s0.4,0.4,0.7,0.5
			c0.3,0.1,0.6,0.2,0.9,0.2s0.6-0.1,0.9-0.2c0.3-0.1,0.5-0.3,0.7-0.5c0.2-0.2,0.4-0.5,0.5-0.8c0.1-0.3,0.2-0.6,0.2-1
			c0-0.3-0.1-0.7-0.2-1c-0.1-0.3-0.3-0.6-0.5-0.8c-0.2-0.2-0.4-0.4-0.7-0.5c-0.3-0.1-0.6-0.2-0.9-0.2s-0.6,0.1-0.9,0.2
			c-0.3,0.1-0.5,0.3-0.7,0.5c-0.2,0.2-0.4,0.5-0.5,0.8C713.8,254.2,713.7,254.5,713.7,254.9z"/>
		<path fill="#FFFFFF" d="M724.7,257.8c-0.1,0-0.2,0.1-0.3,0.1s-0.2,0.1-0.4,0.1c-0.1,0-0.3,0.1-0.5,0.1c-0.2,0-0.3,0-0.5,0
			c-0.4,0-0.8-0.1-1.1-0.3c-0.3-0.2-0.4-0.6-0.4-1.1v-4.5h-0.9v-0.9h0.9v-2.2h1.1v2.2h1.5v0.9h-1.5v4.1c0,0.2,0.1,0.4,0.2,0.5
			s0.3,0.2,0.5,0.2c0.2,0,0.4,0,0.6-0.1s0.3-0.1,0.4-0.2L724.7,257.8z"/>
		<path fill="#FFFFFF" d="M728.8,258.3c-0.5,0-1.1-0.1-1.6-0.2c-0.5-0.2-1-0.4-1.3-0.7l0.5-0.8c0.4,0.3,0.8,0.5,1.2,0.7
			c0.4,0.1,0.8,0.2,1.2,0.2c0.5,0,0.9-0.1,1.2-0.3c0.3-0.2,0.4-0.5,0.4-0.8c0-0.2,0-0.3-0.1-0.4s-0.2-0.2-0.3-0.3
			c-0.2-0.1-0.3-0.2-0.6-0.2c-0.2-0.1-0.5-0.1-0.8-0.2c-0.4-0.1-0.7-0.2-1-0.3c-0.3-0.1-0.5-0.2-0.7-0.3c-0.2-0.1-0.3-0.3-0.4-0.5
			c-0.1-0.2-0.1-0.4-0.1-0.7c0-0.3,0.1-0.6,0.2-0.9c0.1-0.3,0.3-0.5,0.5-0.6s0.5-0.3,0.8-0.4c0.3-0.1,0.6-0.1,1-0.1
			c0.5,0,1,0.1,1.4,0.2c0.4,0.2,0.8,0.4,1.1,0.6l-0.5,0.7c-0.3-0.2-0.6-0.4-0.9-0.6c-0.3-0.1-0.7-0.2-1.1-0.2c-0.4,0-0.8,0.1-1,0.3
			c-0.3,0.2-0.4,0.5-0.4,0.8c0,0.2,0,0.3,0.1,0.4c0.1,0.1,0.1,0.2,0.3,0.3c0.1,0.1,0.3,0.1,0.5,0.2c0.2,0.1,0.4,0.1,0.7,0.2
			c0.4,0.1,0.8,0.2,1.2,0.3c0.3,0.1,0.6,0.2,0.8,0.4c0.2,0.1,0.4,0.3,0.5,0.5s0.2,0.4,0.2,0.7c0,0.6-0.2,1.1-0.7,1.5
			S729.6,258.3,728.8,258.3z"/>
		<path fill="#FFFFFF" d="M736.9,257.8c-0.1,0-0.2,0.1-0.3,0.1s-0.2,0.1-0.4,0.1c-0.1,0-0.3,0.1-0.5,0.1c-0.2,0-0.3,0-0.5,0
			c-0.4,0-0.8-0.1-1.1-0.3c-0.3-0.2-0.4-0.6-0.4-1.1v-4.5h-0.9v-0.9h0.9v-2.2h1.1v2.2h1.5v0.9h-1.5v4.1c0,0.2,0.1,0.4,0.2,0.5
			s0.3,0.2,0.5,0.2c0.2,0,0.4,0,0.6-0.1s0.3-0.1,0.4-0.2L736.9,257.8z"/>
		<path fill="#FFFFFF" d="M742.2,252.5c-0.6,0-1.1,0.2-1.5,0.4s-0.7,0.6-0.9,1.1v4.1h-1.1v-6.6h1v1.5c0.2-0.5,0.5-0.8,0.9-1.1
			c0.4-0.3,0.8-0.5,1.2-0.5c0.1,0,0.2,0,0.2,0c0.1,0,0.1,0,0.2,0V252.5z"/>
		<path fill="#FFFFFF" d="M745.7,258.3c-0.3,0-0.6-0.1-0.9-0.2c-0.3-0.1-0.5-0.3-0.7-0.4c-0.2-0.2-0.4-0.4-0.5-0.6
			c-0.1-0.3-0.2-0.5-0.2-0.8c0-0.3,0.1-0.6,0.2-0.9s0.3-0.5,0.6-0.7c0.3-0.2,0.5-0.3,0.9-0.4c0.3-0.1,0.7-0.1,1.1-0.1
			c0.3,0,0.6,0,1,0.1s0.6,0.1,0.9,0.2V254c0-0.5-0.2-1-0.5-1.3c-0.3-0.3-0.7-0.5-1.3-0.5c-0.7,0-1.4,0.3-2.1,0.8l-0.4-0.7
			c0.4-0.3,0.9-0.5,1.3-0.6s0.9-0.2,1.3-0.2c0.8,0,1.5,0.2,2,0.7c0.5,0.5,0.7,1.1,0.7,2v2.7c0,0.3,0.1,0.4,0.4,0.4v1
			c-0.1,0-0.2,0-0.2,0c-0.1,0-0.1,0-0.2,0c-0.2,0-0.4-0.1-0.5-0.2c-0.2-0.1-0.3-0.3-0.3-0.5l0-0.5c-0.2,0.2-0.3,0.4-0.5,0.5
			c-0.2,0.2-0.4,0.3-0.6,0.4c-0.2,0.1-0.4,0.2-0.7,0.2S745.9,258.3,745.7,258.3z M746,257.4c0.4,0,0.7-0.1,1-0.2
			c0.3-0.2,0.6-0.3,0.8-0.6c0.2-0.2,0.2-0.4,0.2-0.5v-1c-0.3-0.1-0.5-0.2-0.8-0.2c-0.3-0.1-0.6-0.1-0.8-0.1c-0.6,0-1,0.1-1.4,0.3
			c-0.3,0.2-0.5,0.6-0.5,1c0,0.2,0,0.3,0.1,0.5c0.1,0.2,0.2,0.3,0.3,0.4c0.1,0.1,0.3,0.2,0.5,0.3S745.8,257.4,746,257.4z"/>
		<path fill="#FFFFFF" d="M755.4,258.3c-0.6,0-1-0.1-1.5-0.4c-0.4-0.3-0.8-0.6-1-1v4h-1.1v-9.4h1v1.2c0.3-0.4,0.6-0.7,1-1
			c0.4-0.3,0.9-0.4,1.4-0.4c0.5,0,0.9,0.1,1.3,0.3s0.7,0.4,1,0.8s0.5,0.7,0.7,1.1s0.2,0.8,0.2,1.3c0,0.5-0.1,0.9-0.2,1.3
			c-0.1,0.4-0.3,0.8-0.6,1.1c-0.3,0.3-0.6,0.6-0.9,0.7S755.8,258.3,755.4,258.3z M755,257.3c0.3,0,0.6-0.1,0.9-0.2
			c0.3-0.1,0.5-0.3,0.7-0.6s0.3-0.5,0.4-0.8c0.1-0.3,0.2-0.6,0.2-0.9c0-0.3-0.1-0.6-0.2-0.9s-0.3-0.6-0.5-0.8
			c-0.2-0.2-0.4-0.4-0.7-0.5c-0.3-0.1-0.6-0.2-0.9-0.2c-0.2,0-0.4,0-0.6,0.1c-0.2,0.1-0.4,0.2-0.6,0.3s-0.4,0.3-0.5,0.5
			c-0.1,0.2-0.2,0.4-0.3,0.6v1.9c0.1,0.2,0.2,0.4,0.4,0.6c0.1,0.2,0.3,0.4,0.5,0.5c0.2,0.1,0.4,0.3,0.6,0.3
			C754.6,257.3,754.8,257.3,755,257.3z"/>
	</g>
	<g>
		<path fill="#FFFFFF" d="M287.7,209.3c0,1.1-0.8,1.9-1.9,1.9H284l3.6,4.3h-1.7l-3.6-4.3h-4.2c-0.2,0-0.4,0-0.6-0.1v4.4h-1.3V204
			h9.6c1.1,0,1.9,0.9,1.9,1.9V209.3z M285.8,209.9c0.3,0,0.6-0.3,0.6-0.6V206c0-0.3-0.3-0.6-0.6-0.6h-7.7c-0.3,0-0.6,0.3-0.6,0.6
			v3.4c0,0.3,0.3,0.6,0.6,0.6H285.8z"/>
		<path fill="#FFFFFF" d="M301.7,205.3h-9.2v3.8h7.4v1.3h-7.4v3.8h9.2v1.3h-10.5V204h10.5V205.3z"/>
		<path fill="#FFFFFF" d="M316.5,206.4h-1.3v-0.4c0-0.3-0.3-0.6-0.6-0.6h-7.7c-0.3,0-0.6,0.3-0.6,0.6v2.6c0,0.3,0.3,0.6,0.6,0.6h7.7
			c1.1,0,1.9,0.9,1.9,1.9v2.6c0,1.1-0.8,1.9-1.9,1.9h-7.7c-1.1,0-1.9-0.8-1.9-1.9v-0.4h1.3v0.4c0,0.3,0.3,0.6,0.6,0.6h7.7
			c0.3,0,0.6-0.3,0.6-0.6V211c0-0.3-0.3-0.6-0.6-0.6h-7.7c-1.1,0-1.9-0.9-1.9-1.9v-2.6c0-1.1,0.8-1.9,1.9-1.9h7.7
			c1.1,0,1.9,0.8,1.9,1.9V206.4z"/>
		<path fill="#FFFFFF" d="M330.9,204v1.3h-5.1v10.2h-1.3v-10.2h-5.1V204H330.9z"/>
		<path fill="#FFFFFF" d="M349.6,204c1.1,0,1.9,0.8,1.9,1.9v9.6h-1.3v-4.2h-8.9v4.2h-1.3v-9.6c0-1.1,0.8-1.9,1.9-1.9H349.6z
			 M350.2,210v-4.1c0-0.3-0.3-0.6-0.6-0.6h-7.7c-0.3,0-0.6,0.3-0.6,0.6v4.1H350.2z"/>
		<path fill="#FFFFFF" d="M364.6,204c1.1,0,1.9,0.9,1.9,1.9v3.4c0,1.1-0.8,1.9-1.9,1.9h-7.7c-0.1,0-0.4,0-0.6-0.1v4.4H355V204H364.6
			z M365.3,206c0-0.3-0.3-0.6-0.6-0.6h-7.7c-0.3,0-0.6,0.3-0.6,0.6v3.4c0,0.3,0.3,0.6,0.6,0.6h7.7c0.3,0,0.6-0.3,0.6-0.6V206z"/>
		<path fill="#FFFFFF" d="M369.4,204h1.3v11.5h-1.3V204z"/>
		<path fill="#FFFFFF" d="M392.2,206.4h-1.3v-0.4c0-0.3-0.3-0.6-0.6-0.6h-7.7c-0.3,0-0.6,0.3-0.6,0.6v2.6c0,0.3,0.3,0.6,0.6,0.6h7.7
			c1.1,0,1.9,0.9,1.9,1.9v2.6c0,1.1-0.8,1.9-1.9,1.9h-7.7c-1.1,0-1.9-0.8-1.9-1.9v-0.4h1.3v0.4c0,0.3,0.3,0.6,0.6,0.6h7.7
			c0.3,0,0.6-0.3,0.6-0.6V211c0-0.3-0.3-0.6-0.6-0.6h-7.7c-1.1,0-1.9-0.9-1.9-1.9v-2.6c0-1.1,0.8-1.9,1.9-1.9h7.7
			c1.1,0,1.9,0.8,1.9,1.9V206.4z"/>
		<path fill="#FFFFFF" d="M405,208.2v3.4h-8.1v2c0,0.3,0.3,0.6,0.6,0.6h7.5v1.3h-7.5c-1.1,0-1.9-0.9-1.9-1.9v-5.4
			c0-1.1,0.9-1.9,1.9-1.9h5.6C404.1,206.3,405,207.1,405,208.2z M403.7,210.2v-2c0-0.3-0.3-0.6-0.6-0.6h-5.6c-0.3,0-0.6,0.3-0.6,0.6
			v2H403.7z"/>
		<path fill="#FFFFFF" d="M415.4,206.3v1.3h-5.2c-0.3,0-0.6,0.3-0.6,0.6v7.3h-1.3v-7.3c0-1.1,0.9-1.9,1.9-1.9H415.4z"/>
		<path fill="#FFFFFF" d="M429.5,206.3l-5.1,9.3h-1.5c-1.7-3.1-3.4-6.2-5.1-9.3h1.5l4.4,8l4.4-8H429.5z"/>
		<path fill="#FFFFFF" d="M441.5,208.2v3.4h-8.1v2c0,0.3,0.3,0.6,0.6,0.6h7.5v1.3H434c-1.1,0-1.9-0.9-1.9-1.9v-5.4
			c0-1.1,0.9-1.9,1.9-1.9h5.6C440.7,206.3,441.5,207.1,441.5,208.2z M440.2,210.2v-2c0-0.3-0.3-0.6-0.6-0.6H434
			c-0.3,0-0.6,0.3-0.6,0.6v2H440.2z"/>
		<path fill="#FFFFFF" d="M452,206.3v1.3h-5.2c-0.3,0-0.6,0.3-0.6,0.6v7.3h-1.3v-7.3c0-1.1,0.9-1.9,1.9-1.9H452z"/>
		<path fill="#FFFFFF" d="M464,207.7v2.4h2.5v1.3H464v2.5h-1.3v-2.5h-2.4v-1.3h2.4v-2.4H464z"/>
		<path fill="#FFFFFF" d="M493.1,204l-4.2,11.5h-1.1l-3.6-9.8l-3.6,9.8h-1.1l-4.2-11.5h1.4l3.4,9.3c1-2.8,2.3-6.4,3.4-9.3h1.6
			l3.4,9.3c1-2.8,2.3-6.4,3.3-9.3H493.1z"/>
		<path fill="#FFFFFF" d="M505,208.2v3.4h-8.1v2c0,0.3,0.3,0.6,0.6,0.6h7.5v1.3h-7.5c-1.1,0-1.9-0.9-1.9-1.9v-5.4
			c0-1.1,0.9-1.9,1.9-1.9h5.6C504.1,206.3,505,207.1,505,208.2z M503.7,210.2v-2c0-0.3-0.3-0.6-0.6-0.6h-5.6c-0.3,0-0.6,0.3-0.6,0.6
			v2H503.7z"/>
		<path fill="#FFFFFF" d="M517.9,208.2v5.4c0,1.1-0.9,1.9-1.9,1.9h-7.5v-12.3h1.3v3h6.2C517,206.3,517.9,207.1,517.9,208.2z
			 M516.5,208.2c0-0.3-0.3-0.6-0.6-0.6h-5.6c-0.4,0-0.6,0.3-0.6,0.6v5.4c0,0.3,0.3,0.6,0.6,0.6h5.6c0.3,0,0.6-0.3,0.6-0.6V208.2z"/>
		<path fill="#FFFFFF" d="M536.5,204c1.1,0,1.9,0.8,1.9,1.9v9.6h-1.3v-4.2h-8.9v4.2h-1.3v-9.6c0-1.1,0.8-1.9,1.9-1.9H536.5z
			 M537.2,210v-4.1c0-0.3-0.3-0.6-0.6-0.6h-7.7c-0.3,0-0.6,0.3-0.6,0.6v4.1H537.2z"/>
		<path fill="#FFFFFF" d="M551.4,208.2v5.4c0,1.1-0.9,1.9-1.9,1.9h-6.2v3.7H542v-13h7.5C550.6,206.3,551.4,207.1,551.4,208.2z
			 M550.1,208.2c0-0.3-0.3-0.6-0.6-0.6h-5.6c-0.4,0-0.6,0.3-0.6,0.6v5.4c0,0.3,0.3,0.6,0.6,0.6h5.6c0.3,0,0.6-0.3,0.6-0.6V208.2z"/>
		<path fill="#FFFFFF" d="M563.8,208.2v5.4c0,1.1-0.9,1.9-1.9,1.9h-6.2v3.7h-1.3v-13h7.5C562.9,206.3,563.8,207.1,563.8,208.2z
			 M562.5,208.2c0-0.3-0.3-0.6-0.6-0.6h-5.6c-0.4,0-0.6,0.3-0.6,0.6v5.4c0,0.3,0.3,0.6,0.6,0.6h5.6c0.3,0,0.6-0.3,0.6-0.6V208.2z"/>
		<path fill="#FFFFFF" d="M568,203.2v10.4c0,0.3,0.3,0.6,0.6,0.6h1.6v1.3h-1.6c-1.1,0-1.9-0.9-1.9-1.9v-10.4H568z"/>
		<path fill="#FFFFFF" d="M574.5,203.2v1.3h-1.3v-1.3H574.5z M573.2,206.3h1.3v9.3h-1.3V206.3z"/>
		<path fill="#FFFFFF" d="M587.5,214.2v1.3h-7.5c-1.1,0-1.9-0.9-1.9-1.9v-5.4c0-1.1,0.9-1.9,1.9-1.9h7.5v1.3h-7.5
			c-0.3,0-0.6,0.3-0.6,0.6v5.4c0,0.3,0.3,0.6,0.6,0.6H587.5z"/>
		<path fill="#FFFFFF" d="M600.3,208.2v7.3h-7.5c-1.1,0-1.9-0.9-1.9-1.9v-3.4h8.1v-2c0-0.3-0.3-0.6-0.6-0.6h-7.5v-1.3h7.5
			C599.5,206.3,600.3,207.1,600.3,208.2z M599,211.6h-6.8v2c0,0.3,0.3,0.6,0.6,0.6h6.2V211.6z"/>
		<path fill="#FFFFFF" d="M605,207.6v6c0,0.3,0.3,0.6,0.6,0.6h3.4v1.3h-3.4c-1.1,0-1.9-0.9-1.9-1.9v-10.4h1.3v3h4v1.3H605z"/>
		<path fill="#FFFFFF" d="M613.4,203.2v1.3h-1.3v-1.3H613.4z M612.1,206.3h1.3v9.3h-1.3V206.3z"/>
		<path fill="#FFFFFF" d="M624.6,206.3c1.1,0,2,0.9,2,1.9v5.4c0,1.1-0.9,1.9-2,1.9h-5.6c-1.1,0-1.9-0.9-1.9-1.9v-5.4
			c0-1.1,0.9-1.9,1.9-1.9H624.6z M619.1,207.6c-0.3,0-0.6,0.3-0.6,0.6v5.4c0,0.3,0.3,0.6,0.6,0.6h5.6c0.4,0,0.6-0.3,0.6-0.6v-5.4
			c0-0.3-0.3-0.6-0.6-0.6H619.1z"/>
		<path fill="#FFFFFF" d="M639.2,208.2v7.3h-1.3v-7.3c0-0.3-0.3-0.6-0.6-0.6h-5.6c-0.4,0-0.6,0.3-0.6,0.6v7.3h-1.3v-9.3h7.5
			C638.3,206.3,639.2,207.1,639.2,208.2z"/>
	</g>
</g>
</svg>
