<?xml version="1.0" encoding="UTF-8"?>
<svg width="888px" height="255px" viewBox="0 0 888 255" version="1.1" xmlns="http://www.w3.org/2000/svg" xmlns:xlink="http://www.w3.org/1999/xlink">
    <!-- Generator: Sketch 46.2 (44496) - http://www.bohemiancoding.com/sketch -->
    <title>logo</title>
    <desc>Created with Sketch.</desc>
    <defs></defs>
    <g id="Page-1" stroke="none" stroke-width="1" fill="none" fill-rule="evenodd">
        <g id="logo">
            <path d="M236.164948,55.9456869 C234.886598,54.6996805 233.608247,53.8690096 232.116838,53.0383387 C230.62543,52.4153355 228.920962,52 227.216495,52 L190.783505,52 C189.079038,52 187.37457,52.4153355 185.883162,53.0383387 C184.178694,53.8690096 182.900344,54.9073482 181.835052,55.9456869 C180.769759,57.1916933 179.704467,58.6453674 179.065292,60.0990415 C178.426117,61.9680511 178,63.629393 178,65.4984026 L178,103.709265 C178,105.578275 178.426117,107.239617 179.065292,108.900958 C179.704467,110.5623 180.556701,112.015974 181.835052,113.054313 C182.900344,114.300319 184.391753,115.13099 185.883162,115.961661 C187.37457,116.584665 189.079038,117 190.783505,117 L227.216495,117 C228.920962,117 230.62543,116.584665 232.116838,115.961661 C233.608247,115.338658 235.099656,114.300319 236.164948,113.054313 C237.443299,111.808307 238.295533,110.354633 238.934708,108.900958 C239.573883,107.239617 240,105.578275 240,103.709265 L240,65.4984026 C240,63.629393 239.573883,61.9680511 238.934708,60.3067093 C238.295533,58.6453674 237.443299,57.1916933 236.164948,55.9456869 Z M226,102 L192,102 L192,64 L226,64 L226,102 Z M313.460411,67.9960317 C312.419355,66.734127 311.170088,65.8928571 309.504399,65.0515873 C308.046921,64.4206349 306.381232,64 304.715543,64 L246,64 L246,116.789683 L258.909091,116.789683 L258.909091,78.0912698 L275.14956,78.0912698 L275.14956,117 L288.058651,117 L288.058651,78.0912698 L304.29912,78.0912698 L304.29912,117 L317,117 L317,77.25 C317,75.3571429 316.583578,73.6746032 315.958944,72.202381 C315.334311,70.7301587 314.501466,69.2579365 313.460411,67.9960317 Z M368.025105,68.0119522 C366.979079,66.7450199 365.723849,65.9003984 364.050209,65.0557769 C362.585774,64.4223108 360.912134,64 359.238494,64 L322,64 L322,77.936255 L358.610879,77.936255 L358.610879,83.4262948 L322,83.4262948 L322,103.697211 C322,105.59761 322.41841,107.286853 323.046025,108.76494 C323.67364,110.454183 324.51046,111.721116 325.76569,112.988048 C326.811715,114.25498 328.066946,115.099602 329.740586,115.944223 C331.205021,116.577689 332.878661,117 334.552301,117 L372,117 L372,77.3027888 C372,75.4023904 371.58159,73.7131474 370.953975,72.2350598 C369.90795,70.7569721 369.07113,69.2788845 368.025105,68.0119522 Z M361,103 L336,103 L336,96 L361,96 L361,103 Z M386.675532,65.0557769 C385.223404,65.689243 383.978723,66.7450199 382.734043,68.0119522 C381.696809,69.2788845 380.659574,70.5458167 380.037234,72.2350598 C379.414894,73.9243028 379,75.6135458 379,77.3027888 L379,117 L391.861702,117 L391.861702,78.1474104 L418,78.1474104 L418,64 L391.239362,64 C389.787234,64 388.12766,64.4223108 386.675532,65.0557769 Z M501.164948,55.9583333 C500.099656,54.7083333 498.608247,53.875 497.116838,53.0416667 C495.62543,52.4166667 493.920962,52 492.216495,52 L455.783505,52 C454.079038,52 452.37457,52.4166667 450.883162,53.0416667 C449.391753,53.6666667 447.900344,54.7083333 446.835052,55.9583333 C445.769759,57.2083333 444.704467,58.6666667 444.065292,60.125 C443.426117,61.7916667 443,63.4583333 443,65.3333333 L443,117 L456.42268,117 L456.42268,96.1666667 L491.57732,96.1666667 L491.57732,117 L505,117 L505,65.5416667 C505,63.6666667 504.573883,62 503.934708,60.3333333 C503.295533,58.6666667 502.230241,57.2083333 501.164948,55.9583333 Z M491,80 L457,80 L457,64 L491,64 L491,80 Z M522.405405,46 L509,46 L509,102.796407 C509,104.682635 509.432432,106.359281 510.081081,107.826347 C510.72973,109.502994 511.594595,110.760479 512.891892,112.017964 C513.972973,113.275449 515.486486,114.113772 517,114.952096 C518.513514,115.580838 520.243243,116 521.972973,116 L533,116 L533,102.167665 L522.837838,102.167665 L522.837838,46 L522.405405,46 Z M583.041667,67.1676647 C582,65.9101796 580.75,65.0718563 579.083333,64.2335329 C577.625,63.6047904 575.958333,63.1856287 574.291667,63.1856287 L549.916667,63.1856287 L549.916667,46 L537,46 L537,116 L574.5,116 C576.166667,116 577.833333,115.580838 579.291667,114.952096 C580.75,114.323353 582,113.275449 583.25,112.017964 C584.291667,110.760479 585.125,109.502994 585.958333,107.826347 C586.583333,106.149701 587,104.473054 587,102.796407 L587,76.3892216 C587,74.502994 586.583333,72.8263473 585.958333,71.3592814 C585.125,69.8922156 584.083333,68.4251497 583.041667,67.1676647 Z M573,102 L548,102 L548,77 L573,77 L573,102 Z M636.443515,67.9960317 C635.39749,66.734127 634.142259,65.8928571 632.468619,65.0515873 C631.004184,64.4206349 629.330544,64 627.656904,64 L602.552301,64 C600.878661,64 599.205021,64.4206349 597.740586,65.0515873 C596.276151,65.6825397 595.020921,66.734127 593.76569,67.9960317 C592.719665,69.2579365 591.67364,70.5198413 591.046025,72.202381 C590.41841,73.8849206 590,75.5674603 590,77.25 L590,103.75 C590,105.642857 590.41841,107.325397 591.046025,108.797619 C591.67364,110.480159 592.51046,111.742063 593.76569,113.003968 C594.811715,114.265873 596.276151,115.107143 597.740586,115.948413 C599.205021,116.579365 600.878661,117 602.552301,117 L640,117 L640,103.119048 L603.179916,103.119048 L603.179916,97.6507937 L640,97.6507937 L640,77.4603175 C640,75.5674603 639.58159,73.8849206 638.953975,72.4126984 C638.32636,70.7301587 637.48954,69.2579365 636.443515,67.9960317 Z M627,84 L602,84 L602,77 L627,77 L627,84 Z M642,117 L656,117 L656,64 L642,64 L642,117 Z M642,60 L656,60 L656,46 L642,46 L642,60 Z M710,63.1856287 L697.07234,63.1856287 L680.391489,82.4670659 L673.92766,82.4670659 L673.92766,46 L661,46 L661,116 L673.92766,116 L673.92766,96.7185629 L680.391489,96.7185629 L697.07234,116 L710,116 L710,111.179641 L691.859574,89.5928144 L710,68.005988 L710,63.1856287 Z" id="Shape" fill="#373737" fill-rule="nonzero"></path>
            <g id="Group" transform="translate(119.000000, 140.000000)">
                <text id="Django" font-family="OpenSans, Open Sans" font-size="20" font-weight="normal" letter-spacing="-2.0492115" fill="#000000">
                    <tspan x="0" y="21">Django</tspan>
                </text>
                <text id="Python-3" font-family="OpenSans, Open Sans" font-size="20" font-weight="normal" letter-spacing="-2.0492115" fill="#000000">
                    <tspan x="81.5" y="21">Python 3</tspan>
                </text>
                <text id="PostgreSQL-Copy" font-family="OpenSans, Open Sans" font-size="20" font-weight="normal" letter-spacing="-2.0492115" fill="#000000">
                    <tspan x="176" y="21">PostgreSQL</tspan>
                </text>
                <circle id="Oval" fill="#F95826" cx="67.75" cy="13.5" r="2.5"></circle>
                <circle id="Oval-Copy-2" fill="#F95826" cx="162.25" cy="13.5" r="2.5"></circle>
                <text id="React-JS" font-family="OpenSans, Open Sans" font-size="20" font-weight="normal" letter-spacing="-2.0492115" fill="#000000">
                    <tspan x="291.5" y="21">React JS</tspan>
                </text>
                <text id="React-Router" font-family="OpenSans, Open Sans" font-size="20" font-weight="normal" letter-spacing="-2.0492115" fill="#000000">
                    <tspan x="452.5" y="21">React Router</tspan>
                </text>
                <text id="Bootstrap" font-family="OpenSans, Open Sans" font-size="20" font-weight="normal" letter-spacing="-2.0492115" fill="#000000">
                    <tspan x="576" y="21">Bootstrap</tspan>
                </text>
                <text id="Redux" font-family="OpenSans, Open Sans" font-size="20" font-weight="normal" letter-spacing="-2.0492115" fill="#000000">
                    <tspan x="376" y="21">Redux</tspan>
                </text>
                <circle id="Oval-Copy-4" fill="#F95826" cx="277.75" cy="13.5" r="2.5"></circle>
                <circle id="Oval-Copy-3" fill="#F95826" cx="562.25" cy="13.5" r="2.5"></circle>
                <circle id="Oval-Copy" fill="#F95826" cx="438.75" cy="13.5" r="2.5"></circle>
                <circle id="Oval-Copy-2" fill="#F95826" cx="362.25" cy="13.5" r="2.5"></circle>
            </g>
            <rect id="Rectangle" fill="#F95826" x="0" y="200" width="888" height="55"></rect>
            <rect id="Rectangle-Copy" fill="#F95826" x="0" y="0" width="888" height="6"></rect>
            <text id="REST-API-SERVER-+-WE" font-family="ShareTechMono-Regular, Share Tech Mono" font-size="27" font-weight="normal" letter-spacing="-1.65986156" fill="#FFFFFF">
                <tspan x="231" y="237">REST API SERVER + WEB APPLICATION</tspan>
            </text>
        </g>
    </g>
</svg>